G04 #@! TF.GenerationSoftware,KiCad,Pcbnew,9.0.7*
G04 #@! TF.CreationDate,2026-03-12T00:43:15-06:00*
G04 #@! TF.ProjectId,Power_Motor_Board_v2,506f7765-725f-44d6-9f74-6f725f426f61,rev?*
G04 #@! TF.SameCoordinates,Original*
G04 #@! TF.FileFunction,Soldermask,Top*
G04 #@! TF.FilePolarity,Negative*
%FSLAX46Y46*%
G04 Gerber Fmt 4.6, Leading zero omitted, Abs format (unit mm)*
G04 Created by KiCad (PCBNEW 9.0.7) date 2026-03-12 00:43:15*
%MOMM*%
%LPD*%
G01*
G04 APERTURE LIST*
G04 Aperture macros list*
%AMRoundRect*
0 Rectangle with rounded corners*
0 $1 Rounding radius*
0 $2 $3 $4 $5 $6 $7 $8 $9 X,Y pos of 4 corners*
0 Add a 4 corners polygon primitive as box body*
4,1,4,$2,$3,$4,$5,$6,$7,$8,$9,$2,$3,0*
0 Add four circle primitives for the rounded corners*
1,1,$1+$1,$2,$3*
1,1,$1+$1,$4,$5*
1,1,$1+$1,$6,$7*
1,1,$1+$1,$8,$9*
0 Add four rect primitives between the rounded corners*
20,1,$1+$1,$2,$3,$4,$5,0*
20,1,$1+$1,$4,$5,$6,$7,0*
20,1,$1+$1,$6,$7,$8,$9,0*
20,1,$1+$1,$8,$9,$2,$3,0*%
G04 Aperture macros list end*
%ADD10RoundRect,0.250000X0.650000X-0.412500X0.650000X0.412500X-0.650000X0.412500X-0.650000X-0.412500X0*%
%ADD11C,1.700000*%
%ADD12R,1.700000X1.700000*%
%ADD13C,1.560000*%
%ADD14R,1.560000X1.560000*%
%ADD15C,1.800000*%
%ADD16R,1.800000X1.800000*%
%ADD17R,3.800000X2.030000*%
%ADD18RoundRect,0.250000X-1.100000X0.412500X-1.100000X-0.412500X1.100000X-0.412500X1.100000X0.412500X0*%
%ADD19RoundRect,0.250000X2.500000X-0.475000X2.500000X0.475000X-2.500000X0.475000X-2.500000X-0.475000X0*%
%ADD20RoundRect,0.250000X0.412500X0.650000X-0.412500X0.650000X-0.412500X-0.650000X0.412500X-0.650000X0*%
%ADD21RoundRect,0.162500X0.162500X-0.837500X0.162500X0.837500X-0.162500X0.837500X-0.162500X-0.837500X0*%
%ADD22RoundRect,0.250001X-0.462499X-0.624999X0.462499X-0.624999X0.462499X0.624999X-0.462499X0.624999X0*%
%ADD23C,3.200000*%
%ADD24RoundRect,0.250000X-0.650000X0.412500X-0.650000X-0.412500X0.650000X-0.412500X0.650000X0.412500X0*%
%ADD25RoundRect,0.250000X-0.412500X-0.650000X0.412500X-0.650000X0.412500X0.650000X-0.412500X0.650000X0*%
%ADD26RoundRect,0.345000X1.805000X0.805000X-1.805000X0.805000X-1.805000X-0.805000X1.805000X-0.805000X0*%
%ADD27R,1.460500X0.558800*%
%ADD28R,2.717800X3.403600*%
%ADD29RoundRect,0.250000X0.400000X0.625000X-0.400000X0.625000X-0.400000X-0.625000X0.400000X-0.625000X0*%
%ADD30RoundRect,0.250000X-0.400000X-0.625000X0.400000X-0.625000X0.400000X0.625000X-0.400000X0.625000X0*%
%ADD31RoundRect,0.345000X-1.805000X-0.805000X1.805000X-0.805000X1.805000X0.805000X-1.805000X0.805000X0*%
G04 APERTURE END LIST*
D10*
G04 #@! TO.C,C17*
X157000000Y-107615000D03*
X157000000Y-110740000D03*
G04 #@! TD*
D11*
G04 #@! TO.C,J5*
X152290000Y-45000000D03*
D12*
X149750000Y-45000000D03*
G04 #@! TD*
D13*
G04 #@! TO.C,J2A1*
X182150000Y-96910000D03*
X179610000Y-96910000D03*
X182150000Y-94370000D03*
X179610000Y-94370000D03*
X182150000Y-91830000D03*
X179610000Y-91830000D03*
X182150000Y-89290000D03*
X179610000Y-89290000D03*
X182150000Y-86750000D03*
X179610000Y-86750000D03*
X182150000Y-84210000D03*
X179610000Y-84210000D03*
X182150000Y-81670000D03*
X179610000Y-81670000D03*
X182150000Y-79130000D03*
X179610000Y-79130000D03*
X182150000Y-76590000D03*
X179610000Y-76590000D03*
X182150000Y-74050000D03*
X179610000Y-74050000D03*
X182150000Y-71510000D03*
X179610000Y-71510000D03*
X182150000Y-68970000D03*
X179610000Y-68970000D03*
X182150000Y-66430000D03*
X179610000Y-66430000D03*
X182150000Y-63890000D03*
X179610000Y-63890000D03*
X182150000Y-61350000D03*
X179610000Y-61350000D03*
X182150000Y-58810000D03*
X179610000Y-58810000D03*
X182150000Y-56270000D03*
X179610000Y-56270000D03*
X182150000Y-53730000D03*
X179610000Y-53730000D03*
X182150000Y-51190000D03*
D14*
X179610000Y-51190000D03*
D13*
X121190000Y-96910000D03*
X118650000Y-96910000D03*
X121190000Y-94370000D03*
X118650000Y-94370000D03*
X121190000Y-91830000D03*
X118650000Y-91830000D03*
X121190000Y-89290000D03*
X118650000Y-89290000D03*
X121190000Y-86750000D03*
X118650000Y-86750000D03*
X121190000Y-84210000D03*
X118650000Y-84210000D03*
X121190000Y-81670000D03*
X118650000Y-81670000D03*
X121190000Y-79130000D03*
X118650000Y-79130000D03*
X121190000Y-76590000D03*
X118650000Y-76590000D03*
X121190000Y-74050000D03*
X118650000Y-74050000D03*
X121190000Y-71510000D03*
X118650000Y-71510000D03*
X121190000Y-68970000D03*
X118650000Y-68970000D03*
X121190000Y-66430000D03*
X118650000Y-66430000D03*
X121190000Y-63890000D03*
X118650000Y-63890000D03*
X121190000Y-61350000D03*
X118650000Y-61350000D03*
X121190000Y-58810000D03*
X118650000Y-58810000D03*
X121190000Y-56270000D03*
X118650000Y-56270000D03*
X121190000Y-53730000D03*
X118650000Y-53730000D03*
X121190000Y-51190000D03*
D14*
X118650000Y-51190000D03*
G04 #@! TD*
D15*
G04 #@! TO.C,J1*
X163700000Y-124487500D03*
D16*
X158700000Y-124487500D03*
G04 #@! TD*
D17*
G04 #@! TO.C,TP2*
X134550000Y-63100000D03*
G04 #@! TD*
D18*
G04 #@! TO.C,C19*
X150000000Y-107637500D03*
X150000000Y-110762500D03*
G04 #@! TD*
D19*
G04 #@! TO.C,L2*
X146650000Y-104237500D03*
X146650000Y-100237500D03*
G04 #@! TD*
D18*
G04 #@! TO.C,C20*
X146300000Y-107637500D03*
X146300000Y-110762500D03*
G04 #@! TD*
D20*
G04 #@! TO.C,C18*
X154750000Y-104587500D03*
X151625000Y-104587500D03*
G04 #@! TD*
D21*
G04 #@! TO.C,IC4*
X152750000Y-110787500D03*
X153700000Y-110787500D03*
X154650000Y-110787500D03*
X154650000Y-107367500D03*
X153700000Y-107367500D03*
X152750000Y-107367500D03*
G04 #@! TD*
D22*
G04 #@! TO.C,F1*
X159762500Y-118287500D03*
X162737500Y-118287500D03*
G04 #@! TD*
D23*
G04 #@! TO.C,H2*
X191000000Y-46700000D03*
G04 #@! TD*
D24*
G04 #@! TO.C,C8*
X183050000Y-112333864D03*
X183050000Y-115458864D03*
G04 #@! TD*
D25*
G04 #@! TO.C,C11*
X124637500Y-56250000D03*
X127762500Y-56250000D03*
G04 #@! TD*
D26*
G04 #@! TO.C,C6*
X178300000Y-115795000D03*
X171000000Y-115795000D03*
G04 #@! TD*
D27*
G04 #@! TO.C,IC3*
X175050000Y-105690000D03*
X175050000Y-106960000D03*
X175050000Y-108230000D03*
X175050000Y-109500000D03*
X180498300Y-109500000D03*
X180498300Y-108230000D03*
X180498300Y-106960000D03*
X180498300Y-105690000D03*
D28*
X177774150Y-107595000D03*
G04 #@! TD*
D20*
G04 #@! TO.C,C12*
X127762500Y-58950000D03*
X124637500Y-58950000D03*
G04 #@! TD*
D23*
G04 #@! TO.C,H3*
X111000000Y-124500000D03*
G04 #@! TD*
D25*
G04 #@! TO.C,C10*
X124800000Y-69200000D03*
X127925000Y-69200000D03*
G04 #@! TD*
D20*
G04 #@! TO.C,C7*
X172512500Y-109296364D03*
X169387500Y-109296364D03*
G04 #@! TD*
D25*
G04 #@! TO.C,C14*
X129387500Y-113398636D03*
X132512500Y-113398636D03*
G04 #@! TD*
D10*
G04 #@! TO.C,C15*
X119750000Y-109961136D03*
X119750000Y-106836136D03*
G04 #@! TD*
D23*
G04 #@! TO.C,H1*
X111000000Y-46700000D03*
G04 #@! TD*
D29*
G04 #@! TO.C,R3*
X179350000Y-103000000D03*
X176250000Y-103000000D03*
G04 #@! TD*
G04 #@! TO.C,R7*
X172450000Y-103495000D03*
X169350000Y-103495000D03*
G04 #@! TD*
D25*
G04 #@! TO.C,C13*
X129387500Y-116298636D03*
X132512500Y-116298636D03*
G04 #@! TD*
D12*
G04 #@! TO.C,J4*
X151480000Y-120300000D03*
D11*
X148940000Y-120300000D03*
X146400000Y-120300000D03*
X143860000Y-120300000D03*
X141320000Y-120300000D03*
X138780000Y-120300000D03*
G04 #@! TD*
D16*
G04 #@! TO.C,J2*
X189000000Y-107200000D03*
D15*
X189000000Y-112200000D03*
G04 #@! TD*
D23*
G04 #@! TO.C,H4*
X191000000Y-124500000D03*
G04 #@! TD*
D30*
G04 #@! TO.C,R5*
X124350000Y-87000000D03*
X127450000Y-87000000D03*
G04 #@! TD*
G04 #@! TO.C,R4*
X124350000Y-84300000D03*
X127450000Y-84300000D03*
G04 #@! TD*
D25*
G04 #@! TO.C,C9*
X124862500Y-66400000D03*
X127987500Y-66400000D03*
G04 #@! TD*
D27*
G04 #@! TO.C,IC1*
X126874150Y-116503636D03*
X126874150Y-115233636D03*
X126874150Y-113963636D03*
X126874150Y-112693636D03*
X121425850Y-112693636D03*
X121425850Y-113963636D03*
X121425850Y-115233636D03*
X121425850Y-116503636D03*
D28*
X124150000Y-114598636D03*
G04 #@! TD*
D31*
G04 #@! TO.C,C16*
X124200000Y-106200000D03*
X131500000Y-106200000D03*
G04 #@! TD*
D30*
G04 #@! TO.C,R1*
X122400000Y-119098636D03*
X125500000Y-119098636D03*
G04 #@! TD*
D16*
G04 #@! TO.C,J3*
X113200000Y-112350000D03*
D15*
X113200000Y-107350000D03*
G04 #@! TD*
D20*
G04 #@! TO.C,C5*
X172475000Y-106395000D03*
X169350000Y-106395000D03*
G04 #@! TD*
D30*
G04 #@! TO.C,R2*
X129400000Y-119098636D03*
X132500000Y-119098636D03*
G04 #@! TD*
M02*
