G04 #@! TF.GenerationSoftware,KiCad,Pcbnew,9.0.7*
G04 #@! TF.CreationDate,2026-03-12T00:43:15-06:00*
G04 #@! TF.ProjectId,Power_Motor_Board_v2,506f7765-725f-44d6-9f74-6f725f426f61,rev?*
G04 #@! TF.SameCoordinates,Original*
G04 #@! TF.FileFunction,Copper,L1,Top*
G04 #@! TF.FilePolarity,Positive*
%FSLAX46Y46*%
G04 Gerber Fmt 4.6, Leading zero omitted, Abs format (unit mm)*
G04 Created by KiCad (PCBNEW 9.0.7) date 2026-03-12 00:43:15*
%MOMM*%
%LPD*%
G01*
G04 APERTURE LIST*
G04 Aperture macros list*
%AMRoundRect*
0 Rectangle with rounded corners*
0 $1 Rounding radius*
0 $2 $3 $4 $5 $6 $7 $8 $9 X,Y pos of 4 corners*
0 Add a 4 corners polygon primitive as box body*
4,1,4,$2,$3,$4,$5,$6,$7,$8,$9,$2,$3,0*
0 Add four circle primitives for the rounded corners*
1,1,$1+$1,$2,$3*
1,1,$1+$1,$4,$5*
1,1,$1+$1,$6,$7*
1,1,$1+$1,$8,$9*
0 Add four rect primitives between the rounded corners*
20,1,$1+$1,$2,$3,$4,$5,0*
20,1,$1+$1,$4,$5,$6,$7,0*
20,1,$1+$1,$6,$7,$8,$9,0*
20,1,$1+$1,$8,$9,$2,$3,0*%
G04 Aperture macros list end*
G04 #@! TA.AperFunction,SMDPad,CuDef*
%ADD10RoundRect,0.250000X0.650000X-0.412500X0.650000X0.412500X-0.650000X0.412500X-0.650000X-0.412500X0*%
G04 #@! TD*
G04 #@! TA.AperFunction,ComponentPad*
%ADD11C,1.700000*%
G04 #@! TD*
G04 #@! TA.AperFunction,ComponentPad*
%ADD12R,1.700000X1.700000*%
G04 #@! TD*
G04 #@! TA.AperFunction,ComponentPad*
%ADD13C,1.560000*%
G04 #@! TD*
G04 #@! TA.AperFunction,ComponentPad*
%ADD14R,1.560000X1.560000*%
G04 #@! TD*
G04 #@! TA.AperFunction,ComponentPad*
%ADD15C,1.800000*%
G04 #@! TD*
G04 #@! TA.AperFunction,ComponentPad*
%ADD16R,1.800000X1.800000*%
G04 #@! TD*
G04 #@! TA.AperFunction,SMDPad,CuDef*
%ADD17R,3.800000X2.030000*%
G04 #@! TD*
G04 #@! TA.AperFunction,SMDPad,CuDef*
%ADD18RoundRect,0.250000X-1.100000X0.412500X-1.100000X-0.412500X1.100000X-0.412500X1.100000X0.412500X0*%
G04 #@! TD*
G04 #@! TA.AperFunction,SMDPad,CuDef*
%ADD19RoundRect,0.250000X2.500000X-0.475000X2.500000X0.475000X-2.500000X0.475000X-2.500000X-0.475000X0*%
G04 #@! TD*
G04 #@! TA.AperFunction,SMDPad,CuDef*
%ADD20RoundRect,0.250000X0.412500X0.650000X-0.412500X0.650000X-0.412500X-0.650000X0.412500X-0.650000X0*%
G04 #@! TD*
G04 #@! TA.AperFunction,SMDPad,CuDef*
%ADD21RoundRect,0.162500X0.162500X-0.837500X0.162500X0.837500X-0.162500X0.837500X-0.162500X-0.837500X0*%
G04 #@! TD*
G04 #@! TA.AperFunction,SMDPad,CuDef*
%ADD22RoundRect,0.250001X-0.462499X-0.624999X0.462499X-0.624999X0.462499X0.624999X-0.462499X0.624999X0*%
G04 #@! TD*
G04 #@! TA.AperFunction,SMDPad,CuDef*
%ADD23RoundRect,0.250000X-0.650000X0.412500X-0.650000X-0.412500X0.650000X-0.412500X0.650000X0.412500X0*%
G04 #@! TD*
G04 #@! TA.AperFunction,SMDPad,CuDef*
%ADD24RoundRect,0.250000X-0.412500X-0.650000X0.412500X-0.650000X0.412500X0.650000X-0.412500X0.650000X0*%
G04 #@! TD*
G04 #@! TA.AperFunction,SMDPad,CuDef*
%ADD25RoundRect,0.330000X1.770000X0.770000X-1.770000X0.770000X-1.770000X-0.770000X1.770000X-0.770000X0*%
G04 #@! TD*
G04 #@! TA.AperFunction,SMDPad,CuDef*
%ADD26R,1.460500X0.558800*%
G04 #@! TD*
G04 #@! TA.AperFunction,SMDPad,CuDef*
%ADD27R,2.717800X3.403600*%
G04 #@! TD*
G04 #@! TA.AperFunction,SMDPad,CuDef*
%ADD28RoundRect,0.250000X0.400000X0.625000X-0.400000X0.625000X-0.400000X-0.625000X0.400000X-0.625000X0*%
G04 #@! TD*
G04 #@! TA.AperFunction,SMDPad,CuDef*
%ADD29RoundRect,0.250000X-0.400000X-0.625000X0.400000X-0.625000X0.400000X0.625000X-0.400000X0.625000X0*%
G04 #@! TD*
G04 #@! TA.AperFunction,SMDPad,CuDef*
%ADD30RoundRect,0.330000X-1.770000X-0.770000X1.770000X-0.770000X1.770000X0.770000X-1.770000X0.770000X0*%
G04 #@! TD*
G04 #@! TA.AperFunction,ViaPad*
%ADD31C,0.600000*%
G04 #@! TD*
G04 #@! TA.AperFunction,ViaPad*
%ADD32C,0.800000*%
G04 #@! TD*
G04 #@! TA.AperFunction,ViaPad*
%ADD33C,1.000000*%
G04 #@! TD*
G04 #@! TA.AperFunction,Conductor*
%ADD34C,0.200000*%
G04 #@! TD*
G04 #@! TA.AperFunction,Conductor*
%ADD35C,0.400000*%
G04 #@! TD*
G04 #@! TA.AperFunction,Conductor*
%ADD36C,1.000000*%
G04 #@! TD*
G04 #@! TA.AperFunction,Conductor*
%ADD37C,1.500000*%
G04 #@! TD*
G04 #@! TA.AperFunction,Conductor*
%ADD38C,0.800000*%
G04 #@! TD*
G04 #@! TA.AperFunction,Conductor*
%ADD39C,0.350000*%
G04 #@! TD*
G04 #@! TA.AperFunction,Conductor*
%ADD40C,0.500000*%
G04 #@! TD*
G04 #@! TA.AperFunction,Conductor*
%ADD41C,0.700000*%
G04 #@! TD*
G04 APERTURE END LIST*
D10*
G04 #@! TO.P,C17,2*
G04 #@! TO.N,GND*
X157000000Y-107615000D03*
G04 #@! TO.P,C17,1*
G04 #@! TO.N,+Vbatt*
X157000000Y-110740000D03*
G04 #@! TD*
D11*
G04 #@! TO.P,J5,2,Pin_2*
G04 #@! TO.N,GND*
X152290000Y-45000000D03*
D12*
G04 #@! TO.P,J5,1,Pin_1*
G04 #@! TO.N,5V_out*
X149750000Y-45000000D03*
G04 #@! TD*
D13*
G04 #@! TO.P,J2A1,B38,NC*
G04 #@! TO.N,unconnected-(J2A1-NC-PadB38)*
X182150000Y-96910000D03*
G04 #@! TO.P,J2A1,B37,PA3*
G04 #@! TO.N,unconnected-(J2A1-PA3-PadB37)*
X179610000Y-96910000D03*
G04 #@! TO.P,J2A1,B36,NC*
G04 #@! TO.N,unconnected-(J2A1-NC-PadB36)*
X182150000Y-94370000D03*
G04 #@! TO.P,J2A1,B35,PA2*
G04 #@! TO.N,unconnected-(J2A1-PA2-PadB35)*
X179610000Y-94370000D03*
G04 #@! TO.P,J2A1,B34,PC4*
G04 #@! TO.N,unconnected-(J2A1-PC4-PadB34)*
X182150000Y-91830000D03*
G04 #@! TO.P,J2A1,B33,PA10*
G04 #@! TO.N,/IN1_MTR2*
X179610000Y-91830000D03*
G04 #@! TO.P,J2A1,B32,AGND*
G04 #@! TO.N,unconnected-(J2A1-AGND-PadB32)*
X182150000Y-89290000D03*
G04 #@! TO.P,J2A1,B31,PB3*
G04 #@! TO.N,unconnected-(J2A1-PB3-PadB31)*
X179610000Y-89290000D03*
G04 #@! TO.P,J2A1,B30,PB13*
G04 #@! TO.N,unconnected-(J2A1-PB13-PadB30)*
X182150000Y-86750000D03*
G04 #@! TO.P,J2A1,B29,PB5*
G04 #@! TO.N,unconnected-(J2A1-PB5-PadB29)*
X179610000Y-86750000D03*
G04 #@! TO.P,J2A1,B28,PB14*
G04 #@! TO.N,unconnected-(J2A1-PB14-PadB28)*
X182150000Y-84210000D03*
G04 #@! TO.P,J2A1,B27,PB4*
G04 #@! TO.N,unconnected-(J2A1-PB4-PadB27)*
X179610000Y-84210000D03*
G04 #@! TO.P,J2A1,B26,PB15*
G04 #@! TO.N,unconnected-(J2A1-PB15-PadB26)*
X182150000Y-81670000D03*
G04 #@! TO.P,J2A1,B25,PB10*
G04 #@! TO.N,unconnected-(J2A1-PB10-PadB25)*
X179610000Y-81670000D03*
G04 #@! TO.P,J2A1,B24,PB1*
G04 #@! TO.N,unconnected-(J2A1-PB1-PadB24)*
X182150000Y-79130000D03*
G04 #@! TO.P,J2A1,B23,PA8*
G04 #@! TO.N,/IN2-MTR1*
X179610000Y-79130000D03*
G04 #@! TO.P,J2A1,B22,PB2*
G04 #@! TO.N,unconnected-(J2A1-PB2-PadB22)*
X182150000Y-76590000D03*
G04 #@! TO.P,J2A1,B21,PA9*
G04 #@! TO.N,/IN1_MTR1*
X179610000Y-76590000D03*
G04 #@! TO.P,J2A1,B20,GND*
G04 #@! TO.N,GND*
X182150000Y-74050000D03*
G04 #@! TO.P,J2A1,B19,PC7*
G04 #@! TO.N,unconnected-(J2A1-PC7-PadB19)*
X179610000Y-74050000D03*
G04 #@! TO.P,J2A1,B18,NC*
G04 #@! TO.N,unconnected-(J2A1-NC-PadB18)*
X182150000Y-71510000D03*
G04 #@! TO.P,J2A1,B17,PB6*
G04 #@! TO.N,unconnected-(J2A1-PB6-PadB17)*
X179610000Y-71510000D03*
G04 #@! TO.P,J2A1,B16,PB12*
G04 #@! TO.N,unconnected-(J2A1-PB12-PadB16)*
X182150000Y-68970000D03*
G04 #@! TO.P,J2A1,B15,PA7*
G04 #@! TO.N,unconnected-(J2A1-PA7-PadB15)*
X179610000Y-68970000D03*
G04 #@! TO.P,J2A1,B14,PA11*
G04 #@! TO.N,/IN2_MTR2*
X182150000Y-66430000D03*
G04 #@! TO.P,J2A1,B13,PA6*
G04 #@! TO.N,unconnected-(J2A1-PA6-PadB13)*
X179610000Y-66430000D03*
G04 #@! TO.P,J2A1,B12,PA12*
G04 #@! TO.N,unconnected-(J2A1-PA12-PadB12)*
X182150000Y-63890000D03*
G04 #@! TO.P,J2A1,B11,PA5*
G04 #@! TO.N,unconnected-(J2A1-PA5-PadB11)*
X179610000Y-63890000D03*
G04 #@! TO.P,J2A1,B10,NC*
G04 #@! TO.N,unconnected-(J2A1-NC-PadB10)*
X182150000Y-61350000D03*
G04 #@! TO.P,J2A1,B9,GND*
G04 #@! TO.N,GND*
X179610000Y-61350000D03*
G04 #@! TO.P,J2A1,B8,U5V*
G04 #@! TO.N,unconnected-(J2A1-U5V-PadB8)*
X182150000Y-58810000D03*
G04 #@! TO.P,J2A1,B7,AVDD*
G04 #@! TO.N,unconnected-(J2A1-AVDD-PadB7)*
X179610000Y-58810000D03*
G04 #@! TO.P,J2A1,B6,PC5*
G04 #@! TO.N,unconnected-(J2A1-PC5-PadB6)*
X182150000Y-56270000D03*
G04 #@! TO.P,J2A1,B5,PB9*
G04 #@! TO.N,unconnected-(J2A1-PB9-PadB5)*
X179610000Y-56270000D03*
G04 #@! TO.P,J2A1,B4,PC6*
G04 #@! TO.N,unconnected-(J2A1-PC6-PadB4)*
X182150000Y-53730000D03*
G04 #@! TO.P,J2A1,B3,PB8*
G04 #@! TO.N,unconnected-(J2A1-PB8-PadB3)*
X179610000Y-53730000D03*
G04 #@! TO.P,J2A1,B2,PC8*
G04 #@! TO.N,unconnected-(J2A1-PC8-PadB2)*
X182150000Y-51190000D03*
D14*
G04 #@! TO.P,J2A1,B1,PC9*
G04 #@! TO.N,unconnected-(J2A1-PC9-PadB1)*
X179610000Y-51190000D03*
D13*
G04 #@! TO.P,J2A1,A38,PC0*
G04 #@! TO.N,unconnected-(J2A1-PC0-PadA38)*
X121190000Y-96910000D03*
G04 #@! TO.P,J2A1,A37,PC3*
G04 #@! TO.N,/I_MTR2*
X118650000Y-96910000D03*
G04 #@! TO.P,J2A1,A36,PC1*
G04 #@! TO.N,unconnected-(J2A1-PC1-PadA36)*
X121190000Y-94370000D03*
G04 #@! TO.P,J2A1,A35,PC2*
G04 #@! TO.N,/I_MTR1*
X118650000Y-94370000D03*
G04 #@! TO.P,J2A1,A34,PB0*
G04 #@! TO.N,unconnected-(J2A1-PB0-PadA34)*
X121190000Y-91830000D03*
G04 #@! TO.P,J2A1,A33,VBAT*
G04 #@! TO.N,unconnected-(J2A1-VBAT-PadA33)*
X118650000Y-91830000D03*
G04 #@! TO.P,J2A1,A32,PA4*
G04 #@! TO.N,unconnected-(J2A1-PA4-PadA32)*
X121190000Y-89290000D03*
G04 #@! TO.P,J2A1,A31,PH1*
G04 #@! TO.N,unconnected-(J2A1-PH1-PadA31)*
X118650000Y-89290000D03*
G04 #@! TO.P,J2A1,A30,PA1*
G04 #@! TO.N,/BT_TX*
X121190000Y-86750000D03*
G04 #@! TO.P,J2A1,A29,PH0*
G04 #@! TO.N,unconnected-(J2A1-PH0-PadA29)*
X118650000Y-86750000D03*
G04 #@! TO.P,J2A1,A28,PA0*
G04 #@! TO.N,/BT_RX*
X121190000Y-84210000D03*
G04 #@! TO.P,J2A1,A27,PC15*
G04 #@! TO.N,unconnected-(J2A1-PC15-PadA27)*
X118650000Y-84210000D03*
G04 #@! TO.P,J2A1,A26,NC*
G04 #@! TO.N,unconnected-(J2A1-NC-PadA26)*
X121190000Y-81670000D03*
G04 #@! TO.P,J2A1,A25,PC14*
G04 #@! TO.N,unconnected-(J2A1-PC14-PadA25)*
X118650000Y-81670000D03*
G04 #@! TO.P,J2A1,A24,VIN*
G04 #@! TO.N,unconnected-(J2A1-VIN-PadA24)*
X121190000Y-79130000D03*
G04 #@! TO.P,J2A1,A23,PC13*
G04 #@! TO.N,unconnected-(J2A1-PC13-PadA23)*
X118650000Y-79130000D03*
G04 #@! TO.P,J2A1,A22,GND*
G04 #@! TO.N,GND*
X121190000Y-76590000D03*
G04 #@! TO.P,J2A1,A21,PB7*
G04 #@! TO.N,unconnected-(J2A1-PB7-PadA21)*
X118650000Y-76590000D03*
G04 #@! TO.P,J2A1,A20,GND*
G04 #@! TO.N,GND*
X121190000Y-74050000D03*
G04 #@! TO.P,J2A1,A19,GND*
X118650000Y-74050000D03*
G04 #@! TO.P,J2A1,A18,+5V*
G04 #@! TO.N,5V_out*
X121190000Y-71510000D03*
G04 #@! TO.P,J2A1,A17,PA15*
G04 #@! TO.N,unconnected-(J2A1-PA15-PadA17)*
X118650000Y-71510000D03*
G04 #@! TO.P,J2A1,A16,+3V3*
G04 #@! TO.N,+3V3*
X121190000Y-68970000D03*
G04 #@! TO.P,J2A1,A15,PA14*
G04 #@! TO.N,unconnected-(J2A1-PA14-PadA15)*
X118650000Y-68970000D03*
G04 #@! TO.P,J2A1,A14,RESET*
G04 #@! TO.N,unconnected-(J2A1-RESET-PadA14)*
X121190000Y-66430000D03*
G04 #@! TO.P,J2A1,A13,PA13*
G04 #@! TO.N,unconnected-(J2A1-PA13-PadA13)*
X118650000Y-66430000D03*
G04 #@! TO.P,J2A1,A12,IOREF*
G04 #@! TO.N,unconnected-(J2A1-IOREF-PadA12)*
X121190000Y-63890000D03*
G04 #@! TO.P,J2A1,A11,NC*
G04 #@! TO.N,unconnected-(J2A1-NC-PadA11)*
X118650000Y-63890000D03*
G04 #@! TO.P,J2A1,A10,NC*
G04 #@! TO.N,unconnected-(J2A1-NC-PadA10)*
X121190000Y-61350000D03*
G04 #@! TO.P,J2A1,A9,NC*
G04 #@! TO.N,unconnected-(J2A1-NC-PadA9)*
X118650000Y-61350000D03*
G04 #@! TO.P,J2A1,A8,GND*
G04 #@! TO.N,GND*
X121190000Y-58810000D03*
G04 #@! TO.P,J2A1,A7,BOOT0*
G04 #@! TO.N,unconnected-(J2A1-BOOT0-PadA7)*
X118650000Y-58810000D03*
G04 #@! TO.P,J2A1,A6,E5V*
G04 #@! TO.N,+5V*
X121190000Y-56270000D03*
G04 #@! TO.P,J2A1,A5,VDD*
G04 #@! TO.N,unconnected-(J2A1-VDD-PadA5)*
X118650000Y-56270000D03*
G04 #@! TO.P,J2A1,A4,PD2*
G04 #@! TO.N,unconnected-(J2A1-PD2-PadA4)*
X121190000Y-53730000D03*
G04 #@! TO.P,J2A1,A3,PC12*
G04 #@! TO.N,unconnected-(J2A1-PC12-PadA3)*
X118650000Y-53730000D03*
G04 #@! TO.P,J2A1,A2,PC11*
G04 #@! TO.N,unconnected-(J2A1-PC11-PadA2)*
X121190000Y-51190000D03*
D14*
G04 #@! TO.P,J2A1,A1,PC10*
G04 #@! TO.N,unconnected-(J2A1-PC10-PadA1)*
X118650000Y-51190000D03*
G04 #@! TD*
D15*
G04 #@! TO.P,J1,2,2*
G04 #@! TO.N,GND*
X163700000Y-124487500D03*
D16*
G04 #@! TO.P,J1,1,1*
G04 #@! TO.N,Net-(F1-Pad1)*
X158700000Y-124487500D03*
G04 #@! TD*
D17*
G04 #@! TO.P,TP2,1,1*
G04 #@! TO.N,+5V*
X134550000Y-63100000D03*
G04 #@! TD*
D18*
G04 #@! TO.P,C19,1*
G04 #@! TO.N,GND*
X150000000Y-107637500D03*
G04 #@! TO.P,C19,2*
G04 #@! TO.N,+5V*
X150000000Y-110762500D03*
G04 #@! TD*
D19*
G04 #@! TO.P,L2,1,1*
G04 #@! TO.N,Net-(IC4-SW)*
X146650000Y-104237500D03*
G04 #@! TO.P,L2,2,2*
G04 #@! TO.N,+5V*
X146650000Y-100237500D03*
G04 #@! TD*
D18*
G04 #@! TO.P,C20,1*
G04 #@! TO.N,GND*
X146300000Y-107637500D03*
G04 #@! TO.P,C20,2*
G04 #@! TO.N,+5V*
X146300000Y-110762500D03*
G04 #@! TD*
D20*
G04 #@! TO.P,C18,1*
G04 #@! TO.N,Net-(IC4-SW)*
X154750000Y-104587500D03*
G04 #@! TO.P,C18,2*
G04 #@! TO.N,Net-(IC4-BST)*
X151625000Y-104587500D03*
G04 #@! TD*
D21*
G04 #@! TO.P,IC4,1,FB*
G04 #@! TO.N,+5V*
X152750000Y-110787500D03*
G04 #@! TO.P,IC4,2,EN*
G04 #@! TO.N,+Vbatt*
X153700000Y-110787500D03*
G04 #@! TO.P,IC4,3,VIN*
X154650000Y-110787500D03*
G04 #@! TO.P,IC4,4,GND*
G04 #@! TO.N,GND*
X154650000Y-107367500D03*
G04 #@! TO.P,IC4,5,SW*
G04 #@! TO.N,Net-(IC4-SW)*
X153700000Y-107367500D03*
G04 #@! TO.P,IC4,6,BST*
G04 #@! TO.N,Net-(IC4-BST)*
X152750000Y-107367500D03*
G04 #@! TD*
D22*
G04 #@! TO.P,F1,1*
G04 #@! TO.N,Net-(F1-Pad1)*
X159762500Y-118287500D03*
G04 #@! TO.P,F1,2*
G04 #@! TO.N,+Vbatt*
X162737500Y-118287500D03*
G04 #@! TD*
D23*
G04 #@! TO.P,C8,1*
G04 #@! TO.N,+Vbatt*
X183050000Y-112333864D03*
G04 #@! TO.P,C8,2*
G04 #@! TO.N,GND*
X183050000Y-115458864D03*
G04 #@! TD*
D24*
G04 #@! TO.P,C11,1*
G04 #@! TO.N,+5V*
X124637500Y-56250000D03*
G04 #@! TO.P,C11,2*
G04 #@! TO.N,GND*
X127762500Y-56250000D03*
G04 #@! TD*
D25*
G04 #@! TO.P,C6,1*
G04 #@! TO.N,+Vbatt*
X178300000Y-115795000D03*
G04 #@! TO.P,C6,2*
G04 #@! TO.N,GND*
X171000000Y-115795000D03*
G04 #@! TD*
D26*
G04 #@! TO.P,IC3,1,IPROPI*
G04 #@! TO.N,Net-(IC3-IPROPI)*
X175050000Y-105690000D03*
G04 #@! TO.P,IC3,2,IN2*
G04 #@! TO.N,/IN2_MTR2*
X175050000Y-106960000D03*
G04 #@! TO.P,IC3,3,IN1*
G04 #@! TO.N,/IN1_MTR2*
X175050000Y-108230000D03*
G04 #@! TO.P,IC3,4,VREF*
G04 #@! TO.N,+3V3*
X175050000Y-109500000D03*
G04 #@! TO.P,IC3,5,VM*
G04 #@! TO.N,+Vbatt*
X180498300Y-109500000D03*
G04 #@! TO.P,IC3,6,OUT1*
G04 #@! TO.N,/+OUT_2*
X180498300Y-108230000D03*
G04 #@! TO.P,IC3,7,GND_1*
G04 #@! TO.N,GND*
X180498300Y-106960000D03*
G04 #@! TO.P,IC3,8,OUT2*
G04 #@! TO.N,/-OUT_2*
X180498300Y-105690000D03*
D27*
G04 #@! TO.P,IC3,EPAD*
G04 #@! TO.N,N/C*
X177774150Y-107595000D03*
G04 #@! TD*
D20*
G04 #@! TO.P,C12,1*
G04 #@! TO.N,+5V*
X127762500Y-58950000D03*
G04 #@! TO.P,C12,2*
G04 #@! TO.N,GND*
X124637500Y-58950000D03*
G04 #@! TD*
D24*
G04 #@! TO.P,C10,1*
G04 #@! TO.N,+3V3*
X124800000Y-69200000D03*
G04 #@! TO.P,C10,2*
G04 #@! TO.N,GND*
X127925000Y-69200000D03*
G04 #@! TD*
D20*
G04 #@! TO.P,C7,1*
G04 #@! TO.N,+3V3*
X172512500Y-109296364D03*
G04 #@! TO.P,C7,2*
G04 #@! TO.N,GND*
X169387500Y-109296364D03*
G04 #@! TD*
D24*
G04 #@! TO.P,C14,1*
G04 #@! TO.N,+3V3*
X129387500Y-113398636D03*
G04 #@! TO.P,C14,2*
G04 #@! TO.N,GND*
X132512500Y-113398636D03*
G04 #@! TD*
D10*
G04 #@! TO.P,C15,1*
G04 #@! TO.N,+Vbatt*
X119750000Y-109961136D03*
G04 #@! TO.P,C15,2*
G04 #@! TO.N,GND*
X119750000Y-106836136D03*
G04 #@! TD*
D28*
G04 #@! TO.P,R3,1*
G04 #@! TO.N,/I_MTR2*
X179350000Y-103000000D03*
G04 #@! TO.P,R3,2*
G04 #@! TO.N,Net-(IC3-IPROPI)*
X176250000Y-103000000D03*
G04 #@! TD*
G04 #@! TO.P,R7,1*
G04 #@! TO.N,Net-(IC3-IPROPI)*
X172450000Y-103495000D03*
G04 #@! TO.P,R7,2*
G04 #@! TO.N,GND*
X169350000Y-103495000D03*
G04 #@! TD*
D24*
G04 #@! TO.P,C13,1*
G04 #@! TO.N,Net-(IC1-IPROPI)*
X129387500Y-116298636D03*
G04 #@! TO.P,C13,2*
G04 #@! TO.N,GND*
X132512500Y-116298636D03*
G04 #@! TD*
D12*
G04 #@! TO.P,J4,1,Pin_1*
G04 #@! TO.N,/State*
X151480000Y-120300000D03*
D11*
G04 #@! TO.P,J4,2,Pin_2*
G04 #@! TO.N,Net-(J4-Pin_2)*
X148940000Y-120300000D03*
G04 #@! TO.P,J4,3,Pin_3*
G04 #@! TO.N,Net-(J4-Pin_3)*
X146400000Y-120300000D03*
G04 #@! TO.P,J4,4,Pin_4*
G04 #@! TO.N,GND*
X143860000Y-120300000D03*
G04 #@! TO.P,J4,5,Pin_5*
G04 #@! TO.N,5V_out*
X141320000Y-120300000D03*
G04 #@! TO.P,J4,6,Pin_6*
G04 #@! TO.N,/EN*
X138780000Y-120300000D03*
G04 #@! TD*
D16*
G04 #@! TO.P,J2,1,1*
G04 #@! TO.N,/-OUT_2*
X189000000Y-107200000D03*
D15*
G04 #@! TO.P,J2,2,2*
G04 #@! TO.N,/+OUT_2*
X189000000Y-112200000D03*
G04 #@! TD*
D29*
G04 #@! TO.P,R5,1*
G04 #@! TO.N,/BT_TX*
X124350000Y-87000000D03*
G04 #@! TO.P,R5,2*
G04 #@! TO.N,Net-(J4-Pin_3)*
X127450000Y-87000000D03*
G04 #@! TD*
G04 #@! TO.P,R4,1*
G04 #@! TO.N,/BT_RX*
X124350000Y-84300000D03*
G04 #@! TO.P,R4,2*
G04 #@! TO.N,Net-(J4-Pin_2)*
X127450000Y-84300000D03*
G04 #@! TD*
D24*
G04 #@! TO.P,C9,1*
G04 #@! TO.N,+3V3*
X124862500Y-66400000D03*
G04 #@! TO.P,C9,2*
G04 #@! TO.N,GND*
X127987500Y-66400000D03*
G04 #@! TD*
D26*
G04 #@! TO.P,IC1,1,IPROPI*
G04 #@! TO.N,Net-(IC1-IPROPI)*
X126874150Y-116503636D03*
G04 #@! TO.P,IC1,2,IN2*
G04 #@! TO.N,/IN2-MTR1*
X126874150Y-115233636D03*
G04 #@! TO.P,IC1,3,IN1*
G04 #@! TO.N,/IN1_MTR1*
X126874150Y-113963636D03*
G04 #@! TO.P,IC1,4,VREF*
G04 #@! TO.N,+3V3*
X126874150Y-112693636D03*
G04 #@! TO.P,IC1,5,VM*
G04 #@! TO.N,+Vbatt*
X121425850Y-112693636D03*
G04 #@! TO.P,IC1,6,OUT1*
G04 #@! TO.N,/+OUT_1*
X121425850Y-113963636D03*
G04 #@! TO.P,IC1,7,GND_1*
G04 #@! TO.N,GND*
X121425850Y-115233636D03*
G04 #@! TO.P,IC1,8,OUT2*
G04 #@! TO.N,/-OUT_1*
X121425850Y-116503636D03*
D27*
G04 #@! TO.P,IC1,EPAD*
G04 #@! TO.N,N/C*
X124150000Y-114598636D03*
G04 #@! TD*
D30*
G04 #@! TO.P,C16,1*
G04 #@! TO.N,+Vbatt*
X124200000Y-106200000D03*
G04 #@! TO.P,C16,2*
G04 #@! TO.N,GND*
X131500000Y-106200000D03*
G04 #@! TD*
D29*
G04 #@! TO.P,R1,1*
G04 #@! TO.N,/I_MTR1*
X122400000Y-119098636D03*
G04 #@! TO.P,R1,2*
G04 #@! TO.N,Net-(IC1-IPROPI)*
X125500000Y-119098636D03*
G04 #@! TD*
D16*
G04 #@! TO.P,J3,1,1*
G04 #@! TO.N,/-OUT_1*
X113200000Y-112350000D03*
D15*
G04 #@! TO.P,J3,2,2*
G04 #@! TO.N,/+OUT_1*
X113200000Y-107350000D03*
G04 #@! TD*
D20*
G04 #@! TO.P,C5,1*
G04 #@! TO.N,Net-(IC3-IPROPI)*
X172475000Y-106395000D03*
G04 #@! TO.P,C5,2*
G04 #@! TO.N,GND*
X169350000Y-106395000D03*
G04 #@! TD*
D29*
G04 #@! TO.P,R2,1*
G04 #@! TO.N,Net-(IC1-IPROPI)*
X129400000Y-119098636D03*
G04 #@! TO.P,R2,2*
G04 #@! TO.N,GND*
X132500000Y-119098636D03*
G04 #@! TD*
D31*
G04 #@! TO.N,GND*
X178560000Y-127100000D03*
X181100000Y-127100000D03*
X173160000Y-127100000D03*
X175700000Y-127100000D03*
X173160000Y-127100000D03*
X175700000Y-127100000D03*
X173200000Y-121960000D03*
X175740000Y-121960000D03*
X173200000Y-124500000D03*
X175740000Y-124500000D03*
X173100000Y-91100000D03*
X173100000Y-88560000D03*
X170560000Y-88560000D03*
X170560000Y-91100000D03*
X165460000Y-88560000D03*
X168000000Y-91100000D03*
X168000000Y-88560000D03*
X165460000Y-91100000D03*
X165460000Y-96240000D03*
X168000000Y-93700000D03*
X170700000Y-124500000D03*
X170700000Y-121960000D03*
X168160000Y-121960000D03*
X168160000Y-124500000D03*
X168000000Y-96240000D03*
X165460000Y-93700000D03*
X170560000Y-96240000D03*
X170560000Y-93700000D03*
X173100000Y-93700000D03*
X173100000Y-96240000D03*
X156760000Y-88600000D03*
X159300000Y-88600000D03*
X141860000Y-83500000D03*
X141860000Y-80960000D03*
X144400000Y-83500000D03*
X144400000Y-80960000D03*
X146860000Y-86100000D03*
X146860000Y-83560000D03*
X149400000Y-86100000D03*
X149400000Y-83560000D03*
X159260000Y-105800000D03*
X159260000Y-103260000D03*
X161800000Y-105800000D03*
X161800000Y-103260000D03*
X149460000Y-96180000D03*
X149460000Y-93640000D03*
X146920000Y-91100000D03*
X144380000Y-91100000D03*
X149460000Y-88560000D03*
X146920000Y-88560000D03*
X159100000Y-107000000D03*
X161780000Y-93640000D03*
X161780000Y-91100000D03*
X159240000Y-101260000D03*
X151620000Y-98720000D03*
X151620000Y-96180000D03*
X156700000Y-101260000D03*
X154160000Y-101260000D03*
X151620000Y-101260000D03*
X161780000Y-98720000D03*
X159240000Y-98720000D03*
X156700000Y-98720000D03*
X154160000Y-98720000D03*
X161780000Y-96180000D03*
X159240000Y-96180000D03*
X156700000Y-96180000D03*
X154160000Y-96180000D03*
X159240000Y-93640000D03*
X156700000Y-93640000D03*
X154160000Y-93640000D03*
X159240000Y-91100000D03*
X156700000Y-91100000D03*
X154160000Y-91100000D03*
X151620000Y-91100000D03*
G04 #@! TO.N,+3V3*
X163000000Y-111000000D03*
G04 #@! TO.N,GND*
X155950000Y-106187500D03*
X161780000Y-101260000D03*
X149600000Y-106437500D03*
X146900000Y-106287500D03*
X128100000Y-54450000D03*
X168100000Y-108845000D03*
X133900000Y-119098636D03*
X184558864Y-115458864D03*
X134200000Y-117900000D03*
D32*
X181859397Y-106960000D03*
X119933636Y-115233636D03*
D31*
X167900000Y-103400000D03*
X128600000Y-64750000D03*
X130800000Y-104200000D03*
X126650000Y-60550000D03*
X168000000Y-106400000D03*
X128600000Y-70750000D03*
X169700000Y-117900000D03*
D33*
X117100000Y-106400000D03*
D31*
X134400000Y-112400000D03*
G04 #@! TO.N,+3V3*
X130100000Y-74100000D03*
X150600000Y-117100000D03*
X141450000Y-77800000D03*
G04 #@! TO.N,/IN2-MTR1*
X128200000Y-114900000D03*
G04 #@! TO.N,/IN1_MTR1*
X128100000Y-113400000D03*
G04 #@! TO.N,/IN1_MTR2*
X173800000Y-108200000D03*
G04 #@! TO.N,/I_MTR2*
X171300000Y-99700000D03*
G04 #@! TO.N,Net-(J4-Pin_3)*
X137500000Y-105200000D03*
G04 #@! TO.N,Net-(J4-Pin_2)*
X140500000Y-104700000D03*
X148860000Y-118200000D03*
G04 #@! TO.N,GND*
X141860000Y-86060000D03*
X144400000Y-88600000D03*
X144400000Y-86060000D03*
X178500000Y-121960000D03*
X181040000Y-124500000D03*
X181040000Y-121960000D03*
X178500000Y-124500000D03*
X168200000Y-127100000D03*
X170740000Y-127100000D03*
X151600000Y-93700000D03*
G04 #@! TD*
D34*
G04 #@! TO.N,Net-(J4-Pin_2)*
X139500000Y-96000000D02*
X127800000Y-84300000D01*
X140500000Y-104700000D02*
X139500000Y-103700000D01*
X139500000Y-103700000D02*
X139500000Y-96000000D01*
X127800000Y-84300000D02*
X126900000Y-84300000D01*
D35*
G04 #@! TO.N,+5V*
X145400000Y-98987500D02*
X146650000Y-100237500D01*
X145400000Y-96050000D02*
X145400000Y-98987500D01*
D34*
G04 #@! TO.N,GND*
X159050000Y-107050000D02*
X159100000Y-107000000D01*
X159050000Y-107087500D02*
X159050000Y-107050000D01*
D36*
G04 #@! TO.N,/+OUT_1*
X119813636Y-113963636D02*
X121425850Y-113963636D01*
X119000000Y-113150000D02*
X119813636Y-113963636D01*
D37*
X119000000Y-113150000D02*
X113200000Y-107350000D01*
G04 #@! TO.N,/-OUT_2*
X183190000Y-105000000D02*
X182500000Y-105690000D01*
D36*
X180498300Y-105690000D02*
X182500000Y-105690000D01*
D37*
X186800000Y-105000000D02*
X189000000Y-107200000D01*
X183190000Y-105000000D02*
X186800000Y-105000000D01*
G04 #@! TO.N,/+OUT_2*
X182800000Y-108800000D02*
X185600000Y-108800000D01*
D36*
X182230000Y-108230000D02*
X180498300Y-108230000D01*
X182800000Y-108800000D02*
X182230000Y-108230000D01*
D37*
X185600000Y-108800000D02*
X189000000Y-112200000D01*
D38*
G04 #@! TO.N,GND*
X181859397Y-106960000D02*
X180498300Y-106960000D01*
D37*
G04 #@! TO.N,/-OUT_1*
X117353636Y-116503636D02*
X113200000Y-112350000D01*
D36*
X121425850Y-116503636D02*
X119200000Y-116503636D01*
D37*
X119200000Y-116503636D02*
X117353636Y-116503636D01*
D36*
G04 #@! TO.N,GND*
X117536136Y-106836136D02*
X117100000Y-106400000D01*
X119750000Y-106836136D02*
X117536136Y-106836136D01*
D34*
X117500000Y-106400000D02*
X117100000Y-106400000D01*
D38*
X119933636Y-115233636D02*
X121425850Y-115233636D01*
D37*
G04 #@! TO.N,Net-(F1-Pad1)*
X159762500Y-123425000D02*
X158700000Y-124487500D01*
X159762500Y-118287500D02*
X159762500Y-123425000D01*
D36*
G04 #@! TO.N,+Vbatt*
X128200000Y-110200000D02*
X124200000Y-106200000D01*
X139000000Y-110200000D02*
X128200000Y-110200000D01*
X162737500Y-116100000D02*
X158700000Y-116100000D01*
X143700000Y-114900000D02*
X139000000Y-110200000D01*
X162737500Y-116100000D02*
X162737500Y-114675000D01*
X158700000Y-116100000D02*
X157500000Y-114900000D01*
X157500000Y-114900000D02*
X143700000Y-114900000D01*
X175505000Y-113000000D02*
X178300000Y-115795000D01*
X164412500Y-113000000D02*
X175505000Y-113000000D01*
X162737500Y-114675000D02*
X164412500Y-113000000D01*
X162737500Y-114675000D02*
X158802500Y-110740000D01*
X158802500Y-110740000D02*
X157000000Y-110740000D01*
X162737500Y-118287500D02*
X162737500Y-116100000D01*
D34*
G04 #@! TO.N,+3V3*
X139500000Y-117100000D02*
X150600000Y-117100000D01*
X137200000Y-114800000D02*
X139500000Y-117100000D01*
X130975000Y-114800000D02*
X137200000Y-114800000D01*
X129387500Y-113212500D02*
X130975000Y-114800000D01*
X129387500Y-113398636D02*
X129387500Y-113212500D01*
X173550000Y-111000000D02*
X175050000Y-109500000D01*
X163000000Y-111000000D02*
X173550000Y-111000000D01*
G04 #@! TO.N,GND*
X134200000Y-117797272D02*
X132701364Y-116298636D01*
X132701364Y-116298636D02*
X132512500Y-116298636D01*
X134200000Y-117900000D02*
X134200000Y-117797272D01*
X133797272Y-112400000D02*
X132798636Y-113398636D01*
X134400000Y-112400000D02*
X133797272Y-112400000D01*
X132798636Y-113398636D02*
X132512500Y-113398636D01*
D39*
G04 #@! TO.N,5V_out*
X120400000Y-124500000D02*
X137120000Y-124500000D01*
X137120000Y-124500000D02*
X141320000Y-120300000D01*
X109899000Y-113999000D02*
X120400000Y-124500000D01*
X109899000Y-75801000D02*
X109899000Y-113999000D01*
X119900000Y-72800000D02*
X112900000Y-72800000D01*
X112900000Y-72800000D02*
X109899000Y-75801000D01*
X121190000Y-71510000D02*
X119900000Y-72800000D01*
D34*
G04 #@! TO.N,/IN2_MTR2*
X189150000Y-96300000D02*
X189150000Y-73430000D01*
X181050000Y-104400000D02*
X189150000Y-96300000D01*
X177000000Y-104400000D02*
X181050000Y-104400000D01*
X176100000Y-105300000D02*
X177000000Y-104400000D01*
X189150000Y-73430000D02*
X182150000Y-66430000D01*
X176100000Y-106200000D02*
X176100000Y-105300000D01*
X175340000Y-106960000D02*
X176100000Y-106200000D01*
X175050000Y-106960000D02*
X175340000Y-106960000D01*
D39*
G04 #@! TO.N,5V_out*
X120450000Y-54950000D02*
X119900000Y-55500000D01*
X119900000Y-70220000D02*
X121190000Y-71510000D01*
X121876765Y-54950000D02*
X120450000Y-54950000D01*
X119900000Y-55500000D02*
X119900000Y-70220000D01*
X131826765Y-45000000D02*
X121876765Y-54950000D01*
X149750000Y-45000000D02*
X131826765Y-45000000D01*
D34*
G04 #@! TO.N,Net-(J4-Pin_2)*
X148940000Y-120800000D02*
X148940000Y-118280000D01*
X148880000Y-119780000D02*
X148800000Y-119700000D01*
D35*
G04 #@! TO.N,+5V*
X127762500Y-59712500D02*
X127762500Y-58950000D01*
X129000000Y-60950000D02*
X127762500Y-59712500D01*
X139250000Y-86700000D02*
X139250000Y-67800000D01*
X142200000Y-89650000D02*
X139250000Y-86700000D01*
X142200000Y-92850000D02*
X142200000Y-89650000D01*
X139250000Y-67800000D02*
X132400000Y-60950000D01*
X145400000Y-96050000D02*
X142200000Y-92850000D01*
X132400000Y-60950000D02*
X129000000Y-60950000D01*
D34*
G04 #@! TO.N,+3V3*
X164000000Y-89550000D02*
X164000000Y-105450000D01*
X164000000Y-105450000D02*
X166350000Y-107800000D01*
X156600000Y-82150000D02*
X164000000Y-89550000D01*
X149400000Y-82150000D02*
X156600000Y-82150000D01*
X166350000Y-107800000D02*
X171016136Y-107800000D01*
X145050000Y-77800000D02*
X149400000Y-82150000D01*
X171016136Y-107800000D02*
X172512500Y-109296364D01*
X141450000Y-77800000D02*
X145050000Y-77800000D01*
G04 #@! TO.N,GND*
X154650000Y-107367500D02*
X154770000Y-107367500D01*
X154770000Y-107367500D02*
X155950000Y-106187500D01*
X158522500Y-107615000D02*
X159050000Y-107087500D01*
X157000000Y-107615000D02*
X158522500Y-107615000D01*
D35*
G04 #@! TO.N,+5V*
X152650000Y-110687500D02*
X152750000Y-110787500D01*
X152750000Y-110787500D02*
X152750000Y-111287500D01*
D34*
G04 #@! TO.N,Net-(IC4-BST)*
X152987500Y-107130000D02*
X152750000Y-107367500D01*
D35*
G04 #@! TO.N,+5V*
X144200000Y-102137500D02*
X142850000Y-103487500D01*
X142850000Y-108687500D02*
X144925000Y-110762500D01*
X145950000Y-102137500D02*
X144200000Y-102137500D01*
X146650000Y-100237500D02*
X146650000Y-101437500D01*
X146650000Y-101437500D02*
X145950000Y-102137500D01*
D34*
G04 #@! TO.N,GND*
X146300000Y-107637500D02*
X146300000Y-106887500D01*
D40*
G04 #@! TO.N,+5V*
X152750000Y-110787500D02*
X150025000Y-110787500D01*
D34*
G04 #@! TO.N,GND*
X146300000Y-106887500D02*
X146900000Y-106287500D01*
X150000000Y-107637500D02*
X150000000Y-106837500D01*
X150000000Y-106837500D02*
X149600000Y-106437500D01*
D35*
G04 #@! TO.N,+5V*
X150025000Y-110787500D02*
X150000000Y-110762500D01*
X150000000Y-110762500D02*
X146300000Y-110762500D01*
D36*
G04 #@! TO.N,+Vbatt*
X154697500Y-110740000D02*
X154650000Y-110787500D01*
X154650000Y-110787500D02*
X154650000Y-111113176D01*
X154650000Y-110787500D02*
X153776000Y-110787500D01*
X157000000Y-110740000D02*
X154697500Y-110740000D01*
D34*
G04 #@! TO.N,Net-(IC4-SW)*
X153700000Y-105637500D02*
X154750000Y-104587500D01*
X153700000Y-107367500D02*
X153700000Y-105637500D01*
D35*
G04 #@! TO.N,+5V*
X144925000Y-110762500D02*
X146300000Y-110762500D01*
X142850000Y-103487500D02*
X142850000Y-108687500D01*
D34*
G04 #@! TO.N,Net-(IC4-SW)*
X152650000Y-102487500D02*
X148400000Y-102487500D01*
X154750000Y-104587500D02*
X152650000Y-102487500D01*
G04 #@! TO.N,Net-(IC4-BST)*
X152750000Y-105712500D02*
X151625000Y-104587500D01*
G04 #@! TO.N,Net-(IC4-SW)*
X148400000Y-102487500D02*
X146650000Y-104237500D01*
G04 #@! TO.N,Net-(IC4-BST)*
X152750000Y-107367500D02*
X152750000Y-105712500D01*
D41*
G04 #@! TO.N,+Vbatt*
X124200000Y-106200000D02*
X123511136Y-106200000D01*
X183050000Y-112333864D02*
X183050000Y-112051700D01*
D36*
X178300000Y-115795000D02*
X179588864Y-115795000D01*
D34*
G04 #@! TO.N,Net-(IC3-IPROPI)*
X172945000Y-103000000D02*
X176250000Y-103000000D01*
X172475000Y-103520000D02*
X172450000Y-103495000D01*
X175050000Y-105690000D02*
X173180000Y-105690000D01*
X172475000Y-106395000D02*
X172475000Y-103520000D01*
X172450000Y-103495000D02*
X172945000Y-103000000D01*
X173180000Y-105690000D02*
X172475000Y-106395000D01*
G04 #@! TO.N,GND*
X127925000Y-69200000D02*
X127925000Y-70075000D01*
X169700000Y-117095000D02*
X169700000Y-117900000D01*
X168551364Y-109296364D02*
X168100000Y-108845000D01*
X130800000Y-105500000D02*
X130800000Y-104200000D01*
X167950000Y-106395000D02*
X167995000Y-106395000D01*
X171000000Y-115795000D02*
X169700000Y-117095000D01*
X133900000Y-119098636D02*
X132500000Y-119098636D01*
X169350000Y-103495000D02*
X167950000Y-103495000D01*
X127987500Y-66400000D02*
X127987500Y-65362500D01*
X127925000Y-70075000D02*
X128600000Y-70750000D01*
X169387500Y-109296364D02*
X168551364Y-109296364D01*
X124637500Y-58950000D02*
X125050000Y-58950000D01*
X125050000Y-58950000D02*
X126650000Y-60550000D01*
X127762500Y-54787500D02*
X128100000Y-54450000D01*
X127987500Y-65362500D02*
X128600000Y-64750000D01*
X133901364Y-119098636D02*
X133900000Y-119098636D01*
X131500000Y-106200000D02*
X130800000Y-105500000D01*
X167950000Y-103450000D02*
X167900000Y-103400000D01*
X167950000Y-103495000D02*
X167950000Y-103450000D01*
X167995000Y-106395000D02*
X168000000Y-106400000D01*
X127762500Y-56250000D02*
X127762500Y-54787500D01*
D36*
X183050000Y-115458864D02*
X184558864Y-115458864D01*
D34*
X169350000Y-106395000D02*
X167950000Y-106395000D01*
D41*
G04 #@! TO.N,+Vbatt*
X124300000Y-106050000D02*
X123011136Y-106050000D01*
D34*
G04 #@! TO.N,+3V3*
X124800000Y-69200000D02*
X124800000Y-66462500D01*
X129387500Y-113398636D02*
X128682500Y-112693636D01*
X124862500Y-66400000D02*
X123760000Y-66400000D01*
X128682500Y-112693636D02*
X126874150Y-112693636D01*
X130100000Y-74100000D02*
X129700000Y-74100000D01*
X123760000Y-66400000D02*
X121190000Y-68970000D01*
X129700000Y-74100000D02*
X124800000Y-69200000D01*
X124800000Y-66462500D02*
X124862500Y-66400000D01*
X172716136Y-109500000D02*
X172512500Y-109296364D01*
X175050000Y-109500000D02*
X172716136Y-109500000D01*
D35*
G04 #@! TO.N,+5V*
X127762500Y-58950000D02*
X127337500Y-58950000D01*
D34*
G04 #@! TO.N,Net-(IC1-IPROPI)*
X127079150Y-116298636D02*
X126874150Y-116503636D01*
X129387500Y-116298636D02*
X127079150Y-116298636D01*
X129387500Y-116298636D02*
X129387500Y-119086136D01*
X129400000Y-119098636D02*
X124950000Y-119098636D01*
G04 #@! TO.N,/IN2-MTR1*
X126874150Y-115233636D02*
X127866364Y-115233636D01*
X127866364Y-115233636D02*
X128200000Y-114900000D01*
G04 #@! TO.N,/IN1_MTR1*
X126874150Y-113963636D02*
X127536364Y-113963636D01*
X127536364Y-113963636D02*
X128100000Y-113400000D01*
G04 #@! TO.N,/IN1_MTR2*
X173830000Y-108230000D02*
X173800000Y-108200000D01*
X175050000Y-108230000D02*
X173830000Y-108230000D01*
G04 #@! TO.N,/I_MTR2*
X176500000Y-101700000D02*
X174500000Y-99700000D01*
X174500000Y-99700000D02*
X171300000Y-99700000D01*
X179350000Y-103295000D02*
X179350000Y-103000000D01*
X179350000Y-103000000D02*
X178050000Y-101700000D01*
X178050000Y-101700000D02*
X176500000Y-101700000D01*
G04 #@! TO.N,/I_MTR1*
X116398636Y-119098636D02*
X111300000Y-114000000D01*
X111300000Y-101720000D02*
X118650000Y-94370000D01*
X111300000Y-114000000D02*
X111300000Y-101720000D01*
X122950000Y-119098636D02*
X116398636Y-119098636D01*
G04 #@! TO.N,/BT_RX*
X121280000Y-84300000D02*
X121190000Y-84210000D01*
X124900000Y-84300000D02*
X121280000Y-84300000D01*
G04 #@! TO.N,/BT_TX*
X121190000Y-86750000D02*
X124650000Y-86750000D01*
X124650000Y-86750000D02*
X124900000Y-87000000D01*
G04 #@! TO.N,Net-(J4-Pin_3)*
X126900000Y-89800000D02*
X137100000Y-100000000D01*
X137500000Y-100400000D02*
X137500000Y-105200000D01*
X137100000Y-100000000D02*
X137500000Y-100400000D01*
X126900000Y-87000000D02*
X126900000Y-89800000D01*
D36*
G04 #@! TO.N,+Vbatt*
X119750000Y-109961136D02*
X119750000Y-111017786D01*
X119750000Y-111017786D02*
X121425850Y-112693636D01*
X123511136Y-106200000D02*
X119750000Y-109961136D01*
X183050000Y-112051700D02*
X180498300Y-109500000D01*
X179588864Y-115795000D02*
X183050000Y-112333864D01*
D35*
G04 #@! TO.N,+5V*
X125450000Y-56250000D02*
X124637500Y-56250000D01*
X127762500Y-58950000D02*
X127762500Y-58562500D01*
X127762500Y-58562500D02*
X125450000Y-56250000D01*
X124637500Y-56250000D02*
X121210000Y-56250000D01*
X121210000Y-56250000D02*
X121190000Y-56270000D01*
G04 #@! TD*
M02*
