G04 #@! TF.GenerationSoftware,KiCad,Pcbnew,9.0.7*
G04 #@! TF.CreationDate,2026-03-12T00:43:15-06:00*
G04 #@! TF.ProjectId,Power_Motor_Board_v2,506f7765-725f-44d6-9f74-6f725f426f61,rev?*
G04 #@! TF.SameCoordinates,Original*
G04 #@! TF.FileFunction,Paste,Top*
G04 #@! TF.FilePolarity,Positive*
%FSLAX46Y46*%
G04 Gerber Fmt 4.6, Leading zero omitted, Abs format (unit mm)*
G04 Created by KiCad (PCBNEW 9.0.7) date 2026-03-12 00:43:15*
%MOMM*%
%LPD*%
G01*
G04 APERTURE LIST*
G04 Aperture macros list*
%AMRoundRect*
0 Rectangle with rounded corners*
0 $1 Rounding radius*
0 $2 $3 $4 $5 $6 $7 $8 $9 X,Y pos of 4 corners*
0 Add a 4 corners polygon primitive as box body*
4,1,4,$2,$3,$4,$5,$6,$7,$8,$9,$2,$3,0*
0 Add four circle primitives for the rounded corners*
1,1,$1+$1,$2,$3*
1,1,$1+$1,$4,$5*
1,1,$1+$1,$6,$7*
1,1,$1+$1,$8,$9*
0 Add four rect primitives between the rounded corners*
20,1,$1+$1,$2,$3,$4,$5,0*
20,1,$1+$1,$4,$5,$6,$7,0*
20,1,$1+$1,$6,$7,$8,$9,0*
20,1,$1+$1,$8,$9,$2,$3,0*%
G04 Aperture macros list end*
%ADD10C,0.000000*%
%ADD11RoundRect,0.250000X0.650000X-0.412500X0.650000X0.412500X-0.650000X0.412500X-0.650000X-0.412500X0*%
%ADD12R,3.800000X2.030000*%
%ADD13RoundRect,0.250000X-1.100000X0.412500X-1.100000X-0.412500X1.100000X-0.412500X1.100000X0.412500X0*%
%ADD14RoundRect,0.250000X2.500000X-0.475000X2.500000X0.475000X-2.500000X0.475000X-2.500000X-0.475000X0*%
%ADD15RoundRect,0.250000X0.412500X0.650000X-0.412500X0.650000X-0.412500X-0.650000X0.412500X-0.650000X0*%
%ADD16RoundRect,0.162500X0.162500X-0.837500X0.162500X0.837500X-0.162500X0.837500X-0.162500X-0.837500X0*%
%ADD17RoundRect,0.250001X-0.462499X-0.624999X0.462499X-0.624999X0.462499X0.624999X-0.462499X0.624999X0*%
%ADD18RoundRect,0.250000X-0.650000X0.412500X-0.650000X-0.412500X0.650000X-0.412500X0.650000X0.412500X0*%
%ADD19RoundRect,0.250000X-0.412500X-0.650000X0.412500X-0.650000X0.412500X0.650000X-0.412500X0.650000X0*%
%ADD20RoundRect,0.330000X1.770000X0.770000X-1.770000X0.770000X-1.770000X-0.770000X1.770000X-0.770000X0*%
%ADD21R,1.460500X0.558800*%
%ADD22RoundRect,0.250000X0.400000X0.625000X-0.400000X0.625000X-0.400000X-0.625000X0.400000X-0.625000X0*%
%ADD23RoundRect,0.250000X-0.400000X-0.625000X0.400000X-0.625000X0.400000X0.625000X-0.400000X0.625000X0*%
%ADD24RoundRect,0.330000X-1.770000X-0.770000X1.770000X-0.770000X1.770000X0.770000X-1.770000X0.770000X0*%
G04 APERTURE END LIST*
D10*
G04 #@! TO.C,IC3*
G36*
X177674150Y-107495000D02*
G01*
X176515250Y-107495000D01*
X176515250Y-105993200D01*
X177674150Y-105993200D01*
X177674150Y-107495000D01*
G37*
G36*
X177674150Y-109196800D02*
G01*
X176515250Y-109196800D01*
X176515250Y-107695000D01*
X177674150Y-107695000D01*
X177674150Y-109196800D01*
G37*
G36*
X179033050Y-107495000D02*
G01*
X177874150Y-107495000D01*
X177874150Y-105993200D01*
X179033050Y-105993200D01*
X179033050Y-107495000D01*
G37*
G36*
X179033050Y-109196800D02*
G01*
X177874150Y-109196800D01*
X177874150Y-107695000D01*
X179033050Y-107695000D01*
X179033050Y-109196800D01*
G37*
G04 #@! TO.C,IC1*
G36*
X124050000Y-114498636D02*
G01*
X122891100Y-114498636D01*
X122891100Y-112996836D01*
X124050000Y-112996836D01*
X124050000Y-114498636D01*
G37*
G36*
X124050000Y-116200436D02*
G01*
X122891100Y-116200436D01*
X122891100Y-114698636D01*
X124050000Y-114698636D01*
X124050000Y-116200436D01*
G37*
G36*
X125408900Y-114498636D02*
G01*
X124250000Y-114498636D01*
X124250000Y-112996836D01*
X125408900Y-112996836D01*
X125408900Y-114498636D01*
G37*
G36*
X125408900Y-116200436D02*
G01*
X124250000Y-116200436D01*
X124250000Y-114698636D01*
X125408900Y-114698636D01*
X125408900Y-116200436D01*
G37*
G04 #@! TD*
D11*
G04 #@! TO.C,C17*
X157000000Y-107615000D03*
X157000000Y-110740000D03*
G04 #@! TD*
D12*
G04 #@! TO.C,TP2*
X134550000Y-63100000D03*
G04 #@! TD*
D13*
G04 #@! TO.C,C19*
X150000000Y-107637500D03*
X150000000Y-110762500D03*
G04 #@! TD*
D14*
G04 #@! TO.C,L2*
X146650000Y-104237500D03*
X146650000Y-100237500D03*
G04 #@! TD*
D13*
G04 #@! TO.C,C20*
X146300000Y-107637500D03*
X146300000Y-110762500D03*
G04 #@! TD*
D15*
G04 #@! TO.C,C18*
X154750000Y-104587500D03*
X151625000Y-104587500D03*
G04 #@! TD*
D16*
G04 #@! TO.C,IC4*
X152750000Y-110787500D03*
X153700000Y-110787500D03*
X154650000Y-110787500D03*
X154650000Y-107367500D03*
X153700000Y-107367500D03*
X152750000Y-107367500D03*
G04 #@! TD*
D17*
G04 #@! TO.C,F1*
X159762500Y-118287500D03*
X162737500Y-118287500D03*
G04 #@! TD*
D18*
G04 #@! TO.C,C8*
X183050000Y-112333864D03*
X183050000Y-115458864D03*
G04 #@! TD*
D19*
G04 #@! TO.C,C11*
X124637500Y-56250000D03*
X127762500Y-56250000D03*
G04 #@! TD*
D20*
G04 #@! TO.C,C6*
X178300000Y-115795000D03*
X171000000Y-115795000D03*
G04 #@! TD*
D21*
G04 #@! TO.C,IC3*
X175050000Y-105690000D03*
X175050000Y-106960000D03*
X175050000Y-108230000D03*
X175050000Y-109500000D03*
X180498300Y-109500000D03*
X180498300Y-108230000D03*
X180498300Y-106960000D03*
X180498300Y-105690000D03*
G04 #@! TD*
D15*
G04 #@! TO.C,C12*
X127762500Y-58950000D03*
X124637500Y-58950000D03*
G04 #@! TD*
D19*
G04 #@! TO.C,C10*
X124800000Y-69200000D03*
X127925000Y-69200000D03*
G04 #@! TD*
D15*
G04 #@! TO.C,C7*
X172512500Y-109296364D03*
X169387500Y-109296364D03*
G04 #@! TD*
D19*
G04 #@! TO.C,C14*
X129387500Y-113398636D03*
X132512500Y-113398636D03*
G04 #@! TD*
D11*
G04 #@! TO.C,C15*
X119750000Y-109961136D03*
X119750000Y-106836136D03*
G04 #@! TD*
D22*
G04 #@! TO.C,R3*
X179350000Y-103000000D03*
X176250000Y-103000000D03*
G04 #@! TD*
G04 #@! TO.C,R7*
X172450000Y-103495000D03*
X169350000Y-103495000D03*
G04 #@! TD*
D19*
G04 #@! TO.C,C13*
X129387500Y-116298636D03*
X132512500Y-116298636D03*
G04 #@! TD*
D23*
G04 #@! TO.C,R5*
X124350000Y-87000000D03*
X127450000Y-87000000D03*
G04 #@! TD*
G04 #@! TO.C,R4*
X124350000Y-84300000D03*
X127450000Y-84300000D03*
G04 #@! TD*
D19*
G04 #@! TO.C,C9*
X124862500Y-66400000D03*
X127987500Y-66400000D03*
G04 #@! TD*
D21*
G04 #@! TO.C,IC1*
X126874150Y-116503636D03*
X126874150Y-115233636D03*
X126874150Y-113963636D03*
X126874150Y-112693636D03*
X121425850Y-112693636D03*
X121425850Y-113963636D03*
X121425850Y-115233636D03*
X121425850Y-116503636D03*
G04 #@! TD*
D24*
G04 #@! TO.C,C16*
X124200000Y-106200000D03*
X131500000Y-106200000D03*
G04 #@! TD*
D23*
G04 #@! TO.C,R1*
X122400000Y-119098636D03*
X125500000Y-119098636D03*
G04 #@! TD*
D15*
G04 #@! TO.C,C5*
X172475000Y-106395000D03*
X169350000Y-106395000D03*
G04 #@! TD*
D23*
G04 #@! TO.C,R2*
X129400000Y-119098636D03*
X132500000Y-119098636D03*
G04 #@! TD*
M02*
