M48
; DRILL file {KiCad 9.0.7} date 2026-03-12T00:43:15-0600
; FORMAT={-:-/ absolute / metric / decimal}
; #@! TF.CreationDate,2026-03-12T00:43:15-06:00
; #@! TF.GenerationSoftware,Kicad,Pcbnew,9.0.7
; #@! TF.FileFunction,Plated,1,2,PTH
FMAT,2
METRIC
; #@! TA.AperFunction,Plated,PTH,ViaDrill
T1C0.300
; #@! TA.AperFunction,Plated,PTH,ComponentDrill
T2C1.000
; #@! TA.AperFunction,Plated,PTH,ComponentDrill
T3C1.040
; #@! TA.AperFunction,Plated,PTH,ComponentDrill
T4C1.200
%
G90
G05
T1
X117.1Y-106.4
X119.934Y-115.234
X126.65Y-60.55
X128.1Y-54.45
X128.1Y-113.4
X128.2Y-114.9
X128.6Y-64.75
X128.6Y-70.75
X130.1Y-74.1
X130.8Y-104.2
X133.9Y-119.099
X134.2Y-117.9
X134.4Y-112.4
X137.5Y-105.2
X140.5Y-104.7
X141.45Y-77.8
X141.86Y-80.96
X141.86Y-83.5
X141.86Y-86.06
X144.38Y-91.1
X144.4Y-80.96
X144.4Y-83.5
X144.4Y-86.06
X144.4Y-88.6
X146.86Y-83.56
X146.86Y-86.1
X146.9Y-106.287
X146.92Y-88.56
X146.92Y-91.1
X148.86Y-118.2
X149.4Y-83.56
X149.4Y-86.1
X149.46Y-88.56
X149.46Y-93.64
X149.46Y-96.18
X149.6Y-106.438
X150.6Y-117.1
X151.6Y-93.7
X151.62Y-91.1
X151.62Y-96.18
X151.62Y-98.72
X151.62Y-101.26
X154.16Y-91.1
X154.16Y-93.64
X154.16Y-96.18
X154.16Y-98.72
X154.16Y-101.26
X155.95Y-106.188
X156.7Y-91.1
X156.7Y-93.64
X156.7Y-96.18
X156.7Y-98.72
X156.7Y-101.26
X156.76Y-88.6
X159.1Y-107.0
X159.24Y-91.1
X159.24Y-93.64
X159.24Y-96.18
X159.24Y-98.72
X159.24Y-101.26
X159.26Y-103.26
X159.26Y-105.8
X159.3Y-88.6
X161.78Y-91.1
X161.78Y-93.64
X161.78Y-96.18
X161.78Y-98.72
X161.78Y-101.26
X161.8Y-103.26
X161.8Y-105.8
X163.0Y-111.0
X165.46Y-88.56
X165.46Y-91.1
X165.46Y-93.7
X165.46Y-96.24
X167.9Y-103.4
X168.0Y-88.56
X168.0Y-91.1
X168.0Y-93.7
X168.0Y-96.24
X168.0Y-106.4
X168.1Y-108.845
X168.16Y-121.96
X168.16Y-124.5
X168.2Y-127.1
X169.7Y-117.9
X170.56Y-88.56
X170.56Y-91.1
X170.56Y-93.7
X170.56Y-96.24
X170.7Y-121.96
X170.7Y-124.5
X170.74Y-127.1
X171.3Y-99.7
X173.1Y-88.56
X173.1Y-91.1
X173.1Y-93.7
X173.1Y-96.24
X173.16Y-127.1
X173.16Y-127.1
X173.2Y-121.96
X173.2Y-124.5
X173.8Y-108.2
X175.7Y-127.1
X175.7Y-127.1
X175.74Y-121.96
X175.74Y-124.5
X178.5Y-121.96
X178.5Y-124.5
X178.56Y-127.1
X181.04Y-121.96
X181.04Y-124.5
X181.1Y-127.1
X181.859Y-106.96
X184.559Y-115.459
T2
X138.78Y-120.3
X141.32Y-120.3
X143.86Y-120.3
X146.4Y-120.3
X148.94Y-120.3
X149.75Y-45.0
X151.48Y-120.3
X152.29Y-45.0
T3
X118.65Y-51.19
X118.65Y-53.73
X118.65Y-56.27
X118.65Y-58.81
X118.65Y-61.35
X118.65Y-63.89
X118.65Y-66.43
X118.65Y-68.97
X118.65Y-71.51
X118.65Y-74.05
X118.65Y-76.59
X118.65Y-79.13
X118.65Y-81.67
X118.65Y-84.21
X118.65Y-86.75
X118.65Y-89.29
X118.65Y-91.83
X118.65Y-94.37
X118.65Y-96.91
X121.19Y-51.19
X121.19Y-53.73
X121.19Y-56.27
X121.19Y-58.81
X121.19Y-61.35
X121.19Y-63.89
X121.19Y-66.43
X121.19Y-68.97
X121.19Y-71.51
X121.19Y-74.05
X121.19Y-76.59
X121.19Y-79.13
X121.19Y-81.67
X121.19Y-84.21
X121.19Y-86.75
X121.19Y-89.29
X121.19Y-91.83
X121.19Y-94.37
X121.19Y-96.91
X179.61Y-51.19
X179.61Y-53.73
X179.61Y-56.27
X179.61Y-58.81
X179.61Y-61.35
X179.61Y-63.89
X179.61Y-66.43
X179.61Y-68.97
X179.61Y-71.51
X179.61Y-74.05
X179.61Y-76.59
X179.61Y-79.13
X179.61Y-81.67
X179.61Y-84.21
X179.61Y-86.75
X179.61Y-89.29
X179.61Y-91.83
X179.61Y-94.37
X179.61Y-96.91
X182.15Y-51.19
X182.15Y-53.73
X182.15Y-56.27
X182.15Y-58.81
X182.15Y-61.35
X182.15Y-63.89
X182.15Y-66.43
X182.15Y-68.97
X182.15Y-71.51
X182.15Y-74.05
X182.15Y-76.59
X182.15Y-79.13
X182.15Y-81.67
X182.15Y-84.21
X182.15Y-86.75
X182.15Y-89.29
X182.15Y-91.83
X182.15Y-94.37
X182.15Y-96.91
T4
X113.2Y-107.35
X113.2Y-112.35
X158.7Y-124.487
X163.7Y-124.487
X189.0Y-107.2
X189.0Y-112.2
M30
