G04 #@! TF.GenerationSoftware,KiCad,Pcbnew,9.0.7*
G04 #@! TF.CreationDate,2026-03-12T00:43:15-06:00*
G04 #@! TF.ProjectId,Power_Motor_Board_v2,506f7765-725f-44d6-9f74-6f725f426f61,rev?*
G04 #@! TF.SameCoordinates,Original*
G04 #@! TF.FileFunction,Copper,L2,Bot*
G04 #@! TF.FilePolarity,Positive*
%FSLAX46Y46*%
G04 Gerber Fmt 4.6, Leading zero omitted, Abs format (unit mm)*
G04 Created by KiCad (PCBNEW 9.0.7) date 2026-03-12 00:43:15*
%MOMM*%
%LPD*%
G01*
G04 APERTURE LIST*
G04 #@! TA.AperFunction,ComponentPad*
%ADD10C,1.700000*%
G04 #@! TD*
G04 #@! TA.AperFunction,ComponentPad*
%ADD11R,1.700000X1.700000*%
G04 #@! TD*
G04 #@! TA.AperFunction,ComponentPad*
%ADD12C,1.560000*%
G04 #@! TD*
G04 #@! TA.AperFunction,ComponentPad*
%ADD13R,1.560000X1.560000*%
G04 #@! TD*
G04 #@! TA.AperFunction,ComponentPad*
%ADD14C,1.800000*%
G04 #@! TD*
G04 #@! TA.AperFunction,ComponentPad*
%ADD15R,1.800000X1.800000*%
G04 #@! TD*
G04 #@! TA.AperFunction,ViaPad*
%ADD16C,0.600000*%
G04 #@! TD*
G04 #@! TA.AperFunction,ViaPad*
%ADD17C,0.800000*%
G04 #@! TD*
G04 #@! TA.AperFunction,ViaPad*
%ADD18C,1.000000*%
G04 #@! TD*
G04 #@! TA.AperFunction,Conductor*
%ADD19C,0.200000*%
G04 #@! TD*
G04 APERTURE END LIST*
D10*
G04 #@! TO.P,J5,2,Pin_2*
G04 #@! TO.N,GND*
X152290000Y-45000000D03*
D11*
G04 #@! TO.P,J5,1,Pin_1*
G04 #@! TO.N,5V_out*
X149750000Y-45000000D03*
G04 #@! TD*
D12*
G04 #@! TO.P,J2A1,B38,NC*
G04 #@! TO.N,unconnected-(J2A1-NC-PadB38)*
X182150000Y-96910000D03*
G04 #@! TO.P,J2A1,B37,PA3*
G04 #@! TO.N,unconnected-(J2A1-PA3-PadB37)*
X179610000Y-96910000D03*
G04 #@! TO.P,J2A1,B36,NC*
G04 #@! TO.N,unconnected-(J2A1-NC-PadB36)*
X182150000Y-94370000D03*
G04 #@! TO.P,J2A1,B35,PA2*
G04 #@! TO.N,unconnected-(J2A1-PA2-PadB35)*
X179610000Y-94370000D03*
G04 #@! TO.P,J2A1,B34,PC4*
G04 #@! TO.N,unconnected-(J2A1-PC4-PadB34)*
X182150000Y-91830000D03*
G04 #@! TO.P,J2A1,B33,PA10*
G04 #@! TO.N,/IN1_MTR2*
X179610000Y-91830000D03*
G04 #@! TO.P,J2A1,B32,AGND*
G04 #@! TO.N,unconnected-(J2A1-AGND-PadB32)*
X182150000Y-89290000D03*
G04 #@! TO.P,J2A1,B31,PB3*
G04 #@! TO.N,unconnected-(J2A1-PB3-PadB31)*
X179610000Y-89290000D03*
G04 #@! TO.P,J2A1,B30,PB13*
G04 #@! TO.N,unconnected-(J2A1-PB13-PadB30)*
X182150000Y-86750000D03*
G04 #@! TO.P,J2A1,B29,PB5*
G04 #@! TO.N,unconnected-(J2A1-PB5-PadB29)*
X179610000Y-86750000D03*
G04 #@! TO.P,J2A1,B28,PB14*
G04 #@! TO.N,unconnected-(J2A1-PB14-PadB28)*
X182150000Y-84210000D03*
G04 #@! TO.P,J2A1,B27,PB4*
G04 #@! TO.N,unconnected-(J2A1-PB4-PadB27)*
X179610000Y-84210000D03*
G04 #@! TO.P,J2A1,B26,PB15*
G04 #@! TO.N,unconnected-(J2A1-PB15-PadB26)*
X182150000Y-81670000D03*
G04 #@! TO.P,J2A1,B25,PB10*
G04 #@! TO.N,unconnected-(J2A1-PB10-PadB25)*
X179610000Y-81670000D03*
G04 #@! TO.P,J2A1,B24,PB1*
G04 #@! TO.N,unconnected-(J2A1-PB1-PadB24)*
X182150000Y-79130000D03*
G04 #@! TO.P,J2A1,B23,PA8*
G04 #@! TO.N,/IN2-MTR1*
X179610000Y-79130000D03*
G04 #@! TO.P,J2A1,B22,PB2*
G04 #@! TO.N,unconnected-(J2A1-PB2-PadB22)*
X182150000Y-76590000D03*
G04 #@! TO.P,J2A1,B21,PA9*
G04 #@! TO.N,/IN1_MTR1*
X179610000Y-76590000D03*
G04 #@! TO.P,J2A1,B20,GND*
G04 #@! TO.N,GND*
X182150000Y-74050000D03*
G04 #@! TO.P,J2A1,B19,PC7*
G04 #@! TO.N,unconnected-(J2A1-PC7-PadB19)*
X179610000Y-74050000D03*
G04 #@! TO.P,J2A1,B18,NC*
G04 #@! TO.N,unconnected-(J2A1-NC-PadB18)*
X182150000Y-71510000D03*
G04 #@! TO.P,J2A1,B17,PB6*
G04 #@! TO.N,unconnected-(J2A1-PB6-PadB17)*
X179610000Y-71510000D03*
G04 #@! TO.P,J2A1,B16,PB12*
G04 #@! TO.N,unconnected-(J2A1-PB12-PadB16)*
X182150000Y-68970000D03*
G04 #@! TO.P,J2A1,B15,PA7*
G04 #@! TO.N,unconnected-(J2A1-PA7-PadB15)*
X179610000Y-68970000D03*
G04 #@! TO.P,J2A1,B14,PA11*
G04 #@! TO.N,/IN2_MTR2*
X182150000Y-66430000D03*
G04 #@! TO.P,J2A1,B13,PA6*
G04 #@! TO.N,unconnected-(J2A1-PA6-PadB13)*
X179610000Y-66430000D03*
G04 #@! TO.P,J2A1,B12,PA12*
G04 #@! TO.N,unconnected-(J2A1-PA12-PadB12)*
X182150000Y-63890000D03*
G04 #@! TO.P,J2A1,B11,PA5*
G04 #@! TO.N,unconnected-(J2A1-PA5-PadB11)*
X179610000Y-63890000D03*
G04 #@! TO.P,J2A1,B10,NC*
G04 #@! TO.N,unconnected-(J2A1-NC-PadB10)*
X182150000Y-61350000D03*
G04 #@! TO.P,J2A1,B9,GND*
G04 #@! TO.N,GND*
X179610000Y-61350000D03*
G04 #@! TO.P,J2A1,B8,U5V*
G04 #@! TO.N,unconnected-(J2A1-U5V-PadB8)*
X182150000Y-58810000D03*
G04 #@! TO.P,J2A1,B7,AVDD*
G04 #@! TO.N,unconnected-(J2A1-AVDD-PadB7)*
X179610000Y-58810000D03*
G04 #@! TO.P,J2A1,B6,PC5*
G04 #@! TO.N,unconnected-(J2A1-PC5-PadB6)*
X182150000Y-56270000D03*
G04 #@! TO.P,J2A1,B5,PB9*
G04 #@! TO.N,unconnected-(J2A1-PB9-PadB5)*
X179610000Y-56270000D03*
G04 #@! TO.P,J2A1,B4,PC6*
G04 #@! TO.N,unconnected-(J2A1-PC6-PadB4)*
X182150000Y-53730000D03*
G04 #@! TO.P,J2A1,B3,PB8*
G04 #@! TO.N,unconnected-(J2A1-PB8-PadB3)*
X179610000Y-53730000D03*
G04 #@! TO.P,J2A1,B2,PC8*
G04 #@! TO.N,unconnected-(J2A1-PC8-PadB2)*
X182150000Y-51190000D03*
D13*
G04 #@! TO.P,J2A1,B1,PC9*
G04 #@! TO.N,unconnected-(J2A1-PC9-PadB1)*
X179610000Y-51190000D03*
D12*
G04 #@! TO.P,J2A1,A38,PC0*
G04 #@! TO.N,unconnected-(J2A1-PC0-PadA38)*
X121190000Y-96910000D03*
G04 #@! TO.P,J2A1,A37,PC3*
G04 #@! TO.N,/I_MTR2*
X118650000Y-96910000D03*
G04 #@! TO.P,J2A1,A36,PC1*
G04 #@! TO.N,unconnected-(J2A1-PC1-PadA36)*
X121190000Y-94370000D03*
G04 #@! TO.P,J2A1,A35,PC2*
G04 #@! TO.N,/I_MTR1*
X118650000Y-94370000D03*
G04 #@! TO.P,J2A1,A34,PB0*
G04 #@! TO.N,unconnected-(J2A1-PB0-PadA34)*
X121190000Y-91830000D03*
G04 #@! TO.P,J2A1,A33,VBAT*
G04 #@! TO.N,unconnected-(J2A1-VBAT-PadA33)*
X118650000Y-91830000D03*
G04 #@! TO.P,J2A1,A32,PA4*
G04 #@! TO.N,unconnected-(J2A1-PA4-PadA32)*
X121190000Y-89290000D03*
G04 #@! TO.P,J2A1,A31,PH1*
G04 #@! TO.N,unconnected-(J2A1-PH1-PadA31)*
X118650000Y-89290000D03*
G04 #@! TO.P,J2A1,A30,PA1*
G04 #@! TO.N,/BT_TX*
X121190000Y-86750000D03*
G04 #@! TO.P,J2A1,A29,PH0*
G04 #@! TO.N,unconnected-(J2A1-PH0-PadA29)*
X118650000Y-86750000D03*
G04 #@! TO.P,J2A1,A28,PA0*
G04 #@! TO.N,/BT_RX*
X121190000Y-84210000D03*
G04 #@! TO.P,J2A1,A27,PC15*
G04 #@! TO.N,unconnected-(J2A1-PC15-PadA27)*
X118650000Y-84210000D03*
G04 #@! TO.P,J2A1,A26,NC*
G04 #@! TO.N,unconnected-(J2A1-NC-PadA26)*
X121190000Y-81670000D03*
G04 #@! TO.P,J2A1,A25,PC14*
G04 #@! TO.N,unconnected-(J2A1-PC14-PadA25)*
X118650000Y-81670000D03*
G04 #@! TO.P,J2A1,A24,VIN*
G04 #@! TO.N,unconnected-(J2A1-VIN-PadA24)*
X121190000Y-79130000D03*
G04 #@! TO.P,J2A1,A23,PC13*
G04 #@! TO.N,unconnected-(J2A1-PC13-PadA23)*
X118650000Y-79130000D03*
G04 #@! TO.P,J2A1,A22,GND*
G04 #@! TO.N,GND*
X121190000Y-76590000D03*
G04 #@! TO.P,J2A1,A21,PB7*
G04 #@! TO.N,unconnected-(J2A1-PB7-PadA21)*
X118650000Y-76590000D03*
G04 #@! TO.P,J2A1,A20,GND*
G04 #@! TO.N,GND*
X121190000Y-74050000D03*
G04 #@! TO.P,J2A1,A19,GND*
X118650000Y-74050000D03*
G04 #@! TO.P,J2A1,A18,+5V*
G04 #@! TO.N,5V_out*
X121190000Y-71510000D03*
G04 #@! TO.P,J2A1,A17,PA15*
G04 #@! TO.N,unconnected-(J2A1-PA15-PadA17)*
X118650000Y-71510000D03*
G04 #@! TO.P,J2A1,A16,+3V3*
G04 #@! TO.N,+3V3*
X121190000Y-68970000D03*
G04 #@! TO.P,J2A1,A15,PA14*
G04 #@! TO.N,unconnected-(J2A1-PA14-PadA15)*
X118650000Y-68970000D03*
G04 #@! TO.P,J2A1,A14,RESET*
G04 #@! TO.N,unconnected-(J2A1-RESET-PadA14)*
X121190000Y-66430000D03*
G04 #@! TO.P,J2A1,A13,PA13*
G04 #@! TO.N,unconnected-(J2A1-PA13-PadA13)*
X118650000Y-66430000D03*
G04 #@! TO.P,J2A1,A12,IOREF*
G04 #@! TO.N,unconnected-(J2A1-IOREF-PadA12)*
X121190000Y-63890000D03*
G04 #@! TO.P,J2A1,A11,NC*
G04 #@! TO.N,unconnected-(J2A1-NC-PadA11)*
X118650000Y-63890000D03*
G04 #@! TO.P,J2A1,A10,NC*
G04 #@! TO.N,unconnected-(J2A1-NC-PadA10)*
X121190000Y-61350000D03*
G04 #@! TO.P,J2A1,A9,NC*
G04 #@! TO.N,unconnected-(J2A1-NC-PadA9)*
X118650000Y-61350000D03*
G04 #@! TO.P,J2A1,A8,GND*
G04 #@! TO.N,GND*
X121190000Y-58810000D03*
G04 #@! TO.P,J2A1,A7,BOOT0*
G04 #@! TO.N,unconnected-(J2A1-BOOT0-PadA7)*
X118650000Y-58810000D03*
G04 #@! TO.P,J2A1,A6,E5V*
G04 #@! TO.N,+5V*
X121190000Y-56270000D03*
G04 #@! TO.P,J2A1,A5,VDD*
G04 #@! TO.N,unconnected-(J2A1-VDD-PadA5)*
X118650000Y-56270000D03*
G04 #@! TO.P,J2A1,A4,PD2*
G04 #@! TO.N,unconnected-(J2A1-PD2-PadA4)*
X121190000Y-53730000D03*
G04 #@! TO.P,J2A1,A3,PC12*
G04 #@! TO.N,unconnected-(J2A1-PC12-PadA3)*
X118650000Y-53730000D03*
G04 #@! TO.P,J2A1,A2,PC11*
G04 #@! TO.N,unconnected-(J2A1-PC11-PadA2)*
X121190000Y-51190000D03*
D13*
G04 #@! TO.P,J2A1,A1,PC10*
G04 #@! TO.N,unconnected-(J2A1-PC10-PadA1)*
X118650000Y-51190000D03*
G04 #@! TD*
D14*
G04 #@! TO.P,J1,2,2*
G04 #@! TO.N,GND*
X163700000Y-124487500D03*
D15*
G04 #@! TO.P,J1,1,1*
G04 #@! TO.N,Net-(F1-Pad1)*
X158700000Y-124487500D03*
G04 #@! TD*
D11*
G04 #@! TO.P,J4,1,Pin_1*
G04 #@! TO.N,/State*
X151480000Y-120300000D03*
D10*
G04 #@! TO.P,J4,2,Pin_2*
G04 #@! TO.N,Net-(J4-Pin_2)*
X148940000Y-120300000D03*
G04 #@! TO.P,J4,3,Pin_3*
G04 #@! TO.N,Net-(J4-Pin_3)*
X146400000Y-120300000D03*
G04 #@! TO.P,J4,4,Pin_4*
G04 #@! TO.N,GND*
X143860000Y-120300000D03*
G04 #@! TO.P,J4,5,Pin_5*
G04 #@! TO.N,5V_out*
X141320000Y-120300000D03*
G04 #@! TO.P,J4,6,Pin_6*
G04 #@! TO.N,/EN*
X138780000Y-120300000D03*
G04 #@! TD*
D15*
G04 #@! TO.P,J2,1,1*
G04 #@! TO.N,/-OUT_2*
X189000000Y-107200000D03*
D14*
G04 #@! TO.P,J2,2,2*
G04 #@! TO.N,/+OUT_2*
X189000000Y-112200000D03*
G04 #@! TD*
D15*
G04 #@! TO.P,J3,1,1*
G04 #@! TO.N,/-OUT_1*
X113200000Y-112350000D03*
D14*
G04 #@! TO.P,J3,2,2*
G04 #@! TO.N,/+OUT_1*
X113200000Y-107350000D03*
G04 #@! TD*
D16*
G04 #@! TO.N,GND*
X178560000Y-127100000D03*
X181100000Y-127100000D03*
X173160000Y-127100000D03*
X175700000Y-127100000D03*
X173160000Y-127100000D03*
X175700000Y-127100000D03*
X173200000Y-121960000D03*
X175740000Y-121960000D03*
X173200000Y-124500000D03*
X175740000Y-124500000D03*
X173100000Y-91100000D03*
X173100000Y-88560000D03*
X170560000Y-88560000D03*
X170560000Y-91100000D03*
X165460000Y-88560000D03*
X168000000Y-91100000D03*
X168000000Y-88560000D03*
X165460000Y-91100000D03*
X165460000Y-96240000D03*
X168000000Y-93700000D03*
X170700000Y-124500000D03*
X170700000Y-121960000D03*
X168160000Y-121960000D03*
X168160000Y-124500000D03*
X168000000Y-96240000D03*
X165460000Y-93700000D03*
X170560000Y-96240000D03*
X170560000Y-93700000D03*
X173100000Y-93700000D03*
X173100000Y-96240000D03*
X156760000Y-88600000D03*
X159300000Y-88600000D03*
X141860000Y-83500000D03*
X141860000Y-80960000D03*
X144400000Y-83500000D03*
X144400000Y-80960000D03*
X146860000Y-86100000D03*
X146860000Y-83560000D03*
X149400000Y-86100000D03*
X149400000Y-83560000D03*
X159260000Y-105800000D03*
X159260000Y-103260000D03*
X161800000Y-105800000D03*
X161800000Y-103260000D03*
X149460000Y-96180000D03*
X149460000Y-93640000D03*
X146920000Y-91100000D03*
X144380000Y-91100000D03*
X149460000Y-88560000D03*
X146920000Y-88560000D03*
X159100000Y-107000000D03*
X161780000Y-93640000D03*
X161780000Y-91100000D03*
X159240000Y-101260000D03*
X151620000Y-98720000D03*
X151620000Y-96180000D03*
X156700000Y-101260000D03*
X154160000Y-101260000D03*
X151620000Y-101260000D03*
X161780000Y-98720000D03*
X159240000Y-98720000D03*
X156700000Y-98720000D03*
X154160000Y-98720000D03*
X161780000Y-96180000D03*
X159240000Y-96180000D03*
X156700000Y-96180000D03*
X154160000Y-96180000D03*
X159240000Y-93640000D03*
X156700000Y-93640000D03*
X154160000Y-93640000D03*
X159240000Y-91100000D03*
X156700000Y-91100000D03*
X154160000Y-91100000D03*
X151620000Y-91100000D03*
G04 #@! TO.N,+3V3*
X163000000Y-111000000D03*
G04 #@! TO.N,GND*
X155950000Y-106187500D03*
X161780000Y-101260000D03*
X149600000Y-106437500D03*
X146900000Y-106287500D03*
X128100000Y-54450000D03*
X168100000Y-108845000D03*
X133900000Y-119098636D03*
X184558864Y-115458864D03*
X134200000Y-117900000D03*
D17*
X181859397Y-106960000D03*
X119933636Y-115233636D03*
D16*
X167900000Y-103400000D03*
X128600000Y-64750000D03*
X130800000Y-104200000D03*
X126650000Y-60550000D03*
X168000000Y-106400000D03*
X128600000Y-70750000D03*
X169700000Y-117900000D03*
D18*
X117100000Y-106400000D03*
D16*
X134400000Y-112400000D03*
G04 #@! TO.N,+3V3*
X130100000Y-74100000D03*
X150600000Y-117100000D03*
X141450000Y-77800000D03*
G04 #@! TO.N,/IN2-MTR1*
X128200000Y-114900000D03*
G04 #@! TO.N,/IN1_MTR1*
X128100000Y-113400000D03*
G04 #@! TO.N,/IN1_MTR2*
X173800000Y-108200000D03*
G04 #@! TO.N,/I_MTR2*
X171300000Y-99700000D03*
G04 #@! TO.N,Net-(J4-Pin_3)*
X137500000Y-105200000D03*
G04 #@! TO.N,Net-(J4-Pin_2)*
X140500000Y-104700000D03*
X148860000Y-118200000D03*
G04 #@! TO.N,GND*
X141860000Y-86060000D03*
X144400000Y-88600000D03*
X144400000Y-86060000D03*
X178500000Y-121960000D03*
X181040000Y-124500000D03*
X181040000Y-121960000D03*
X178500000Y-124500000D03*
X168200000Y-127100000D03*
X170740000Y-127100000D03*
X151600000Y-93700000D03*
G04 #@! TD*
D19*
G04 #@! TO.N,Net-(J4-Pin_2)*
X148860000Y-113060000D02*
X148860000Y-118200000D01*
X140500000Y-104700000D02*
X148860000Y-113060000D01*
G04 #@! TO.N,/I_MTR2*
X131900000Y-122900000D02*
X118650000Y-109650000D01*
X164800000Y-118900000D02*
X160800000Y-122900000D01*
X166600000Y-99700000D02*
X164800000Y-101500000D01*
X164800000Y-101500000D02*
X164800000Y-118900000D01*
X160800000Y-122900000D02*
X131900000Y-122900000D01*
X118650000Y-109650000D02*
X118650000Y-96910000D01*
X171300000Y-99700000D02*
X166600000Y-99700000D01*
G04 #@! TO.N,+3V3*
X162200000Y-111000000D02*
X163000000Y-111000000D01*
X150600000Y-117100000D02*
X156100000Y-117100000D01*
X156100000Y-117100000D02*
X162200000Y-111000000D01*
G04 #@! TO.N,Net-(J4-Pin_3)*
X146400000Y-115200000D02*
X146400000Y-120300000D01*
X137500000Y-106300000D02*
X146400000Y-115200000D01*
X137500000Y-105200000D02*
X137500000Y-106300000D01*
G04 #@! TO.N,/IN2-MTR1*
X134600000Y-106500000D02*
X160850000Y-80250000D01*
G04 #@! TO.N,/IN1_MTR1*
X128100000Y-111800000D02*
X162000000Y-77900000D01*
G04 #@! TO.N,+3V3*
X137300000Y-77800000D02*
X133600000Y-74100000D01*
X141450000Y-77800000D02*
X137300000Y-77800000D01*
X133600000Y-74100000D02*
X130100000Y-74100000D01*
G04 #@! TO.N,/IN2-MTR1*
X128200000Y-114900000D02*
X128200000Y-114300000D01*
X160850000Y-80250000D02*
X178490000Y-80250000D01*
X128200000Y-114300000D02*
X134600000Y-107900000D01*
X178490000Y-80250000D02*
X179610000Y-79130000D01*
X134600000Y-107900000D02*
X134600000Y-106500000D01*
G04 #@! TO.N,/IN1_MTR1*
X162000000Y-77900000D02*
X178300000Y-77900000D01*
X128100000Y-113400000D02*
X128100000Y-111800000D01*
X178300000Y-77900000D02*
X179610000Y-76590000D01*
G04 #@! TO.N,/IN1_MTR2*
X173199000Y-98241000D02*
X179610000Y-91830000D01*
X173199000Y-107599000D02*
X173199000Y-98241000D01*
X173800000Y-108200000D02*
X173199000Y-107599000D01*
G04 #@! TD*
G04 #@! TA.AperFunction,Conductor*
G04 #@! TO.N,GND*
G36*
X120705437Y-76790712D02*
G01*
X120773896Y-76909287D01*
X120870713Y-77006104D01*
X120989288Y-77074563D01*
X121044259Y-77089292D01*
X120478395Y-77655155D01*
X120519133Y-77684753D01*
X120645682Y-77749234D01*
X120696478Y-77797209D01*
X120713273Y-77865030D01*
X120690735Y-77931165D01*
X120645682Y-77970204D01*
X120518870Y-78034818D01*
X120425838Y-78102410D01*
X120355810Y-78153289D01*
X120355808Y-78153291D01*
X120355807Y-78153291D01*
X120213291Y-78295807D01*
X120213291Y-78295808D01*
X120213289Y-78295810D01*
X120162410Y-78365838D01*
X120094818Y-78458870D01*
X120030485Y-78585131D01*
X119982510Y-78635927D01*
X119914689Y-78652722D01*
X119848554Y-78630184D01*
X119809515Y-78585131D01*
X119779836Y-78526885D01*
X119745182Y-78458871D01*
X119626711Y-78295810D01*
X119484190Y-78153289D01*
X119321129Y-78034818D01*
X119194867Y-77970484D01*
X119144072Y-77922510D01*
X119127277Y-77854690D01*
X119149814Y-77788555D01*
X119194868Y-77749515D01*
X119321129Y-77685182D01*
X119484190Y-77566711D01*
X119626711Y-77424190D01*
X119745182Y-77261129D01*
X119809795Y-77134317D01*
X119857769Y-77083521D01*
X119925590Y-77066726D01*
X119991725Y-77089263D01*
X120030764Y-77134316D01*
X120095246Y-77260867D01*
X120124842Y-77301602D01*
X120124843Y-77301603D01*
X120690707Y-76735739D01*
X120705437Y-76790712D01*
G37*
G04 #@! TD.AperFunction*
G04 #@! TA.AperFunction,Conductor*
G36*
X120705437Y-74250712D02*
G01*
X120773896Y-74369287D01*
X120870713Y-74466104D01*
X120989288Y-74534563D01*
X121044259Y-74549292D01*
X120478395Y-75115155D01*
X120519138Y-75144757D01*
X120646233Y-75209516D01*
X120697029Y-75257490D01*
X120713824Y-75325311D01*
X120691286Y-75391446D01*
X120646233Y-75430484D01*
X120519145Y-75495239D01*
X120519133Y-75495246D01*
X120478396Y-75524842D01*
X120478396Y-75524843D01*
X121044260Y-76090707D01*
X120989288Y-76105437D01*
X120870713Y-76173896D01*
X120773896Y-76270713D01*
X120705437Y-76389288D01*
X120690707Y-76444260D01*
X120124843Y-75878396D01*
X120124842Y-75878396D01*
X120095246Y-75919133D01*
X120095242Y-75919140D01*
X120030764Y-76045683D01*
X119982789Y-76096478D01*
X119914968Y-76113273D01*
X119848833Y-76090735D01*
X119809795Y-76045682D01*
X119745182Y-75918871D01*
X119626711Y-75755810D01*
X119484190Y-75613289D01*
X119321129Y-75494818D01*
X119194868Y-75430485D01*
X119194317Y-75430204D01*
X119143521Y-75382229D01*
X119126726Y-75314408D01*
X119149263Y-75248273D01*
X119194317Y-75209234D01*
X119320866Y-75144753D01*
X119361602Y-75115156D01*
X119361602Y-75115155D01*
X118795739Y-74549292D01*
X118850712Y-74534563D01*
X118969287Y-74466104D01*
X119066104Y-74369287D01*
X119134563Y-74250712D01*
X119149292Y-74195739D01*
X119715155Y-74761602D01*
X119715156Y-74761602D01*
X119744753Y-74720866D01*
X119809515Y-74593766D01*
X119857490Y-74542970D01*
X119925311Y-74526175D01*
X119991446Y-74548713D01*
X120030485Y-74593766D01*
X120095248Y-74720869D01*
X120124842Y-74761602D01*
X120124843Y-74761603D01*
X120690707Y-74195739D01*
X120705437Y-74250712D01*
G37*
G04 #@! TD.AperFunction*
G04 #@! TA.AperFunction,Conductor*
G36*
X119991445Y-72009814D02*
G01*
X120030484Y-72054867D01*
X120094818Y-72181129D01*
X120213289Y-72344190D01*
X120355810Y-72486711D01*
X120518871Y-72605182D01*
X120645682Y-72669795D01*
X120696478Y-72717769D01*
X120713273Y-72785590D01*
X120690736Y-72851725D01*
X120645683Y-72890764D01*
X120519140Y-72955242D01*
X120519133Y-72955246D01*
X120478396Y-72984842D01*
X120478396Y-72984843D01*
X121044260Y-73550707D01*
X120989288Y-73565437D01*
X120870713Y-73633896D01*
X120773896Y-73730713D01*
X120705437Y-73849288D01*
X120690707Y-73904260D01*
X120124843Y-73338396D01*
X120124842Y-73338396D01*
X120095246Y-73379133D01*
X120095239Y-73379145D01*
X120030484Y-73506233D01*
X119982510Y-73557029D01*
X119914689Y-73573824D01*
X119848554Y-73551286D01*
X119809516Y-73506233D01*
X119744757Y-73379138D01*
X119715155Y-73338396D01*
X119715155Y-73338395D01*
X119149292Y-73904259D01*
X119134563Y-73849288D01*
X119066104Y-73730713D01*
X118969287Y-73633896D01*
X118850712Y-73565437D01*
X118795738Y-73550707D01*
X119361603Y-72984843D01*
X119361602Y-72984842D01*
X119320867Y-72955246D01*
X119194316Y-72890764D01*
X119143521Y-72842790D01*
X119126726Y-72774969D01*
X119149264Y-72708834D01*
X119194317Y-72669795D01*
X119321129Y-72605182D01*
X119484190Y-72486711D01*
X119626711Y-72344190D01*
X119745182Y-72181129D01*
X119809515Y-72054867D01*
X119857490Y-72004072D01*
X119925310Y-71987277D01*
X119991445Y-72009814D01*
G37*
G04 #@! TD.AperFunction*
G04 #@! TA.AperFunction,Conductor*
G36*
X120705437Y-59010712D02*
G01*
X120773896Y-59129287D01*
X120870713Y-59226104D01*
X120989288Y-59294563D01*
X121044259Y-59309292D01*
X120478395Y-59875155D01*
X120519133Y-59904753D01*
X120645682Y-59969234D01*
X120696478Y-60017209D01*
X120713273Y-60085030D01*
X120690735Y-60151165D01*
X120645682Y-60190204D01*
X120518870Y-60254818D01*
X120477545Y-60284843D01*
X120355810Y-60373289D01*
X120355808Y-60373291D01*
X120355807Y-60373291D01*
X120213291Y-60515807D01*
X120213291Y-60515808D01*
X120213289Y-60515810D01*
X120162410Y-60585838D01*
X120094818Y-60678870D01*
X120030485Y-60805131D01*
X119982510Y-60855927D01*
X119914689Y-60872722D01*
X119848554Y-60850184D01*
X119809515Y-60805131D01*
X119779836Y-60746885D01*
X119745182Y-60678871D01*
X119626711Y-60515810D01*
X119484190Y-60373289D01*
X119321129Y-60254818D01*
X119194867Y-60190484D01*
X119144072Y-60142510D01*
X119127277Y-60074690D01*
X119149814Y-60008555D01*
X119194868Y-59969515D01*
X119321129Y-59905182D01*
X119484190Y-59786711D01*
X119626711Y-59644190D01*
X119745182Y-59481129D01*
X119809795Y-59354317D01*
X119857769Y-59303521D01*
X119925590Y-59286726D01*
X119991725Y-59309263D01*
X120030764Y-59354316D01*
X120095246Y-59480867D01*
X120124842Y-59521602D01*
X120124843Y-59521603D01*
X120690707Y-58955739D01*
X120705437Y-59010712D01*
G37*
G04 #@! TD.AperFunction*
G04 #@! TA.AperFunction,Conductor*
G36*
X119991445Y-56769814D02*
G01*
X120030484Y-56814867D01*
X120094818Y-56941129D01*
X120213289Y-57104190D01*
X120355810Y-57246711D01*
X120518871Y-57365182D01*
X120645682Y-57429795D01*
X120696478Y-57477769D01*
X120713273Y-57545590D01*
X120690736Y-57611725D01*
X120645683Y-57650764D01*
X120519140Y-57715242D01*
X120519133Y-57715246D01*
X120478396Y-57744842D01*
X120478396Y-57744843D01*
X121044260Y-58310707D01*
X120989288Y-58325437D01*
X120870713Y-58393896D01*
X120773896Y-58490713D01*
X120705437Y-58609288D01*
X120690707Y-58664260D01*
X120124843Y-58098396D01*
X120124842Y-58098396D01*
X120095246Y-58139133D01*
X120095242Y-58139140D01*
X120030764Y-58265683D01*
X119982789Y-58316478D01*
X119914968Y-58333273D01*
X119848833Y-58310735D01*
X119809795Y-58265682D01*
X119745182Y-58138871D01*
X119626711Y-57975810D01*
X119484190Y-57833289D01*
X119321129Y-57714818D01*
X119194867Y-57650484D01*
X119144072Y-57602510D01*
X119127277Y-57534690D01*
X119149814Y-57468555D01*
X119194868Y-57429515D01*
X119321129Y-57365182D01*
X119484190Y-57246711D01*
X119626711Y-57104190D01*
X119745182Y-56941129D01*
X119809515Y-56814867D01*
X119857490Y-56764072D01*
X119925310Y-56747277D01*
X119991445Y-56769814D01*
G37*
G04 #@! TD.AperFunction*
G04 #@! TA.AperFunction,Conductor*
G36*
X181665437Y-74250712D02*
G01*
X181733896Y-74369287D01*
X181830713Y-74466104D01*
X181949288Y-74534563D01*
X182004259Y-74549292D01*
X181438395Y-75115155D01*
X181479133Y-75144753D01*
X181605682Y-75209234D01*
X181656478Y-75257209D01*
X181673273Y-75325030D01*
X181650735Y-75391165D01*
X181605682Y-75430204D01*
X181478870Y-75494818D01*
X181437545Y-75524843D01*
X181315810Y-75613289D01*
X181315808Y-75613291D01*
X181315807Y-75613291D01*
X181173291Y-75755807D01*
X181173291Y-75755808D01*
X181173289Y-75755810D01*
X181122410Y-75825838D01*
X181054818Y-75918870D01*
X180990485Y-76045131D01*
X180942510Y-76095927D01*
X180874689Y-76112722D01*
X180808554Y-76090184D01*
X180769515Y-76045131D01*
X180705181Y-75918870D01*
X180675774Y-75878395D01*
X180586711Y-75755810D01*
X180444190Y-75613289D01*
X180281129Y-75494818D01*
X180154867Y-75430484D01*
X180104072Y-75382510D01*
X180087277Y-75314690D01*
X180109814Y-75248555D01*
X180154868Y-75209515D01*
X180281129Y-75145182D01*
X180444190Y-75026711D01*
X180586711Y-74884190D01*
X180705182Y-74721129D01*
X180769795Y-74594317D01*
X180817769Y-74543521D01*
X180885590Y-74526726D01*
X180951725Y-74549263D01*
X180990764Y-74594316D01*
X181055246Y-74720867D01*
X181084842Y-74761602D01*
X181084843Y-74761603D01*
X181650707Y-74195739D01*
X181665437Y-74250712D01*
G37*
G04 #@! TD.AperFunction*
G04 #@! TA.AperFunction,Conductor*
G36*
X180951445Y-72009814D02*
G01*
X180990484Y-72054867D01*
X181054818Y-72181129D01*
X181173289Y-72344190D01*
X181315810Y-72486711D01*
X181478871Y-72605182D01*
X181605682Y-72669795D01*
X181656478Y-72717769D01*
X181673273Y-72785590D01*
X181650736Y-72851725D01*
X181605683Y-72890764D01*
X181479140Y-72955242D01*
X181479133Y-72955246D01*
X181438396Y-72984842D01*
X181438396Y-72984843D01*
X182004260Y-73550707D01*
X181949288Y-73565437D01*
X181830713Y-73633896D01*
X181733896Y-73730713D01*
X181665437Y-73849288D01*
X181650707Y-73904260D01*
X181084843Y-73338396D01*
X181084842Y-73338396D01*
X181055246Y-73379133D01*
X181055242Y-73379140D01*
X180990764Y-73505683D01*
X180942789Y-73556478D01*
X180874968Y-73573273D01*
X180808833Y-73550735D01*
X180769795Y-73505682D01*
X180755798Y-73478211D01*
X180705182Y-73378871D01*
X180586711Y-73215810D01*
X180444190Y-73073289D01*
X180281129Y-72954818D01*
X180154867Y-72890484D01*
X180104072Y-72842510D01*
X180087277Y-72774690D01*
X180109814Y-72708555D01*
X180154868Y-72669515D01*
X180281129Y-72605182D01*
X180444190Y-72486711D01*
X180586711Y-72344190D01*
X180705182Y-72181129D01*
X180769515Y-72054867D01*
X180817490Y-72004072D01*
X180885310Y-71987277D01*
X180951445Y-72009814D01*
G37*
G04 #@! TD.AperFunction*
G04 #@! TA.AperFunction,Conductor*
G36*
X180675155Y-62061602D02*
G01*
X180675156Y-62061602D01*
X180704753Y-62020866D01*
X180769234Y-61894317D01*
X180817209Y-61843521D01*
X180885030Y-61826726D01*
X180951165Y-61849263D01*
X180990204Y-61894317D01*
X181054818Y-62021129D01*
X181173289Y-62184190D01*
X181315810Y-62326711D01*
X181478871Y-62445182D01*
X181546885Y-62479836D01*
X181605131Y-62509515D01*
X181655927Y-62557490D01*
X181672722Y-62625311D01*
X181650184Y-62691446D01*
X181605131Y-62730485D01*
X181478870Y-62794818D01*
X181385838Y-62862410D01*
X181315810Y-62913289D01*
X181315808Y-62913291D01*
X181315807Y-62913291D01*
X181173291Y-63055807D01*
X181173291Y-63055808D01*
X181173289Y-63055810D01*
X181122410Y-63125838D01*
X181054818Y-63218870D01*
X180990485Y-63345131D01*
X180942510Y-63395927D01*
X180874689Y-63412722D01*
X180808554Y-63390184D01*
X180769515Y-63345131D01*
X180705181Y-63218870D01*
X180586711Y-63055810D01*
X180444190Y-62913289D01*
X180281129Y-62794818D01*
X180154317Y-62730204D01*
X180103521Y-62682229D01*
X180086726Y-62614408D01*
X180109263Y-62548273D01*
X180154317Y-62509234D01*
X180280866Y-62444753D01*
X180321602Y-62415156D01*
X180321602Y-62415155D01*
X179755739Y-61849292D01*
X179810712Y-61834563D01*
X179929287Y-61766104D01*
X180026104Y-61669287D01*
X180094563Y-61550712D01*
X180109292Y-61495739D01*
X180675155Y-62061602D01*
G37*
G04 #@! TD.AperFunction*
G04 #@! TA.AperFunction,Conductor*
G36*
X180951445Y-59309814D02*
G01*
X180990484Y-59354867D01*
X181054818Y-59481129D01*
X181173289Y-59644190D01*
X181315810Y-59786711D01*
X181478871Y-59905182D01*
X181546885Y-59939836D01*
X181605131Y-59969515D01*
X181655927Y-60017490D01*
X181672722Y-60085311D01*
X181650184Y-60151446D01*
X181605131Y-60190485D01*
X181478870Y-60254818D01*
X181437545Y-60284843D01*
X181315810Y-60373289D01*
X181315808Y-60373291D01*
X181315807Y-60373291D01*
X181173291Y-60515807D01*
X181173291Y-60515808D01*
X181173289Y-60515810D01*
X181122410Y-60585838D01*
X181054818Y-60678870D01*
X180990204Y-60805682D01*
X180942229Y-60856478D01*
X180874408Y-60873273D01*
X180808273Y-60850735D01*
X180769234Y-60805682D01*
X180704753Y-60679133D01*
X180675155Y-60638396D01*
X180675155Y-60638395D01*
X180109292Y-61204259D01*
X180094563Y-61149288D01*
X180026104Y-61030713D01*
X179929287Y-60933896D01*
X179810712Y-60865437D01*
X179755738Y-60850707D01*
X180321603Y-60284843D01*
X180321602Y-60284842D01*
X180280867Y-60255246D01*
X180154316Y-60190764D01*
X180103521Y-60142790D01*
X180086726Y-60074969D01*
X180109264Y-60008834D01*
X180154317Y-59969795D01*
X180281129Y-59905182D01*
X180444190Y-59786711D01*
X180586711Y-59644190D01*
X180705182Y-59481129D01*
X180769515Y-59354867D01*
X180817490Y-59304072D01*
X180885310Y-59287277D01*
X180951445Y-59309814D01*
G37*
G04 #@! TD.AperFunction*
G04 #@! TA.AperFunction,Conductor*
G36*
X196942539Y-40720185D02*
G01*
X196988294Y-40772989D01*
X196999500Y-40824500D01*
X196999500Y-130375500D01*
X196979815Y-130442539D01*
X196927011Y-130488294D01*
X196875500Y-130499500D01*
X105124500Y-130499500D01*
X105057461Y-130479815D01*
X105011706Y-130427011D01*
X105000500Y-130375500D01*
X105000500Y-124378711D01*
X109149500Y-124378711D01*
X109149500Y-124621288D01*
X109181161Y-124861785D01*
X109243947Y-125096104D01*
X109336773Y-125320205D01*
X109336776Y-125320212D01*
X109458064Y-125530289D01*
X109458066Y-125530292D01*
X109458067Y-125530293D01*
X109605733Y-125722736D01*
X109605739Y-125722743D01*
X109777256Y-125894260D01*
X109777262Y-125894265D01*
X109969711Y-126041936D01*
X110179788Y-126163224D01*
X110403900Y-126256054D01*
X110638211Y-126318838D01*
X110818586Y-126342584D01*
X110878711Y-126350500D01*
X110878712Y-126350500D01*
X111121289Y-126350500D01*
X111169388Y-126344167D01*
X111361789Y-126318838D01*
X111596100Y-126256054D01*
X111820212Y-126163224D01*
X112030289Y-126041936D01*
X112222738Y-125894265D01*
X112394265Y-125722738D01*
X112541936Y-125530289D01*
X112663224Y-125320212D01*
X112756054Y-125096100D01*
X112818838Y-124861789D01*
X112850500Y-124621288D01*
X112850500Y-124378712D01*
X112850316Y-124377318D01*
X112818838Y-124138214D01*
X112818838Y-124138211D01*
X112756054Y-123903900D01*
X112663224Y-123679788D01*
X112541936Y-123469711D01*
X112473501Y-123380524D01*
X112394266Y-123277263D01*
X112394260Y-123277256D01*
X112222743Y-123105739D01*
X112222736Y-123105733D01*
X112030293Y-122958067D01*
X112030292Y-122958066D01*
X112030289Y-122958064D01*
X111820212Y-122836776D01*
X111820205Y-122836773D01*
X111596104Y-122743947D01*
X111361785Y-122681161D01*
X111121289Y-122649500D01*
X111121288Y-122649500D01*
X110878712Y-122649500D01*
X110878711Y-122649500D01*
X110638214Y-122681161D01*
X110403895Y-122743947D01*
X110179794Y-122836773D01*
X110179785Y-122836777D01*
X109969706Y-122958067D01*
X109777263Y-123105733D01*
X109777256Y-123105739D01*
X109605739Y-123277256D01*
X109605733Y-123277263D01*
X109458067Y-123469706D01*
X109336777Y-123679785D01*
X109336773Y-123679794D01*
X109243947Y-123903895D01*
X109181161Y-124138214D01*
X109149500Y-124378711D01*
X105000500Y-124378711D01*
X105000500Y-111402135D01*
X111799500Y-111402135D01*
X111799500Y-113297870D01*
X111799501Y-113297876D01*
X111805908Y-113357483D01*
X111856202Y-113492328D01*
X111856206Y-113492335D01*
X111942452Y-113607544D01*
X111942455Y-113607547D01*
X112057664Y-113693793D01*
X112057671Y-113693797D01*
X112192517Y-113744091D01*
X112192516Y-113744091D01*
X112199444Y-113744835D01*
X112252127Y-113750500D01*
X114147872Y-113750499D01*
X114207483Y-113744091D01*
X114342331Y-113693796D01*
X114457546Y-113607546D01*
X114543796Y-113492331D01*
X114594091Y-113357483D01*
X114600500Y-113297873D01*
X114600499Y-111402128D01*
X114594091Y-111342517D01*
X114573621Y-111287635D01*
X114543797Y-111207671D01*
X114543793Y-111207664D01*
X114457547Y-111092455D01*
X114457544Y-111092452D01*
X114342335Y-111006206D01*
X114342328Y-111006202D01*
X114207482Y-110955908D01*
X114207483Y-110955908D01*
X114147883Y-110949501D01*
X114147881Y-110949500D01*
X114147873Y-110949500D01*
X114147864Y-110949500D01*
X112252129Y-110949500D01*
X112252123Y-110949501D01*
X112192516Y-110955908D01*
X112057671Y-111006202D01*
X112057664Y-111006206D01*
X111942455Y-111092452D01*
X111942452Y-111092455D01*
X111856206Y-111207664D01*
X111856202Y-111207671D01*
X111805908Y-111342517D01*
X111799501Y-111402116D01*
X111799501Y-111402123D01*
X111799500Y-111402135D01*
X105000500Y-111402135D01*
X105000500Y-107239778D01*
X111799500Y-107239778D01*
X111799500Y-107460221D01*
X111833985Y-107677952D01*
X111902103Y-107887603D01*
X111902104Y-107887606D01*
X111948702Y-107979057D01*
X111999891Y-108079520D01*
X112002187Y-108084025D01*
X112131752Y-108262358D01*
X112131756Y-108262363D01*
X112287636Y-108418243D01*
X112287641Y-108418247D01*
X112443192Y-108531260D01*
X112465978Y-108547815D01*
X112556799Y-108594091D01*
X112662393Y-108647895D01*
X112662396Y-108647896D01*
X112767221Y-108681955D01*
X112872049Y-108716015D01*
X113089778Y-108750500D01*
X113089779Y-108750500D01*
X113310221Y-108750500D01*
X113310222Y-108750500D01*
X113527951Y-108716015D01*
X113737606Y-108647895D01*
X113934022Y-108547815D01*
X114112365Y-108418242D01*
X114268242Y-108262365D01*
X114397815Y-108084022D01*
X114497895Y-107887606D01*
X114566015Y-107677951D01*
X114600500Y-107460222D01*
X114600500Y-107239778D01*
X114566015Y-107022049D01*
X114497895Y-106812394D01*
X114497895Y-106812393D01*
X114424687Y-106668717D01*
X114397815Y-106615978D01*
X114370991Y-106579058D01*
X114268247Y-106437641D01*
X114268243Y-106437636D01*
X114112363Y-106281756D01*
X114112358Y-106281752D01*
X113934025Y-106152187D01*
X113934024Y-106152186D01*
X113934022Y-106152185D01*
X113871096Y-106120122D01*
X113737606Y-106052104D01*
X113737603Y-106052103D01*
X113527952Y-105983985D01*
X113419086Y-105966742D01*
X113310222Y-105949500D01*
X113089778Y-105949500D01*
X113017201Y-105960995D01*
X112872047Y-105983985D01*
X112662396Y-106052103D01*
X112662393Y-106052104D01*
X112465974Y-106152187D01*
X112287641Y-106281752D01*
X112287636Y-106281756D01*
X112131756Y-106437636D01*
X112131752Y-106437641D01*
X112002187Y-106615974D01*
X111902104Y-106812393D01*
X111902103Y-106812396D01*
X111833985Y-107022047D01*
X111799500Y-107239778D01*
X105000500Y-107239778D01*
X105000500Y-50362135D01*
X117369500Y-50362135D01*
X117369500Y-52017870D01*
X117369501Y-52017876D01*
X117375908Y-52077483D01*
X117426202Y-52212328D01*
X117426206Y-52212335D01*
X117512452Y-52327544D01*
X117512455Y-52327547D01*
X117627664Y-52413793D01*
X117627671Y-52413797D01*
X117672618Y-52430561D01*
X117762517Y-52464091D01*
X117822127Y-52470500D01*
X117823378Y-52470499D01*
X117823656Y-52470581D01*
X117825453Y-52470678D01*
X117825430Y-52471101D01*
X117890419Y-52490169D01*
X117936185Y-52542963D01*
X117946144Y-52612119D01*
X117917133Y-52675681D01*
X117896289Y-52694816D01*
X117815810Y-52753288D01*
X117673291Y-52895807D01*
X117673291Y-52895808D01*
X117673289Y-52895810D01*
X117622410Y-52965838D01*
X117554818Y-53058870D01*
X117463312Y-53238460D01*
X117401030Y-53430147D01*
X117369500Y-53629216D01*
X117369500Y-53830783D01*
X117401030Y-54029852D01*
X117463312Y-54221539D01*
X117490485Y-54274868D01*
X117554818Y-54401129D01*
X117673289Y-54564190D01*
X117815810Y-54706711D01*
X117978871Y-54825182D01*
X118046885Y-54859836D01*
X118105131Y-54889515D01*
X118155927Y-54937490D01*
X118172722Y-55005311D01*
X118150184Y-55071446D01*
X118105131Y-55110485D01*
X117978870Y-55174818D01*
X117885838Y-55242410D01*
X117815810Y-55293289D01*
X117815808Y-55293291D01*
X117815807Y-55293291D01*
X117673291Y-55435807D01*
X117673291Y-55435808D01*
X117673289Y-55435810D01*
X117622410Y-55505838D01*
X117554818Y-55598870D01*
X117463312Y-55778460D01*
X117401030Y-55970147D01*
X117369500Y-56169216D01*
X117369500Y-56370783D01*
X117401030Y-56569852D01*
X117463312Y-56761539D01*
X117490485Y-56814868D01*
X117554818Y-56941129D01*
X117673289Y-57104190D01*
X117815810Y-57246711D01*
X117978871Y-57365182D01*
X118046885Y-57399836D01*
X118105131Y-57429515D01*
X118155927Y-57477490D01*
X118172722Y-57545311D01*
X118150184Y-57611446D01*
X118105131Y-57650485D01*
X117978870Y-57714818D01*
X117937545Y-57744843D01*
X117815810Y-57833289D01*
X117815808Y-57833291D01*
X117815807Y-57833291D01*
X117673291Y-57975807D01*
X117673291Y-57975808D01*
X117673289Y-57975810D01*
X117622410Y-58045838D01*
X117554818Y-58138870D01*
X117463312Y-58318460D01*
X117401030Y-58510147D01*
X117369500Y-58709216D01*
X117369500Y-58910783D01*
X117401030Y-59109852D01*
X117463312Y-59301539D01*
X117490485Y-59354868D01*
X117554818Y-59481129D01*
X117673289Y-59644190D01*
X117815810Y-59786711D01*
X117978871Y-59905182D01*
X118046885Y-59939836D01*
X118105131Y-59969515D01*
X118155927Y-60017490D01*
X118172722Y-60085311D01*
X118150184Y-60151446D01*
X118105131Y-60190485D01*
X117978870Y-60254818D01*
X117937545Y-60284843D01*
X117815810Y-60373289D01*
X117815808Y-60373291D01*
X117815807Y-60373291D01*
X117673291Y-60515807D01*
X117673291Y-60515808D01*
X117673289Y-60515810D01*
X117622410Y-60585838D01*
X117554818Y-60678870D01*
X117463312Y-60858460D01*
X117401030Y-61050147D01*
X117369500Y-61249216D01*
X117369500Y-61450783D01*
X117401030Y-61649852D01*
X117463312Y-61841539D01*
X117490204Y-61894317D01*
X117554818Y-62021129D01*
X117673289Y-62184190D01*
X117815810Y-62326711D01*
X117978871Y-62445182D01*
X118046885Y-62479836D01*
X118105131Y-62509515D01*
X118155927Y-62557490D01*
X118172722Y-62625311D01*
X118150184Y-62691446D01*
X118105131Y-62730485D01*
X117978870Y-62794818D01*
X117885838Y-62862410D01*
X117815810Y-62913289D01*
X117815808Y-62913291D01*
X117815807Y-62913291D01*
X117673291Y-63055807D01*
X117673291Y-63055808D01*
X117673289Y-63055810D01*
X117622410Y-63125838D01*
X117554818Y-63218870D01*
X117463312Y-63398460D01*
X117401030Y-63590147D01*
X117369500Y-63789216D01*
X117369500Y-63990783D01*
X117401030Y-64189852D01*
X117463312Y-64381539D01*
X117490485Y-64434868D01*
X117554818Y-64561129D01*
X117673289Y-64724190D01*
X117815810Y-64866711D01*
X117978871Y-64985182D01*
X118046885Y-65019836D01*
X118105131Y-65049515D01*
X118155927Y-65097490D01*
X118172722Y-65165311D01*
X118150184Y-65231446D01*
X118105131Y-65270485D01*
X117978870Y-65334818D01*
X117885838Y-65402410D01*
X117815810Y-65453289D01*
X117815808Y-65453291D01*
X117815807Y-65453291D01*
X117673291Y-65595807D01*
X117673291Y-65595808D01*
X117673289Y-65595810D01*
X117622410Y-65665838D01*
X117554818Y-65758870D01*
X117463312Y-65938460D01*
X117401030Y-66130147D01*
X117369500Y-66329216D01*
X117369500Y-66530783D01*
X117401030Y-66729852D01*
X117463312Y-66921539D01*
X117490485Y-66974868D01*
X117554818Y-67101129D01*
X117673289Y-67264190D01*
X117815810Y-67406711D01*
X117978871Y-67525182D01*
X118046885Y-67559836D01*
X118105131Y-67589515D01*
X118155927Y-67637490D01*
X118172722Y-67705311D01*
X118150184Y-67771446D01*
X118105131Y-67810485D01*
X117978870Y-67874818D01*
X117885838Y-67942410D01*
X117815810Y-67993289D01*
X117815808Y-67993291D01*
X117815807Y-67993291D01*
X117673291Y-68135807D01*
X117673291Y-68135808D01*
X117673289Y-68135810D01*
X117622410Y-68205838D01*
X117554818Y-68298870D01*
X117463312Y-68478460D01*
X117401030Y-68670147D01*
X117369500Y-68869216D01*
X117369500Y-69070783D01*
X117401030Y-69269852D01*
X117463312Y-69461539D01*
X117490485Y-69514868D01*
X117554818Y-69641129D01*
X117673289Y-69804190D01*
X117815810Y-69946711D01*
X117978871Y-70065182D01*
X118046885Y-70099836D01*
X118105131Y-70129515D01*
X118155927Y-70177490D01*
X118172722Y-70245311D01*
X118150184Y-70311446D01*
X118105131Y-70350485D01*
X117978870Y-70414818D01*
X117885838Y-70482410D01*
X117815810Y-70533289D01*
X117815808Y-70533291D01*
X117815807Y-70533291D01*
X117673291Y-70675807D01*
X117673291Y-70675808D01*
X117673289Y-70675810D01*
X117622410Y-70745838D01*
X117554818Y-70838870D01*
X117463312Y-71018460D01*
X117401030Y-71210147D01*
X117369500Y-71409216D01*
X117369500Y-71610783D01*
X117401030Y-71809852D01*
X117463312Y-72001539D01*
X117490485Y-72054868D01*
X117554818Y-72181129D01*
X117673289Y-72344190D01*
X117815810Y-72486711D01*
X117978871Y-72605182D01*
X118105682Y-72669795D01*
X118156478Y-72717769D01*
X118173273Y-72785590D01*
X118150736Y-72851725D01*
X118105683Y-72890764D01*
X117979140Y-72955242D01*
X117979133Y-72955246D01*
X117938396Y-72984842D01*
X117938396Y-72984843D01*
X118504260Y-73550707D01*
X118449288Y-73565437D01*
X118330713Y-73633896D01*
X118233896Y-73730713D01*
X118165437Y-73849288D01*
X118150707Y-73904260D01*
X117584843Y-73338396D01*
X117584842Y-73338396D01*
X117555246Y-73379133D01*
X117555245Y-73379135D01*
X117463776Y-73558650D01*
X117463775Y-73558653D01*
X117401518Y-73750264D01*
X117370000Y-73949262D01*
X117370000Y-74150737D01*
X117401518Y-74349735D01*
X117463775Y-74541346D01*
X117463776Y-74541349D01*
X117555248Y-74720869D01*
X117584842Y-74761602D01*
X117584843Y-74761603D01*
X118150707Y-74195739D01*
X118165437Y-74250712D01*
X118233896Y-74369287D01*
X118330713Y-74466104D01*
X118449288Y-74534563D01*
X118504259Y-74549292D01*
X117938395Y-75115155D01*
X117979133Y-75144753D01*
X118105682Y-75209234D01*
X118156478Y-75257209D01*
X118173273Y-75325030D01*
X118150735Y-75391165D01*
X118105682Y-75430204D01*
X117978870Y-75494818D01*
X117937545Y-75524843D01*
X117815810Y-75613289D01*
X117815808Y-75613291D01*
X117815807Y-75613291D01*
X117673291Y-75755807D01*
X117673291Y-75755808D01*
X117673289Y-75755810D01*
X117622410Y-75825838D01*
X117554818Y-75918870D01*
X117463312Y-76098460D01*
X117401030Y-76290147D01*
X117369500Y-76489216D01*
X117369500Y-76690783D01*
X117401030Y-76889852D01*
X117463312Y-77081539D01*
X117554684Y-77260866D01*
X117554818Y-77261129D01*
X117673289Y-77424190D01*
X117815810Y-77566711D01*
X117978871Y-77685182D01*
X118046885Y-77719836D01*
X118105131Y-77749515D01*
X118155927Y-77797490D01*
X118172722Y-77865311D01*
X118150184Y-77931446D01*
X118105131Y-77970485D01*
X117978870Y-78034818D01*
X117885838Y-78102410D01*
X117815810Y-78153289D01*
X117815808Y-78153291D01*
X117815807Y-78153291D01*
X117673291Y-78295807D01*
X117673291Y-78295808D01*
X117673289Y-78295810D01*
X117622410Y-78365838D01*
X117554818Y-78458870D01*
X117463312Y-78638460D01*
X117401030Y-78830147D01*
X117369500Y-79029216D01*
X117369500Y-79230783D01*
X117401030Y-79429852D01*
X117463312Y-79621539D01*
X117490485Y-79674868D01*
X117554818Y-79801129D01*
X117673289Y-79964190D01*
X117815810Y-80106711D01*
X117978871Y-80225182D01*
X118046885Y-80259836D01*
X118105131Y-80289515D01*
X118155927Y-80337490D01*
X118172722Y-80405311D01*
X118150184Y-80471446D01*
X118105131Y-80510485D01*
X117978870Y-80574818D01*
X117885838Y-80642410D01*
X117815810Y-80693289D01*
X117815808Y-80693291D01*
X117815807Y-80693291D01*
X117673291Y-80835807D01*
X117673291Y-80835808D01*
X117673289Y-80835810D01*
X117660557Y-80853334D01*
X117554818Y-80998870D01*
X117463312Y-81178460D01*
X117401030Y-81370147D01*
X117369500Y-81569216D01*
X117369500Y-81770783D01*
X117401030Y-81969852D01*
X117463312Y-82161539D01*
X117490485Y-82214868D01*
X117554818Y-82341129D01*
X117673289Y-82504190D01*
X117815810Y-82646711D01*
X117978871Y-82765182D01*
X118046885Y-82799836D01*
X118105131Y-82829515D01*
X118155927Y-82877490D01*
X118172722Y-82945311D01*
X118150184Y-83011446D01*
X118105131Y-83050485D01*
X117978870Y-83114818D01*
X117885838Y-83182410D01*
X117815810Y-83233289D01*
X117815808Y-83233291D01*
X117815807Y-83233291D01*
X117673291Y-83375807D01*
X117673291Y-83375808D01*
X117673289Y-83375810D01*
X117622410Y-83445838D01*
X117554818Y-83538870D01*
X117463312Y-83718460D01*
X117401030Y-83910147D01*
X117369500Y-84109216D01*
X117369500Y-84310783D01*
X117401030Y-84509852D01*
X117463312Y-84701539D01*
X117490485Y-84754868D01*
X117554818Y-84881129D01*
X117673289Y-85044190D01*
X117815810Y-85186711D01*
X117978871Y-85305182D01*
X118046885Y-85339836D01*
X118105131Y-85369515D01*
X118155927Y-85417490D01*
X118172722Y-85485311D01*
X118150184Y-85551446D01*
X118105131Y-85590485D01*
X117978870Y-85654818D01*
X117885838Y-85722410D01*
X117815810Y-85773289D01*
X117815808Y-85773291D01*
X117815807Y-85773291D01*
X117673291Y-85915807D01*
X117673291Y-85915808D01*
X117673289Y-85915810D01*
X117622410Y-85985838D01*
X117554818Y-86078870D01*
X117463312Y-86258460D01*
X117401030Y-86450147D01*
X117369500Y-86649216D01*
X117369500Y-86850783D01*
X117401030Y-87049852D01*
X117463312Y-87241539D01*
X117490485Y-87294868D01*
X117554818Y-87421129D01*
X117673289Y-87584190D01*
X117815810Y-87726711D01*
X117978871Y-87845182D01*
X118046885Y-87879836D01*
X118105131Y-87909515D01*
X118155927Y-87957490D01*
X118172722Y-88025311D01*
X118150184Y-88091446D01*
X118105131Y-88130485D01*
X117978870Y-88194818D01*
X117885838Y-88262410D01*
X117815810Y-88313289D01*
X117815808Y-88313291D01*
X117815807Y-88313291D01*
X117673291Y-88455807D01*
X117673291Y-88455808D01*
X117673289Y-88455810D01*
X117622410Y-88525838D01*
X117554818Y-88618870D01*
X117463312Y-88798460D01*
X117401030Y-88990147D01*
X117369500Y-89189216D01*
X117369500Y-89390783D01*
X117401030Y-89589852D01*
X117463312Y-89781539D01*
X117490485Y-89834868D01*
X117554818Y-89961129D01*
X117673289Y-90124190D01*
X117815810Y-90266711D01*
X117978871Y-90385182D01*
X118046885Y-90419836D01*
X118105131Y-90449515D01*
X118155927Y-90497490D01*
X118172722Y-90565311D01*
X118150184Y-90631446D01*
X118105131Y-90670485D01*
X117978870Y-90734818D01*
X117885838Y-90802410D01*
X117815810Y-90853289D01*
X117815808Y-90853291D01*
X117815807Y-90853291D01*
X117673291Y-90995807D01*
X117673291Y-90995808D01*
X117673289Y-90995810D01*
X117622410Y-91065838D01*
X117554818Y-91158870D01*
X117463312Y-91338460D01*
X117401030Y-91530147D01*
X117369500Y-91729216D01*
X117369500Y-91930783D01*
X117401030Y-92129852D01*
X117463312Y-92321539D01*
X117490485Y-92374868D01*
X117554818Y-92501129D01*
X117673289Y-92664190D01*
X117815810Y-92806711D01*
X117978871Y-92925182D01*
X118046885Y-92959836D01*
X118105131Y-92989515D01*
X118155927Y-93037490D01*
X118172722Y-93105311D01*
X118150184Y-93171446D01*
X118105131Y-93210485D01*
X117978870Y-93274818D01*
X117885838Y-93342410D01*
X117815810Y-93393289D01*
X117815808Y-93393291D01*
X117815807Y-93393291D01*
X117673291Y-93535807D01*
X117673291Y-93535808D01*
X117673289Y-93535810D01*
X117622410Y-93605838D01*
X117554818Y-93698870D01*
X117463312Y-93878460D01*
X117401030Y-94070147D01*
X117369500Y-94269216D01*
X117369500Y-94470783D01*
X117401030Y-94669852D01*
X117463312Y-94861539D01*
X117490485Y-94914868D01*
X117554818Y-95041129D01*
X117673289Y-95204190D01*
X117815810Y-95346711D01*
X117978871Y-95465182D01*
X118046885Y-95499836D01*
X118105131Y-95529515D01*
X118155927Y-95577490D01*
X118172722Y-95645311D01*
X118150184Y-95711446D01*
X118105131Y-95750485D01*
X117978870Y-95814818D01*
X117885838Y-95882410D01*
X117815810Y-95933289D01*
X117815808Y-95933291D01*
X117815807Y-95933291D01*
X117673291Y-96075807D01*
X117673291Y-96075808D01*
X117673289Y-96075810D01*
X117622410Y-96145838D01*
X117554818Y-96238870D01*
X117463312Y-96418460D01*
X117401030Y-96610147D01*
X117369500Y-96809216D01*
X117369500Y-97010783D01*
X117401030Y-97209852D01*
X117463312Y-97401539D01*
X117490485Y-97454868D01*
X117554818Y-97581129D01*
X117673289Y-97744190D01*
X117815810Y-97886711D01*
X117978871Y-98005182D01*
X117981786Y-98006667D01*
X117982696Y-98007527D01*
X117983023Y-98007727D01*
X117982981Y-98007795D01*
X118032586Y-98054637D01*
X118049500Y-98117156D01*
X118049500Y-109563330D01*
X118049499Y-109563348D01*
X118049499Y-109729054D01*
X118049498Y-109729054D01*
X118090423Y-109881785D01*
X118119358Y-109931900D01*
X118119359Y-109931904D01*
X118119360Y-109931904D01*
X118169479Y-110018714D01*
X118169481Y-110018717D01*
X118288349Y-110137585D01*
X118288354Y-110137589D01*
X131531284Y-123380520D01*
X131531286Y-123380521D01*
X131531290Y-123380524D01*
X131668209Y-123459573D01*
X131668216Y-123459577D01*
X131820943Y-123500501D01*
X131820945Y-123500501D01*
X131986654Y-123500501D01*
X131986670Y-123500500D01*
X157175500Y-123500500D01*
X157242539Y-123520185D01*
X157288294Y-123572989D01*
X157299500Y-123624500D01*
X157299500Y-125435370D01*
X157299501Y-125435376D01*
X157305908Y-125494983D01*
X157356202Y-125629828D01*
X157356206Y-125629835D01*
X157442452Y-125745044D01*
X157442455Y-125745047D01*
X157557664Y-125831293D01*
X157557671Y-125831297D01*
X157692517Y-125881591D01*
X157692516Y-125881591D01*
X157699444Y-125882335D01*
X157752127Y-125888000D01*
X159647872Y-125887999D01*
X159707483Y-125881591D01*
X159842331Y-125831296D01*
X159957546Y-125745046D01*
X160043796Y-125629831D01*
X160094091Y-125494983D01*
X160100500Y-125435373D01*
X160100499Y-124377318D01*
X162300000Y-124377318D01*
X162300000Y-124597681D01*
X162334473Y-124815335D01*
X162402567Y-125024910D01*
X162502611Y-125221256D01*
X162548932Y-125285013D01*
X163135387Y-124698558D01*
X163140889Y-124719091D01*
X163219881Y-124855908D01*
X163331592Y-124967619D01*
X163468409Y-125046611D01*
X163488939Y-125052112D01*
X162902485Y-125638565D01*
X162902485Y-125638566D01*
X162966243Y-125684888D01*
X163162589Y-125784932D01*
X163372164Y-125853026D01*
X163589819Y-125887500D01*
X163810181Y-125887500D01*
X164027835Y-125853026D01*
X164237410Y-125784932D01*
X164433760Y-125684886D01*
X164497513Y-125638566D01*
X164497514Y-125638566D01*
X163911059Y-125052112D01*
X163931591Y-125046611D01*
X164068408Y-124967619D01*
X164180119Y-124855908D01*
X164259111Y-124719091D01*
X164264612Y-124698559D01*
X164851066Y-125285014D01*
X164851066Y-125285013D01*
X164897386Y-125221260D01*
X164997432Y-125024910D01*
X165065526Y-124815335D01*
X165100000Y-124597681D01*
X165100000Y-124378711D01*
X189149500Y-124378711D01*
X189149500Y-124621288D01*
X189181161Y-124861785D01*
X189243947Y-125096104D01*
X189336773Y-125320205D01*
X189336776Y-125320212D01*
X189458064Y-125530289D01*
X189458066Y-125530292D01*
X189458067Y-125530293D01*
X189605733Y-125722736D01*
X189605739Y-125722743D01*
X189777256Y-125894260D01*
X189777262Y-125894265D01*
X189969711Y-126041936D01*
X190179788Y-126163224D01*
X190403900Y-126256054D01*
X190638211Y-126318838D01*
X190818586Y-126342584D01*
X190878711Y-126350500D01*
X190878712Y-126350500D01*
X191121289Y-126350500D01*
X191169388Y-126344167D01*
X191361789Y-126318838D01*
X191596100Y-126256054D01*
X191820212Y-126163224D01*
X192030289Y-126041936D01*
X192222738Y-125894265D01*
X192394265Y-125722738D01*
X192541936Y-125530289D01*
X192663224Y-125320212D01*
X192756054Y-125096100D01*
X192818838Y-124861789D01*
X192850500Y-124621288D01*
X192850500Y-124378712D01*
X192850316Y-124377318D01*
X192818838Y-124138214D01*
X192818838Y-124138211D01*
X192756054Y-123903900D01*
X192663224Y-123679788D01*
X192541936Y-123469711D01*
X192473501Y-123380524D01*
X192394266Y-123277263D01*
X192394260Y-123277256D01*
X192222743Y-123105739D01*
X192222736Y-123105733D01*
X192030293Y-122958067D01*
X192030292Y-122958066D01*
X192030289Y-122958064D01*
X191820212Y-122836776D01*
X191820205Y-122836773D01*
X191596104Y-122743947D01*
X191361785Y-122681161D01*
X191121289Y-122649500D01*
X191121288Y-122649500D01*
X190878712Y-122649500D01*
X190878711Y-122649500D01*
X190638214Y-122681161D01*
X190403895Y-122743947D01*
X190179794Y-122836773D01*
X190179785Y-122836777D01*
X189969706Y-122958067D01*
X189777263Y-123105733D01*
X189777256Y-123105739D01*
X189605739Y-123277256D01*
X189605733Y-123277263D01*
X189458067Y-123469706D01*
X189336777Y-123679785D01*
X189336773Y-123679794D01*
X189243947Y-123903895D01*
X189181161Y-124138214D01*
X189149500Y-124378711D01*
X165100000Y-124378711D01*
X165100000Y-124377318D01*
X165065526Y-124159664D01*
X164997432Y-123950089D01*
X164897388Y-123753743D01*
X164851066Y-123689985D01*
X164851065Y-123689985D01*
X164264612Y-124276439D01*
X164259111Y-124255909D01*
X164180119Y-124119092D01*
X164068408Y-124007381D01*
X163931591Y-123928389D01*
X163911057Y-123922887D01*
X164497513Y-123336432D01*
X164433756Y-123290111D01*
X164237410Y-123190067D01*
X164027835Y-123121973D01*
X163810181Y-123087500D01*
X163589819Y-123087500D01*
X163372164Y-123121973D01*
X163162589Y-123190067D01*
X162966233Y-123290116D01*
X162902485Y-123336431D01*
X162902485Y-123336432D01*
X163488940Y-123922887D01*
X163468409Y-123928389D01*
X163331592Y-124007381D01*
X163219881Y-124119092D01*
X163140889Y-124255909D01*
X163135387Y-124276440D01*
X162548932Y-123689985D01*
X162548931Y-123689985D01*
X162502616Y-123753733D01*
X162402567Y-123950089D01*
X162334473Y-124159664D01*
X162300000Y-124377318D01*
X160100499Y-124377318D01*
X160100499Y-123624499D01*
X160120184Y-123557461D01*
X160172988Y-123511706D01*
X160224499Y-123500500D01*
X160713331Y-123500500D01*
X160713347Y-123500501D01*
X160720943Y-123500501D01*
X160879054Y-123500501D01*
X160879057Y-123500501D01*
X161031785Y-123459577D01*
X161081904Y-123430639D01*
X161168716Y-123380520D01*
X161280520Y-123268716D01*
X161280521Y-123268713D01*
X165168713Y-119380521D01*
X165168716Y-119380520D01*
X165280520Y-119268716D01*
X165330639Y-119181904D01*
X165359577Y-119131785D01*
X165400500Y-118979058D01*
X165400500Y-118820943D01*
X165400500Y-112089778D01*
X187599500Y-112089778D01*
X187599500Y-112310221D01*
X187633985Y-112527952D01*
X187702103Y-112737603D01*
X187702104Y-112737606D01*
X187802187Y-112934025D01*
X187931752Y-113112358D01*
X187931756Y-113112363D01*
X188087636Y-113268243D01*
X188087641Y-113268247D01*
X188143369Y-113308735D01*
X188265978Y-113397815D01*
X188394375Y-113463237D01*
X188462393Y-113497895D01*
X188462396Y-113497896D01*
X188567221Y-113531955D01*
X188672049Y-113566015D01*
X188889778Y-113600500D01*
X188889779Y-113600500D01*
X189110221Y-113600500D01*
X189110222Y-113600500D01*
X189327951Y-113566015D01*
X189537606Y-113497895D01*
X189734022Y-113397815D01*
X189912365Y-113268242D01*
X190068242Y-113112365D01*
X190197815Y-112934022D01*
X190297895Y-112737606D01*
X190366015Y-112527951D01*
X190400500Y-112310222D01*
X190400500Y-112089778D01*
X190366015Y-111872049D01*
X190316919Y-111720945D01*
X190297896Y-111662396D01*
X190297895Y-111662393D01*
X190220394Y-111510292D01*
X190197815Y-111465978D01*
X190172609Y-111431285D01*
X190068247Y-111287641D01*
X190068243Y-111287636D01*
X189912363Y-111131756D01*
X189912358Y-111131752D01*
X189734025Y-111002187D01*
X189734024Y-111002186D01*
X189734022Y-111002185D01*
X189671096Y-110970122D01*
X189537606Y-110902104D01*
X189537603Y-110902103D01*
X189327952Y-110833985D01*
X189219086Y-110816742D01*
X189110222Y-110799500D01*
X188889778Y-110799500D01*
X188817201Y-110810995D01*
X188672047Y-110833985D01*
X188462396Y-110902103D01*
X188462393Y-110902104D01*
X188265974Y-111002187D01*
X188087641Y-111131752D01*
X188087636Y-111131756D01*
X187931756Y-111287636D01*
X187931752Y-111287641D01*
X187802187Y-111465974D01*
X187702104Y-111662393D01*
X187702103Y-111662396D01*
X187633985Y-111872047D01*
X187599500Y-112089778D01*
X165400500Y-112089778D01*
X165400500Y-101800097D01*
X165420185Y-101733058D01*
X165436819Y-101712416D01*
X166812416Y-100336819D01*
X166873739Y-100303334D01*
X166900097Y-100300500D01*
X170720234Y-100300500D01*
X170787273Y-100320185D01*
X170789125Y-100321398D01*
X170920814Y-100409390D01*
X170920827Y-100409397D01*
X171066498Y-100469735D01*
X171066503Y-100469737D01*
X171221153Y-100500499D01*
X171221156Y-100500500D01*
X171221158Y-100500500D01*
X171378844Y-100500500D01*
X171378845Y-100500499D01*
X171533497Y-100469737D01*
X171679179Y-100409394D01*
X171810289Y-100321789D01*
X171921789Y-100210289D01*
X172009394Y-100079179D01*
X172069737Y-99933497D01*
X172100500Y-99778842D01*
X172100500Y-99621158D01*
X172100500Y-99621155D01*
X172100499Y-99621153D01*
X172069738Y-99466510D01*
X172069737Y-99466503D01*
X172013728Y-99331284D01*
X172009397Y-99320827D01*
X172009390Y-99320814D01*
X171921789Y-99189711D01*
X171921786Y-99189707D01*
X171810292Y-99078213D01*
X171810288Y-99078210D01*
X171679185Y-98990609D01*
X171679172Y-98990602D01*
X171533501Y-98930264D01*
X171533489Y-98930261D01*
X171378845Y-98899500D01*
X171378842Y-98899500D01*
X171221158Y-98899500D01*
X171221155Y-98899500D01*
X171066510Y-98930261D01*
X171066498Y-98930264D01*
X170920827Y-98990602D01*
X170920814Y-98990609D01*
X170789125Y-99078602D01*
X170722447Y-99099480D01*
X170720234Y-99099500D01*
X166520940Y-99099500D01*
X166480019Y-99110464D01*
X166480019Y-99110465D01*
X166442751Y-99120451D01*
X166368214Y-99140423D01*
X166368209Y-99140426D01*
X166231290Y-99219475D01*
X166231282Y-99219481D01*
X164319481Y-101131282D01*
X164319479Y-101131285D01*
X164269361Y-101218094D01*
X164269359Y-101218096D01*
X164240425Y-101268209D01*
X164240424Y-101268210D01*
X164240423Y-101268215D01*
X164199499Y-101420943D01*
X164199499Y-101420945D01*
X164199499Y-101589046D01*
X164199500Y-101589059D01*
X164199500Y-118599903D01*
X164179815Y-118666942D01*
X164163181Y-118687584D01*
X160587584Y-122263181D01*
X160526261Y-122296666D01*
X160499903Y-122299500D01*
X132200098Y-122299500D01*
X132133059Y-122279815D01*
X132112417Y-122263181D01*
X123170389Y-113321153D01*
X127299500Y-113321153D01*
X127299500Y-113478846D01*
X127330261Y-113633489D01*
X127330264Y-113633501D01*
X127390602Y-113779172D01*
X127390609Y-113779185D01*
X127478210Y-113910288D01*
X127478213Y-113910292D01*
X127588894Y-114020973D01*
X127590416Y-114023761D01*
X127593129Y-114025422D01*
X127607055Y-114054233D01*
X127622379Y-114082296D01*
X127622566Y-114086323D01*
X127623536Y-114088328D01*
X127623089Y-114097518D01*
X127624307Y-114123614D01*
X127623251Y-114132298D01*
X127599499Y-114220943D01*
X127599499Y-114327740D01*
X127598593Y-114335195D01*
X127587626Y-114360669D01*
X127579814Y-114387274D01*
X127578601Y-114389126D01*
X127490609Y-114520814D01*
X127490602Y-114520827D01*
X127430264Y-114666498D01*
X127430261Y-114666510D01*
X127399500Y-114821153D01*
X127399500Y-114978846D01*
X127430261Y-115133489D01*
X127430264Y-115133501D01*
X127490602Y-115279172D01*
X127490609Y-115279185D01*
X127578210Y-115410288D01*
X127578213Y-115410292D01*
X127689707Y-115521786D01*
X127689711Y-115521789D01*
X127820814Y-115609390D01*
X127820827Y-115609397D01*
X127966498Y-115669735D01*
X127966503Y-115669737D01*
X128121153Y-115700499D01*
X128121156Y-115700500D01*
X128121158Y-115700500D01*
X128278844Y-115700500D01*
X128278845Y-115700499D01*
X128433497Y-115669737D01*
X128579179Y-115609394D01*
X128710289Y-115521789D01*
X128821789Y-115410289D01*
X128909394Y-115279179D01*
X128969737Y-115133497D01*
X129000500Y-114978842D01*
X129000500Y-114821158D01*
X129000500Y-114821155D01*
X129000499Y-114821153D01*
X128969738Y-114666510D01*
X128969737Y-114666503D01*
X128969735Y-114666498D01*
X128917382Y-114540104D01*
X128909913Y-114470635D01*
X128941189Y-114408156D01*
X128944233Y-114405000D01*
X135080520Y-108268716D01*
X135159577Y-108131785D01*
X135200501Y-107979057D01*
X135200501Y-107820942D01*
X135200501Y-107813347D01*
X135200500Y-107813329D01*
X135200500Y-106800097D01*
X135220185Y-106733058D01*
X135236819Y-106712416D01*
X135861652Y-106087583D01*
X136536207Y-105413027D01*
X136597528Y-105379544D01*
X136667220Y-105384528D01*
X136723153Y-105426400D01*
X136738447Y-105453257D01*
X136790604Y-105579175D01*
X136790609Y-105579185D01*
X136878602Y-105710874D01*
X136899480Y-105777551D01*
X136899500Y-105779765D01*
X136899500Y-106213330D01*
X136899499Y-106213348D01*
X136899499Y-106379054D01*
X136899498Y-106379054D01*
X136940422Y-106531783D01*
X136967715Y-106579055D01*
X136967717Y-106579058D01*
X137019479Y-106668714D01*
X137019481Y-106668717D01*
X137138349Y-106787585D01*
X137138355Y-106787590D01*
X145763181Y-115412416D01*
X145796666Y-115473739D01*
X145799500Y-115500097D01*
X145799500Y-119014281D01*
X145779815Y-119081320D01*
X145731795Y-119124765D01*
X145692185Y-119144947D01*
X145692184Y-119144948D01*
X145520213Y-119269890D01*
X145369890Y-119420213D01*
X145244949Y-119592182D01*
X145240202Y-119601499D01*
X145192227Y-119652293D01*
X145124405Y-119669087D01*
X145058271Y-119646548D01*
X145019234Y-119601495D01*
X145014626Y-119592452D01*
X144975270Y-119538282D01*
X144975269Y-119538282D01*
X144342962Y-120170590D01*
X144325925Y-120107007D01*
X144260099Y-119992993D01*
X144167007Y-119899901D01*
X144052993Y-119834075D01*
X143989409Y-119817037D01*
X144621716Y-119184728D01*
X144567550Y-119145375D01*
X144378217Y-119048904D01*
X144176129Y-118983242D01*
X143966246Y-118950000D01*
X143753754Y-118950000D01*
X143543872Y-118983242D01*
X143543869Y-118983242D01*
X143341782Y-119048904D01*
X143152439Y-119145380D01*
X143098282Y-119184727D01*
X143098282Y-119184728D01*
X143730591Y-119817037D01*
X143667007Y-119834075D01*
X143552993Y-119899901D01*
X143459901Y-119992993D01*
X143394075Y-120107007D01*
X143377037Y-120170591D01*
X142744728Y-119538282D01*
X142744727Y-119538282D01*
X142705380Y-119592440D01*
X142705376Y-119592446D01*
X142700760Y-119601505D01*
X142652781Y-119652297D01*
X142584959Y-119669087D01*
X142518826Y-119646543D01*
X142479794Y-119601493D01*
X142475051Y-119592184D01*
X142475049Y-119592181D01*
X142475048Y-119592179D01*
X142350109Y-119420213D01*
X142199786Y-119269890D01*
X142027820Y-119144951D01*
X141838414Y-119048444D01*
X141838413Y-119048443D01*
X141838412Y-119048443D01*
X141636243Y-118982754D01*
X141636241Y-118982753D01*
X141636240Y-118982753D01*
X141474957Y-118957208D01*
X141426287Y-118949500D01*
X141213713Y-118949500D01*
X141165042Y-118957208D01*
X141003760Y-118982753D01*
X140801585Y-119048444D01*
X140612179Y-119144951D01*
X140440213Y-119269890D01*
X140289890Y-119420213D01*
X140164949Y-119592182D01*
X140160484Y-119600946D01*
X140112509Y-119651742D01*
X140044688Y-119668536D01*
X139978553Y-119645998D01*
X139939516Y-119600946D01*
X139935050Y-119592182D01*
X139810109Y-119420213D01*
X139659786Y-119269890D01*
X139487820Y-119144951D01*
X139298414Y-119048444D01*
X139298413Y-119048443D01*
X139298412Y-119048443D01*
X139096243Y-118982754D01*
X139096241Y-118982753D01*
X139096240Y-118982753D01*
X138934957Y-118957208D01*
X138886287Y-118949500D01*
X138673713Y-118949500D01*
X138625042Y-118957208D01*
X138463760Y-118982753D01*
X138261585Y-119048444D01*
X138072179Y-119144951D01*
X137900213Y-119269890D01*
X137749890Y-119420213D01*
X137624951Y-119592179D01*
X137528444Y-119781585D01*
X137462753Y-119983760D01*
X137429500Y-120193713D01*
X137429500Y-120406286D01*
X137462753Y-120616239D01*
X137528444Y-120818414D01*
X137624951Y-121007820D01*
X137749890Y-121179786D01*
X137900213Y-121330109D01*
X138072179Y-121455048D01*
X138072181Y-121455049D01*
X138072184Y-121455051D01*
X138261588Y-121551557D01*
X138463757Y-121617246D01*
X138673713Y-121650500D01*
X138673714Y-121650500D01*
X138886286Y-121650500D01*
X138886287Y-121650500D01*
X139096243Y-121617246D01*
X139298412Y-121551557D01*
X139487816Y-121455051D01*
X139574138Y-121392335D01*
X139659786Y-121330109D01*
X139659788Y-121330106D01*
X139659792Y-121330104D01*
X139810104Y-121179792D01*
X139810106Y-121179788D01*
X139810109Y-121179786D01*
X139935048Y-121007820D01*
X139935047Y-121007820D01*
X139935051Y-121007816D01*
X139939514Y-120999054D01*
X139987488Y-120948259D01*
X140055308Y-120931463D01*
X140121444Y-120953999D01*
X140160486Y-120999056D01*
X140164951Y-121007820D01*
X140289890Y-121179786D01*
X140440213Y-121330109D01*
X140612179Y-121455048D01*
X140612181Y-121455049D01*
X140612184Y-121455051D01*
X140801588Y-121551557D01*
X141003757Y-121617246D01*
X141213713Y-121650500D01*
X141213714Y-121650500D01*
X141426286Y-121650500D01*
X141426287Y-121650500D01*
X141636243Y-121617246D01*
X141838412Y-121551557D01*
X142027816Y-121455051D01*
X142114138Y-121392335D01*
X142199786Y-121330109D01*
X142199788Y-121330106D01*
X142199792Y-121330104D01*
X142350104Y-121179792D01*
X142350106Y-121179788D01*
X142350109Y-121179786D01*
X142435890Y-121061717D01*
X142475051Y-121007816D01*
X142479793Y-120998508D01*
X142527763Y-120947711D01*
X142595583Y-120930911D01*
X142661719Y-120953445D01*
X142700763Y-120998500D01*
X142705373Y-121007547D01*
X142744728Y-121061716D01*
X143377036Y-120429407D01*
X143394075Y-120492993D01*
X143459901Y-120607007D01*
X143552993Y-120700099D01*
X143667007Y-120765925D01*
X143730590Y-120782962D01*
X143098282Y-121415269D01*
X143098282Y-121415270D01*
X143152449Y-121454624D01*
X143341782Y-121551095D01*
X143543870Y-121616757D01*
X143753754Y-121650000D01*
X143966246Y-121650000D01*
X144176127Y-121616757D01*
X144176130Y-121616757D01*
X144378217Y-121551095D01*
X144567554Y-121454622D01*
X144621716Y-121415270D01*
X144621717Y-121415270D01*
X143989408Y-120782962D01*
X144052993Y-120765925D01*
X144167007Y-120700099D01*
X144260099Y-120607007D01*
X144325925Y-120492993D01*
X144342962Y-120429408D01*
X144975270Y-121061717D01*
X144975270Y-121061716D01*
X145014622Y-121007555D01*
X145019232Y-120998507D01*
X145067205Y-120947709D01*
X145135025Y-120930912D01*
X145201161Y-120953447D01*
X145240204Y-120998504D01*
X145244949Y-121007817D01*
X145369890Y-121179786D01*
X145520213Y-121330109D01*
X145692179Y-121455048D01*
X145692181Y-121455049D01*
X145692184Y-121455051D01*
X145881588Y-121551557D01*
X146083757Y-121617246D01*
X146293713Y-121650500D01*
X146293714Y-121650500D01*
X146506286Y-121650500D01*
X146506287Y-121650500D01*
X146716243Y-121617246D01*
X146918412Y-121551557D01*
X147107816Y-121455051D01*
X147194138Y-121392335D01*
X147279786Y-121330109D01*
X147279788Y-121330106D01*
X147279792Y-121330104D01*
X147430104Y-121179792D01*
X147430106Y-121179788D01*
X147430109Y-121179786D01*
X147555048Y-121007820D01*
X147555047Y-121007820D01*
X147555051Y-121007816D01*
X147559514Y-120999054D01*
X147607488Y-120948259D01*
X147675308Y-120931463D01*
X147741444Y-120953999D01*
X147780486Y-120999056D01*
X147784951Y-121007820D01*
X147909890Y-121179786D01*
X148060213Y-121330109D01*
X148232179Y-121455048D01*
X148232181Y-121455049D01*
X148232184Y-121455051D01*
X148421588Y-121551557D01*
X148623757Y-121617246D01*
X148833713Y-121650500D01*
X148833714Y-121650500D01*
X149046286Y-121650500D01*
X149046287Y-121650500D01*
X149256243Y-121617246D01*
X149458412Y-121551557D01*
X149647816Y-121455051D01*
X149819792Y-121330104D01*
X149933329Y-121216566D01*
X149994648Y-121183084D01*
X150064340Y-121188068D01*
X150120274Y-121229939D01*
X150137189Y-121260917D01*
X150186202Y-121392328D01*
X150186206Y-121392335D01*
X150272452Y-121507544D01*
X150272455Y-121507547D01*
X150387664Y-121593793D01*
X150387671Y-121593797D01*
X150522517Y-121644091D01*
X150522516Y-121644091D01*
X150529444Y-121644835D01*
X150582127Y-121650500D01*
X152377872Y-121650499D01*
X152437483Y-121644091D01*
X152572331Y-121593796D01*
X152687546Y-121507546D01*
X152773796Y-121392331D01*
X152824091Y-121257483D01*
X152830500Y-121197873D01*
X152830499Y-119402128D01*
X152824091Y-119342517D01*
X152822810Y-119339083D01*
X152773797Y-119207671D01*
X152773793Y-119207664D01*
X152687547Y-119092455D01*
X152687544Y-119092452D01*
X152572335Y-119006206D01*
X152572328Y-119006202D01*
X152437482Y-118955908D01*
X152437483Y-118955908D01*
X152377883Y-118949501D01*
X152377881Y-118949500D01*
X152377873Y-118949500D01*
X152377864Y-118949500D01*
X150582129Y-118949500D01*
X150582123Y-118949501D01*
X150522516Y-118955908D01*
X150387671Y-119006202D01*
X150387664Y-119006206D01*
X150272455Y-119092452D01*
X150272452Y-119092455D01*
X150186206Y-119207664D01*
X150186203Y-119207669D01*
X150137189Y-119339083D01*
X150095317Y-119395016D01*
X150029853Y-119419433D01*
X149961580Y-119404581D01*
X149933326Y-119383430D01*
X149819786Y-119269890D01*
X149647820Y-119144951D01*
X149458416Y-119048444D01*
X149431153Y-119039586D01*
X149412950Y-119033671D01*
X149355276Y-118994234D01*
X149328078Y-118929875D01*
X149339993Y-118861029D01*
X149366934Y-118827049D01*
X149365982Y-118826097D01*
X149481786Y-118710292D01*
X149481789Y-118710289D01*
X149569394Y-118579179D01*
X149629737Y-118433497D01*
X149660500Y-118278842D01*
X149660500Y-118121158D01*
X149660500Y-118121155D01*
X149660499Y-118121153D01*
X149629738Y-117966510D01*
X149629737Y-117966503D01*
X149602398Y-117900500D01*
X149569397Y-117820827D01*
X149569390Y-117820814D01*
X149481398Y-117689125D01*
X149460520Y-117622447D01*
X149460500Y-117620234D01*
X149460500Y-117021153D01*
X149799500Y-117021153D01*
X149799500Y-117178846D01*
X149830261Y-117333489D01*
X149830264Y-117333501D01*
X149890602Y-117479172D01*
X149890609Y-117479185D01*
X149978210Y-117610288D01*
X149978213Y-117610292D01*
X150089707Y-117721786D01*
X150089711Y-117721789D01*
X150220814Y-117809390D01*
X150220827Y-117809397D01*
X150366498Y-117869735D01*
X150366503Y-117869737D01*
X150521153Y-117900499D01*
X150521156Y-117900500D01*
X150521158Y-117900500D01*
X150678844Y-117900500D01*
X150678845Y-117900499D01*
X150833497Y-117869737D01*
X150951592Y-117820821D01*
X150979172Y-117809397D01*
X150979172Y-117809396D01*
X150979179Y-117809394D01*
X150979185Y-117809390D01*
X151110875Y-117721398D01*
X151177553Y-117700520D01*
X151179766Y-117700500D01*
X156013331Y-117700500D01*
X156013347Y-117700501D01*
X156020943Y-117700501D01*
X156179054Y-117700501D01*
X156179057Y-117700501D01*
X156331785Y-117659577D01*
X156394211Y-117623535D01*
X156468716Y-117580520D01*
X156580520Y-117468716D01*
X156580520Y-117468714D01*
X156590724Y-117458511D01*
X156590727Y-117458506D01*
X162380431Y-111668804D01*
X162441750Y-111635322D01*
X162511442Y-111640306D01*
X162536999Y-111653386D01*
X162620814Y-111709390D01*
X162620827Y-111709397D01*
X162766498Y-111769735D01*
X162766503Y-111769737D01*
X162921153Y-111800499D01*
X162921156Y-111800500D01*
X162921158Y-111800500D01*
X163078844Y-111800500D01*
X163078845Y-111800499D01*
X163233497Y-111769737D01*
X163379179Y-111709394D01*
X163510289Y-111621789D01*
X163621789Y-111510289D01*
X163709394Y-111379179D01*
X163769737Y-111233497D01*
X163800500Y-111078842D01*
X163800500Y-110921158D01*
X163800500Y-110921155D01*
X163800499Y-110921153D01*
X163783160Y-110833985D01*
X163769737Y-110766503D01*
X163769735Y-110766498D01*
X163709397Y-110620827D01*
X163709390Y-110620814D01*
X163621789Y-110489711D01*
X163621786Y-110489707D01*
X163510292Y-110378213D01*
X163510288Y-110378210D01*
X163379185Y-110290609D01*
X163379172Y-110290602D01*
X163233501Y-110230264D01*
X163233489Y-110230261D01*
X163078845Y-110199500D01*
X163078842Y-110199500D01*
X162921158Y-110199500D01*
X162921155Y-110199500D01*
X162766510Y-110230261D01*
X162766498Y-110230264D01*
X162620827Y-110290602D01*
X162620814Y-110290609D01*
X162489125Y-110378602D01*
X162471078Y-110384252D01*
X162455169Y-110394477D01*
X162424207Y-110398928D01*
X162422447Y-110399480D01*
X162420234Y-110399500D01*
X162286670Y-110399500D01*
X162286654Y-110399499D01*
X162279058Y-110399499D01*
X162120943Y-110399499D01*
X162044579Y-110419961D01*
X161968214Y-110440423D01*
X161968209Y-110440426D01*
X161831290Y-110519475D01*
X161831282Y-110519481D01*
X155887584Y-116463181D01*
X155826261Y-116496666D01*
X155799903Y-116499500D01*
X151179766Y-116499500D01*
X151112727Y-116479815D01*
X151110875Y-116478602D01*
X150979185Y-116390609D01*
X150979172Y-116390602D01*
X150833501Y-116330264D01*
X150833489Y-116330261D01*
X150678845Y-116299500D01*
X150678842Y-116299500D01*
X150521158Y-116299500D01*
X150521155Y-116299500D01*
X150366510Y-116330261D01*
X150366498Y-116330264D01*
X150220827Y-116390602D01*
X150220814Y-116390609D01*
X150089711Y-116478210D01*
X150089707Y-116478213D01*
X149978213Y-116589707D01*
X149978210Y-116589711D01*
X149890609Y-116720814D01*
X149890602Y-116720827D01*
X149830264Y-116866498D01*
X149830261Y-116866510D01*
X149799500Y-117021153D01*
X149460500Y-117021153D01*
X149460500Y-112980945D01*
X149460500Y-112980943D01*
X149419577Y-112828216D01*
X149367262Y-112737603D01*
X149340524Y-112691290D01*
X149340521Y-112691286D01*
X149340520Y-112691284D01*
X149228716Y-112579480D01*
X149228715Y-112579479D01*
X149224385Y-112575149D01*
X149224374Y-112575139D01*
X141334574Y-104685339D01*
X141301089Y-104624016D01*
X141300638Y-104621849D01*
X141269738Y-104466510D01*
X141269737Y-104466503D01*
X141212497Y-104328312D01*
X141209397Y-104320827D01*
X141209390Y-104320814D01*
X141121789Y-104189711D01*
X141121786Y-104189707D01*
X141010292Y-104078213D01*
X141010288Y-104078210D01*
X140879185Y-103990609D01*
X140879172Y-103990602D01*
X140733501Y-103930264D01*
X140733489Y-103930261D01*
X140578845Y-103899500D01*
X140578842Y-103899500D01*
X140421158Y-103899500D01*
X140421155Y-103899500D01*
X140266510Y-103930261D01*
X140266498Y-103930264D01*
X140120827Y-103990602D01*
X140120814Y-103990609D01*
X139989711Y-104078210D01*
X139989707Y-104078213D01*
X139878213Y-104189707D01*
X139878210Y-104189711D01*
X139790609Y-104320814D01*
X139790602Y-104320827D01*
X139730264Y-104466498D01*
X139730261Y-104466510D01*
X139699500Y-104621153D01*
X139699500Y-104778846D01*
X139730261Y-104933489D01*
X139730264Y-104933501D01*
X139790602Y-105079172D01*
X139790609Y-105079185D01*
X139878210Y-105210288D01*
X139878213Y-105210292D01*
X139989707Y-105321786D01*
X139989711Y-105321789D01*
X140120814Y-105409390D01*
X140120827Y-105409397D01*
X140226716Y-105453257D01*
X140266503Y-105469737D01*
X140331147Y-105482595D01*
X140421849Y-105500638D01*
X140483760Y-105533023D01*
X140485339Y-105534574D01*
X148223181Y-113272416D01*
X148256666Y-113333739D01*
X148259500Y-113360097D01*
X148259500Y-117620234D01*
X148239815Y-117687273D01*
X148238602Y-117689125D01*
X148150609Y-117820814D01*
X148150602Y-117820827D01*
X148090264Y-117966498D01*
X148090261Y-117966510D01*
X148059500Y-118121153D01*
X148059500Y-118278846D01*
X148090261Y-118433489D01*
X148090264Y-118433501D01*
X148150602Y-118579172D01*
X148150609Y-118579185D01*
X148238210Y-118710288D01*
X148238213Y-118710292D01*
X148349707Y-118821786D01*
X148349711Y-118821789D01*
X148397352Y-118853622D01*
X148442157Y-118907234D01*
X148450864Y-118976559D01*
X148420710Y-119039586D01*
X148384756Y-119067209D01*
X148232180Y-119144951D01*
X148060213Y-119269890D01*
X147909890Y-119420213D01*
X147784949Y-119592182D01*
X147780484Y-119600946D01*
X147732509Y-119651742D01*
X147664688Y-119668536D01*
X147598553Y-119645998D01*
X147559516Y-119600946D01*
X147555050Y-119592182D01*
X147430109Y-119420213D01*
X147279786Y-119269890D01*
X147107815Y-119144948D01*
X147107814Y-119144947D01*
X147068205Y-119124765D01*
X147017409Y-119076791D01*
X147000500Y-119014281D01*
X147000500Y-115289060D01*
X147000501Y-115289047D01*
X147000501Y-115120944D01*
X146962425Y-114978846D01*
X146959577Y-114968216D01*
X146959573Y-114968209D01*
X146880524Y-114831290D01*
X146880518Y-114831282D01*
X138136819Y-106087583D01*
X138122115Y-106060655D01*
X138105523Y-106034837D01*
X138104631Y-106028636D01*
X138103334Y-106026260D01*
X138100500Y-105999902D01*
X138100500Y-105779765D01*
X138120185Y-105712726D01*
X138121398Y-105710874D01*
X138209390Y-105579185D01*
X138209390Y-105579184D01*
X138209394Y-105579179D01*
X138269737Y-105433497D01*
X138300500Y-105278842D01*
X138300500Y-105121158D01*
X138300500Y-105121155D01*
X138300499Y-105121153D01*
X138269738Y-104966510D01*
X138269737Y-104966503D01*
X138256062Y-104933489D01*
X138209397Y-104820827D01*
X138209390Y-104820814D01*
X138121789Y-104689711D01*
X138121786Y-104689707D01*
X138010292Y-104578213D01*
X138010288Y-104578210D01*
X137879185Y-104490609D01*
X137879175Y-104490604D01*
X137753257Y-104438447D01*
X137698854Y-104394606D01*
X137676789Y-104328312D01*
X137694068Y-104260612D01*
X137713025Y-104236209D01*
X161062416Y-80886819D01*
X161123739Y-80853334D01*
X161150097Y-80850500D01*
X178388067Y-80850500D01*
X178455106Y-80870185D01*
X178500861Y-80922989D01*
X178510805Y-80992147D01*
X178498552Y-81030795D01*
X178423312Y-81178460D01*
X178361030Y-81370147D01*
X178329500Y-81569216D01*
X178329500Y-81770783D01*
X178361030Y-81969852D01*
X178423312Y-82161539D01*
X178450485Y-82214868D01*
X178514818Y-82341129D01*
X178633289Y-82504190D01*
X178775810Y-82646711D01*
X178938871Y-82765182D01*
X179006885Y-82799836D01*
X179065131Y-82829515D01*
X179115927Y-82877490D01*
X179132722Y-82945311D01*
X179110184Y-83011446D01*
X179065131Y-83050485D01*
X178938870Y-83114818D01*
X178845838Y-83182410D01*
X178775810Y-83233289D01*
X178775808Y-83233291D01*
X178775807Y-83233291D01*
X178633291Y-83375807D01*
X178633291Y-83375808D01*
X178633289Y-83375810D01*
X178582410Y-83445838D01*
X178514818Y-83538870D01*
X178423312Y-83718460D01*
X178361030Y-83910147D01*
X178329500Y-84109216D01*
X178329500Y-84310783D01*
X178361030Y-84509852D01*
X178423312Y-84701539D01*
X178450485Y-84754868D01*
X178514818Y-84881129D01*
X178633289Y-85044190D01*
X178775810Y-85186711D01*
X178938871Y-85305182D01*
X179006885Y-85339836D01*
X179065131Y-85369515D01*
X179115927Y-85417490D01*
X179132722Y-85485311D01*
X179110184Y-85551446D01*
X179065131Y-85590485D01*
X178938870Y-85654818D01*
X178845838Y-85722410D01*
X178775810Y-85773289D01*
X178775808Y-85773291D01*
X178775807Y-85773291D01*
X178633291Y-85915807D01*
X178633291Y-85915808D01*
X178633289Y-85915810D01*
X178582410Y-85985838D01*
X178514818Y-86078870D01*
X178423312Y-86258460D01*
X178361030Y-86450147D01*
X178329500Y-86649216D01*
X178329500Y-86850783D01*
X178361030Y-87049852D01*
X178423312Y-87241539D01*
X178450485Y-87294868D01*
X178514818Y-87421129D01*
X178633289Y-87584190D01*
X178775810Y-87726711D01*
X178938871Y-87845182D01*
X179006885Y-87879836D01*
X179065131Y-87909515D01*
X179115927Y-87957490D01*
X179132722Y-88025311D01*
X179110184Y-88091446D01*
X179065131Y-88130485D01*
X178938870Y-88194818D01*
X178845838Y-88262410D01*
X178775810Y-88313289D01*
X178775808Y-88313291D01*
X178775807Y-88313291D01*
X178633291Y-88455807D01*
X178633291Y-88455808D01*
X178633289Y-88455810D01*
X178582410Y-88525838D01*
X178514818Y-88618870D01*
X178423312Y-88798460D01*
X178361030Y-88990147D01*
X178329500Y-89189216D01*
X178329500Y-89390783D01*
X178361030Y-89589852D01*
X178423312Y-89781539D01*
X178450485Y-89834868D01*
X178514818Y-89961129D01*
X178633289Y-90124190D01*
X178775810Y-90266711D01*
X178938871Y-90385182D01*
X179006885Y-90419836D01*
X179065131Y-90449515D01*
X179115927Y-90497490D01*
X179132722Y-90565311D01*
X179110184Y-90631446D01*
X179065131Y-90670485D01*
X178938870Y-90734818D01*
X178845838Y-90802410D01*
X178775810Y-90853289D01*
X178775808Y-90853291D01*
X178775807Y-90853291D01*
X178633291Y-90995807D01*
X178633291Y-90995808D01*
X178633289Y-90995810D01*
X178582410Y-91065838D01*
X178514818Y-91158870D01*
X178423312Y-91338460D01*
X178361030Y-91530147D01*
X178329500Y-91729216D01*
X178329500Y-91930783D01*
X178361030Y-92129852D01*
X178361031Y-92129859D01*
X178362043Y-92132972D01*
X178362078Y-92134221D01*
X178362169Y-92134598D01*
X178362089Y-92134616D01*
X178364038Y-92202814D01*
X178331793Y-92258970D01*
X172830286Y-97760478D01*
X172718481Y-97872282D01*
X172718479Y-97872285D01*
X172668361Y-97959094D01*
X172668359Y-97959096D01*
X172639425Y-98009209D01*
X172639424Y-98009210D01*
X172639423Y-98009215D01*
X172598499Y-98161943D01*
X172598499Y-98161945D01*
X172598499Y-98330046D01*
X172598500Y-98330059D01*
X172598500Y-107512330D01*
X172598499Y-107512348D01*
X172598499Y-107678054D01*
X172598498Y-107678054D01*
X172639423Y-107830785D01*
X172668358Y-107880900D01*
X172668359Y-107880904D01*
X172668360Y-107880904D01*
X172718479Y-107967714D01*
X172718481Y-107967717D01*
X172837349Y-108086585D01*
X172837355Y-108086590D01*
X172965425Y-108214660D01*
X172998910Y-108275983D01*
X172999361Y-108278149D01*
X173030261Y-108433491D01*
X173030264Y-108433501D01*
X173090602Y-108579172D01*
X173090609Y-108579185D01*
X173178210Y-108710288D01*
X173178213Y-108710292D01*
X173289707Y-108821786D01*
X173289711Y-108821789D01*
X173420814Y-108909390D01*
X173420827Y-108909397D01*
X173566498Y-108969735D01*
X173566503Y-108969737D01*
X173721153Y-109000499D01*
X173721156Y-109000500D01*
X173721158Y-109000500D01*
X173878844Y-109000500D01*
X173878845Y-109000499D01*
X174033497Y-108969737D01*
X174179179Y-108909394D01*
X174310289Y-108821789D01*
X174421789Y-108710289D01*
X174509394Y-108579179D01*
X174569737Y-108433497D01*
X174600500Y-108278842D01*
X174600500Y-108121158D01*
X174600500Y-108121155D01*
X174600499Y-108121153D01*
X174572234Y-107979057D01*
X174569737Y-107966503D01*
X174534281Y-107880904D01*
X174509397Y-107820827D01*
X174509390Y-107820814D01*
X174421789Y-107689711D01*
X174421786Y-107689707D01*
X174310292Y-107578213D01*
X174310288Y-107578210D01*
X174179185Y-107490609D01*
X174179172Y-107490602D01*
X174033501Y-107430264D01*
X174033491Y-107430261D01*
X173899308Y-107403570D01*
X173837397Y-107371185D01*
X173802823Y-107310469D01*
X173799500Y-107281953D01*
X173799500Y-106252135D01*
X187599500Y-106252135D01*
X187599500Y-108147870D01*
X187599501Y-108147876D01*
X187605908Y-108207483D01*
X187656202Y-108342328D01*
X187656206Y-108342335D01*
X187742452Y-108457544D01*
X187742455Y-108457547D01*
X187857664Y-108543793D01*
X187857671Y-108543797D01*
X187992517Y-108594091D01*
X187992516Y-108594091D01*
X187999444Y-108594835D01*
X188052127Y-108600500D01*
X189947872Y-108600499D01*
X190007483Y-108594091D01*
X190142331Y-108543796D01*
X190257546Y-108457546D01*
X190343796Y-108342331D01*
X190394091Y-108207483D01*
X190400500Y-108147873D01*
X190400499Y-106252128D01*
X190394091Y-106192517D01*
X190343796Y-106057669D01*
X190343795Y-106057668D01*
X190343793Y-106057664D01*
X190257547Y-105942455D01*
X190257544Y-105942452D01*
X190142335Y-105856206D01*
X190142328Y-105856202D01*
X190007482Y-105805908D01*
X190007483Y-105805908D01*
X189947883Y-105799501D01*
X189947881Y-105799500D01*
X189947873Y-105799500D01*
X189947864Y-105799500D01*
X188052129Y-105799500D01*
X188052123Y-105799501D01*
X187992516Y-105805908D01*
X187857671Y-105856202D01*
X187857664Y-105856206D01*
X187742455Y-105942452D01*
X187742452Y-105942455D01*
X187656206Y-106057664D01*
X187656202Y-106057671D01*
X187605908Y-106192517D01*
X187599501Y-106252116D01*
X187599501Y-106252123D01*
X187599500Y-106252135D01*
X173799500Y-106252135D01*
X173799500Y-98541096D01*
X173819185Y-98474057D01*
X173835814Y-98453420D01*
X178118269Y-94170964D01*
X178179590Y-94137481D01*
X178249282Y-94142465D01*
X178305215Y-94184337D01*
X178329632Y-94249801D01*
X178329567Y-94268358D01*
X178329500Y-94269210D01*
X178329500Y-94470783D01*
X178361030Y-94669852D01*
X178423312Y-94861539D01*
X178450485Y-94914868D01*
X178514818Y-95041129D01*
X178633289Y-95204190D01*
X178775810Y-95346711D01*
X178938871Y-95465182D01*
X179006885Y-95499836D01*
X179065131Y-95529515D01*
X179115927Y-95577490D01*
X179132722Y-95645311D01*
X179110184Y-95711446D01*
X179065131Y-95750485D01*
X178938870Y-95814818D01*
X178845838Y-95882410D01*
X178775810Y-95933289D01*
X178775808Y-95933291D01*
X178775807Y-95933291D01*
X178633291Y-96075807D01*
X178633291Y-96075808D01*
X178633289Y-96075810D01*
X178582410Y-96145838D01*
X178514818Y-96238870D01*
X178423312Y-96418460D01*
X178361030Y-96610147D01*
X178329500Y-96809216D01*
X178329500Y-97010783D01*
X178361030Y-97209852D01*
X178423312Y-97401539D01*
X178450485Y-97454868D01*
X178514818Y-97581129D01*
X178633289Y-97744190D01*
X178775810Y-97886711D01*
X178938871Y-98005182D01*
X179118458Y-98096686D01*
X179118460Y-98096687D01*
X179181458Y-98117156D01*
X179310149Y-98158970D01*
X179402348Y-98173572D01*
X179509217Y-98190500D01*
X179509222Y-98190500D01*
X179710783Y-98190500D01*
X179807289Y-98175214D01*
X179909851Y-98158970D01*
X180101542Y-98096686D01*
X180281129Y-98005182D01*
X180444190Y-97886711D01*
X180586711Y-97744190D01*
X180705182Y-97581129D01*
X180769515Y-97454867D01*
X180817490Y-97404072D01*
X180885310Y-97387277D01*
X180951445Y-97409814D01*
X180990484Y-97454867D01*
X181054818Y-97581129D01*
X181173289Y-97744190D01*
X181315810Y-97886711D01*
X181478871Y-98005182D01*
X181658458Y-98096686D01*
X181658460Y-98096687D01*
X181721458Y-98117156D01*
X181850149Y-98158970D01*
X181942348Y-98173572D01*
X182049217Y-98190500D01*
X182049222Y-98190500D01*
X182250783Y-98190500D01*
X182347289Y-98175214D01*
X182449851Y-98158970D01*
X182641542Y-98096686D01*
X182821129Y-98005182D01*
X182984190Y-97886711D01*
X183126711Y-97744190D01*
X183245182Y-97581129D01*
X183336686Y-97401542D01*
X183398970Y-97209851D01*
X183420000Y-97077072D01*
X183430500Y-97010783D01*
X183430500Y-96809216D01*
X183412156Y-96693408D01*
X183398970Y-96610149D01*
X183336686Y-96418458D01*
X183245182Y-96238871D01*
X183126711Y-96075810D01*
X182984190Y-95933289D01*
X182821129Y-95814818D01*
X182694867Y-95750484D01*
X182644072Y-95702510D01*
X182627277Y-95634690D01*
X182649814Y-95568555D01*
X182694868Y-95529515D01*
X182821129Y-95465182D01*
X182984190Y-95346711D01*
X183126711Y-95204190D01*
X183245182Y-95041129D01*
X183336686Y-94861542D01*
X183336848Y-94861045D01*
X183341321Y-94847277D01*
X183398970Y-94669851D01*
X183420000Y-94537072D01*
X183430500Y-94470783D01*
X183430500Y-94269216D01*
X183409634Y-94137481D01*
X183398970Y-94070149D01*
X183336686Y-93878458D01*
X183245182Y-93698871D01*
X183126711Y-93535810D01*
X182984190Y-93393289D01*
X182821129Y-93274818D01*
X182694867Y-93210484D01*
X182644072Y-93162510D01*
X182627277Y-93094690D01*
X182649814Y-93028555D01*
X182694868Y-92989515D01*
X182821129Y-92925182D01*
X182984190Y-92806711D01*
X183126711Y-92664190D01*
X183245182Y-92501129D01*
X183336686Y-92321542D01*
X183336848Y-92321045D01*
X183375263Y-92202814D01*
X183398970Y-92129851D01*
X183420000Y-91997072D01*
X183430500Y-91930783D01*
X183430500Y-91729216D01*
X183412156Y-91613408D01*
X183398970Y-91530149D01*
X183336686Y-91338458D01*
X183245182Y-91158871D01*
X183126711Y-90995810D01*
X182984190Y-90853289D01*
X182821129Y-90734818D01*
X182694867Y-90670484D01*
X182644072Y-90622510D01*
X182627277Y-90554690D01*
X182649814Y-90488555D01*
X182694868Y-90449515D01*
X182821129Y-90385182D01*
X182984190Y-90266711D01*
X183126711Y-90124190D01*
X183245182Y-89961129D01*
X183336686Y-89781542D01*
X183336848Y-89781045D01*
X183341321Y-89767277D01*
X183398970Y-89589851D01*
X183420000Y-89457072D01*
X183430500Y-89390783D01*
X183430500Y-89189216D01*
X183412156Y-89073408D01*
X183398970Y-88990149D01*
X183336686Y-88798458D01*
X183245182Y-88618871D01*
X183126711Y-88455810D01*
X182984190Y-88313289D01*
X182821129Y-88194818D01*
X182694867Y-88130484D01*
X182644072Y-88082510D01*
X182627277Y-88014690D01*
X182649814Y-87948555D01*
X182694868Y-87909515D01*
X182821129Y-87845182D01*
X182984190Y-87726711D01*
X183126711Y-87584190D01*
X183245182Y-87421129D01*
X183336686Y-87241542D01*
X183336848Y-87241045D01*
X183341321Y-87227277D01*
X183398970Y-87049851D01*
X183420000Y-86917072D01*
X183430500Y-86850783D01*
X183430500Y-86649216D01*
X183412156Y-86533408D01*
X183398970Y-86450149D01*
X183336686Y-86258458D01*
X183245182Y-86078871D01*
X183126711Y-85915810D01*
X182984190Y-85773289D01*
X182821129Y-85654818D01*
X182694867Y-85590484D01*
X182644072Y-85542510D01*
X182627277Y-85474690D01*
X182649814Y-85408555D01*
X182694868Y-85369515D01*
X182821129Y-85305182D01*
X182984190Y-85186711D01*
X183126711Y-85044190D01*
X183245182Y-84881129D01*
X183336686Y-84701542D01*
X183336848Y-84701045D01*
X183341321Y-84687277D01*
X183398970Y-84509851D01*
X183420000Y-84377072D01*
X183430500Y-84310783D01*
X183430500Y-84109216D01*
X183412156Y-83993408D01*
X183398970Y-83910149D01*
X183336686Y-83718458D01*
X183245182Y-83538871D01*
X183126711Y-83375810D01*
X182984190Y-83233289D01*
X182821129Y-83114818D01*
X182694867Y-83050484D01*
X182644072Y-83002510D01*
X182627277Y-82934690D01*
X182649814Y-82868555D01*
X182694868Y-82829515D01*
X182821129Y-82765182D01*
X182984190Y-82646711D01*
X183126711Y-82504190D01*
X183245182Y-82341129D01*
X183336686Y-82161542D01*
X183336848Y-82161045D01*
X183341321Y-82147277D01*
X183398970Y-81969851D01*
X183420000Y-81837072D01*
X183430500Y-81770783D01*
X183430500Y-81569216D01*
X183412156Y-81453408D01*
X183398970Y-81370149D01*
X183336686Y-81178458D01*
X183245182Y-80998871D01*
X183126711Y-80835810D01*
X182984190Y-80693289D01*
X182821129Y-80574818D01*
X182694867Y-80510484D01*
X182644072Y-80462510D01*
X182627277Y-80394690D01*
X182649814Y-80328555D01*
X182694868Y-80289515D01*
X182821129Y-80225182D01*
X182984190Y-80106711D01*
X183126711Y-79964190D01*
X183245182Y-79801129D01*
X183336686Y-79621542D01*
X183336848Y-79621045D01*
X183370686Y-79516899D01*
X183398970Y-79429851D01*
X183420000Y-79297072D01*
X183430500Y-79230783D01*
X183430500Y-79029216D01*
X183412156Y-78913408D01*
X183398970Y-78830149D01*
X183367828Y-78734303D01*
X183336687Y-78638460D01*
X183317345Y-78600499D01*
X183245182Y-78458871D01*
X183126711Y-78295810D01*
X182984190Y-78153289D01*
X182821129Y-78034818D01*
X182694867Y-77970484D01*
X182644072Y-77922510D01*
X182627277Y-77854690D01*
X182649814Y-77788555D01*
X182694868Y-77749515D01*
X182821129Y-77685182D01*
X182984190Y-77566711D01*
X183126711Y-77424190D01*
X183245182Y-77261129D01*
X183336686Y-77081542D01*
X183336848Y-77081045D01*
X183353347Y-77030264D01*
X183398970Y-76889851D01*
X183420000Y-76757072D01*
X183430500Y-76690783D01*
X183430500Y-76489216D01*
X183398988Y-76290264D01*
X183398970Y-76290149D01*
X183338954Y-76105437D01*
X183336687Y-76098460D01*
X183309795Y-76045682D01*
X183245182Y-75918871D01*
X183126711Y-75755810D01*
X182984190Y-75613289D01*
X182821129Y-75494818D01*
X182694868Y-75430485D01*
X182694317Y-75430204D01*
X182643521Y-75382229D01*
X182626726Y-75314408D01*
X182649263Y-75248273D01*
X182694317Y-75209234D01*
X182820866Y-75144753D01*
X182861602Y-75115156D01*
X182861602Y-75115155D01*
X182295739Y-74549292D01*
X182350712Y-74534563D01*
X182469287Y-74466104D01*
X182566104Y-74369287D01*
X182634563Y-74250712D01*
X182649292Y-74195739D01*
X183215155Y-74761602D01*
X183215156Y-74761602D01*
X183244753Y-74720866D01*
X183336223Y-74541349D01*
X183336224Y-74541346D01*
X183398481Y-74349735D01*
X183430000Y-74150737D01*
X183430000Y-73949262D01*
X183398481Y-73750264D01*
X183336224Y-73558653D01*
X183336223Y-73558650D01*
X183244753Y-73379133D01*
X183215155Y-73338396D01*
X183215155Y-73338395D01*
X182649292Y-73904259D01*
X182634563Y-73849288D01*
X182566104Y-73730713D01*
X182469287Y-73633896D01*
X182350712Y-73565437D01*
X182295738Y-73550707D01*
X182861603Y-72984843D01*
X182861602Y-72984842D01*
X182820867Y-72955246D01*
X182694316Y-72890764D01*
X182643521Y-72842790D01*
X182626726Y-72774969D01*
X182649264Y-72708834D01*
X182694317Y-72669795D01*
X182821129Y-72605182D01*
X182984190Y-72486711D01*
X183126711Y-72344190D01*
X183245182Y-72181129D01*
X183336686Y-72001542D01*
X183398970Y-71809851D01*
X183420000Y-71677072D01*
X183430500Y-71610783D01*
X183430500Y-71409216D01*
X183412156Y-71293408D01*
X183398970Y-71210149D01*
X183336686Y-71018458D01*
X183245182Y-70838871D01*
X183126711Y-70675810D01*
X182984190Y-70533289D01*
X182821129Y-70414818D01*
X182694867Y-70350484D01*
X182644072Y-70302510D01*
X182627277Y-70234690D01*
X182649814Y-70168555D01*
X182694868Y-70129515D01*
X182821129Y-70065182D01*
X182984190Y-69946711D01*
X183126711Y-69804190D01*
X183245182Y-69641129D01*
X183336686Y-69461542D01*
X183398970Y-69269851D01*
X183420000Y-69137072D01*
X183430500Y-69070783D01*
X183430500Y-68869216D01*
X183412156Y-68753408D01*
X183398970Y-68670149D01*
X183336686Y-68478458D01*
X183245182Y-68298871D01*
X183126711Y-68135810D01*
X182984190Y-67993289D01*
X182821129Y-67874818D01*
X182694867Y-67810484D01*
X182644072Y-67762510D01*
X182627277Y-67694690D01*
X182649814Y-67628555D01*
X182694868Y-67589515D01*
X182821129Y-67525182D01*
X182984190Y-67406711D01*
X183126711Y-67264190D01*
X183245182Y-67101129D01*
X183336686Y-66921542D01*
X183336848Y-66921045D01*
X183341321Y-66907277D01*
X183398970Y-66729851D01*
X183420000Y-66597072D01*
X183430500Y-66530783D01*
X183430500Y-66329216D01*
X183412156Y-66213408D01*
X183398970Y-66130149D01*
X183336686Y-65938458D01*
X183245182Y-65758871D01*
X183126711Y-65595810D01*
X182984190Y-65453289D01*
X182821129Y-65334818D01*
X182694867Y-65270484D01*
X182644072Y-65222510D01*
X182627277Y-65154690D01*
X182649814Y-65088555D01*
X182694868Y-65049515D01*
X182821129Y-64985182D01*
X182984190Y-64866711D01*
X183126711Y-64724190D01*
X183245182Y-64561129D01*
X183336686Y-64381542D01*
X183398970Y-64189851D01*
X183420000Y-64057072D01*
X183430500Y-63990783D01*
X183430500Y-63789216D01*
X183412156Y-63673408D01*
X183398970Y-63590149D01*
X183336686Y-63398458D01*
X183245182Y-63218871D01*
X183126711Y-63055810D01*
X182984190Y-62913289D01*
X182821129Y-62794818D01*
X182694867Y-62730484D01*
X182644072Y-62682510D01*
X182627277Y-62614690D01*
X182649814Y-62548555D01*
X182694868Y-62509515D01*
X182821129Y-62445182D01*
X182984190Y-62326711D01*
X183126711Y-62184190D01*
X183245182Y-62021129D01*
X183336686Y-61841542D01*
X183336848Y-61841045D01*
X183381521Y-61703553D01*
X183398970Y-61649851D01*
X183420000Y-61517072D01*
X183430500Y-61450783D01*
X183430500Y-61249216D01*
X183398988Y-61050264D01*
X183398970Y-61050149D01*
X183338954Y-60865437D01*
X183336687Y-60858460D01*
X183309795Y-60805682D01*
X183245182Y-60678871D01*
X183126711Y-60515810D01*
X182984190Y-60373289D01*
X182821129Y-60254818D01*
X182694867Y-60190484D01*
X182644072Y-60142510D01*
X182627277Y-60074690D01*
X182649814Y-60008555D01*
X182694868Y-59969515D01*
X182821129Y-59905182D01*
X182984190Y-59786711D01*
X183126711Y-59644190D01*
X183245182Y-59481129D01*
X183336686Y-59301542D01*
X183398970Y-59109851D01*
X183420000Y-58977072D01*
X183430500Y-58910783D01*
X183430500Y-58709216D01*
X183398988Y-58510264D01*
X183398970Y-58510149D01*
X183338954Y-58325437D01*
X183336687Y-58318460D01*
X183309795Y-58265682D01*
X183245182Y-58138871D01*
X183126711Y-57975810D01*
X182984190Y-57833289D01*
X182821129Y-57714818D01*
X182694867Y-57650484D01*
X182644072Y-57602510D01*
X182627277Y-57534690D01*
X182649814Y-57468555D01*
X182694868Y-57429515D01*
X182821129Y-57365182D01*
X182984190Y-57246711D01*
X183126711Y-57104190D01*
X183245182Y-56941129D01*
X183336686Y-56761542D01*
X183336848Y-56761045D01*
X183341321Y-56747277D01*
X183398970Y-56569851D01*
X183420000Y-56437072D01*
X183430500Y-56370783D01*
X183430500Y-56169216D01*
X183412156Y-56053408D01*
X183398970Y-55970149D01*
X183336686Y-55778458D01*
X183245182Y-55598871D01*
X183126711Y-55435810D01*
X182984190Y-55293289D01*
X182821129Y-55174818D01*
X182694867Y-55110484D01*
X182644072Y-55062510D01*
X182627277Y-54994690D01*
X182649814Y-54928555D01*
X182694868Y-54889515D01*
X182821129Y-54825182D01*
X182984190Y-54706711D01*
X183126711Y-54564190D01*
X183245182Y-54401129D01*
X183336686Y-54221542D01*
X183398970Y-54029851D01*
X183420000Y-53897072D01*
X183430500Y-53830783D01*
X183430500Y-53629216D01*
X183412156Y-53513408D01*
X183398970Y-53430149D01*
X183336686Y-53238458D01*
X183245182Y-53058871D01*
X183126711Y-52895810D01*
X182984190Y-52753289D01*
X182821129Y-52634818D01*
X182694867Y-52570484D01*
X182644072Y-52522510D01*
X182627277Y-52454690D01*
X182649814Y-52388555D01*
X182694868Y-52349515D01*
X182821129Y-52285182D01*
X182984190Y-52166711D01*
X183126711Y-52024190D01*
X183245182Y-51861129D01*
X183336686Y-51681542D01*
X183398970Y-51489851D01*
X183415214Y-51387289D01*
X183430500Y-51290783D01*
X183430500Y-51089216D01*
X183409500Y-50956636D01*
X183398970Y-50890149D01*
X183336686Y-50698458D01*
X183245182Y-50518871D01*
X183126711Y-50355810D01*
X182984190Y-50213289D01*
X182821129Y-50094818D01*
X182737981Y-50052452D01*
X182641539Y-50003312D01*
X182449852Y-49941030D01*
X182250783Y-49909500D01*
X182250778Y-49909500D01*
X182049222Y-49909500D01*
X182049217Y-49909500D01*
X181850147Y-49941030D01*
X181658460Y-50003312D01*
X181478870Y-50094818D01*
X181385838Y-50162410D01*
X181315810Y-50213289D01*
X181315808Y-50213291D01*
X181315807Y-50213291D01*
X181173291Y-50355807D01*
X181173291Y-50355808D01*
X181173289Y-50355810D01*
X181147367Y-50391489D01*
X181114817Y-50436290D01*
X181059487Y-50478955D01*
X180989873Y-50484934D01*
X180928078Y-50452328D01*
X180893721Y-50391489D01*
X180890731Y-50365433D01*
X180890676Y-50365436D01*
X180890626Y-50364518D01*
X180890499Y-50363404D01*
X180890499Y-50362129D01*
X180890498Y-50362123D01*
X180890497Y-50362116D01*
X180884091Y-50302517D01*
X180833796Y-50167669D01*
X180833795Y-50167668D01*
X180833793Y-50167664D01*
X180747547Y-50052455D01*
X180747544Y-50052452D01*
X180632335Y-49966206D01*
X180632328Y-49966202D01*
X180497482Y-49915908D01*
X180497483Y-49915908D01*
X180437883Y-49909501D01*
X180437881Y-49909500D01*
X180437873Y-49909500D01*
X180437864Y-49909500D01*
X178782129Y-49909500D01*
X178782123Y-49909501D01*
X178722516Y-49915908D01*
X178587671Y-49966202D01*
X178587664Y-49966206D01*
X178472455Y-50052452D01*
X178472452Y-50052455D01*
X178386206Y-50167664D01*
X178386202Y-50167671D01*
X178335908Y-50302517D01*
X178330179Y-50355807D01*
X178329501Y-50362123D01*
X178329500Y-50362135D01*
X178329500Y-52017870D01*
X178329501Y-52017876D01*
X178335908Y-52077483D01*
X178386202Y-52212328D01*
X178386206Y-52212335D01*
X178472452Y-52327544D01*
X178472455Y-52327547D01*
X178587664Y-52413793D01*
X178587671Y-52413797D01*
X178632618Y-52430561D01*
X178722517Y-52464091D01*
X178782127Y-52470500D01*
X178783378Y-52470499D01*
X178783656Y-52470581D01*
X178785453Y-52470678D01*
X178785430Y-52471101D01*
X178850419Y-52490169D01*
X178896185Y-52542963D01*
X178906144Y-52612119D01*
X178877133Y-52675681D01*
X178856289Y-52694816D01*
X178775810Y-52753288D01*
X178633291Y-52895807D01*
X178633291Y-52895808D01*
X178633289Y-52895810D01*
X178582410Y-52965838D01*
X178514818Y-53058870D01*
X178423312Y-53238460D01*
X178361030Y-53430147D01*
X178329500Y-53629216D01*
X178329500Y-53830783D01*
X178361030Y-54029852D01*
X178423312Y-54221539D01*
X178450485Y-54274868D01*
X178514818Y-54401129D01*
X178633289Y-54564190D01*
X178775810Y-54706711D01*
X178938871Y-54825182D01*
X179006885Y-54859836D01*
X179065131Y-54889515D01*
X179115927Y-54937490D01*
X179132722Y-55005311D01*
X179110184Y-55071446D01*
X179065131Y-55110485D01*
X178938870Y-55174818D01*
X178845838Y-55242410D01*
X178775810Y-55293289D01*
X178775808Y-55293291D01*
X178775807Y-55293291D01*
X178633291Y-55435807D01*
X178633291Y-55435808D01*
X178633289Y-55435810D01*
X178582410Y-55505838D01*
X178514818Y-55598870D01*
X178423312Y-55778460D01*
X178361030Y-55970147D01*
X178329500Y-56169216D01*
X178329500Y-56370783D01*
X178361030Y-56569852D01*
X178423312Y-56761539D01*
X178450485Y-56814868D01*
X178514818Y-56941129D01*
X178633289Y-57104190D01*
X178775810Y-57246711D01*
X178938871Y-57365182D01*
X179006885Y-57399836D01*
X179065131Y-57429515D01*
X179115927Y-57477490D01*
X179132722Y-57545311D01*
X179110184Y-57611446D01*
X179065131Y-57650485D01*
X178938870Y-57714818D01*
X178897545Y-57744843D01*
X178775810Y-57833289D01*
X178775808Y-57833291D01*
X178775807Y-57833291D01*
X178633291Y-57975807D01*
X178633291Y-57975808D01*
X178633289Y-57975810D01*
X178582410Y-58045838D01*
X178514818Y-58138870D01*
X178423312Y-58318460D01*
X178361030Y-58510147D01*
X178329500Y-58709216D01*
X178329500Y-58910783D01*
X178361030Y-59109852D01*
X178423312Y-59301539D01*
X178450485Y-59354868D01*
X178514818Y-59481129D01*
X178633289Y-59644190D01*
X178775810Y-59786711D01*
X178938871Y-59905182D01*
X179065682Y-59969795D01*
X179116478Y-60017769D01*
X179133273Y-60085590D01*
X179110736Y-60151725D01*
X179065683Y-60190764D01*
X178939140Y-60255242D01*
X178939133Y-60255246D01*
X178898396Y-60284842D01*
X178898396Y-60284843D01*
X179464260Y-60850707D01*
X179409288Y-60865437D01*
X179290713Y-60933896D01*
X179193896Y-61030713D01*
X179125437Y-61149288D01*
X179110707Y-61204260D01*
X178544843Y-60638396D01*
X178544842Y-60638396D01*
X178515246Y-60679133D01*
X178515245Y-60679135D01*
X178423776Y-60858650D01*
X178423775Y-60858653D01*
X178361518Y-61050264D01*
X178330000Y-61249262D01*
X178330000Y-61450737D01*
X178361518Y-61649735D01*
X178423775Y-61841346D01*
X178423776Y-61841349D01*
X178515248Y-62020869D01*
X178544842Y-62061602D01*
X178544843Y-62061603D01*
X179110707Y-61495739D01*
X179125437Y-61550712D01*
X179193896Y-61669287D01*
X179290713Y-61766104D01*
X179409288Y-61834563D01*
X179464259Y-61849292D01*
X178898395Y-62415155D01*
X178939133Y-62444753D01*
X179065682Y-62509234D01*
X179116478Y-62557209D01*
X179133273Y-62625030D01*
X179110735Y-62691165D01*
X179065682Y-62730204D01*
X178938870Y-62794818D01*
X178845838Y-62862410D01*
X178775810Y-62913289D01*
X178775808Y-62913291D01*
X178775807Y-62913291D01*
X178633291Y-63055807D01*
X178633291Y-63055808D01*
X178633289Y-63055810D01*
X178582410Y-63125838D01*
X178514818Y-63218870D01*
X178423312Y-63398460D01*
X178361030Y-63590147D01*
X178329500Y-63789216D01*
X178329500Y-63990783D01*
X178361030Y-64189852D01*
X178423312Y-64381539D01*
X178450485Y-64434868D01*
X178514818Y-64561129D01*
X178633289Y-64724190D01*
X178775810Y-64866711D01*
X178938871Y-64985182D01*
X179006885Y-65019836D01*
X179065131Y-65049515D01*
X179115927Y-65097490D01*
X179132722Y-65165311D01*
X179110184Y-65231446D01*
X179065131Y-65270485D01*
X178938870Y-65334818D01*
X178845838Y-65402410D01*
X178775810Y-65453289D01*
X178775808Y-65453291D01*
X178775807Y-65453291D01*
X178633291Y-65595807D01*
X178633291Y-65595808D01*
X178633289Y-65595810D01*
X178582410Y-65665838D01*
X178514818Y-65758870D01*
X178423312Y-65938460D01*
X178361030Y-66130147D01*
X178329500Y-66329216D01*
X178329500Y-66530783D01*
X178361030Y-66729852D01*
X178423312Y-66921539D01*
X178450485Y-66974868D01*
X178514818Y-67101129D01*
X178633289Y-67264190D01*
X178775810Y-67406711D01*
X178938871Y-67525182D01*
X179006885Y-67559836D01*
X179065131Y-67589515D01*
X179115927Y-67637490D01*
X179132722Y-67705311D01*
X179110184Y-67771446D01*
X179065131Y-67810485D01*
X178938870Y-67874818D01*
X178845838Y-67942410D01*
X178775810Y-67993289D01*
X178775808Y-67993291D01*
X178775807Y-67993291D01*
X178633291Y-68135807D01*
X178633291Y-68135808D01*
X178633289Y-68135810D01*
X178582410Y-68205838D01*
X178514818Y-68298870D01*
X178423312Y-68478460D01*
X178361030Y-68670147D01*
X178329500Y-68869216D01*
X178329500Y-69070783D01*
X178361030Y-69269852D01*
X178423312Y-69461539D01*
X178450485Y-69514868D01*
X178514818Y-69641129D01*
X178633289Y-69804190D01*
X178775810Y-69946711D01*
X178938871Y-70065182D01*
X179006885Y-70099836D01*
X179065131Y-70129515D01*
X179115927Y-70177490D01*
X179132722Y-70245311D01*
X179110184Y-70311446D01*
X179065131Y-70350485D01*
X178938870Y-70414818D01*
X178845838Y-70482410D01*
X178775810Y-70533289D01*
X178775808Y-70533291D01*
X178775807Y-70533291D01*
X178633291Y-70675807D01*
X178633291Y-70675808D01*
X178633289Y-70675810D01*
X178582410Y-70745838D01*
X178514818Y-70838870D01*
X178423312Y-71018460D01*
X178361030Y-71210147D01*
X178329500Y-71409216D01*
X178329500Y-71610783D01*
X178361030Y-71809852D01*
X178423312Y-72001539D01*
X178450485Y-72054868D01*
X178514818Y-72181129D01*
X178633289Y-72344190D01*
X178775810Y-72486711D01*
X178938871Y-72605182D01*
X179006885Y-72639836D01*
X179065131Y-72669515D01*
X179115927Y-72717490D01*
X179132722Y-72785311D01*
X179110184Y-72851446D01*
X179065131Y-72890485D01*
X178938870Y-72954818D01*
X178897545Y-72984843D01*
X178775810Y-73073289D01*
X178775808Y-73073291D01*
X178775807Y-73073291D01*
X178633291Y-73215807D01*
X178633291Y-73215808D01*
X178633289Y-73215810D01*
X178582410Y-73285838D01*
X178514818Y-73378870D01*
X178423313Y-73558459D01*
X178361030Y-73750147D01*
X178329500Y-73949216D01*
X178329500Y-74150783D01*
X178361030Y-74349852D01*
X178423312Y-74541539D01*
X178458342Y-74610289D01*
X178514818Y-74721129D01*
X178633289Y-74884190D01*
X178775810Y-75026711D01*
X178938871Y-75145182D01*
X179006885Y-75179836D01*
X179065131Y-75209515D01*
X179115927Y-75257490D01*
X179132722Y-75325311D01*
X179110184Y-75391446D01*
X179065131Y-75430485D01*
X178938870Y-75494818D01*
X178897545Y-75524843D01*
X178775810Y-75613289D01*
X178775808Y-75613291D01*
X178775807Y-75613291D01*
X178633291Y-75755807D01*
X178633291Y-75755808D01*
X178633289Y-75755810D01*
X178582410Y-75825838D01*
X178514818Y-75918870D01*
X178423312Y-76098460D01*
X178361030Y-76290147D01*
X178329500Y-76489216D01*
X178329500Y-76690783D01*
X178361030Y-76889852D01*
X178361031Y-76889859D01*
X178362043Y-76892972D01*
X178362078Y-76894221D01*
X178362169Y-76894598D01*
X178362089Y-76894616D01*
X178364038Y-76962814D01*
X178331793Y-77018970D01*
X178087582Y-77263182D01*
X178026262Y-77296666D01*
X177999903Y-77299500D01*
X162086670Y-77299500D01*
X162086654Y-77299499D01*
X162079058Y-77299499D01*
X161920943Y-77299499D01*
X161844579Y-77319961D01*
X161768214Y-77340423D01*
X161768209Y-77340426D01*
X161631290Y-77419475D01*
X161631282Y-77419481D01*
X127619481Y-111431282D01*
X127619480Y-111431284D01*
X127576761Y-111505276D01*
X127540423Y-111568215D01*
X127499499Y-111720943D01*
X127499499Y-111720945D01*
X127499499Y-111889046D01*
X127499500Y-111889059D01*
X127499500Y-112820234D01*
X127479815Y-112887273D01*
X127478602Y-112889125D01*
X127390609Y-113020814D01*
X127390602Y-113020827D01*
X127330264Y-113166498D01*
X127330261Y-113166510D01*
X127299500Y-113321153D01*
X123170389Y-113321153D01*
X119286819Y-109437583D01*
X119253334Y-109376260D01*
X119250500Y-109349902D01*
X119250500Y-98117156D01*
X119270185Y-98050117D01*
X119317000Y-98007765D01*
X119316977Y-98007727D01*
X119317179Y-98007602D01*
X119318213Y-98006667D01*
X119321129Y-98005182D01*
X119484190Y-97886711D01*
X119626711Y-97744190D01*
X119745182Y-97581129D01*
X119809515Y-97454867D01*
X119857490Y-97404072D01*
X119925310Y-97387277D01*
X119991445Y-97409814D01*
X120030484Y-97454867D01*
X120094818Y-97581129D01*
X120213289Y-97744190D01*
X120355810Y-97886711D01*
X120518871Y-98005182D01*
X120698458Y-98096686D01*
X120698460Y-98096687D01*
X120761458Y-98117156D01*
X120890149Y-98158970D01*
X120982348Y-98173572D01*
X121089217Y-98190500D01*
X121089222Y-98190500D01*
X121290783Y-98190500D01*
X121387289Y-98175214D01*
X121489851Y-98158970D01*
X121681542Y-98096686D01*
X121861129Y-98005182D01*
X122024190Y-97886711D01*
X122166711Y-97744190D01*
X122285182Y-97581129D01*
X122376686Y-97401542D01*
X122438970Y-97209851D01*
X122460000Y-97077072D01*
X122470500Y-97010783D01*
X122470500Y-96809216D01*
X122452156Y-96693408D01*
X122438970Y-96610149D01*
X122376686Y-96418458D01*
X122285182Y-96238871D01*
X122166711Y-96075810D01*
X122024190Y-95933289D01*
X121861129Y-95814818D01*
X121734867Y-95750484D01*
X121684072Y-95702510D01*
X121667277Y-95634690D01*
X121689814Y-95568555D01*
X121734868Y-95529515D01*
X121861129Y-95465182D01*
X122024190Y-95346711D01*
X122166711Y-95204190D01*
X122285182Y-95041129D01*
X122376686Y-94861542D01*
X122376848Y-94861045D01*
X122381321Y-94847277D01*
X122438970Y-94669851D01*
X122460000Y-94537072D01*
X122470500Y-94470783D01*
X122470500Y-94269216D01*
X122449634Y-94137481D01*
X122438970Y-94070149D01*
X122376686Y-93878458D01*
X122285182Y-93698871D01*
X122166711Y-93535810D01*
X122024190Y-93393289D01*
X121861129Y-93274818D01*
X121734867Y-93210484D01*
X121684072Y-93162510D01*
X121667277Y-93094690D01*
X121689814Y-93028555D01*
X121734868Y-92989515D01*
X121861129Y-92925182D01*
X122024190Y-92806711D01*
X122166711Y-92664190D01*
X122285182Y-92501129D01*
X122376686Y-92321542D01*
X122376848Y-92321045D01*
X122415263Y-92202814D01*
X122438970Y-92129851D01*
X122460000Y-91997072D01*
X122470500Y-91930783D01*
X122470500Y-91729216D01*
X122452156Y-91613408D01*
X122438970Y-91530149D01*
X122376686Y-91338458D01*
X122285182Y-91158871D01*
X122166711Y-90995810D01*
X122024190Y-90853289D01*
X121861129Y-90734818D01*
X121734867Y-90670484D01*
X121684072Y-90622510D01*
X121667277Y-90554690D01*
X121689814Y-90488555D01*
X121734868Y-90449515D01*
X121861129Y-90385182D01*
X122024190Y-90266711D01*
X122166711Y-90124190D01*
X122285182Y-89961129D01*
X122376686Y-89781542D01*
X122376848Y-89781045D01*
X122381321Y-89767277D01*
X122438970Y-89589851D01*
X122460000Y-89457072D01*
X122470500Y-89390783D01*
X122470500Y-89189216D01*
X122452156Y-89073408D01*
X122438970Y-88990149D01*
X122376686Y-88798458D01*
X122285182Y-88618871D01*
X122166711Y-88455810D01*
X122024190Y-88313289D01*
X121861129Y-88194818D01*
X121734867Y-88130484D01*
X121684072Y-88082510D01*
X121667277Y-88014690D01*
X121689814Y-87948555D01*
X121734868Y-87909515D01*
X121861129Y-87845182D01*
X122024190Y-87726711D01*
X122166711Y-87584190D01*
X122285182Y-87421129D01*
X122376686Y-87241542D01*
X122376848Y-87241045D01*
X122381321Y-87227277D01*
X122438970Y-87049851D01*
X122460000Y-86917072D01*
X122470500Y-86850783D01*
X122470500Y-86649216D01*
X122452156Y-86533408D01*
X122438970Y-86450149D01*
X122376686Y-86258458D01*
X122285182Y-86078871D01*
X122166711Y-85915810D01*
X122024190Y-85773289D01*
X121861129Y-85654818D01*
X121734867Y-85590484D01*
X121684072Y-85542510D01*
X121667277Y-85474690D01*
X121689814Y-85408555D01*
X121734868Y-85369515D01*
X121861129Y-85305182D01*
X122024190Y-85186711D01*
X122166711Y-85044190D01*
X122285182Y-84881129D01*
X122376686Y-84701542D01*
X122376848Y-84701045D01*
X122381321Y-84687277D01*
X122438970Y-84509851D01*
X122460000Y-84377072D01*
X122470500Y-84310783D01*
X122470500Y-84109216D01*
X122452156Y-83993408D01*
X122438970Y-83910149D01*
X122376686Y-83718458D01*
X122285182Y-83538871D01*
X122166711Y-83375810D01*
X122024190Y-83233289D01*
X121861129Y-83114818D01*
X121734867Y-83050484D01*
X121684072Y-83002510D01*
X121667277Y-82934690D01*
X121689814Y-82868555D01*
X121734868Y-82829515D01*
X121861129Y-82765182D01*
X122024190Y-82646711D01*
X122166711Y-82504190D01*
X122285182Y-82341129D01*
X122376686Y-82161542D01*
X122376848Y-82161045D01*
X122381321Y-82147277D01*
X122438970Y-81969851D01*
X122460000Y-81837072D01*
X122470500Y-81770783D01*
X122470500Y-81569216D01*
X122452156Y-81453408D01*
X122438970Y-81370149D01*
X122376686Y-81178458D01*
X122285182Y-80998871D01*
X122166711Y-80835810D01*
X122024190Y-80693289D01*
X121861129Y-80574818D01*
X121734867Y-80510484D01*
X121684072Y-80462510D01*
X121667277Y-80394690D01*
X121689814Y-80328555D01*
X121734868Y-80289515D01*
X121861129Y-80225182D01*
X122024190Y-80106711D01*
X122166711Y-79964190D01*
X122285182Y-79801129D01*
X122376686Y-79621542D01*
X122376848Y-79621045D01*
X122410686Y-79516899D01*
X122438970Y-79429851D01*
X122460000Y-79297072D01*
X122470500Y-79230783D01*
X122470500Y-79029216D01*
X122452156Y-78913408D01*
X122438970Y-78830149D01*
X122407828Y-78734303D01*
X122376687Y-78638460D01*
X122357345Y-78600499D01*
X122285182Y-78458871D01*
X122166711Y-78295810D01*
X122024190Y-78153289D01*
X121861129Y-78034818D01*
X121734317Y-77970204D01*
X121683521Y-77922229D01*
X121666726Y-77854408D01*
X121689263Y-77788273D01*
X121734317Y-77749234D01*
X121860866Y-77684753D01*
X121901602Y-77655156D01*
X121901602Y-77655155D01*
X121335739Y-77089292D01*
X121390712Y-77074563D01*
X121509287Y-77006104D01*
X121606104Y-76909287D01*
X121674563Y-76790712D01*
X121689292Y-76735739D01*
X122255155Y-77301602D01*
X122255156Y-77301602D01*
X122284753Y-77260866D01*
X122376223Y-77081349D01*
X122376224Y-77081346D01*
X122438481Y-76889735D01*
X122470000Y-76690737D01*
X122470000Y-76489262D01*
X122438481Y-76290264D01*
X122376224Y-76098653D01*
X122376223Y-76098650D01*
X122284753Y-75919133D01*
X122255155Y-75878396D01*
X122255155Y-75878395D01*
X121689292Y-76444259D01*
X121674563Y-76389288D01*
X121606104Y-76270713D01*
X121509287Y-76173896D01*
X121390712Y-76105437D01*
X121335738Y-76090707D01*
X121901603Y-75524843D01*
X121901602Y-75524842D01*
X121860869Y-75495248D01*
X121733766Y-75430485D01*
X121682970Y-75382510D01*
X121666175Y-75314689D01*
X121688713Y-75248554D01*
X121733766Y-75209515D01*
X121860866Y-75144753D01*
X121901602Y-75115156D01*
X121901602Y-75115155D01*
X121335739Y-74549292D01*
X121390712Y-74534563D01*
X121509287Y-74466104D01*
X121606104Y-74369287D01*
X121674563Y-74250712D01*
X121689292Y-74195739D01*
X122255155Y-74761602D01*
X122255156Y-74761602D01*
X122284753Y-74720866D01*
X122376223Y-74541349D01*
X122376224Y-74541346D01*
X122438481Y-74349735D01*
X122470000Y-74150737D01*
X122470000Y-74021153D01*
X129299500Y-74021153D01*
X129299500Y-74178846D01*
X129330261Y-74333489D01*
X129330264Y-74333501D01*
X129390602Y-74479172D01*
X129390609Y-74479185D01*
X129478210Y-74610288D01*
X129478213Y-74610292D01*
X129589707Y-74721786D01*
X129589711Y-74721789D01*
X129720814Y-74809390D01*
X129720827Y-74809397D01*
X129866498Y-74869735D01*
X129866503Y-74869737D01*
X130021153Y-74900499D01*
X130021156Y-74900500D01*
X130021158Y-74900500D01*
X130178844Y-74900500D01*
X130178845Y-74900499D01*
X130333497Y-74869737D01*
X130479179Y-74809394D01*
X130479185Y-74809390D01*
X130610875Y-74721398D01*
X130677553Y-74700520D01*
X130679766Y-74700500D01*
X133299903Y-74700500D01*
X133366942Y-74720185D01*
X133387584Y-74736819D01*
X136815139Y-78164374D01*
X136815149Y-78164385D01*
X136819479Y-78168715D01*
X136819480Y-78168716D01*
X136931284Y-78280520D01*
X136957768Y-78295810D01*
X137018095Y-78330639D01*
X137018097Y-78330641D01*
X137056151Y-78352611D01*
X137068215Y-78359577D01*
X137220943Y-78400500D01*
X140870234Y-78400500D01*
X140937273Y-78420185D01*
X140939125Y-78421398D01*
X141070814Y-78509390D01*
X141070827Y-78509397D01*
X141137031Y-78536819D01*
X141216503Y-78569737D01*
X141371153Y-78600499D01*
X141371156Y-78600500D01*
X141371158Y-78600500D01*
X141528844Y-78600500D01*
X141528845Y-78600499D01*
X141683497Y-78569737D01*
X141829179Y-78509394D01*
X141960289Y-78421789D01*
X142071789Y-78310289D01*
X142159394Y-78179179D01*
X142219737Y-78033497D01*
X142250500Y-77878842D01*
X142250500Y-77721158D01*
X142250500Y-77721155D01*
X142250499Y-77721153D01*
X142243344Y-77685181D01*
X142219737Y-77566503D01*
X142219735Y-77566498D01*
X142159397Y-77420827D01*
X142159390Y-77420814D01*
X142071789Y-77289711D01*
X142071786Y-77289707D01*
X141960292Y-77178213D01*
X141960288Y-77178210D01*
X141829185Y-77090609D01*
X141829172Y-77090602D01*
X141683501Y-77030264D01*
X141683489Y-77030261D01*
X141528845Y-76999500D01*
X141528842Y-76999500D01*
X141371158Y-76999500D01*
X141371155Y-76999500D01*
X141216510Y-77030261D01*
X141216498Y-77030264D01*
X141070827Y-77090602D01*
X141070814Y-77090609D01*
X140939125Y-77178602D01*
X140872447Y-77199480D01*
X140870234Y-77199500D01*
X137600097Y-77199500D01*
X137533058Y-77179815D01*
X137512416Y-77163181D01*
X134087590Y-73738355D01*
X134087588Y-73738352D01*
X133968717Y-73619481D01*
X133968716Y-73619480D01*
X133863022Y-73558458D01*
X133863021Y-73558457D01*
X133831783Y-73540422D01*
X133775881Y-73525443D01*
X133679057Y-73499499D01*
X133520943Y-73499499D01*
X133513347Y-73499499D01*
X133513331Y-73499500D01*
X130679766Y-73499500D01*
X130612727Y-73479815D01*
X130610875Y-73478602D01*
X130479185Y-73390609D01*
X130479172Y-73390602D01*
X130333501Y-73330264D01*
X130333489Y-73330261D01*
X130178845Y-73299500D01*
X130178842Y-73299500D01*
X130021158Y-73299500D01*
X130021155Y-73299500D01*
X129866510Y-73330261D01*
X129866498Y-73330264D01*
X129720827Y-73390602D01*
X129720814Y-73390609D01*
X129589711Y-73478210D01*
X129589707Y-73478213D01*
X129478213Y-73589707D01*
X129478210Y-73589711D01*
X129390609Y-73720814D01*
X129390602Y-73720827D01*
X129330264Y-73866498D01*
X129330261Y-73866510D01*
X129299500Y-74021153D01*
X122470000Y-74021153D01*
X122470000Y-73949262D01*
X122438481Y-73750264D01*
X122376224Y-73558653D01*
X122376223Y-73558650D01*
X122284753Y-73379133D01*
X122255155Y-73338396D01*
X122255155Y-73338395D01*
X121689292Y-73904259D01*
X121674563Y-73849288D01*
X121606104Y-73730713D01*
X121509287Y-73633896D01*
X121390712Y-73565437D01*
X121335738Y-73550707D01*
X121901603Y-72984843D01*
X121901602Y-72984842D01*
X121860867Y-72955246D01*
X121734316Y-72890764D01*
X121683521Y-72842790D01*
X121666726Y-72774969D01*
X121689264Y-72708834D01*
X121734317Y-72669795D01*
X121861129Y-72605182D01*
X122024190Y-72486711D01*
X122166711Y-72344190D01*
X122285182Y-72181129D01*
X122376686Y-72001542D01*
X122438970Y-71809851D01*
X122460000Y-71677072D01*
X122470500Y-71610783D01*
X122470500Y-71409216D01*
X122452156Y-71293408D01*
X122438970Y-71210149D01*
X122376686Y-71018458D01*
X122285182Y-70838871D01*
X122166711Y-70675810D01*
X122024190Y-70533289D01*
X121861129Y-70414818D01*
X121734867Y-70350484D01*
X121684072Y-70302510D01*
X121667277Y-70234690D01*
X121689814Y-70168555D01*
X121734868Y-70129515D01*
X121861129Y-70065182D01*
X122024190Y-69946711D01*
X122166711Y-69804190D01*
X122285182Y-69641129D01*
X122376686Y-69461542D01*
X122438970Y-69269851D01*
X122460000Y-69137072D01*
X122470500Y-69070783D01*
X122470500Y-68869216D01*
X122452156Y-68753408D01*
X122438970Y-68670149D01*
X122376686Y-68478458D01*
X122285182Y-68298871D01*
X122166711Y-68135810D01*
X122024190Y-67993289D01*
X121861129Y-67874818D01*
X121734867Y-67810484D01*
X121684072Y-67762510D01*
X121667277Y-67694690D01*
X121689814Y-67628555D01*
X121734868Y-67589515D01*
X121861129Y-67525182D01*
X122024190Y-67406711D01*
X122166711Y-67264190D01*
X122285182Y-67101129D01*
X122376686Y-66921542D01*
X122376848Y-66921045D01*
X122381321Y-66907277D01*
X122438970Y-66729851D01*
X122460000Y-66597072D01*
X122470500Y-66530783D01*
X122470500Y-66329216D01*
X122452156Y-66213408D01*
X122438970Y-66130149D01*
X122376686Y-65938458D01*
X122285182Y-65758871D01*
X122166711Y-65595810D01*
X122024190Y-65453289D01*
X121861129Y-65334818D01*
X121734867Y-65270484D01*
X121684072Y-65222510D01*
X121667277Y-65154690D01*
X121689814Y-65088555D01*
X121734868Y-65049515D01*
X121861129Y-64985182D01*
X122024190Y-64866711D01*
X122166711Y-64724190D01*
X122285182Y-64561129D01*
X122376686Y-64381542D01*
X122438970Y-64189851D01*
X122460000Y-64057072D01*
X122470500Y-63990783D01*
X122470500Y-63789216D01*
X122452156Y-63673408D01*
X122438970Y-63590149D01*
X122376686Y-63398458D01*
X122285182Y-63218871D01*
X122166711Y-63055810D01*
X122024190Y-62913289D01*
X121861129Y-62794818D01*
X121734867Y-62730484D01*
X121684072Y-62682510D01*
X121667277Y-62614690D01*
X121689814Y-62548555D01*
X121734868Y-62509515D01*
X121861129Y-62445182D01*
X122024190Y-62326711D01*
X122166711Y-62184190D01*
X122285182Y-62021129D01*
X122376686Y-61841542D01*
X122376848Y-61841045D01*
X122421521Y-61703553D01*
X122438970Y-61649851D01*
X122460000Y-61517072D01*
X122470500Y-61450783D01*
X122470500Y-61249216D01*
X122438988Y-61050264D01*
X122438970Y-61050149D01*
X122378954Y-60865437D01*
X122376687Y-60858460D01*
X122349795Y-60805682D01*
X122285182Y-60678871D01*
X122166711Y-60515810D01*
X122024190Y-60373289D01*
X121861129Y-60254818D01*
X121734317Y-60190204D01*
X121683521Y-60142229D01*
X121666726Y-60074408D01*
X121689263Y-60008273D01*
X121734317Y-59969234D01*
X121860866Y-59904753D01*
X121901602Y-59875156D01*
X121901602Y-59875155D01*
X121335739Y-59309292D01*
X121390712Y-59294563D01*
X121509287Y-59226104D01*
X121606104Y-59129287D01*
X121674563Y-59010712D01*
X121689292Y-58955739D01*
X122255155Y-59521602D01*
X122255156Y-59521602D01*
X122284753Y-59480866D01*
X122376223Y-59301349D01*
X122376224Y-59301346D01*
X122438481Y-59109735D01*
X122470000Y-58910737D01*
X122470000Y-58709262D01*
X122438481Y-58510264D01*
X122376224Y-58318653D01*
X122376223Y-58318650D01*
X122284753Y-58139133D01*
X122255155Y-58098396D01*
X122255155Y-58098395D01*
X121689292Y-58664259D01*
X121674563Y-58609288D01*
X121606104Y-58490713D01*
X121509287Y-58393896D01*
X121390712Y-58325437D01*
X121335738Y-58310707D01*
X121901603Y-57744843D01*
X121901602Y-57744842D01*
X121860867Y-57715246D01*
X121734316Y-57650764D01*
X121683521Y-57602790D01*
X121666726Y-57534969D01*
X121689264Y-57468834D01*
X121734317Y-57429795D01*
X121861129Y-57365182D01*
X122024190Y-57246711D01*
X122166711Y-57104190D01*
X122285182Y-56941129D01*
X122376686Y-56761542D01*
X122376848Y-56761045D01*
X122381321Y-56747277D01*
X122438970Y-56569851D01*
X122460000Y-56437072D01*
X122470500Y-56370783D01*
X122470500Y-56169216D01*
X122452156Y-56053408D01*
X122438970Y-55970149D01*
X122376686Y-55778458D01*
X122285182Y-55598871D01*
X122166711Y-55435810D01*
X122024190Y-55293289D01*
X121861129Y-55174818D01*
X121734867Y-55110484D01*
X121684072Y-55062510D01*
X121667277Y-54994690D01*
X121689814Y-54928555D01*
X121734868Y-54889515D01*
X121861129Y-54825182D01*
X122024190Y-54706711D01*
X122166711Y-54564190D01*
X122285182Y-54401129D01*
X122376686Y-54221542D01*
X122438970Y-54029851D01*
X122460000Y-53897072D01*
X122470500Y-53830783D01*
X122470500Y-53629216D01*
X122452156Y-53513408D01*
X122438970Y-53430149D01*
X122376686Y-53238458D01*
X122285182Y-53058871D01*
X122166711Y-52895810D01*
X122024190Y-52753289D01*
X121861129Y-52634818D01*
X121734867Y-52570484D01*
X121684072Y-52522510D01*
X121667277Y-52454690D01*
X121689814Y-52388555D01*
X121734868Y-52349515D01*
X121861129Y-52285182D01*
X122024190Y-52166711D01*
X122166711Y-52024190D01*
X122285182Y-51861129D01*
X122376686Y-51681542D01*
X122438970Y-51489851D01*
X122455214Y-51387289D01*
X122470500Y-51290783D01*
X122470500Y-51089216D01*
X122449500Y-50956636D01*
X122438970Y-50890149D01*
X122376686Y-50698458D01*
X122285182Y-50518871D01*
X122166711Y-50355810D01*
X122024190Y-50213289D01*
X121861129Y-50094818D01*
X121777981Y-50052452D01*
X121681539Y-50003312D01*
X121489852Y-49941030D01*
X121290783Y-49909500D01*
X121290778Y-49909500D01*
X121089222Y-49909500D01*
X121089217Y-49909500D01*
X120890147Y-49941030D01*
X120698460Y-50003312D01*
X120518870Y-50094818D01*
X120425838Y-50162410D01*
X120355810Y-50213289D01*
X120355808Y-50213291D01*
X120355807Y-50213291D01*
X120213291Y-50355807D01*
X120213291Y-50355808D01*
X120213289Y-50355810D01*
X120187367Y-50391489D01*
X120154817Y-50436290D01*
X120099487Y-50478955D01*
X120029873Y-50484934D01*
X119968078Y-50452328D01*
X119933721Y-50391489D01*
X119930731Y-50365433D01*
X119930676Y-50365436D01*
X119930626Y-50364518D01*
X119930499Y-50363404D01*
X119930499Y-50362129D01*
X119930498Y-50362123D01*
X119930497Y-50362116D01*
X119924091Y-50302517D01*
X119873796Y-50167669D01*
X119873795Y-50167668D01*
X119873793Y-50167664D01*
X119787547Y-50052455D01*
X119787544Y-50052452D01*
X119672335Y-49966206D01*
X119672328Y-49966202D01*
X119537482Y-49915908D01*
X119537483Y-49915908D01*
X119477883Y-49909501D01*
X119477881Y-49909500D01*
X119477873Y-49909500D01*
X119477864Y-49909500D01*
X117822129Y-49909500D01*
X117822123Y-49909501D01*
X117762516Y-49915908D01*
X117627671Y-49966202D01*
X117627664Y-49966206D01*
X117512455Y-50052452D01*
X117512452Y-50052455D01*
X117426206Y-50167664D01*
X117426202Y-50167671D01*
X117375908Y-50302517D01*
X117370179Y-50355807D01*
X117369501Y-50362123D01*
X117369500Y-50362135D01*
X105000500Y-50362135D01*
X105000500Y-46578711D01*
X109149500Y-46578711D01*
X109149500Y-46821288D01*
X109181161Y-47061785D01*
X109243947Y-47296104D01*
X109336773Y-47520205D01*
X109336776Y-47520212D01*
X109458064Y-47730289D01*
X109458066Y-47730292D01*
X109458067Y-47730293D01*
X109605733Y-47922736D01*
X109605739Y-47922743D01*
X109777256Y-48094260D01*
X109777262Y-48094265D01*
X109969711Y-48241936D01*
X110179788Y-48363224D01*
X110403900Y-48456054D01*
X110638211Y-48518838D01*
X110818586Y-48542584D01*
X110878711Y-48550500D01*
X110878712Y-48550500D01*
X111121289Y-48550500D01*
X111169388Y-48544167D01*
X111361789Y-48518838D01*
X111596100Y-48456054D01*
X111820212Y-48363224D01*
X112030289Y-48241936D01*
X112222738Y-48094265D01*
X112394265Y-47922738D01*
X112541936Y-47730289D01*
X112663224Y-47520212D01*
X112756054Y-47296100D01*
X112818838Y-47061789D01*
X112850500Y-46821288D01*
X112850500Y-46578712D01*
X112850500Y-46578711D01*
X189149500Y-46578711D01*
X189149500Y-46821288D01*
X189181161Y-47061785D01*
X189243947Y-47296104D01*
X189336773Y-47520205D01*
X189336776Y-47520212D01*
X189458064Y-47730289D01*
X189458066Y-47730292D01*
X189458067Y-47730293D01*
X189605733Y-47922736D01*
X189605739Y-47922743D01*
X189777256Y-48094260D01*
X189777262Y-48094265D01*
X189969711Y-48241936D01*
X190179788Y-48363224D01*
X190403900Y-48456054D01*
X190638211Y-48518838D01*
X190818586Y-48542584D01*
X190878711Y-48550500D01*
X190878712Y-48550500D01*
X191121289Y-48550500D01*
X191169388Y-48544167D01*
X191361789Y-48518838D01*
X191596100Y-48456054D01*
X191820212Y-48363224D01*
X192030289Y-48241936D01*
X192222738Y-48094265D01*
X192394265Y-47922738D01*
X192541936Y-47730289D01*
X192663224Y-47520212D01*
X192756054Y-47296100D01*
X192818838Y-47061789D01*
X192850500Y-46821288D01*
X192850500Y-46578712D01*
X192818838Y-46338211D01*
X192756054Y-46103900D01*
X192663224Y-45879788D01*
X192541936Y-45669711D01*
X192425691Y-45518217D01*
X192394266Y-45477263D01*
X192394260Y-45477256D01*
X192222743Y-45305739D01*
X192222736Y-45305733D01*
X192030293Y-45158067D01*
X192030292Y-45158066D01*
X192030289Y-45158064D01*
X191820212Y-45036776D01*
X191731427Y-45000000D01*
X191596104Y-44943947D01*
X191361785Y-44881161D01*
X191121289Y-44849500D01*
X191121288Y-44849500D01*
X190878712Y-44849500D01*
X190878711Y-44849500D01*
X190638214Y-44881161D01*
X190403895Y-44943947D01*
X190179794Y-45036773D01*
X190179785Y-45036777D01*
X189969706Y-45158067D01*
X189777263Y-45305733D01*
X189777256Y-45305739D01*
X189605739Y-45477256D01*
X189605733Y-45477263D01*
X189458067Y-45669706D01*
X189336777Y-45879785D01*
X189336773Y-45879794D01*
X189243947Y-46103895D01*
X189181161Y-46338214D01*
X189149500Y-46578711D01*
X112850500Y-46578711D01*
X112818838Y-46338211D01*
X112756054Y-46103900D01*
X112663224Y-45879788D01*
X112541936Y-45669711D01*
X112425691Y-45518217D01*
X112394266Y-45477263D01*
X112394260Y-45477256D01*
X112222743Y-45305739D01*
X112222736Y-45305733D01*
X112030293Y-45158067D01*
X112030292Y-45158066D01*
X112030289Y-45158064D01*
X111820212Y-45036776D01*
X111731427Y-45000000D01*
X111596104Y-44943947D01*
X111361785Y-44881161D01*
X111121289Y-44849500D01*
X111121288Y-44849500D01*
X110878712Y-44849500D01*
X110878711Y-44849500D01*
X110638214Y-44881161D01*
X110403895Y-44943947D01*
X110179794Y-45036773D01*
X110179785Y-45036777D01*
X109969706Y-45158067D01*
X109777263Y-45305733D01*
X109777256Y-45305739D01*
X109605739Y-45477256D01*
X109605733Y-45477263D01*
X109458067Y-45669706D01*
X109336777Y-45879785D01*
X109336773Y-45879794D01*
X109243947Y-46103895D01*
X109181161Y-46338214D01*
X109149500Y-46578711D01*
X105000500Y-46578711D01*
X105000500Y-44102135D01*
X148399500Y-44102135D01*
X148399500Y-45897870D01*
X148399501Y-45897876D01*
X148405908Y-45957483D01*
X148456202Y-46092328D01*
X148456206Y-46092335D01*
X148542452Y-46207544D01*
X148542455Y-46207547D01*
X148657664Y-46293793D01*
X148657671Y-46293797D01*
X148792517Y-46344091D01*
X148792516Y-46344091D01*
X148799444Y-46344835D01*
X148852127Y-46350500D01*
X150647872Y-46350499D01*
X150707483Y-46344091D01*
X150842331Y-46293796D01*
X150957546Y-46207546D01*
X151043796Y-46092331D01*
X151094091Y-45957483D01*
X151100500Y-45897873D01*
X151100499Y-45873979D01*
X151103330Y-45860963D01*
X151113940Y-45841525D01*
X151120179Y-45820275D01*
X151136803Y-45799643D01*
X151136808Y-45799636D01*
X151136811Y-45799634D01*
X151136818Y-45799626D01*
X151807037Y-45129408D01*
X151824075Y-45192993D01*
X151889901Y-45307007D01*
X151982993Y-45400099D01*
X152097007Y-45465925D01*
X152160590Y-45482962D01*
X151528282Y-46115269D01*
X151528282Y-46115270D01*
X151582449Y-46154624D01*
X151771782Y-46251095D01*
X151973870Y-46316757D01*
X152183754Y-46350000D01*
X152396246Y-46350000D01*
X152606127Y-46316757D01*
X152606130Y-46316757D01*
X152808217Y-46251095D01*
X152997554Y-46154622D01*
X153051716Y-46115270D01*
X153051717Y-46115270D01*
X152419408Y-45482962D01*
X152482993Y-45465925D01*
X152597007Y-45400099D01*
X152690099Y-45307007D01*
X152755925Y-45192993D01*
X152772962Y-45129408D01*
X153405270Y-45761717D01*
X153405270Y-45761716D01*
X153444622Y-45707554D01*
X153541095Y-45518217D01*
X153606757Y-45316130D01*
X153606757Y-45316127D01*
X153640000Y-45106246D01*
X153640000Y-44893753D01*
X153606757Y-44683872D01*
X153606757Y-44683869D01*
X153541095Y-44481782D01*
X153444624Y-44292449D01*
X153405270Y-44238282D01*
X153405269Y-44238282D01*
X152772962Y-44870590D01*
X152755925Y-44807007D01*
X152690099Y-44692993D01*
X152597007Y-44599901D01*
X152482993Y-44534075D01*
X152419409Y-44517037D01*
X153051716Y-43884728D01*
X152997550Y-43845375D01*
X152808217Y-43748904D01*
X152606129Y-43683242D01*
X152396246Y-43650000D01*
X152183754Y-43650000D01*
X151973872Y-43683242D01*
X151973869Y-43683242D01*
X151771782Y-43748904D01*
X151582439Y-43845380D01*
X151528282Y-43884727D01*
X151528282Y-43884728D01*
X152160591Y-44517037D01*
X152097007Y-44534075D01*
X151982993Y-44599901D01*
X151889901Y-44692993D01*
X151824075Y-44807007D01*
X151807037Y-44870591D01*
X151136818Y-44200372D01*
X151103333Y-44139049D01*
X151103330Y-44139036D01*
X151100499Y-44126015D01*
X151100499Y-44102128D01*
X151094091Y-44042517D01*
X151065926Y-43967002D01*
X151043798Y-43907673D01*
X151043793Y-43907664D01*
X150957547Y-43792455D01*
X150957544Y-43792452D01*
X150842335Y-43706206D01*
X150842328Y-43706202D01*
X150707482Y-43655908D01*
X150707483Y-43655908D01*
X150647883Y-43649501D01*
X150647881Y-43649500D01*
X150647873Y-43649500D01*
X150647864Y-43649500D01*
X148852129Y-43649500D01*
X148852123Y-43649501D01*
X148792516Y-43655908D01*
X148657671Y-43706202D01*
X148657664Y-43706206D01*
X148542455Y-43792452D01*
X148542452Y-43792455D01*
X148456206Y-43907664D01*
X148456202Y-43907671D01*
X148405908Y-44042517D01*
X148399501Y-44102116D01*
X148399500Y-44102135D01*
X105000500Y-44102135D01*
X105000500Y-40824500D01*
X105020185Y-40757461D01*
X105072989Y-40711706D01*
X105124500Y-40700500D01*
X196875500Y-40700500D01*
X196942539Y-40720185D01*
G37*
G04 #@! TD.AperFunction*
G04 #@! TD*
M02*
