G04 #@! TF.GenerationSoftware,KiCad,Pcbnew,9.0.7*
G04 #@! TF.CreationDate,2026-03-12T00:43:15-06:00*
G04 #@! TF.ProjectId,Power_Motor_Board_v2,506f7765-725f-44d6-9f74-6f725f426f61,rev?*
G04 #@! TF.SameCoordinates,Original*
G04 #@! TF.FileFunction,Legend,Top*
G04 #@! TF.FilePolarity,Positive*
%FSLAX46Y46*%
G04 Gerber Fmt 4.6, Leading zero omitted, Abs format (unit mm)*
G04 Created by KiCad (PCBNEW 9.0.7) date 2026-03-12 00:43:15*
%MOMM*%
%LPD*%
G01*
G04 APERTURE LIST*
G04 Aperture macros list*
%AMRoundRect*
0 Rectangle with rounded corners*
0 $1 Rounding radius*
0 $2 $3 $4 $5 $6 $7 $8 $9 X,Y pos of 4 corners*
0 Add a 4 corners polygon primitive as box body*
4,1,4,$2,$3,$4,$5,$6,$7,$8,$9,$2,$3,0*
0 Add four circle primitives for the rounded corners*
1,1,$1+$1,$2,$3*
1,1,$1+$1,$4,$5*
1,1,$1+$1,$6,$7*
1,1,$1+$1,$8,$9*
0 Add four rect primitives between the rounded corners*
20,1,$1+$1,$2,$3,$4,$5,0*
20,1,$1+$1,$4,$5,$6,$7,0*
20,1,$1+$1,$6,$7,$8,$9,0*
20,1,$1+$1,$8,$9,$2,$3,0*%
G04 Aperture macros list end*
%ADD10C,0.300000*%
%ADD11C,0.187500*%
%ADD12C,0.200000*%
%ADD13C,0.800000*%
%ADD14C,0.150000*%
%ADD15C,0.250000*%
%ADD16C,0.254000*%
%ADD17C,0.100000*%
%ADD18C,0.120000*%
%ADD19C,0.238680*%
%ADD20C,0.152400*%
%ADD21RoundRect,0.250000X0.650000X-0.412500X0.650000X0.412500X-0.650000X0.412500X-0.650000X-0.412500X0*%
%ADD22C,1.700000*%
%ADD23R,1.700000X1.700000*%
%ADD24C,1.560000*%
%ADD25R,1.560000X1.560000*%
%ADD26C,1.800000*%
%ADD27R,1.800000X1.800000*%
%ADD28R,3.800000X2.030000*%
%ADD29RoundRect,0.250000X-1.100000X0.412500X-1.100000X-0.412500X1.100000X-0.412500X1.100000X0.412500X0*%
%ADD30RoundRect,0.250000X2.500000X-0.475000X2.500000X0.475000X-2.500000X0.475000X-2.500000X-0.475000X0*%
%ADD31RoundRect,0.250000X0.412500X0.650000X-0.412500X0.650000X-0.412500X-0.650000X0.412500X-0.650000X0*%
%ADD32RoundRect,0.162500X0.162500X-0.837500X0.162500X0.837500X-0.162500X0.837500X-0.162500X-0.837500X0*%
%ADD33RoundRect,0.250001X-0.462499X-0.624999X0.462499X-0.624999X0.462499X0.624999X-0.462499X0.624999X0*%
%ADD34C,3.200000*%
%ADD35RoundRect,0.250000X-0.650000X0.412500X-0.650000X-0.412500X0.650000X-0.412500X0.650000X0.412500X0*%
%ADD36RoundRect,0.250000X-0.412500X-0.650000X0.412500X-0.650000X0.412500X0.650000X-0.412500X0.650000X0*%
%ADD37RoundRect,0.345000X1.805000X0.805000X-1.805000X0.805000X-1.805000X-0.805000X1.805000X-0.805000X0*%
%ADD38R,1.460500X0.558800*%
%ADD39R,2.717800X3.403600*%
%ADD40RoundRect,0.250000X0.400000X0.625000X-0.400000X0.625000X-0.400000X-0.625000X0.400000X-0.625000X0*%
%ADD41RoundRect,0.250000X-0.400000X-0.625000X0.400000X-0.625000X0.400000X0.625000X-0.400000X0.625000X0*%
%ADD42RoundRect,0.345000X-1.805000X-0.805000X1.805000X-0.805000X1.805000X0.805000X-1.805000X0.805000X0*%
G04 APERTURE END LIST*
D10*
X155554510Y-125229400D02*
X156697368Y-125229400D01*
X156125939Y-125800828D02*
X156125939Y-124657971D01*
X163125938Y-125229400D02*
X164268796Y-125229400D01*
D11*
X138906384Y-126694784D02*
X138906384Y-126194784D01*
X139692098Y-125980498D02*
X139692098Y-126694784D01*
X139692098Y-126694784D02*
X138192098Y-126694784D01*
X138192098Y-126694784D02*
X138192098Y-125980498D01*
X139692098Y-125337641D02*
X138192098Y-125337641D01*
X138192098Y-125337641D02*
X139692098Y-124480498D01*
X139692098Y-124480498D02*
X138192098Y-124480498D01*
X140607014Y-125766211D02*
X140607014Y-126480497D01*
X140607014Y-126480497D02*
X141321300Y-126551925D01*
X141321300Y-126551925D02*
X141249871Y-126480497D01*
X141249871Y-126480497D02*
X141178443Y-126337640D01*
X141178443Y-126337640D02*
X141178443Y-125980497D01*
X141178443Y-125980497D02*
X141249871Y-125837640D01*
X141249871Y-125837640D02*
X141321300Y-125766211D01*
X141321300Y-125766211D02*
X141464157Y-125694782D01*
X141464157Y-125694782D02*
X141821300Y-125694782D01*
X141821300Y-125694782D02*
X141964157Y-125766211D01*
X141964157Y-125766211D02*
X142035586Y-125837640D01*
X142035586Y-125837640D02*
X142107014Y-125980497D01*
X142107014Y-125980497D02*
X142107014Y-126337640D01*
X142107014Y-126337640D02*
X142035586Y-126480497D01*
X142035586Y-126480497D02*
X141964157Y-126551925D01*
X140607014Y-125266211D02*
X142107014Y-124766211D01*
X142107014Y-124766211D02*
X140607014Y-124266211D01*
X143093359Y-127551926D02*
X143021930Y-127694784D01*
X143021930Y-127694784D02*
X143021930Y-127909069D01*
X143021930Y-127909069D02*
X143093359Y-128123355D01*
X143093359Y-128123355D02*
X143236216Y-128266212D01*
X143236216Y-128266212D02*
X143379073Y-128337641D01*
X143379073Y-128337641D02*
X143664787Y-128409069D01*
X143664787Y-128409069D02*
X143879073Y-128409069D01*
X143879073Y-128409069D02*
X144164787Y-128337641D01*
X144164787Y-128337641D02*
X144307644Y-128266212D01*
X144307644Y-128266212D02*
X144450502Y-128123355D01*
X144450502Y-128123355D02*
X144521930Y-127909069D01*
X144521930Y-127909069D02*
X144521930Y-127766212D01*
X144521930Y-127766212D02*
X144450502Y-127551926D01*
X144450502Y-127551926D02*
X144379073Y-127480498D01*
X144379073Y-127480498D02*
X143879073Y-127480498D01*
X143879073Y-127480498D02*
X143879073Y-127766212D01*
X144521930Y-126837641D02*
X143021930Y-126837641D01*
X143021930Y-126837641D02*
X144521930Y-125980498D01*
X144521930Y-125980498D02*
X143021930Y-125980498D01*
X144521930Y-125266212D02*
X143021930Y-125266212D01*
X143021930Y-125266212D02*
X143021930Y-124909069D01*
X143021930Y-124909069D02*
X143093359Y-124694783D01*
X143093359Y-124694783D02*
X143236216Y-124551926D01*
X143236216Y-124551926D02*
X143379073Y-124480497D01*
X143379073Y-124480497D02*
X143664787Y-124409069D01*
X143664787Y-124409069D02*
X143879073Y-124409069D01*
X143879073Y-124409069D02*
X144164787Y-124480497D01*
X144164787Y-124480497D02*
X144307644Y-124551926D01*
X144307644Y-124551926D02*
X144450502Y-124694783D01*
X144450502Y-124694783D02*
X144521930Y-124909069D01*
X144521930Y-124909069D02*
X144521930Y-125266212D01*
X145436846Y-126551925D02*
X145436846Y-125694783D01*
X146936846Y-126123354D02*
X145436846Y-126123354D01*
X145436846Y-125337640D02*
X146936846Y-124337640D01*
X145436846Y-124337640D02*
X146936846Y-125337640D01*
X149351762Y-125837640D02*
X148637476Y-126337640D01*
X149351762Y-126694783D02*
X147851762Y-126694783D01*
X147851762Y-126694783D02*
X147851762Y-126123354D01*
X147851762Y-126123354D02*
X147923191Y-125980497D01*
X147923191Y-125980497D02*
X147994619Y-125909068D01*
X147994619Y-125909068D02*
X148137476Y-125837640D01*
X148137476Y-125837640D02*
X148351762Y-125837640D01*
X148351762Y-125837640D02*
X148494619Y-125909068D01*
X148494619Y-125909068D02*
X148566048Y-125980497D01*
X148566048Y-125980497D02*
X148637476Y-126123354D01*
X148637476Y-126123354D02*
X148637476Y-126694783D01*
X147851762Y-125337640D02*
X149351762Y-124337640D01*
X147851762Y-124337640D02*
X149351762Y-125337640D01*
X151695250Y-126409068D02*
X151766678Y-126194783D01*
X151766678Y-126194783D02*
X151766678Y-125837640D01*
X151766678Y-125837640D02*
X151695250Y-125694783D01*
X151695250Y-125694783D02*
X151623821Y-125623354D01*
X151623821Y-125623354D02*
X151480964Y-125551925D01*
X151480964Y-125551925D02*
X151338107Y-125551925D01*
X151338107Y-125551925D02*
X151195250Y-125623354D01*
X151195250Y-125623354D02*
X151123821Y-125694783D01*
X151123821Y-125694783D02*
X151052392Y-125837640D01*
X151052392Y-125837640D02*
X150980964Y-126123354D01*
X150980964Y-126123354D02*
X150909535Y-126266211D01*
X150909535Y-126266211D02*
X150838107Y-126337640D01*
X150838107Y-126337640D02*
X150695250Y-126409068D01*
X150695250Y-126409068D02*
X150552392Y-126409068D01*
X150552392Y-126409068D02*
X150409535Y-126337640D01*
X150409535Y-126337640D02*
X150338107Y-126266211D01*
X150338107Y-126266211D02*
X150266678Y-126123354D01*
X150266678Y-126123354D02*
X150266678Y-125766211D01*
X150266678Y-125766211D02*
X150338107Y-125551925D01*
X150266678Y-125123354D02*
X150266678Y-124266212D01*
X151766678Y-124694783D02*
X150266678Y-124694783D01*
D12*
X194786266Y-112430326D02*
X194786266Y-111668422D01*
X195167219Y-112049374D02*
X194405314Y-112049374D01*
X194786266Y-108144611D02*
X194786266Y-107382707D01*
X107213733Y-107269673D02*
X107213733Y-108031578D01*
X106832780Y-107650625D02*
X107594685Y-107650625D01*
X107213733Y-111555388D02*
X107213733Y-112317293D01*
D13*
X141533333Y-54329100D02*
X143819047Y-54329100D01*
X142676190Y-58329100D02*
X142676190Y-54329100D01*
X146676190Y-58138624D02*
X146295238Y-58329100D01*
X146295238Y-58329100D02*
X145533333Y-58329100D01*
X145533333Y-58329100D02*
X145152380Y-58138624D01*
X145152380Y-58138624D02*
X144961904Y-57757671D01*
X144961904Y-57757671D02*
X144961904Y-56233862D01*
X144961904Y-56233862D02*
X145152380Y-55852909D01*
X145152380Y-55852909D02*
X145533333Y-55662433D01*
X145533333Y-55662433D02*
X146295238Y-55662433D01*
X146295238Y-55662433D02*
X146676190Y-55852909D01*
X146676190Y-55852909D02*
X146866666Y-56233862D01*
X146866666Y-56233862D02*
X146866666Y-56614814D01*
X146866666Y-56614814D02*
X144961904Y-56995766D01*
X150295237Y-58329100D02*
X150295237Y-56233862D01*
X150295237Y-56233862D02*
X150104761Y-55852909D01*
X150104761Y-55852909D02*
X149723809Y-55662433D01*
X149723809Y-55662433D02*
X148961904Y-55662433D01*
X148961904Y-55662433D02*
X148580951Y-55852909D01*
X150295237Y-58138624D02*
X149914285Y-58329100D01*
X149914285Y-58329100D02*
X148961904Y-58329100D01*
X148961904Y-58329100D02*
X148580951Y-58138624D01*
X148580951Y-58138624D02*
X148390475Y-57757671D01*
X148390475Y-57757671D02*
X148390475Y-57376719D01*
X148390475Y-57376719D02*
X148580951Y-56995766D01*
X148580951Y-56995766D02*
X148961904Y-56805290D01*
X148961904Y-56805290D02*
X149914285Y-56805290D01*
X149914285Y-56805290D02*
X150295237Y-56614814D01*
X152199999Y-58329100D02*
X152199999Y-55662433D01*
X152199999Y-56043385D02*
X152390476Y-55852909D01*
X152390476Y-55852909D02*
X152771428Y-55662433D01*
X152771428Y-55662433D02*
X153342857Y-55662433D01*
X153342857Y-55662433D02*
X153723809Y-55852909D01*
X153723809Y-55852909D02*
X153914285Y-56233862D01*
X153914285Y-56233862D02*
X153914285Y-58329100D01*
X153914285Y-56233862D02*
X154104761Y-55852909D01*
X154104761Y-55852909D02*
X154485714Y-55662433D01*
X154485714Y-55662433D02*
X155057142Y-55662433D01*
X155057142Y-55662433D02*
X155438095Y-55852909D01*
X155438095Y-55852909D02*
X155628571Y-56233862D01*
X155628571Y-56233862D02*
X155628571Y-58329100D01*
X160199999Y-54329100D02*
X162676190Y-54329100D01*
X162676190Y-54329100D02*
X161342856Y-55852909D01*
X161342856Y-55852909D02*
X161914285Y-55852909D01*
X161914285Y-55852909D02*
X162295237Y-56043385D01*
X162295237Y-56043385D02*
X162485713Y-56233862D01*
X162485713Y-56233862D02*
X162676190Y-56614814D01*
X162676190Y-56614814D02*
X162676190Y-57567195D01*
X162676190Y-57567195D02*
X162485713Y-57948147D01*
X162485713Y-57948147D02*
X162295237Y-58138624D01*
X162295237Y-58138624D02*
X161914285Y-58329100D01*
X161914285Y-58329100D02*
X160771428Y-58329100D01*
X160771428Y-58329100D02*
X160390475Y-58138624D01*
X160390475Y-58138624D02*
X160199999Y-57948147D01*
X164009523Y-54329100D02*
X166676190Y-54329100D01*
X166676190Y-54329100D02*
X164961904Y-58329100D01*
X146961904Y-60768876D02*
X146961904Y-64006971D01*
X146961904Y-64006971D02*
X147152381Y-64387923D01*
X147152381Y-64387923D02*
X147342857Y-64578400D01*
X147342857Y-64578400D02*
X147723809Y-64768876D01*
X147723809Y-64768876D02*
X148485714Y-64768876D01*
X148485714Y-64768876D02*
X148866666Y-64578400D01*
X148866666Y-64578400D02*
X149057143Y-64387923D01*
X149057143Y-64387923D02*
X149247619Y-64006971D01*
X149247619Y-64006971D02*
X149247619Y-60768876D01*
X151152380Y-64768876D02*
X151152380Y-60768876D01*
X151152380Y-60768876D02*
X153438095Y-64768876D01*
X153438095Y-64768876D02*
X153438095Y-60768876D01*
X156104761Y-60768876D02*
X156866666Y-60768876D01*
X156866666Y-60768876D02*
X157247618Y-60959352D01*
X157247618Y-60959352D02*
X157628571Y-61340304D01*
X157628571Y-61340304D02*
X157819047Y-62102209D01*
X157819047Y-62102209D02*
X157819047Y-63435542D01*
X157819047Y-63435542D02*
X157628571Y-64197447D01*
X157628571Y-64197447D02*
X157247618Y-64578400D01*
X157247618Y-64578400D02*
X156866666Y-64768876D01*
X156866666Y-64768876D02*
X156104761Y-64768876D01*
X156104761Y-64768876D02*
X155723809Y-64578400D01*
X155723809Y-64578400D02*
X155342856Y-64197447D01*
X155342856Y-64197447D02*
X155152380Y-63435542D01*
X155152380Y-63435542D02*
X155152380Y-62102209D01*
X155152380Y-62102209D02*
X155342856Y-61340304D01*
X155342856Y-61340304D02*
X155723809Y-60959352D01*
X155723809Y-60959352D02*
X156104761Y-60768876D01*
X159342856Y-64578400D02*
X159914285Y-64768876D01*
X159914285Y-64768876D02*
X160866666Y-64768876D01*
X160866666Y-64768876D02*
X161247618Y-64578400D01*
X161247618Y-64578400D02*
X161438094Y-64387923D01*
X161438094Y-64387923D02*
X161628571Y-64006971D01*
X161628571Y-64006971D02*
X161628571Y-63626019D01*
X161628571Y-63626019D02*
X161438094Y-63245066D01*
X161438094Y-63245066D02*
X161247618Y-63054590D01*
X161247618Y-63054590D02*
X160866666Y-62864114D01*
X160866666Y-62864114D02*
X160104761Y-62673638D01*
X160104761Y-62673638D02*
X159723809Y-62483161D01*
X159723809Y-62483161D02*
X159533332Y-62292685D01*
X159533332Y-62292685D02*
X159342856Y-61911733D01*
X159342856Y-61911733D02*
X159342856Y-61530780D01*
X159342856Y-61530780D02*
X159533332Y-61149828D01*
X159533332Y-61149828D02*
X159723809Y-60959352D01*
X159723809Y-60959352D02*
X160104761Y-60768876D01*
X160104761Y-60768876D02*
X161057142Y-60768876D01*
X161057142Y-60768876D02*
X161628571Y-60959352D01*
D10*
X152892658Y-48640225D02*
X152964087Y-48497368D01*
X152964087Y-48497368D02*
X152964087Y-48283082D01*
X152964087Y-48283082D02*
X152892658Y-48068796D01*
X152892658Y-48068796D02*
X152749801Y-47925939D01*
X152749801Y-47925939D02*
X152606944Y-47854510D01*
X152606944Y-47854510D02*
X152321230Y-47783082D01*
X152321230Y-47783082D02*
X152106944Y-47783082D01*
X152106944Y-47783082D02*
X151821230Y-47854510D01*
X151821230Y-47854510D02*
X151678373Y-47925939D01*
X151678373Y-47925939D02*
X151535516Y-48068796D01*
X151535516Y-48068796D02*
X151464087Y-48283082D01*
X151464087Y-48283082D02*
X151464087Y-48425939D01*
X151464087Y-48425939D02*
X151535516Y-48640225D01*
X151535516Y-48640225D02*
X151606944Y-48711653D01*
X151606944Y-48711653D02*
X152106944Y-48711653D01*
X152106944Y-48711653D02*
X152106944Y-48425939D01*
X151464087Y-49354510D02*
X152964087Y-49354510D01*
X152964087Y-49354510D02*
X151464087Y-50211653D01*
X151464087Y-50211653D02*
X152964087Y-50211653D01*
X151464087Y-50925939D02*
X152964087Y-50925939D01*
X152964087Y-50925939D02*
X152964087Y-51283082D01*
X152964087Y-51283082D02*
X152892658Y-51497368D01*
X152892658Y-51497368D02*
X152749801Y-51640225D01*
X152749801Y-51640225D02*
X152606944Y-51711654D01*
X152606944Y-51711654D02*
X152321230Y-51783082D01*
X152321230Y-51783082D02*
X152106944Y-51783082D01*
X152106944Y-51783082D02*
X151821230Y-51711654D01*
X151821230Y-51711654D02*
X151678373Y-51640225D01*
X151678373Y-51640225D02*
X151535516Y-51497368D01*
X151535516Y-51497368D02*
X151464087Y-51283082D01*
X151464087Y-51283082D02*
X151464087Y-50925939D01*
X150549171Y-48568796D02*
X150549171Y-47854510D01*
X150549171Y-47854510D02*
X149834885Y-47783082D01*
X149834885Y-47783082D02*
X149906314Y-47854510D01*
X149906314Y-47854510D02*
X149977742Y-47997368D01*
X149977742Y-47997368D02*
X149977742Y-48354510D01*
X149977742Y-48354510D02*
X149906314Y-48497368D01*
X149906314Y-48497368D02*
X149834885Y-48568796D01*
X149834885Y-48568796D02*
X149692028Y-48640225D01*
X149692028Y-48640225D02*
X149334885Y-48640225D01*
X149334885Y-48640225D02*
X149192028Y-48568796D01*
X149192028Y-48568796D02*
X149120600Y-48497368D01*
X149120600Y-48497368D02*
X149049171Y-48354510D01*
X149049171Y-48354510D02*
X149049171Y-47997368D01*
X149049171Y-47997368D02*
X149120600Y-47854510D01*
X149120600Y-47854510D02*
X149192028Y-47783082D01*
X150549171Y-49068796D02*
X149049171Y-49568796D01*
X149049171Y-49568796D02*
X150549171Y-50068796D01*
D14*
X160109580Y-109730357D02*
X160157200Y-109777976D01*
X160157200Y-109777976D02*
X160204819Y-109920833D01*
X160204819Y-109920833D02*
X160204819Y-110016071D01*
X160204819Y-110016071D02*
X160157200Y-110158928D01*
X160157200Y-110158928D02*
X160061961Y-110254166D01*
X160061961Y-110254166D02*
X159966723Y-110301785D01*
X159966723Y-110301785D02*
X159776247Y-110349404D01*
X159776247Y-110349404D02*
X159633390Y-110349404D01*
X159633390Y-110349404D02*
X159442914Y-110301785D01*
X159442914Y-110301785D02*
X159347676Y-110254166D01*
X159347676Y-110254166D02*
X159252438Y-110158928D01*
X159252438Y-110158928D02*
X159204819Y-110016071D01*
X159204819Y-110016071D02*
X159204819Y-109920833D01*
X159204819Y-109920833D02*
X159252438Y-109777976D01*
X159252438Y-109777976D02*
X159300057Y-109730357D01*
X160204819Y-108777976D02*
X160204819Y-109349404D01*
X160204819Y-109063690D02*
X159204819Y-109063690D01*
X159204819Y-109063690D02*
X159347676Y-109158928D01*
X159347676Y-109158928D02*
X159442914Y-109254166D01*
X159442914Y-109254166D02*
X159490533Y-109349404D01*
X159204819Y-108444642D02*
X159204819Y-107777976D01*
X159204819Y-107777976D02*
X160204819Y-108206547D01*
X146434819Y-45333333D02*
X147149104Y-45333333D01*
X147149104Y-45333333D02*
X147291961Y-45380952D01*
X147291961Y-45380952D02*
X147387200Y-45476190D01*
X147387200Y-45476190D02*
X147434819Y-45619047D01*
X147434819Y-45619047D02*
X147434819Y-45714285D01*
X146434819Y-44380952D02*
X146434819Y-44857142D01*
X146434819Y-44857142D02*
X146911009Y-44904761D01*
X146911009Y-44904761D02*
X146863390Y-44857142D01*
X146863390Y-44857142D02*
X146815771Y-44761904D01*
X146815771Y-44761904D02*
X146815771Y-44523809D01*
X146815771Y-44523809D02*
X146863390Y-44428571D01*
X146863390Y-44428571D02*
X146911009Y-44380952D01*
X146911009Y-44380952D02*
X147006247Y-44333333D01*
X147006247Y-44333333D02*
X147244342Y-44333333D01*
X147244342Y-44333333D02*
X147339580Y-44380952D01*
X147339580Y-44380952D02*
X147387200Y-44428571D01*
X147387200Y-44428571D02*
X147434819Y-44523809D01*
X147434819Y-44523809D02*
X147434819Y-44761904D01*
X147434819Y-44761904D02*
X147387200Y-44857142D01*
X147387200Y-44857142D02*
X147339580Y-44904761D01*
D15*
X124182568Y-97444619D02*
X124182568Y-96444619D01*
X124182568Y-96444619D02*
X124563520Y-96444619D01*
X124563520Y-96444619D02*
X124658758Y-96492238D01*
X124658758Y-96492238D02*
X124706377Y-96539857D01*
X124706377Y-96539857D02*
X124753996Y-96635095D01*
X124753996Y-96635095D02*
X124753996Y-96777952D01*
X124753996Y-96777952D02*
X124706377Y-96873190D01*
X124706377Y-96873190D02*
X124658758Y-96920809D01*
X124658758Y-96920809D02*
X124563520Y-96968428D01*
X124563520Y-96968428D02*
X124182568Y-96968428D01*
X125753996Y-97349380D02*
X125706377Y-97397000D01*
X125706377Y-97397000D02*
X125563520Y-97444619D01*
X125563520Y-97444619D02*
X125468282Y-97444619D01*
X125468282Y-97444619D02*
X125325425Y-97397000D01*
X125325425Y-97397000D02*
X125230187Y-97301761D01*
X125230187Y-97301761D02*
X125182568Y-97206523D01*
X125182568Y-97206523D02*
X125134949Y-97016047D01*
X125134949Y-97016047D02*
X125134949Y-96873190D01*
X125134949Y-96873190D02*
X125182568Y-96682714D01*
X125182568Y-96682714D02*
X125230187Y-96587476D01*
X125230187Y-96587476D02*
X125325425Y-96492238D01*
X125325425Y-96492238D02*
X125468282Y-96444619D01*
X125468282Y-96444619D02*
X125563520Y-96444619D01*
X125563520Y-96444619D02*
X125706377Y-96492238D01*
X125706377Y-96492238D02*
X125753996Y-96539857D01*
X126373044Y-96444619D02*
X126468282Y-96444619D01*
X126468282Y-96444619D02*
X126563520Y-96492238D01*
X126563520Y-96492238D02*
X126611139Y-96539857D01*
X126611139Y-96539857D02*
X126658758Y-96635095D01*
X126658758Y-96635095D02*
X126706377Y-96825571D01*
X126706377Y-96825571D02*
X126706377Y-97063666D01*
X126706377Y-97063666D02*
X126658758Y-97254142D01*
X126658758Y-97254142D02*
X126611139Y-97349380D01*
X126611139Y-97349380D02*
X126563520Y-97397000D01*
X126563520Y-97397000D02*
X126468282Y-97444619D01*
X126468282Y-97444619D02*
X126373044Y-97444619D01*
X126373044Y-97444619D02*
X126277806Y-97397000D01*
X126277806Y-97397000D02*
X126230187Y-97349380D01*
X126230187Y-97349380D02*
X126182568Y-97254142D01*
X126182568Y-97254142D02*
X126134949Y-97063666D01*
X126134949Y-97063666D02*
X126134949Y-96825571D01*
X126134949Y-96825571D02*
X126182568Y-96635095D01*
X126182568Y-96635095D02*
X126230187Y-96539857D01*
X126230187Y-96539857D02*
X126277806Y-96492238D01*
X126277806Y-96492238D02*
X126373044Y-96444619D01*
X185486377Y-73742238D02*
X185391139Y-73694619D01*
X185391139Y-73694619D02*
X185248282Y-73694619D01*
X185248282Y-73694619D02*
X185105425Y-73742238D01*
X185105425Y-73742238D02*
X185010187Y-73837476D01*
X185010187Y-73837476D02*
X184962568Y-73932714D01*
X184962568Y-73932714D02*
X184914949Y-74123190D01*
X184914949Y-74123190D02*
X184914949Y-74266047D01*
X184914949Y-74266047D02*
X184962568Y-74456523D01*
X184962568Y-74456523D02*
X185010187Y-74551761D01*
X185010187Y-74551761D02*
X185105425Y-74647000D01*
X185105425Y-74647000D02*
X185248282Y-74694619D01*
X185248282Y-74694619D02*
X185343520Y-74694619D01*
X185343520Y-74694619D02*
X185486377Y-74647000D01*
X185486377Y-74647000D02*
X185533996Y-74599380D01*
X185533996Y-74599380D02*
X185533996Y-74266047D01*
X185533996Y-74266047D02*
X185343520Y-74266047D01*
X185962568Y-74694619D02*
X185962568Y-73694619D01*
X185962568Y-73694619D02*
X186533996Y-74694619D01*
X186533996Y-74694619D02*
X186533996Y-73694619D01*
X187010187Y-74694619D02*
X187010187Y-73694619D01*
X187010187Y-73694619D02*
X187248282Y-73694619D01*
X187248282Y-73694619D02*
X187391139Y-73742238D01*
X187391139Y-73742238D02*
X187486377Y-73837476D01*
X187486377Y-73837476D02*
X187533996Y-73932714D01*
X187533996Y-73932714D02*
X187581615Y-74123190D01*
X187581615Y-74123190D02*
X187581615Y-74266047D01*
X187581615Y-74266047D02*
X187533996Y-74456523D01*
X187533996Y-74456523D02*
X187486377Y-74551761D01*
X187486377Y-74551761D02*
X187391139Y-74647000D01*
X187391139Y-74647000D02*
X187248282Y-74694619D01*
X187248282Y-74694619D02*
X187010187Y-74694619D01*
X113507330Y-89744619D02*
X113507330Y-88744619D01*
X113507330Y-88744619D02*
X113888282Y-88744619D01*
X113888282Y-88744619D02*
X113983520Y-88792238D01*
X113983520Y-88792238D02*
X114031139Y-88839857D01*
X114031139Y-88839857D02*
X114078758Y-88935095D01*
X114078758Y-88935095D02*
X114078758Y-89077952D01*
X114078758Y-89077952D02*
X114031139Y-89173190D01*
X114031139Y-89173190D02*
X113983520Y-89220809D01*
X113983520Y-89220809D02*
X113888282Y-89268428D01*
X113888282Y-89268428D02*
X113507330Y-89268428D01*
X114507330Y-89744619D02*
X114507330Y-88744619D01*
X114507330Y-89220809D02*
X115078758Y-89220809D01*
X115078758Y-89744619D02*
X115078758Y-88744619D01*
X116078758Y-89744619D02*
X115507330Y-89744619D01*
X115793044Y-89744619D02*
X115793044Y-88744619D01*
X115793044Y-88744619D02*
X115697806Y-88887476D01*
X115697806Y-88887476D02*
X115602568Y-88982714D01*
X115602568Y-88982714D02*
X115507330Y-89030333D01*
X113507330Y-55734619D02*
X113840663Y-56734619D01*
X113840663Y-56734619D02*
X114173996Y-55734619D01*
X114507330Y-56734619D02*
X114507330Y-55734619D01*
X114507330Y-55734619D02*
X114745425Y-55734619D01*
X114745425Y-55734619D02*
X114888282Y-55782238D01*
X114888282Y-55782238D02*
X114983520Y-55877476D01*
X114983520Y-55877476D02*
X115031139Y-55972714D01*
X115031139Y-55972714D02*
X115078758Y-56163190D01*
X115078758Y-56163190D02*
X115078758Y-56306047D01*
X115078758Y-56306047D02*
X115031139Y-56496523D01*
X115031139Y-56496523D02*
X114983520Y-56591761D01*
X114983520Y-56591761D02*
X114888282Y-56687000D01*
X114888282Y-56687000D02*
X114745425Y-56734619D01*
X114745425Y-56734619D02*
X114507330Y-56734619D01*
X115507330Y-56734619D02*
X115507330Y-55734619D01*
X115507330Y-55734619D02*
X115745425Y-55734619D01*
X115745425Y-55734619D02*
X115888282Y-55782238D01*
X115888282Y-55782238D02*
X115983520Y-55877476D01*
X115983520Y-55877476D02*
X116031139Y-55972714D01*
X116031139Y-55972714D02*
X116078758Y-56163190D01*
X116078758Y-56163190D02*
X116078758Y-56306047D01*
X116078758Y-56306047D02*
X116031139Y-56496523D01*
X116031139Y-56496523D02*
X115983520Y-56591761D01*
X115983520Y-56591761D02*
X115888282Y-56687000D01*
X115888282Y-56687000D02*
X115745425Y-56734619D01*
X115745425Y-56734619D02*
X115507330Y-56734619D01*
X131992568Y-56290809D02*
X132325901Y-56290809D01*
X132468758Y-56814619D02*
X131992568Y-56814619D01*
X131992568Y-56814619D02*
X131992568Y-55814619D01*
X131992568Y-55814619D02*
X132468758Y-55814619D01*
X133373520Y-55814619D02*
X132897330Y-55814619D01*
X132897330Y-55814619D02*
X132849711Y-56290809D01*
X132849711Y-56290809D02*
X132897330Y-56243190D01*
X132897330Y-56243190D02*
X132992568Y-56195571D01*
X132992568Y-56195571D02*
X133230663Y-56195571D01*
X133230663Y-56195571D02*
X133325901Y-56243190D01*
X133325901Y-56243190D02*
X133373520Y-56290809D01*
X133373520Y-56290809D02*
X133421139Y-56386047D01*
X133421139Y-56386047D02*
X133421139Y-56624142D01*
X133421139Y-56624142D02*
X133373520Y-56719380D01*
X133373520Y-56719380D02*
X133325901Y-56767000D01*
X133325901Y-56767000D02*
X133230663Y-56814619D01*
X133230663Y-56814619D02*
X132992568Y-56814619D01*
X132992568Y-56814619D02*
X132897330Y-56767000D01*
X132897330Y-56767000D02*
X132849711Y-56719380D01*
X133706854Y-55814619D02*
X134040187Y-56814619D01*
X134040187Y-56814619D02*
X134373520Y-55814619D01*
X184962568Y-58344619D02*
X184962568Y-59154142D01*
X184962568Y-59154142D02*
X185010187Y-59249380D01*
X185010187Y-59249380D02*
X185057806Y-59297000D01*
X185057806Y-59297000D02*
X185153044Y-59344619D01*
X185153044Y-59344619D02*
X185343520Y-59344619D01*
X185343520Y-59344619D02*
X185438758Y-59297000D01*
X185438758Y-59297000D02*
X185486377Y-59249380D01*
X185486377Y-59249380D02*
X185533996Y-59154142D01*
X185533996Y-59154142D02*
X185533996Y-58344619D01*
X186486377Y-58344619D02*
X186010187Y-58344619D01*
X186010187Y-58344619D02*
X185962568Y-58820809D01*
X185962568Y-58820809D02*
X186010187Y-58773190D01*
X186010187Y-58773190D02*
X186105425Y-58725571D01*
X186105425Y-58725571D02*
X186343520Y-58725571D01*
X186343520Y-58725571D02*
X186438758Y-58773190D01*
X186438758Y-58773190D02*
X186486377Y-58820809D01*
X186486377Y-58820809D02*
X186533996Y-58916047D01*
X186533996Y-58916047D02*
X186533996Y-59154142D01*
X186533996Y-59154142D02*
X186486377Y-59249380D01*
X186486377Y-59249380D02*
X186438758Y-59297000D01*
X186438758Y-59297000D02*
X186343520Y-59344619D01*
X186343520Y-59344619D02*
X186105425Y-59344619D01*
X186105425Y-59344619D02*
X186010187Y-59297000D01*
X186010187Y-59297000D02*
X185962568Y-59249380D01*
X186819711Y-58344619D02*
X187153044Y-59344619D01*
X187153044Y-59344619D02*
X187486377Y-58344619D01*
X184962568Y-92374619D02*
X184962568Y-91374619D01*
X184962568Y-91374619D02*
X185343520Y-91374619D01*
X185343520Y-91374619D02*
X185438758Y-91422238D01*
X185438758Y-91422238D02*
X185486377Y-91469857D01*
X185486377Y-91469857D02*
X185533996Y-91565095D01*
X185533996Y-91565095D02*
X185533996Y-91707952D01*
X185533996Y-91707952D02*
X185486377Y-91803190D01*
X185486377Y-91803190D02*
X185438758Y-91850809D01*
X185438758Y-91850809D02*
X185343520Y-91898428D01*
X185343520Y-91898428D02*
X184962568Y-91898428D01*
X186533996Y-92279380D02*
X186486377Y-92327000D01*
X186486377Y-92327000D02*
X186343520Y-92374619D01*
X186343520Y-92374619D02*
X186248282Y-92374619D01*
X186248282Y-92374619D02*
X186105425Y-92327000D01*
X186105425Y-92327000D02*
X186010187Y-92231761D01*
X186010187Y-92231761D02*
X185962568Y-92136523D01*
X185962568Y-92136523D02*
X185914949Y-91946047D01*
X185914949Y-91946047D02*
X185914949Y-91803190D01*
X185914949Y-91803190D02*
X185962568Y-91612714D01*
X185962568Y-91612714D02*
X186010187Y-91517476D01*
X186010187Y-91517476D02*
X186105425Y-91422238D01*
X186105425Y-91422238D02*
X186248282Y-91374619D01*
X186248282Y-91374619D02*
X186343520Y-91374619D01*
X186343520Y-91374619D02*
X186486377Y-91422238D01*
X186486377Y-91422238D02*
X186533996Y-91469857D01*
X187391139Y-91707952D02*
X187391139Y-92374619D01*
X187153044Y-91327000D02*
X186914949Y-92041285D01*
X186914949Y-92041285D02*
X187533996Y-92041285D01*
X113554949Y-77054619D02*
X113554949Y-76054619D01*
X113554949Y-76054619D02*
X113935901Y-76054619D01*
X113935901Y-76054619D02*
X114031139Y-76102238D01*
X114031139Y-76102238D02*
X114078758Y-76149857D01*
X114078758Y-76149857D02*
X114126377Y-76245095D01*
X114126377Y-76245095D02*
X114126377Y-76387952D01*
X114126377Y-76387952D02*
X114078758Y-76483190D01*
X114078758Y-76483190D02*
X114031139Y-76530809D01*
X114031139Y-76530809D02*
X113935901Y-76578428D01*
X113935901Y-76578428D02*
X113554949Y-76578428D01*
X114888282Y-76530809D02*
X115031139Y-76578428D01*
X115031139Y-76578428D02*
X115078758Y-76626047D01*
X115078758Y-76626047D02*
X115126377Y-76721285D01*
X115126377Y-76721285D02*
X115126377Y-76864142D01*
X115126377Y-76864142D02*
X115078758Y-76959380D01*
X115078758Y-76959380D02*
X115031139Y-77007000D01*
X115031139Y-77007000D02*
X114935901Y-77054619D01*
X114935901Y-77054619D02*
X114554949Y-77054619D01*
X114554949Y-77054619D02*
X114554949Y-76054619D01*
X114554949Y-76054619D02*
X114888282Y-76054619D01*
X114888282Y-76054619D02*
X114983520Y-76102238D01*
X114983520Y-76102238D02*
X115031139Y-76149857D01*
X115031139Y-76149857D02*
X115078758Y-76245095D01*
X115078758Y-76245095D02*
X115078758Y-76340333D01*
X115078758Y-76340333D02*
X115031139Y-76435571D01*
X115031139Y-76435571D02*
X114983520Y-76483190D01*
X114983520Y-76483190D02*
X114888282Y-76530809D01*
X114888282Y-76530809D02*
X114554949Y-76530809D01*
X115459711Y-76054619D02*
X116126377Y-76054619D01*
X116126377Y-76054619D02*
X115697806Y-77054619D01*
X124182568Y-54124619D02*
X124182568Y-53124619D01*
X124182568Y-53124619D02*
X124563520Y-53124619D01*
X124563520Y-53124619D02*
X124658758Y-53172238D01*
X124658758Y-53172238D02*
X124706377Y-53219857D01*
X124706377Y-53219857D02*
X124753996Y-53315095D01*
X124753996Y-53315095D02*
X124753996Y-53457952D01*
X124753996Y-53457952D02*
X124706377Y-53553190D01*
X124706377Y-53553190D02*
X124658758Y-53600809D01*
X124658758Y-53600809D02*
X124563520Y-53648428D01*
X124563520Y-53648428D02*
X124182568Y-53648428D01*
X125182568Y-54124619D02*
X125182568Y-53124619D01*
X125182568Y-53124619D02*
X125420663Y-53124619D01*
X125420663Y-53124619D02*
X125563520Y-53172238D01*
X125563520Y-53172238D02*
X125658758Y-53267476D01*
X125658758Y-53267476D02*
X125706377Y-53362714D01*
X125706377Y-53362714D02*
X125753996Y-53553190D01*
X125753996Y-53553190D02*
X125753996Y-53696047D01*
X125753996Y-53696047D02*
X125706377Y-53886523D01*
X125706377Y-53886523D02*
X125658758Y-53981761D01*
X125658758Y-53981761D02*
X125563520Y-54077000D01*
X125563520Y-54077000D02*
X125420663Y-54124619D01*
X125420663Y-54124619D02*
X125182568Y-54124619D01*
X126134949Y-53219857D02*
X126182568Y-53172238D01*
X126182568Y-53172238D02*
X126277806Y-53124619D01*
X126277806Y-53124619D02*
X126515901Y-53124619D01*
X126515901Y-53124619D02*
X126611139Y-53172238D01*
X126611139Y-53172238D02*
X126658758Y-53219857D01*
X126658758Y-53219857D02*
X126706377Y-53315095D01*
X126706377Y-53315095D02*
X126706377Y-53410333D01*
X126706377Y-53410333D02*
X126658758Y-53553190D01*
X126658758Y-53553190D02*
X126087330Y-54124619D01*
X126087330Y-54124619D02*
X126706377Y-54124619D01*
X112572568Y-84714619D02*
X112572568Y-83714619D01*
X112572568Y-83714619D02*
X112953520Y-83714619D01*
X112953520Y-83714619D02*
X113048758Y-83762238D01*
X113048758Y-83762238D02*
X113096377Y-83809857D01*
X113096377Y-83809857D02*
X113143996Y-83905095D01*
X113143996Y-83905095D02*
X113143996Y-84047952D01*
X113143996Y-84047952D02*
X113096377Y-84143190D01*
X113096377Y-84143190D02*
X113048758Y-84190809D01*
X113048758Y-84190809D02*
X112953520Y-84238428D01*
X112953520Y-84238428D02*
X112572568Y-84238428D01*
X114143996Y-84619380D02*
X114096377Y-84667000D01*
X114096377Y-84667000D02*
X113953520Y-84714619D01*
X113953520Y-84714619D02*
X113858282Y-84714619D01*
X113858282Y-84714619D02*
X113715425Y-84667000D01*
X113715425Y-84667000D02*
X113620187Y-84571761D01*
X113620187Y-84571761D02*
X113572568Y-84476523D01*
X113572568Y-84476523D02*
X113524949Y-84286047D01*
X113524949Y-84286047D02*
X113524949Y-84143190D01*
X113524949Y-84143190D02*
X113572568Y-83952714D01*
X113572568Y-83952714D02*
X113620187Y-83857476D01*
X113620187Y-83857476D02*
X113715425Y-83762238D01*
X113715425Y-83762238D02*
X113858282Y-83714619D01*
X113858282Y-83714619D02*
X113953520Y-83714619D01*
X113953520Y-83714619D02*
X114096377Y-83762238D01*
X114096377Y-83762238D02*
X114143996Y-83809857D01*
X115096377Y-84714619D02*
X114524949Y-84714619D01*
X114810663Y-84714619D02*
X114810663Y-83714619D01*
X114810663Y-83714619D02*
X114715425Y-83857476D01*
X114715425Y-83857476D02*
X114620187Y-83952714D01*
X114620187Y-83952714D02*
X114524949Y-84000333D01*
X116001139Y-83714619D02*
X115524949Y-83714619D01*
X115524949Y-83714619D02*
X115477330Y-84190809D01*
X115477330Y-84190809D02*
X115524949Y-84143190D01*
X115524949Y-84143190D02*
X115620187Y-84095571D01*
X115620187Y-84095571D02*
X115858282Y-84095571D01*
X115858282Y-84095571D02*
X115953520Y-84143190D01*
X115953520Y-84143190D02*
X116001139Y-84190809D01*
X116001139Y-84190809D02*
X116048758Y-84286047D01*
X116048758Y-84286047D02*
X116048758Y-84524142D01*
X116048758Y-84524142D02*
X116001139Y-84619380D01*
X116001139Y-84619380D02*
X115953520Y-84667000D01*
X115953520Y-84667000D02*
X115858282Y-84714619D01*
X115858282Y-84714619D02*
X115620187Y-84714619D01*
X115620187Y-84714619D02*
X115524949Y-84667000D01*
X115524949Y-84667000D02*
X115477330Y-84619380D01*
X173613044Y-58988904D02*
X174089234Y-58988904D01*
X173517806Y-59274619D02*
X173851139Y-58274619D01*
X173851139Y-58274619D02*
X174184472Y-59274619D01*
X174374949Y-58274619D02*
X174708282Y-59274619D01*
X174708282Y-59274619D02*
X175041615Y-58274619D01*
X175374949Y-59274619D02*
X175374949Y-58274619D01*
X175374949Y-58274619D02*
X175613044Y-58274619D01*
X175613044Y-58274619D02*
X175755901Y-58322238D01*
X175755901Y-58322238D02*
X175851139Y-58417476D01*
X175851139Y-58417476D02*
X175898758Y-58512714D01*
X175898758Y-58512714D02*
X175946377Y-58703190D01*
X175946377Y-58703190D02*
X175946377Y-58846047D01*
X175946377Y-58846047D02*
X175898758Y-59036523D01*
X175898758Y-59036523D02*
X175851139Y-59131761D01*
X175851139Y-59131761D02*
X175755901Y-59227000D01*
X175755901Y-59227000D02*
X175613044Y-59274619D01*
X175613044Y-59274619D02*
X175374949Y-59274619D01*
X176374949Y-59274619D02*
X176374949Y-58274619D01*
X176374949Y-58274619D02*
X176613044Y-58274619D01*
X176613044Y-58274619D02*
X176755901Y-58322238D01*
X176755901Y-58322238D02*
X176851139Y-58417476D01*
X176851139Y-58417476D02*
X176898758Y-58512714D01*
X176898758Y-58512714D02*
X176946377Y-58703190D01*
X176946377Y-58703190D02*
X176946377Y-58846047D01*
X176946377Y-58846047D02*
X176898758Y-59036523D01*
X176898758Y-59036523D02*
X176851139Y-59131761D01*
X176851139Y-59131761D02*
X176755901Y-59227000D01*
X176755901Y-59227000D02*
X176613044Y-59274619D01*
X176613044Y-59274619D02*
X176374949Y-59274619D01*
X174565425Y-79624619D02*
X174565425Y-78624619D01*
X174565425Y-78624619D02*
X174946377Y-78624619D01*
X174946377Y-78624619D02*
X175041615Y-78672238D01*
X175041615Y-78672238D02*
X175089234Y-78719857D01*
X175089234Y-78719857D02*
X175136853Y-78815095D01*
X175136853Y-78815095D02*
X175136853Y-78957952D01*
X175136853Y-78957952D02*
X175089234Y-79053190D01*
X175089234Y-79053190D02*
X175041615Y-79100809D01*
X175041615Y-79100809D02*
X174946377Y-79148428D01*
X174946377Y-79148428D02*
X174565425Y-79148428D01*
X175517806Y-79338904D02*
X175993996Y-79338904D01*
X175422568Y-79624619D02*
X175755901Y-78624619D01*
X175755901Y-78624619D02*
X176089234Y-79624619D01*
X176565425Y-79053190D02*
X176470187Y-79005571D01*
X176470187Y-79005571D02*
X176422568Y-78957952D01*
X176422568Y-78957952D02*
X176374949Y-78862714D01*
X176374949Y-78862714D02*
X176374949Y-78815095D01*
X176374949Y-78815095D02*
X176422568Y-78719857D01*
X176422568Y-78719857D02*
X176470187Y-78672238D01*
X176470187Y-78672238D02*
X176565425Y-78624619D01*
X176565425Y-78624619D02*
X176755901Y-78624619D01*
X176755901Y-78624619D02*
X176851139Y-78672238D01*
X176851139Y-78672238D02*
X176898758Y-78719857D01*
X176898758Y-78719857D02*
X176946377Y-78815095D01*
X176946377Y-78815095D02*
X176946377Y-78862714D01*
X176946377Y-78862714D02*
X176898758Y-78957952D01*
X176898758Y-78957952D02*
X176851139Y-79005571D01*
X176851139Y-79005571D02*
X176755901Y-79053190D01*
X176755901Y-79053190D02*
X176565425Y-79053190D01*
X176565425Y-79053190D02*
X176470187Y-79100809D01*
X176470187Y-79100809D02*
X176422568Y-79148428D01*
X176422568Y-79148428D02*
X176374949Y-79243666D01*
X176374949Y-79243666D02*
X176374949Y-79434142D01*
X176374949Y-79434142D02*
X176422568Y-79529380D01*
X176422568Y-79529380D02*
X176470187Y-79577000D01*
X176470187Y-79577000D02*
X176565425Y-79624619D01*
X176565425Y-79624619D02*
X176755901Y-79624619D01*
X176755901Y-79624619D02*
X176851139Y-79577000D01*
X176851139Y-79577000D02*
X176898758Y-79529380D01*
X176898758Y-79529380D02*
X176946377Y-79434142D01*
X176946377Y-79434142D02*
X176946377Y-79243666D01*
X176946377Y-79243666D02*
X176898758Y-79148428D01*
X176898758Y-79148428D02*
X176851139Y-79100809D01*
X176851139Y-79100809D02*
X176755901Y-79053190D01*
X113554949Y-97454619D02*
X113554949Y-96454619D01*
X113554949Y-96454619D02*
X113935901Y-96454619D01*
X113935901Y-96454619D02*
X114031139Y-96502238D01*
X114031139Y-96502238D02*
X114078758Y-96549857D01*
X114078758Y-96549857D02*
X114126377Y-96645095D01*
X114126377Y-96645095D02*
X114126377Y-96787952D01*
X114126377Y-96787952D02*
X114078758Y-96883190D01*
X114078758Y-96883190D02*
X114031139Y-96930809D01*
X114031139Y-96930809D02*
X113935901Y-96978428D01*
X113935901Y-96978428D02*
X113554949Y-96978428D01*
X115126377Y-97359380D02*
X115078758Y-97407000D01*
X115078758Y-97407000D02*
X114935901Y-97454619D01*
X114935901Y-97454619D02*
X114840663Y-97454619D01*
X114840663Y-97454619D02*
X114697806Y-97407000D01*
X114697806Y-97407000D02*
X114602568Y-97311761D01*
X114602568Y-97311761D02*
X114554949Y-97216523D01*
X114554949Y-97216523D02*
X114507330Y-97026047D01*
X114507330Y-97026047D02*
X114507330Y-96883190D01*
X114507330Y-96883190D02*
X114554949Y-96692714D01*
X114554949Y-96692714D02*
X114602568Y-96597476D01*
X114602568Y-96597476D02*
X114697806Y-96502238D01*
X114697806Y-96502238D02*
X114840663Y-96454619D01*
X114840663Y-96454619D02*
X114935901Y-96454619D01*
X114935901Y-96454619D02*
X115078758Y-96502238D01*
X115078758Y-96502238D02*
X115126377Y-96549857D01*
X115459711Y-96454619D02*
X116078758Y-96454619D01*
X116078758Y-96454619D02*
X115745425Y-96835571D01*
X115745425Y-96835571D02*
X115888282Y-96835571D01*
X115888282Y-96835571D02*
X115983520Y-96883190D01*
X115983520Y-96883190D02*
X116031139Y-96930809D01*
X116031139Y-96930809D02*
X116078758Y-97026047D01*
X116078758Y-97026047D02*
X116078758Y-97264142D01*
X116078758Y-97264142D02*
X116031139Y-97359380D01*
X116031139Y-97359380D02*
X115983520Y-97407000D01*
X115983520Y-97407000D02*
X115888282Y-97454619D01*
X115888282Y-97454619D02*
X115602568Y-97454619D01*
X115602568Y-97454619D02*
X115507330Y-97407000D01*
X115507330Y-97407000D02*
X115459711Y-97359380D01*
X112602568Y-82094619D02*
X112602568Y-81094619D01*
X112602568Y-81094619D02*
X112983520Y-81094619D01*
X112983520Y-81094619D02*
X113078758Y-81142238D01*
X113078758Y-81142238D02*
X113126377Y-81189857D01*
X113126377Y-81189857D02*
X113173996Y-81285095D01*
X113173996Y-81285095D02*
X113173996Y-81427952D01*
X113173996Y-81427952D02*
X113126377Y-81523190D01*
X113126377Y-81523190D02*
X113078758Y-81570809D01*
X113078758Y-81570809D02*
X112983520Y-81618428D01*
X112983520Y-81618428D02*
X112602568Y-81618428D01*
X114173996Y-81999380D02*
X114126377Y-82047000D01*
X114126377Y-82047000D02*
X113983520Y-82094619D01*
X113983520Y-82094619D02*
X113888282Y-82094619D01*
X113888282Y-82094619D02*
X113745425Y-82047000D01*
X113745425Y-82047000D02*
X113650187Y-81951761D01*
X113650187Y-81951761D02*
X113602568Y-81856523D01*
X113602568Y-81856523D02*
X113554949Y-81666047D01*
X113554949Y-81666047D02*
X113554949Y-81523190D01*
X113554949Y-81523190D02*
X113602568Y-81332714D01*
X113602568Y-81332714D02*
X113650187Y-81237476D01*
X113650187Y-81237476D02*
X113745425Y-81142238D01*
X113745425Y-81142238D02*
X113888282Y-81094619D01*
X113888282Y-81094619D02*
X113983520Y-81094619D01*
X113983520Y-81094619D02*
X114126377Y-81142238D01*
X114126377Y-81142238D02*
X114173996Y-81189857D01*
X115126377Y-82094619D02*
X114554949Y-82094619D01*
X114840663Y-82094619D02*
X114840663Y-81094619D01*
X114840663Y-81094619D02*
X114745425Y-81237476D01*
X114745425Y-81237476D02*
X114650187Y-81332714D01*
X114650187Y-81332714D02*
X114554949Y-81380333D01*
X115983520Y-81427952D02*
X115983520Y-82094619D01*
X115745425Y-81047000D02*
X115507330Y-81761285D01*
X115507330Y-81761285D02*
X116126377Y-81761285D01*
X184962568Y-79724619D02*
X184962568Y-78724619D01*
X184962568Y-78724619D02*
X185343520Y-78724619D01*
X185343520Y-78724619D02*
X185438758Y-78772238D01*
X185438758Y-78772238D02*
X185486377Y-78819857D01*
X185486377Y-78819857D02*
X185533996Y-78915095D01*
X185533996Y-78915095D02*
X185533996Y-79057952D01*
X185533996Y-79057952D02*
X185486377Y-79153190D01*
X185486377Y-79153190D02*
X185438758Y-79200809D01*
X185438758Y-79200809D02*
X185343520Y-79248428D01*
X185343520Y-79248428D02*
X184962568Y-79248428D01*
X186295901Y-79200809D02*
X186438758Y-79248428D01*
X186438758Y-79248428D02*
X186486377Y-79296047D01*
X186486377Y-79296047D02*
X186533996Y-79391285D01*
X186533996Y-79391285D02*
X186533996Y-79534142D01*
X186533996Y-79534142D02*
X186486377Y-79629380D01*
X186486377Y-79629380D02*
X186438758Y-79677000D01*
X186438758Y-79677000D02*
X186343520Y-79724619D01*
X186343520Y-79724619D02*
X185962568Y-79724619D01*
X185962568Y-79724619D02*
X185962568Y-78724619D01*
X185962568Y-78724619D02*
X186295901Y-78724619D01*
X186295901Y-78724619D02*
X186391139Y-78772238D01*
X186391139Y-78772238D02*
X186438758Y-78819857D01*
X186438758Y-78819857D02*
X186486377Y-78915095D01*
X186486377Y-78915095D02*
X186486377Y-79010333D01*
X186486377Y-79010333D02*
X186438758Y-79105571D01*
X186438758Y-79105571D02*
X186391139Y-79153190D01*
X186391139Y-79153190D02*
X186295901Y-79200809D01*
X186295901Y-79200809D02*
X185962568Y-79200809D01*
X187486377Y-79724619D02*
X186914949Y-79724619D01*
X187200663Y-79724619D02*
X187200663Y-78724619D01*
X187200663Y-78724619D02*
X187105425Y-78867476D01*
X187105425Y-78867476D02*
X187010187Y-78962714D01*
X187010187Y-78962714D02*
X186914949Y-79010333D01*
X184962568Y-72134619D02*
X184962568Y-71134619D01*
X184962568Y-71134619D02*
X185533996Y-72134619D01*
X185533996Y-72134619D02*
X185533996Y-71134619D01*
X186581615Y-72039380D02*
X186533996Y-72087000D01*
X186533996Y-72087000D02*
X186391139Y-72134619D01*
X186391139Y-72134619D02*
X186295901Y-72134619D01*
X186295901Y-72134619D02*
X186153044Y-72087000D01*
X186153044Y-72087000D02*
X186057806Y-71991761D01*
X186057806Y-71991761D02*
X186010187Y-71896523D01*
X186010187Y-71896523D02*
X185962568Y-71706047D01*
X185962568Y-71706047D02*
X185962568Y-71563190D01*
X185962568Y-71563190D02*
X186010187Y-71372714D01*
X186010187Y-71372714D02*
X186057806Y-71277476D01*
X186057806Y-71277476D02*
X186153044Y-71182238D01*
X186153044Y-71182238D02*
X186295901Y-71134619D01*
X186295901Y-71134619D02*
X186391139Y-71134619D01*
X186391139Y-71134619D02*
X186533996Y-71182238D01*
X186533996Y-71182238D02*
X186581615Y-71229857D01*
X174565425Y-97394619D02*
X174565425Y-96394619D01*
X174565425Y-96394619D02*
X174946377Y-96394619D01*
X174946377Y-96394619D02*
X175041615Y-96442238D01*
X175041615Y-96442238D02*
X175089234Y-96489857D01*
X175089234Y-96489857D02*
X175136853Y-96585095D01*
X175136853Y-96585095D02*
X175136853Y-96727952D01*
X175136853Y-96727952D02*
X175089234Y-96823190D01*
X175089234Y-96823190D02*
X175041615Y-96870809D01*
X175041615Y-96870809D02*
X174946377Y-96918428D01*
X174946377Y-96918428D02*
X174565425Y-96918428D01*
X175517806Y-97108904D02*
X175993996Y-97108904D01*
X175422568Y-97394619D02*
X175755901Y-96394619D01*
X175755901Y-96394619D02*
X176089234Y-97394619D01*
X176327330Y-96394619D02*
X176946377Y-96394619D01*
X176946377Y-96394619D02*
X176613044Y-96775571D01*
X176613044Y-96775571D02*
X176755901Y-96775571D01*
X176755901Y-96775571D02*
X176851139Y-96823190D01*
X176851139Y-96823190D02*
X176898758Y-96870809D01*
X176898758Y-96870809D02*
X176946377Y-96966047D01*
X176946377Y-96966047D02*
X176946377Y-97204142D01*
X176946377Y-97204142D02*
X176898758Y-97299380D01*
X176898758Y-97299380D02*
X176851139Y-97347000D01*
X176851139Y-97347000D02*
X176755901Y-97394619D01*
X176755901Y-97394619D02*
X176470187Y-97394619D01*
X176470187Y-97394619D02*
X176374949Y-97347000D01*
X176374949Y-97347000D02*
X176327330Y-97299380D01*
X174422568Y-51724619D02*
X174422568Y-50724619D01*
X174422568Y-50724619D02*
X174803520Y-50724619D01*
X174803520Y-50724619D02*
X174898758Y-50772238D01*
X174898758Y-50772238D02*
X174946377Y-50819857D01*
X174946377Y-50819857D02*
X174993996Y-50915095D01*
X174993996Y-50915095D02*
X174993996Y-51057952D01*
X174993996Y-51057952D02*
X174946377Y-51153190D01*
X174946377Y-51153190D02*
X174898758Y-51200809D01*
X174898758Y-51200809D02*
X174803520Y-51248428D01*
X174803520Y-51248428D02*
X174422568Y-51248428D01*
X175993996Y-51629380D02*
X175946377Y-51677000D01*
X175946377Y-51677000D02*
X175803520Y-51724619D01*
X175803520Y-51724619D02*
X175708282Y-51724619D01*
X175708282Y-51724619D02*
X175565425Y-51677000D01*
X175565425Y-51677000D02*
X175470187Y-51581761D01*
X175470187Y-51581761D02*
X175422568Y-51486523D01*
X175422568Y-51486523D02*
X175374949Y-51296047D01*
X175374949Y-51296047D02*
X175374949Y-51153190D01*
X175374949Y-51153190D02*
X175422568Y-50962714D01*
X175422568Y-50962714D02*
X175470187Y-50867476D01*
X175470187Y-50867476D02*
X175565425Y-50772238D01*
X175565425Y-50772238D02*
X175708282Y-50724619D01*
X175708282Y-50724619D02*
X175803520Y-50724619D01*
X175803520Y-50724619D02*
X175946377Y-50772238D01*
X175946377Y-50772238D02*
X175993996Y-50819857D01*
X176470187Y-51724619D02*
X176660663Y-51724619D01*
X176660663Y-51724619D02*
X176755901Y-51677000D01*
X176755901Y-51677000D02*
X176803520Y-51629380D01*
X176803520Y-51629380D02*
X176898758Y-51486523D01*
X176898758Y-51486523D02*
X176946377Y-51296047D01*
X176946377Y-51296047D02*
X176946377Y-50915095D01*
X176946377Y-50915095D02*
X176898758Y-50819857D01*
X176898758Y-50819857D02*
X176851139Y-50772238D01*
X176851139Y-50772238D02*
X176755901Y-50724619D01*
X176755901Y-50724619D02*
X176565425Y-50724619D01*
X176565425Y-50724619D02*
X176470187Y-50772238D01*
X176470187Y-50772238D02*
X176422568Y-50819857D01*
X176422568Y-50819857D02*
X176374949Y-50915095D01*
X176374949Y-50915095D02*
X176374949Y-51153190D01*
X176374949Y-51153190D02*
X176422568Y-51248428D01*
X176422568Y-51248428D02*
X176470187Y-51296047D01*
X176470187Y-51296047D02*
X176565425Y-51343666D01*
X176565425Y-51343666D02*
X176755901Y-51343666D01*
X176755901Y-51343666D02*
X176851139Y-51296047D01*
X176851139Y-51296047D02*
X176898758Y-51248428D01*
X176898758Y-51248428D02*
X176946377Y-51153190D01*
X124182568Y-82174619D02*
X124182568Y-81174619D01*
X124182568Y-81174619D02*
X124753996Y-82174619D01*
X124753996Y-82174619D02*
X124753996Y-81174619D01*
X125801615Y-82079380D02*
X125753996Y-82127000D01*
X125753996Y-82127000D02*
X125611139Y-82174619D01*
X125611139Y-82174619D02*
X125515901Y-82174619D01*
X125515901Y-82174619D02*
X125373044Y-82127000D01*
X125373044Y-82127000D02*
X125277806Y-82031761D01*
X125277806Y-82031761D02*
X125230187Y-81936523D01*
X125230187Y-81936523D02*
X125182568Y-81746047D01*
X125182568Y-81746047D02*
X125182568Y-81603190D01*
X125182568Y-81603190D02*
X125230187Y-81412714D01*
X125230187Y-81412714D02*
X125277806Y-81317476D01*
X125277806Y-81317476D02*
X125373044Y-81222238D01*
X125373044Y-81222238D02*
X125515901Y-81174619D01*
X125515901Y-81174619D02*
X125611139Y-81174619D01*
X125611139Y-81174619D02*
X125753996Y-81222238D01*
X125753996Y-81222238D02*
X125801615Y-81269857D01*
X132516377Y-58352238D02*
X132421139Y-58304619D01*
X132421139Y-58304619D02*
X132278282Y-58304619D01*
X132278282Y-58304619D02*
X132135425Y-58352238D01*
X132135425Y-58352238D02*
X132040187Y-58447476D01*
X132040187Y-58447476D02*
X131992568Y-58542714D01*
X131992568Y-58542714D02*
X131944949Y-58733190D01*
X131944949Y-58733190D02*
X131944949Y-58876047D01*
X131944949Y-58876047D02*
X131992568Y-59066523D01*
X131992568Y-59066523D02*
X132040187Y-59161761D01*
X132040187Y-59161761D02*
X132135425Y-59257000D01*
X132135425Y-59257000D02*
X132278282Y-59304619D01*
X132278282Y-59304619D02*
X132373520Y-59304619D01*
X132373520Y-59304619D02*
X132516377Y-59257000D01*
X132516377Y-59257000D02*
X132563996Y-59209380D01*
X132563996Y-59209380D02*
X132563996Y-58876047D01*
X132563996Y-58876047D02*
X132373520Y-58876047D01*
X132992568Y-59304619D02*
X132992568Y-58304619D01*
X132992568Y-58304619D02*
X133563996Y-59304619D01*
X133563996Y-59304619D02*
X133563996Y-58304619D01*
X134040187Y-59304619D02*
X134040187Y-58304619D01*
X134040187Y-58304619D02*
X134278282Y-58304619D01*
X134278282Y-58304619D02*
X134421139Y-58352238D01*
X134421139Y-58352238D02*
X134516377Y-58447476D01*
X134516377Y-58447476D02*
X134563996Y-58542714D01*
X134563996Y-58542714D02*
X134611615Y-58733190D01*
X134611615Y-58733190D02*
X134611615Y-58876047D01*
X134611615Y-58876047D02*
X134563996Y-59066523D01*
X134563996Y-59066523D02*
X134516377Y-59161761D01*
X134516377Y-59161761D02*
X134421139Y-59257000D01*
X134421139Y-59257000D02*
X134278282Y-59304619D01*
X134278282Y-59304619D02*
X134040187Y-59304619D01*
X184962568Y-69544619D02*
X184962568Y-68544619D01*
X184962568Y-68544619D02*
X185343520Y-68544619D01*
X185343520Y-68544619D02*
X185438758Y-68592238D01*
X185438758Y-68592238D02*
X185486377Y-68639857D01*
X185486377Y-68639857D02*
X185533996Y-68735095D01*
X185533996Y-68735095D02*
X185533996Y-68877952D01*
X185533996Y-68877952D02*
X185486377Y-68973190D01*
X185486377Y-68973190D02*
X185438758Y-69020809D01*
X185438758Y-69020809D02*
X185343520Y-69068428D01*
X185343520Y-69068428D02*
X184962568Y-69068428D01*
X186295901Y-69020809D02*
X186438758Y-69068428D01*
X186438758Y-69068428D02*
X186486377Y-69116047D01*
X186486377Y-69116047D02*
X186533996Y-69211285D01*
X186533996Y-69211285D02*
X186533996Y-69354142D01*
X186533996Y-69354142D02*
X186486377Y-69449380D01*
X186486377Y-69449380D02*
X186438758Y-69497000D01*
X186438758Y-69497000D02*
X186343520Y-69544619D01*
X186343520Y-69544619D02*
X185962568Y-69544619D01*
X185962568Y-69544619D02*
X185962568Y-68544619D01*
X185962568Y-68544619D02*
X186295901Y-68544619D01*
X186295901Y-68544619D02*
X186391139Y-68592238D01*
X186391139Y-68592238D02*
X186438758Y-68639857D01*
X186438758Y-68639857D02*
X186486377Y-68735095D01*
X186486377Y-68735095D02*
X186486377Y-68830333D01*
X186486377Y-68830333D02*
X186438758Y-68925571D01*
X186438758Y-68925571D02*
X186391139Y-68973190D01*
X186391139Y-68973190D02*
X186295901Y-69020809D01*
X186295901Y-69020809D02*
X185962568Y-69020809D01*
X187486377Y-69544619D02*
X186914949Y-69544619D01*
X187200663Y-69544619D02*
X187200663Y-68544619D01*
X187200663Y-68544619D02*
X187105425Y-68687476D01*
X187105425Y-68687476D02*
X187010187Y-68782714D01*
X187010187Y-68782714D02*
X186914949Y-68830333D01*
X187867330Y-68639857D02*
X187914949Y-68592238D01*
X187914949Y-68592238D02*
X188010187Y-68544619D01*
X188010187Y-68544619D02*
X188248282Y-68544619D01*
X188248282Y-68544619D02*
X188343520Y-68592238D01*
X188343520Y-68592238D02*
X188391139Y-68639857D01*
X188391139Y-68639857D02*
X188438758Y-68735095D01*
X188438758Y-68735095D02*
X188438758Y-68830333D01*
X188438758Y-68830333D02*
X188391139Y-68973190D01*
X188391139Y-68973190D02*
X187819711Y-69544619D01*
X187819711Y-69544619D02*
X188438758Y-69544619D01*
X131955068Y-69133666D02*
X132716973Y-69133666D01*
X132336020Y-69514619D02*
X132336020Y-68752714D01*
X133097925Y-68514619D02*
X133716972Y-68514619D01*
X133716972Y-68514619D02*
X133383639Y-68895571D01*
X133383639Y-68895571D02*
X133526496Y-68895571D01*
X133526496Y-68895571D02*
X133621734Y-68943190D01*
X133621734Y-68943190D02*
X133669353Y-68990809D01*
X133669353Y-68990809D02*
X133716972Y-69086047D01*
X133716972Y-69086047D02*
X133716972Y-69324142D01*
X133716972Y-69324142D02*
X133669353Y-69419380D01*
X133669353Y-69419380D02*
X133621734Y-69467000D01*
X133621734Y-69467000D02*
X133526496Y-69514619D01*
X133526496Y-69514619D02*
X133240782Y-69514619D01*
X133240782Y-69514619D02*
X133145544Y-69467000D01*
X133145544Y-69467000D02*
X133097925Y-69419380D01*
X134002687Y-68514619D02*
X134336020Y-69514619D01*
X134336020Y-69514619D02*
X134669353Y-68514619D01*
X134907449Y-68514619D02*
X135526496Y-68514619D01*
X135526496Y-68514619D02*
X135193163Y-68895571D01*
X135193163Y-68895571D02*
X135336020Y-68895571D01*
X135336020Y-68895571D02*
X135431258Y-68943190D01*
X135431258Y-68943190D02*
X135478877Y-68990809D01*
X135478877Y-68990809D02*
X135526496Y-69086047D01*
X135526496Y-69086047D02*
X135526496Y-69324142D01*
X135526496Y-69324142D02*
X135478877Y-69419380D01*
X135478877Y-69419380D02*
X135431258Y-69467000D01*
X135431258Y-69467000D02*
X135336020Y-69514619D01*
X135336020Y-69514619D02*
X135050306Y-69514619D01*
X135050306Y-69514619D02*
X134955068Y-69467000D01*
X134955068Y-69467000D02*
X134907449Y-69419380D01*
X184962568Y-84834619D02*
X184962568Y-83834619D01*
X184962568Y-83834619D02*
X185343520Y-83834619D01*
X185343520Y-83834619D02*
X185438758Y-83882238D01*
X185438758Y-83882238D02*
X185486377Y-83929857D01*
X185486377Y-83929857D02*
X185533996Y-84025095D01*
X185533996Y-84025095D02*
X185533996Y-84167952D01*
X185533996Y-84167952D02*
X185486377Y-84263190D01*
X185486377Y-84263190D02*
X185438758Y-84310809D01*
X185438758Y-84310809D02*
X185343520Y-84358428D01*
X185343520Y-84358428D02*
X184962568Y-84358428D01*
X186295901Y-84310809D02*
X186438758Y-84358428D01*
X186438758Y-84358428D02*
X186486377Y-84406047D01*
X186486377Y-84406047D02*
X186533996Y-84501285D01*
X186533996Y-84501285D02*
X186533996Y-84644142D01*
X186533996Y-84644142D02*
X186486377Y-84739380D01*
X186486377Y-84739380D02*
X186438758Y-84787000D01*
X186438758Y-84787000D02*
X186343520Y-84834619D01*
X186343520Y-84834619D02*
X185962568Y-84834619D01*
X185962568Y-84834619D02*
X185962568Y-83834619D01*
X185962568Y-83834619D02*
X186295901Y-83834619D01*
X186295901Y-83834619D02*
X186391139Y-83882238D01*
X186391139Y-83882238D02*
X186438758Y-83929857D01*
X186438758Y-83929857D02*
X186486377Y-84025095D01*
X186486377Y-84025095D02*
X186486377Y-84120333D01*
X186486377Y-84120333D02*
X186438758Y-84215571D01*
X186438758Y-84215571D02*
X186391139Y-84263190D01*
X186391139Y-84263190D02*
X186295901Y-84310809D01*
X186295901Y-84310809D02*
X185962568Y-84310809D01*
X187486377Y-84834619D02*
X186914949Y-84834619D01*
X187200663Y-84834619D02*
X187200663Y-83834619D01*
X187200663Y-83834619D02*
X187105425Y-83977476D01*
X187105425Y-83977476D02*
X187010187Y-84072714D01*
X187010187Y-84072714D02*
X186914949Y-84120333D01*
X188343520Y-84167952D02*
X188343520Y-84834619D01*
X188105425Y-83787000D02*
X187867330Y-84501285D01*
X187867330Y-84501285D02*
X188486377Y-84501285D01*
D16*
X119502343Y-46591368D02*
X119502343Y-47498511D01*
X119502343Y-47498511D02*
X119441866Y-47679939D01*
X119441866Y-47679939D02*
X119320914Y-47800892D01*
X119320914Y-47800892D02*
X119139485Y-47861368D01*
X119139485Y-47861368D02*
X119018533Y-47861368D01*
X120046628Y-46712320D02*
X120107104Y-46651844D01*
X120107104Y-46651844D02*
X120228057Y-46591368D01*
X120228057Y-46591368D02*
X120530438Y-46591368D01*
X120530438Y-46591368D02*
X120651390Y-46651844D01*
X120651390Y-46651844D02*
X120711866Y-46712320D01*
X120711866Y-46712320D02*
X120772343Y-46833272D01*
X120772343Y-46833272D02*
X120772343Y-46954225D01*
X120772343Y-46954225D02*
X120711866Y-47135653D01*
X120711866Y-47135653D02*
X119986152Y-47861368D01*
X119986152Y-47861368D02*
X120772343Y-47861368D01*
X121256152Y-47498511D02*
X121860914Y-47498511D01*
X121135200Y-47861368D02*
X121558533Y-46591368D01*
X121558533Y-46591368D02*
X121981867Y-47861368D01*
X123070438Y-47861368D02*
X122344723Y-47861368D01*
X122707580Y-47861368D02*
X122707580Y-46591368D01*
X122707580Y-46591368D02*
X122586628Y-46772796D01*
X122586628Y-46772796D02*
X122465676Y-46893749D01*
X122465676Y-46893749D02*
X122344723Y-46954225D01*
X123554247Y-47498511D02*
X124159009Y-47498511D01*
X123433295Y-47861368D02*
X123856628Y-46591368D01*
X123856628Y-46591368D02*
X124279962Y-47861368D01*
D15*
X174565425Y-69344619D02*
X174565425Y-68344619D01*
X174565425Y-68344619D02*
X174946377Y-68344619D01*
X174946377Y-68344619D02*
X175041615Y-68392238D01*
X175041615Y-68392238D02*
X175089234Y-68439857D01*
X175089234Y-68439857D02*
X175136853Y-68535095D01*
X175136853Y-68535095D02*
X175136853Y-68677952D01*
X175136853Y-68677952D02*
X175089234Y-68773190D01*
X175089234Y-68773190D02*
X175041615Y-68820809D01*
X175041615Y-68820809D02*
X174946377Y-68868428D01*
X174946377Y-68868428D02*
X174565425Y-68868428D01*
X175517806Y-69058904D02*
X175993996Y-69058904D01*
X175422568Y-69344619D02*
X175755901Y-68344619D01*
X175755901Y-68344619D02*
X176089234Y-69344619D01*
X176327330Y-68344619D02*
X176993996Y-68344619D01*
X176993996Y-68344619D02*
X176565425Y-69344619D01*
X174422568Y-84654619D02*
X174422568Y-83654619D01*
X174422568Y-83654619D02*
X174803520Y-83654619D01*
X174803520Y-83654619D02*
X174898758Y-83702238D01*
X174898758Y-83702238D02*
X174946377Y-83749857D01*
X174946377Y-83749857D02*
X174993996Y-83845095D01*
X174993996Y-83845095D02*
X174993996Y-83987952D01*
X174993996Y-83987952D02*
X174946377Y-84083190D01*
X174946377Y-84083190D02*
X174898758Y-84130809D01*
X174898758Y-84130809D02*
X174803520Y-84178428D01*
X174803520Y-84178428D02*
X174422568Y-84178428D01*
X175755901Y-84130809D02*
X175898758Y-84178428D01*
X175898758Y-84178428D02*
X175946377Y-84226047D01*
X175946377Y-84226047D02*
X175993996Y-84321285D01*
X175993996Y-84321285D02*
X175993996Y-84464142D01*
X175993996Y-84464142D02*
X175946377Y-84559380D01*
X175946377Y-84559380D02*
X175898758Y-84607000D01*
X175898758Y-84607000D02*
X175803520Y-84654619D01*
X175803520Y-84654619D02*
X175422568Y-84654619D01*
X175422568Y-84654619D02*
X175422568Y-83654619D01*
X175422568Y-83654619D02*
X175755901Y-83654619D01*
X175755901Y-83654619D02*
X175851139Y-83702238D01*
X175851139Y-83702238D02*
X175898758Y-83749857D01*
X175898758Y-83749857D02*
X175946377Y-83845095D01*
X175946377Y-83845095D02*
X175946377Y-83940333D01*
X175946377Y-83940333D02*
X175898758Y-84035571D01*
X175898758Y-84035571D02*
X175851139Y-84083190D01*
X175851139Y-84083190D02*
X175755901Y-84130809D01*
X175755901Y-84130809D02*
X175422568Y-84130809D01*
X176851139Y-83987952D02*
X176851139Y-84654619D01*
X176613044Y-83607000D02*
X176374949Y-84321285D01*
X176374949Y-84321285D02*
X176993996Y-84321285D01*
X184962568Y-97474619D02*
X184962568Y-96474619D01*
X184962568Y-96474619D02*
X185533996Y-97474619D01*
X185533996Y-97474619D02*
X185533996Y-96474619D01*
X186581615Y-97379380D02*
X186533996Y-97427000D01*
X186533996Y-97427000D02*
X186391139Y-97474619D01*
X186391139Y-97474619D02*
X186295901Y-97474619D01*
X186295901Y-97474619D02*
X186153044Y-97427000D01*
X186153044Y-97427000D02*
X186057806Y-97331761D01*
X186057806Y-97331761D02*
X186010187Y-97236523D01*
X186010187Y-97236523D02*
X185962568Y-97046047D01*
X185962568Y-97046047D02*
X185962568Y-96903190D01*
X185962568Y-96903190D02*
X186010187Y-96712714D01*
X186010187Y-96712714D02*
X186057806Y-96617476D01*
X186057806Y-96617476D02*
X186153044Y-96522238D01*
X186153044Y-96522238D02*
X186295901Y-96474619D01*
X186295901Y-96474619D02*
X186391139Y-96474619D01*
X186391139Y-96474619D02*
X186533996Y-96522238D01*
X186533996Y-96522238D02*
X186581615Y-96569857D01*
X124706377Y-73712238D02*
X124611139Y-73664619D01*
X124611139Y-73664619D02*
X124468282Y-73664619D01*
X124468282Y-73664619D02*
X124325425Y-73712238D01*
X124325425Y-73712238D02*
X124230187Y-73807476D01*
X124230187Y-73807476D02*
X124182568Y-73902714D01*
X124182568Y-73902714D02*
X124134949Y-74093190D01*
X124134949Y-74093190D02*
X124134949Y-74236047D01*
X124134949Y-74236047D02*
X124182568Y-74426523D01*
X124182568Y-74426523D02*
X124230187Y-74521761D01*
X124230187Y-74521761D02*
X124325425Y-74617000D01*
X124325425Y-74617000D02*
X124468282Y-74664619D01*
X124468282Y-74664619D02*
X124563520Y-74664619D01*
X124563520Y-74664619D02*
X124706377Y-74617000D01*
X124706377Y-74617000D02*
X124753996Y-74569380D01*
X124753996Y-74569380D02*
X124753996Y-74236047D01*
X124753996Y-74236047D02*
X124563520Y-74236047D01*
X125182568Y-74664619D02*
X125182568Y-73664619D01*
X125182568Y-73664619D02*
X125753996Y-74664619D01*
X125753996Y-74664619D02*
X125753996Y-73664619D01*
X126230187Y-74664619D02*
X126230187Y-73664619D01*
X126230187Y-73664619D02*
X126468282Y-73664619D01*
X126468282Y-73664619D02*
X126611139Y-73712238D01*
X126611139Y-73712238D02*
X126706377Y-73807476D01*
X126706377Y-73807476D02*
X126753996Y-73902714D01*
X126753996Y-73902714D02*
X126801615Y-74093190D01*
X126801615Y-74093190D02*
X126801615Y-74236047D01*
X126801615Y-74236047D02*
X126753996Y-74426523D01*
X126753996Y-74426523D02*
X126706377Y-74521761D01*
X126706377Y-74521761D02*
X126611139Y-74617000D01*
X126611139Y-74617000D02*
X126468282Y-74664619D01*
X126468282Y-74664619D02*
X126230187Y-74664619D01*
X124182568Y-92344619D02*
X124182568Y-91344619D01*
X124182568Y-91344619D02*
X124563520Y-91344619D01*
X124563520Y-91344619D02*
X124658758Y-91392238D01*
X124658758Y-91392238D02*
X124706377Y-91439857D01*
X124706377Y-91439857D02*
X124753996Y-91535095D01*
X124753996Y-91535095D02*
X124753996Y-91677952D01*
X124753996Y-91677952D02*
X124706377Y-91773190D01*
X124706377Y-91773190D02*
X124658758Y-91820809D01*
X124658758Y-91820809D02*
X124563520Y-91868428D01*
X124563520Y-91868428D02*
X124182568Y-91868428D01*
X125515901Y-91820809D02*
X125658758Y-91868428D01*
X125658758Y-91868428D02*
X125706377Y-91916047D01*
X125706377Y-91916047D02*
X125753996Y-92011285D01*
X125753996Y-92011285D02*
X125753996Y-92154142D01*
X125753996Y-92154142D02*
X125706377Y-92249380D01*
X125706377Y-92249380D02*
X125658758Y-92297000D01*
X125658758Y-92297000D02*
X125563520Y-92344619D01*
X125563520Y-92344619D02*
X125182568Y-92344619D01*
X125182568Y-92344619D02*
X125182568Y-91344619D01*
X125182568Y-91344619D02*
X125515901Y-91344619D01*
X125515901Y-91344619D02*
X125611139Y-91392238D01*
X125611139Y-91392238D02*
X125658758Y-91439857D01*
X125658758Y-91439857D02*
X125706377Y-91535095D01*
X125706377Y-91535095D02*
X125706377Y-91630333D01*
X125706377Y-91630333D02*
X125658758Y-91725571D01*
X125658758Y-91725571D02*
X125611139Y-91773190D01*
X125611139Y-91773190D02*
X125515901Y-91820809D01*
X125515901Y-91820809D02*
X125182568Y-91820809D01*
X126373044Y-91344619D02*
X126468282Y-91344619D01*
X126468282Y-91344619D02*
X126563520Y-91392238D01*
X126563520Y-91392238D02*
X126611139Y-91439857D01*
X126611139Y-91439857D02*
X126658758Y-91535095D01*
X126658758Y-91535095D02*
X126706377Y-91725571D01*
X126706377Y-91725571D02*
X126706377Y-91963666D01*
X126706377Y-91963666D02*
X126658758Y-92154142D01*
X126658758Y-92154142D02*
X126611139Y-92249380D01*
X126611139Y-92249380D02*
X126563520Y-92297000D01*
X126563520Y-92297000D02*
X126468282Y-92344619D01*
X126468282Y-92344619D02*
X126373044Y-92344619D01*
X126373044Y-92344619D02*
X126277806Y-92297000D01*
X126277806Y-92297000D02*
X126230187Y-92249380D01*
X126230187Y-92249380D02*
X126182568Y-92154142D01*
X126182568Y-92154142D02*
X126134949Y-91963666D01*
X126134949Y-91963666D02*
X126134949Y-91725571D01*
X126134949Y-91725571D02*
X126182568Y-91535095D01*
X126182568Y-91535095D02*
X126230187Y-91439857D01*
X126230187Y-91439857D02*
X126277806Y-91392238D01*
X126277806Y-91392238D02*
X126373044Y-91344619D01*
X113983520Y-73522238D02*
X113888282Y-73474619D01*
X113888282Y-73474619D02*
X113745425Y-73474619D01*
X113745425Y-73474619D02*
X113602568Y-73522238D01*
X113602568Y-73522238D02*
X113507330Y-73617476D01*
X113507330Y-73617476D02*
X113459711Y-73712714D01*
X113459711Y-73712714D02*
X113412092Y-73903190D01*
X113412092Y-73903190D02*
X113412092Y-74046047D01*
X113412092Y-74046047D02*
X113459711Y-74236523D01*
X113459711Y-74236523D02*
X113507330Y-74331761D01*
X113507330Y-74331761D02*
X113602568Y-74427000D01*
X113602568Y-74427000D02*
X113745425Y-74474619D01*
X113745425Y-74474619D02*
X113840663Y-74474619D01*
X113840663Y-74474619D02*
X113983520Y-74427000D01*
X113983520Y-74427000D02*
X114031139Y-74379380D01*
X114031139Y-74379380D02*
X114031139Y-74046047D01*
X114031139Y-74046047D02*
X113840663Y-74046047D01*
X114459711Y-74474619D02*
X114459711Y-73474619D01*
X114459711Y-73474619D02*
X115031139Y-74474619D01*
X115031139Y-74474619D02*
X115031139Y-73474619D01*
X115507330Y-74474619D02*
X115507330Y-73474619D01*
X115507330Y-73474619D02*
X115745425Y-73474619D01*
X115745425Y-73474619D02*
X115888282Y-73522238D01*
X115888282Y-73522238D02*
X115983520Y-73617476D01*
X115983520Y-73617476D02*
X116031139Y-73712714D01*
X116031139Y-73712714D02*
X116078758Y-73903190D01*
X116078758Y-73903190D02*
X116078758Y-74046047D01*
X116078758Y-74046047D02*
X116031139Y-74236523D01*
X116031139Y-74236523D02*
X115983520Y-74331761D01*
X115983520Y-74331761D02*
X115888282Y-74427000D01*
X115888282Y-74427000D02*
X115745425Y-74474619D01*
X115745425Y-74474619D02*
X115507330Y-74474619D01*
X184962568Y-94854619D02*
X184962568Y-93854619D01*
X184962568Y-93854619D02*
X185533996Y-94854619D01*
X185533996Y-94854619D02*
X185533996Y-93854619D01*
X186581615Y-94759380D02*
X186533996Y-94807000D01*
X186533996Y-94807000D02*
X186391139Y-94854619D01*
X186391139Y-94854619D02*
X186295901Y-94854619D01*
X186295901Y-94854619D02*
X186153044Y-94807000D01*
X186153044Y-94807000D02*
X186057806Y-94711761D01*
X186057806Y-94711761D02*
X186010187Y-94616523D01*
X186010187Y-94616523D02*
X185962568Y-94426047D01*
X185962568Y-94426047D02*
X185962568Y-94283190D01*
X185962568Y-94283190D02*
X186010187Y-94092714D01*
X186010187Y-94092714D02*
X186057806Y-93997476D01*
X186057806Y-93997476D02*
X186153044Y-93902238D01*
X186153044Y-93902238D02*
X186295901Y-93854619D01*
X186295901Y-93854619D02*
X186391139Y-93854619D01*
X186391139Y-93854619D02*
X186533996Y-93902238D01*
X186533996Y-93902238D02*
X186581615Y-93949857D01*
X112602568Y-51784619D02*
X112602568Y-50784619D01*
X112602568Y-50784619D02*
X112983520Y-50784619D01*
X112983520Y-50784619D02*
X113078758Y-50832238D01*
X113078758Y-50832238D02*
X113126377Y-50879857D01*
X113126377Y-50879857D02*
X113173996Y-50975095D01*
X113173996Y-50975095D02*
X113173996Y-51117952D01*
X113173996Y-51117952D02*
X113126377Y-51213190D01*
X113126377Y-51213190D02*
X113078758Y-51260809D01*
X113078758Y-51260809D02*
X112983520Y-51308428D01*
X112983520Y-51308428D02*
X112602568Y-51308428D01*
X114173996Y-51689380D02*
X114126377Y-51737000D01*
X114126377Y-51737000D02*
X113983520Y-51784619D01*
X113983520Y-51784619D02*
X113888282Y-51784619D01*
X113888282Y-51784619D02*
X113745425Y-51737000D01*
X113745425Y-51737000D02*
X113650187Y-51641761D01*
X113650187Y-51641761D02*
X113602568Y-51546523D01*
X113602568Y-51546523D02*
X113554949Y-51356047D01*
X113554949Y-51356047D02*
X113554949Y-51213190D01*
X113554949Y-51213190D02*
X113602568Y-51022714D01*
X113602568Y-51022714D02*
X113650187Y-50927476D01*
X113650187Y-50927476D02*
X113745425Y-50832238D01*
X113745425Y-50832238D02*
X113888282Y-50784619D01*
X113888282Y-50784619D02*
X113983520Y-50784619D01*
X113983520Y-50784619D02*
X114126377Y-50832238D01*
X114126377Y-50832238D02*
X114173996Y-50879857D01*
X115126377Y-51784619D02*
X114554949Y-51784619D01*
X114840663Y-51784619D02*
X114840663Y-50784619D01*
X114840663Y-50784619D02*
X114745425Y-50927476D01*
X114745425Y-50927476D02*
X114650187Y-51022714D01*
X114650187Y-51022714D02*
X114554949Y-51070333D01*
X115745425Y-50784619D02*
X115840663Y-50784619D01*
X115840663Y-50784619D02*
X115935901Y-50832238D01*
X115935901Y-50832238D02*
X115983520Y-50879857D01*
X115983520Y-50879857D02*
X116031139Y-50975095D01*
X116031139Y-50975095D02*
X116078758Y-51165571D01*
X116078758Y-51165571D02*
X116078758Y-51403666D01*
X116078758Y-51403666D02*
X116031139Y-51594142D01*
X116031139Y-51594142D02*
X115983520Y-51689380D01*
X115983520Y-51689380D02*
X115935901Y-51737000D01*
X115935901Y-51737000D02*
X115840663Y-51784619D01*
X115840663Y-51784619D02*
X115745425Y-51784619D01*
X115745425Y-51784619D02*
X115650187Y-51737000D01*
X115650187Y-51737000D02*
X115602568Y-51689380D01*
X115602568Y-51689380D02*
X115554949Y-51594142D01*
X115554949Y-51594142D02*
X115507330Y-51403666D01*
X115507330Y-51403666D02*
X115507330Y-51165571D01*
X115507330Y-51165571D02*
X115554949Y-50975095D01*
X115554949Y-50975095D02*
X115602568Y-50879857D01*
X115602568Y-50879857D02*
X115650187Y-50832238D01*
X115650187Y-50832238D02*
X115745425Y-50784619D01*
X184962568Y-61684619D02*
X184962568Y-60684619D01*
X184962568Y-60684619D02*
X185533996Y-61684619D01*
X185533996Y-61684619D02*
X185533996Y-60684619D01*
X186581615Y-61589380D02*
X186533996Y-61637000D01*
X186533996Y-61637000D02*
X186391139Y-61684619D01*
X186391139Y-61684619D02*
X186295901Y-61684619D01*
X186295901Y-61684619D02*
X186153044Y-61637000D01*
X186153044Y-61637000D02*
X186057806Y-61541761D01*
X186057806Y-61541761D02*
X186010187Y-61446523D01*
X186010187Y-61446523D02*
X185962568Y-61256047D01*
X185962568Y-61256047D02*
X185962568Y-61113190D01*
X185962568Y-61113190D02*
X186010187Y-60922714D01*
X186010187Y-60922714D02*
X186057806Y-60827476D01*
X186057806Y-60827476D02*
X186153044Y-60732238D01*
X186153044Y-60732238D02*
X186295901Y-60684619D01*
X186295901Y-60684619D02*
X186391139Y-60684619D01*
X186391139Y-60684619D02*
X186533996Y-60732238D01*
X186533996Y-60732238D02*
X186581615Y-60779857D01*
X184962568Y-51744619D02*
X184962568Y-50744619D01*
X184962568Y-50744619D02*
X185343520Y-50744619D01*
X185343520Y-50744619D02*
X185438758Y-50792238D01*
X185438758Y-50792238D02*
X185486377Y-50839857D01*
X185486377Y-50839857D02*
X185533996Y-50935095D01*
X185533996Y-50935095D02*
X185533996Y-51077952D01*
X185533996Y-51077952D02*
X185486377Y-51173190D01*
X185486377Y-51173190D02*
X185438758Y-51220809D01*
X185438758Y-51220809D02*
X185343520Y-51268428D01*
X185343520Y-51268428D02*
X184962568Y-51268428D01*
X186533996Y-51649380D02*
X186486377Y-51697000D01*
X186486377Y-51697000D02*
X186343520Y-51744619D01*
X186343520Y-51744619D02*
X186248282Y-51744619D01*
X186248282Y-51744619D02*
X186105425Y-51697000D01*
X186105425Y-51697000D02*
X186010187Y-51601761D01*
X186010187Y-51601761D02*
X185962568Y-51506523D01*
X185962568Y-51506523D02*
X185914949Y-51316047D01*
X185914949Y-51316047D02*
X185914949Y-51173190D01*
X185914949Y-51173190D02*
X185962568Y-50982714D01*
X185962568Y-50982714D02*
X186010187Y-50887476D01*
X186010187Y-50887476D02*
X186105425Y-50792238D01*
X186105425Y-50792238D02*
X186248282Y-50744619D01*
X186248282Y-50744619D02*
X186343520Y-50744619D01*
X186343520Y-50744619D02*
X186486377Y-50792238D01*
X186486377Y-50792238D02*
X186533996Y-50839857D01*
X187105425Y-51173190D02*
X187010187Y-51125571D01*
X187010187Y-51125571D02*
X186962568Y-51077952D01*
X186962568Y-51077952D02*
X186914949Y-50982714D01*
X186914949Y-50982714D02*
X186914949Y-50935095D01*
X186914949Y-50935095D02*
X186962568Y-50839857D01*
X186962568Y-50839857D02*
X187010187Y-50792238D01*
X187010187Y-50792238D02*
X187105425Y-50744619D01*
X187105425Y-50744619D02*
X187295901Y-50744619D01*
X187295901Y-50744619D02*
X187391139Y-50792238D01*
X187391139Y-50792238D02*
X187438758Y-50839857D01*
X187438758Y-50839857D02*
X187486377Y-50935095D01*
X187486377Y-50935095D02*
X187486377Y-50982714D01*
X187486377Y-50982714D02*
X187438758Y-51077952D01*
X187438758Y-51077952D02*
X187391139Y-51125571D01*
X187391139Y-51125571D02*
X187295901Y-51173190D01*
X187295901Y-51173190D02*
X187105425Y-51173190D01*
X187105425Y-51173190D02*
X187010187Y-51220809D01*
X187010187Y-51220809D02*
X186962568Y-51268428D01*
X186962568Y-51268428D02*
X186914949Y-51363666D01*
X186914949Y-51363666D02*
X186914949Y-51554142D01*
X186914949Y-51554142D02*
X186962568Y-51649380D01*
X186962568Y-51649380D02*
X187010187Y-51697000D01*
X187010187Y-51697000D02*
X187105425Y-51744619D01*
X187105425Y-51744619D02*
X187295901Y-51744619D01*
X187295901Y-51744619D02*
X187391139Y-51697000D01*
X187391139Y-51697000D02*
X187438758Y-51649380D01*
X187438758Y-51649380D02*
X187486377Y-51554142D01*
X187486377Y-51554142D02*
X187486377Y-51363666D01*
X187486377Y-51363666D02*
X187438758Y-51268428D01*
X187438758Y-51268428D02*
X187391139Y-51220809D01*
X187391139Y-51220809D02*
X187295901Y-51173190D01*
X124182568Y-71723666D02*
X124944473Y-71723666D01*
X124563520Y-72104619D02*
X124563520Y-71342714D01*
X125896853Y-71104619D02*
X125420663Y-71104619D01*
X125420663Y-71104619D02*
X125373044Y-71580809D01*
X125373044Y-71580809D02*
X125420663Y-71533190D01*
X125420663Y-71533190D02*
X125515901Y-71485571D01*
X125515901Y-71485571D02*
X125753996Y-71485571D01*
X125753996Y-71485571D02*
X125849234Y-71533190D01*
X125849234Y-71533190D02*
X125896853Y-71580809D01*
X125896853Y-71580809D02*
X125944472Y-71676047D01*
X125944472Y-71676047D02*
X125944472Y-71914142D01*
X125944472Y-71914142D02*
X125896853Y-72009380D01*
X125896853Y-72009380D02*
X125849234Y-72057000D01*
X125849234Y-72057000D02*
X125753996Y-72104619D01*
X125753996Y-72104619D02*
X125515901Y-72104619D01*
X125515901Y-72104619D02*
X125420663Y-72057000D01*
X125420663Y-72057000D02*
X125373044Y-72009380D01*
X126230187Y-71104619D02*
X126563520Y-72104619D01*
X126563520Y-72104619D02*
X126896853Y-71104619D01*
X124706377Y-76232238D02*
X124611139Y-76184619D01*
X124611139Y-76184619D02*
X124468282Y-76184619D01*
X124468282Y-76184619D02*
X124325425Y-76232238D01*
X124325425Y-76232238D02*
X124230187Y-76327476D01*
X124230187Y-76327476D02*
X124182568Y-76422714D01*
X124182568Y-76422714D02*
X124134949Y-76613190D01*
X124134949Y-76613190D02*
X124134949Y-76756047D01*
X124134949Y-76756047D02*
X124182568Y-76946523D01*
X124182568Y-76946523D02*
X124230187Y-77041761D01*
X124230187Y-77041761D02*
X124325425Y-77137000D01*
X124325425Y-77137000D02*
X124468282Y-77184619D01*
X124468282Y-77184619D02*
X124563520Y-77184619D01*
X124563520Y-77184619D02*
X124706377Y-77137000D01*
X124706377Y-77137000D02*
X124753996Y-77089380D01*
X124753996Y-77089380D02*
X124753996Y-76756047D01*
X124753996Y-76756047D02*
X124563520Y-76756047D01*
X125182568Y-77184619D02*
X125182568Y-76184619D01*
X125182568Y-76184619D02*
X125753996Y-77184619D01*
X125753996Y-77184619D02*
X125753996Y-76184619D01*
X126230187Y-77184619D02*
X126230187Y-76184619D01*
X126230187Y-76184619D02*
X126468282Y-76184619D01*
X126468282Y-76184619D02*
X126611139Y-76232238D01*
X126611139Y-76232238D02*
X126706377Y-76327476D01*
X126706377Y-76327476D02*
X126753996Y-76422714D01*
X126753996Y-76422714D02*
X126801615Y-76613190D01*
X126801615Y-76613190D02*
X126801615Y-76756047D01*
X126801615Y-76756047D02*
X126753996Y-76946523D01*
X126753996Y-76946523D02*
X126706377Y-77041761D01*
X126706377Y-77041761D02*
X126611139Y-77137000D01*
X126611139Y-77137000D02*
X126468282Y-77184619D01*
X126468282Y-77184619D02*
X126230187Y-77184619D01*
X124039711Y-78694619D02*
X124373044Y-79694619D01*
X124373044Y-79694619D02*
X124706377Y-78694619D01*
X125039711Y-79694619D02*
X125039711Y-78694619D01*
X125515901Y-79694619D02*
X125515901Y-78694619D01*
X125515901Y-78694619D02*
X126087329Y-79694619D01*
X126087329Y-79694619D02*
X126087329Y-78694619D01*
X174565425Y-64214619D02*
X174565425Y-63214619D01*
X174565425Y-63214619D02*
X174946377Y-63214619D01*
X174946377Y-63214619D02*
X175041615Y-63262238D01*
X175041615Y-63262238D02*
X175089234Y-63309857D01*
X175089234Y-63309857D02*
X175136853Y-63405095D01*
X175136853Y-63405095D02*
X175136853Y-63547952D01*
X175136853Y-63547952D02*
X175089234Y-63643190D01*
X175089234Y-63643190D02*
X175041615Y-63690809D01*
X175041615Y-63690809D02*
X174946377Y-63738428D01*
X174946377Y-63738428D02*
X174565425Y-63738428D01*
X175517806Y-63928904D02*
X175993996Y-63928904D01*
X175422568Y-64214619D02*
X175755901Y-63214619D01*
X175755901Y-63214619D02*
X176089234Y-64214619D01*
X176898758Y-63214619D02*
X176422568Y-63214619D01*
X176422568Y-63214619D02*
X176374949Y-63690809D01*
X176374949Y-63690809D02*
X176422568Y-63643190D01*
X176422568Y-63643190D02*
X176517806Y-63595571D01*
X176517806Y-63595571D02*
X176755901Y-63595571D01*
X176755901Y-63595571D02*
X176851139Y-63643190D01*
X176851139Y-63643190D02*
X176898758Y-63690809D01*
X176898758Y-63690809D02*
X176946377Y-63786047D01*
X176946377Y-63786047D02*
X176946377Y-64024142D01*
X176946377Y-64024142D02*
X176898758Y-64119380D01*
X176898758Y-64119380D02*
X176851139Y-64167000D01*
X176851139Y-64167000D02*
X176755901Y-64214619D01*
X176755901Y-64214619D02*
X176517806Y-64214619D01*
X176517806Y-64214619D02*
X176422568Y-64167000D01*
X176422568Y-64167000D02*
X176374949Y-64119380D01*
X112015901Y-58810809D02*
X112158758Y-58858428D01*
X112158758Y-58858428D02*
X112206377Y-58906047D01*
X112206377Y-58906047D02*
X112253996Y-59001285D01*
X112253996Y-59001285D02*
X112253996Y-59144142D01*
X112253996Y-59144142D02*
X112206377Y-59239380D01*
X112206377Y-59239380D02*
X112158758Y-59287000D01*
X112158758Y-59287000D02*
X112063520Y-59334619D01*
X112063520Y-59334619D02*
X111682568Y-59334619D01*
X111682568Y-59334619D02*
X111682568Y-58334619D01*
X111682568Y-58334619D02*
X112015901Y-58334619D01*
X112015901Y-58334619D02*
X112111139Y-58382238D01*
X112111139Y-58382238D02*
X112158758Y-58429857D01*
X112158758Y-58429857D02*
X112206377Y-58525095D01*
X112206377Y-58525095D02*
X112206377Y-58620333D01*
X112206377Y-58620333D02*
X112158758Y-58715571D01*
X112158758Y-58715571D02*
X112111139Y-58763190D01*
X112111139Y-58763190D02*
X112015901Y-58810809D01*
X112015901Y-58810809D02*
X111682568Y-58810809D01*
X112873044Y-58334619D02*
X113063520Y-58334619D01*
X113063520Y-58334619D02*
X113158758Y-58382238D01*
X113158758Y-58382238D02*
X113253996Y-58477476D01*
X113253996Y-58477476D02*
X113301615Y-58667952D01*
X113301615Y-58667952D02*
X113301615Y-59001285D01*
X113301615Y-59001285D02*
X113253996Y-59191761D01*
X113253996Y-59191761D02*
X113158758Y-59287000D01*
X113158758Y-59287000D02*
X113063520Y-59334619D01*
X113063520Y-59334619D02*
X112873044Y-59334619D01*
X112873044Y-59334619D02*
X112777806Y-59287000D01*
X112777806Y-59287000D02*
X112682568Y-59191761D01*
X112682568Y-59191761D02*
X112634949Y-59001285D01*
X112634949Y-59001285D02*
X112634949Y-58667952D01*
X112634949Y-58667952D02*
X112682568Y-58477476D01*
X112682568Y-58477476D02*
X112777806Y-58382238D01*
X112777806Y-58382238D02*
X112873044Y-58334619D01*
X113920663Y-58334619D02*
X114111139Y-58334619D01*
X114111139Y-58334619D02*
X114206377Y-58382238D01*
X114206377Y-58382238D02*
X114301615Y-58477476D01*
X114301615Y-58477476D02*
X114349234Y-58667952D01*
X114349234Y-58667952D02*
X114349234Y-59001285D01*
X114349234Y-59001285D02*
X114301615Y-59191761D01*
X114301615Y-59191761D02*
X114206377Y-59287000D01*
X114206377Y-59287000D02*
X114111139Y-59334619D01*
X114111139Y-59334619D02*
X113920663Y-59334619D01*
X113920663Y-59334619D02*
X113825425Y-59287000D01*
X113825425Y-59287000D02*
X113730187Y-59191761D01*
X113730187Y-59191761D02*
X113682568Y-59001285D01*
X113682568Y-59001285D02*
X113682568Y-58667952D01*
X113682568Y-58667952D02*
X113730187Y-58477476D01*
X113730187Y-58477476D02*
X113825425Y-58382238D01*
X113825425Y-58382238D02*
X113920663Y-58334619D01*
X114634949Y-58334619D02*
X115206377Y-58334619D01*
X114920663Y-59334619D02*
X114920663Y-58334619D01*
X115730187Y-58334619D02*
X115825425Y-58334619D01*
X115825425Y-58334619D02*
X115920663Y-58382238D01*
X115920663Y-58382238D02*
X115968282Y-58429857D01*
X115968282Y-58429857D02*
X116015901Y-58525095D01*
X116015901Y-58525095D02*
X116063520Y-58715571D01*
X116063520Y-58715571D02*
X116063520Y-58953666D01*
X116063520Y-58953666D02*
X116015901Y-59144142D01*
X116015901Y-59144142D02*
X115968282Y-59239380D01*
X115968282Y-59239380D02*
X115920663Y-59287000D01*
X115920663Y-59287000D02*
X115825425Y-59334619D01*
X115825425Y-59334619D02*
X115730187Y-59334619D01*
X115730187Y-59334619D02*
X115634949Y-59287000D01*
X115634949Y-59287000D02*
X115587330Y-59239380D01*
X115587330Y-59239380D02*
X115539711Y-59144142D01*
X115539711Y-59144142D02*
X115492092Y-58953666D01*
X115492092Y-58953666D02*
X115492092Y-58715571D01*
X115492092Y-58715571D02*
X115539711Y-58525095D01*
X115539711Y-58525095D02*
X115587330Y-58429857D01*
X115587330Y-58429857D02*
X115634949Y-58382238D01*
X115634949Y-58382238D02*
X115730187Y-58334619D01*
X112745425Y-69404619D02*
X112745425Y-68404619D01*
X112745425Y-68404619D02*
X113126377Y-68404619D01*
X113126377Y-68404619D02*
X113221615Y-68452238D01*
X113221615Y-68452238D02*
X113269234Y-68499857D01*
X113269234Y-68499857D02*
X113316853Y-68595095D01*
X113316853Y-68595095D02*
X113316853Y-68737952D01*
X113316853Y-68737952D02*
X113269234Y-68833190D01*
X113269234Y-68833190D02*
X113221615Y-68880809D01*
X113221615Y-68880809D02*
X113126377Y-68928428D01*
X113126377Y-68928428D02*
X112745425Y-68928428D01*
X113697806Y-69118904D02*
X114173996Y-69118904D01*
X113602568Y-69404619D02*
X113935901Y-68404619D01*
X113935901Y-68404619D02*
X114269234Y-69404619D01*
X115126377Y-69404619D02*
X114554949Y-69404619D01*
X114840663Y-69404619D02*
X114840663Y-68404619D01*
X114840663Y-68404619D02*
X114745425Y-68547476D01*
X114745425Y-68547476D02*
X114650187Y-68642714D01*
X114650187Y-68642714D02*
X114554949Y-68690333D01*
X115983520Y-68737952D02*
X115983520Y-69404619D01*
X115745425Y-68357000D02*
X115507330Y-69071285D01*
X115507330Y-69071285D02*
X116126377Y-69071285D01*
X174422568Y-74414619D02*
X174422568Y-73414619D01*
X174422568Y-73414619D02*
X174803520Y-73414619D01*
X174803520Y-73414619D02*
X174898758Y-73462238D01*
X174898758Y-73462238D02*
X174946377Y-73509857D01*
X174946377Y-73509857D02*
X174993996Y-73605095D01*
X174993996Y-73605095D02*
X174993996Y-73747952D01*
X174993996Y-73747952D02*
X174946377Y-73843190D01*
X174946377Y-73843190D02*
X174898758Y-73890809D01*
X174898758Y-73890809D02*
X174803520Y-73938428D01*
X174803520Y-73938428D02*
X174422568Y-73938428D01*
X175993996Y-74319380D02*
X175946377Y-74367000D01*
X175946377Y-74367000D02*
X175803520Y-74414619D01*
X175803520Y-74414619D02*
X175708282Y-74414619D01*
X175708282Y-74414619D02*
X175565425Y-74367000D01*
X175565425Y-74367000D02*
X175470187Y-74271761D01*
X175470187Y-74271761D02*
X175422568Y-74176523D01*
X175422568Y-74176523D02*
X175374949Y-73986047D01*
X175374949Y-73986047D02*
X175374949Y-73843190D01*
X175374949Y-73843190D02*
X175422568Y-73652714D01*
X175422568Y-73652714D02*
X175470187Y-73557476D01*
X175470187Y-73557476D02*
X175565425Y-73462238D01*
X175565425Y-73462238D02*
X175708282Y-73414619D01*
X175708282Y-73414619D02*
X175803520Y-73414619D01*
X175803520Y-73414619D02*
X175946377Y-73462238D01*
X175946377Y-73462238D02*
X175993996Y-73509857D01*
X176327330Y-73414619D02*
X176993996Y-73414619D01*
X176993996Y-73414619D02*
X176565425Y-74414619D01*
X112602568Y-54164619D02*
X112602568Y-53164619D01*
X112602568Y-53164619D02*
X112983520Y-53164619D01*
X112983520Y-53164619D02*
X113078758Y-53212238D01*
X113078758Y-53212238D02*
X113126377Y-53259857D01*
X113126377Y-53259857D02*
X113173996Y-53355095D01*
X113173996Y-53355095D02*
X113173996Y-53497952D01*
X113173996Y-53497952D02*
X113126377Y-53593190D01*
X113126377Y-53593190D02*
X113078758Y-53640809D01*
X113078758Y-53640809D02*
X112983520Y-53688428D01*
X112983520Y-53688428D02*
X112602568Y-53688428D01*
X114173996Y-54069380D02*
X114126377Y-54117000D01*
X114126377Y-54117000D02*
X113983520Y-54164619D01*
X113983520Y-54164619D02*
X113888282Y-54164619D01*
X113888282Y-54164619D02*
X113745425Y-54117000D01*
X113745425Y-54117000D02*
X113650187Y-54021761D01*
X113650187Y-54021761D02*
X113602568Y-53926523D01*
X113602568Y-53926523D02*
X113554949Y-53736047D01*
X113554949Y-53736047D02*
X113554949Y-53593190D01*
X113554949Y-53593190D02*
X113602568Y-53402714D01*
X113602568Y-53402714D02*
X113650187Y-53307476D01*
X113650187Y-53307476D02*
X113745425Y-53212238D01*
X113745425Y-53212238D02*
X113888282Y-53164619D01*
X113888282Y-53164619D02*
X113983520Y-53164619D01*
X113983520Y-53164619D02*
X114126377Y-53212238D01*
X114126377Y-53212238D02*
X114173996Y-53259857D01*
X115126377Y-54164619D02*
X114554949Y-54164619D01*
X114840663Y-54164619D02*
X114840663Y-53164619D01*
X114840663Y-53164619D02*
X114745425Y-53307476D01*
X114745425Y-53307476D02*
X114650187Y-53402714D01*
X114650187Y-53402714D02*
X114554949Y-53450333D01*
X115507330Y-53259857D02*
X115554949Y-53212238D01*
X115554949Y-53212238D02*
X115650187Y-53164619D01*
X115650187Y-53164619D02*
X115888282Y-53164619D01*
X115888282Y-53164619D02*
X115983520Y-53212238D01*
X115983520Y-53212238D02*
X116031139Y-53259857D01*
X116031139Y-53259857D02*
X116078758Y-53355095D01*
X116078758Y-53355095D02*
X116078758Y-53450333D01*
X116078758Y-53450333D02*
X116031139Y-53593190D01*
X116031139Y-53593190D02*
X115459711Y-54164619D01*
X115459711Y-54164619D02*
X116078758Y-54164619D01*
X184962568Y-77214619D02*
X184962568Y-76214619D01*
X184962568Y-76214619D02*
X185343520Y-76214619D01*
X185343520Y-76214619D02*
X185438758Y-76262238D01*
X185438758Y-76262238D02*
X185486377Y-76309857D01*
X185486377Y-76309857D02*
X185533996Y-76405095D01*
X185533996Y-76405095D02*
X185533996Y-76547952D01*
X185533996Y-76547952D02*
X185486377Y-76643190D01*
X185486377Y-76643190D02*
X185438758Y-76690809D01*
X185438758Y-76690809D02*
X185343520Y-76738428D01*
X185343520Y-76738428D02*
X184962568Y-76738428D01*
X186295901Y-76690809D02*
X186438758Y-76738428D01*
X186438758Y-76738428D02*
X186486377Y-76786047D01*
X186486377Y-76786047D02*
X186533996Y-76881285D01*
X186533996Y-76881285D02*
X186533996Y-77024142D01*
X186533996Y-77024142D02*
X186486377Y-77119380D01*
X186486377Y-77119380D02*
X186438758Y-77167000D01*
X186438758Y-77167000D02*
X186343520Y-77214619D01*
X186343520Y-77214619D02*
X185962568Y-77214619D01*
X185962568Y-77214619D02*
X185962568Y-76214619D01*
X185962568Y-76214619D02*
X186295901Y-76214619D01*
X186295901Y-76214619D02*
X186391139Y-76262238D01*
X186391139Y-76262238D02*
X186438758Y-76309857D01*
X186438758Y-76309857D02*
X186486377Y-76405095D01*
X186486377Y-76405095D02*
X186486377Y-76500333D01*
X186486377Y-76500333D02*
X186438758Y-76595571D01*
X186438758Y-76595571D02*
X186391139Y-76643190D01*
X186391139Y-76643190D02*
X186295901Y-76690809D01*
X186295901Y-76690809D02*
X185962568Y-76690809D01*
X186914949Y-76309857D02*
X186962568Y-76262238D01*
X186962568Y-76262238D02*
X187057806Y-76214619D01*
X187057806Y-76214619D02*
X187295901Y-76214619D01*
X187295901Y-76214619D02*
X187391139Y-76262238D01*
X187391139Y-76262238D02*
X187438758Y-76309857D01*
X187438758Y-76309857D02*
X187486377Y-76405095D01*
X187486377Y-76405095D02*
X187486377Y-76500333D01*
X187486377Y-76500333D02*
X187438758Y-76643190D01*
X187438758Y-76643190D02*
X186867330Y-77214619D01*
X186867330Y-77214619D02*
X187486377Y-77214619D01*
X114452568Y-64274619D02*
X114452568Y-63274619D01*
X114452568Y-63274619D02*
X115023996Y-64274619D01*
X115023996Y-64274619D02*
X115023996Y-63274619D01*
X116071615Y-64179380D02*
X116023996Y-64227000D01*
X116023996Y-64227000D02*
X115881139Y-64274619D01*
X115881139Y-64274619D02*
X115785901Y-64274619D01*
X115785901Y-64274619D02*
X115643044Y-64227000D01*
X115643044Y-64227000D02*
X115547806Y-64131761D01*
X115547806Y-64131761D02*
X115500187Y-64036523D01*
X115500187Y-64036523D02*
X115452568Y-63846047D01*
X115452568Y-63846047D02*
X115452568Y-63703190D01*
X115452568Y-63703190D02*
X115500187Y-63512714D01*
X115500187Y-63512714D02*
X115547806Y-63417476D01*
X115547806Y-63417476D02*
X115643044Y-63322238D01*
X115643044Y-63322238D02*
X115785901Y-63274619D01*
X115785901Y-63274619D02*
X115881139Y-63274619D01*
X115881139Y-63274619D02*
X116023996Y-63322238D01*
X116023996Y-63322238D02*
X116071615Y-63369857D01*
X184962568Y-64394619D02*
X184962568Y-63394619D01*
X184962568Y-63394619D02*
X185343520Y-63394619D01*
X185343520Y-63394619D02*
X185438758Y-63442238D01*
X185438758Y-63442238D02*
X185486377Y-63489857D01*
X185486377Y-63489857D02*
X185533996Y-63585095D01*
X185533996Y-63585095D02*
X185533996Y-63727952D01*
X185533996Y-63727952D02*
X185486377Y-63823190D01*
X185486377Y-63823190D02*
X185438758Y-63870809D01*
X185438758Y-63870809D02*
X185343520Y-63918428D01*
X185343520Y-63918428D02*
X184962568Y-63918428D01*
X185914949Y-64108904D02*
X186391139Y-64108904D01*
X185819711Y-64394619D02*
X186153044Y-63394619D01*
X186153044Y-63394619D02*
X186486377Y-64394619D01*
X187343520Y-64394619D02*
X186772092Y-64394619D01*
X187057806Y-64394619D02*
X187057806Y-63394619D01*
X187057806Y-63394619D02*
X186962568Y-63537476D01*
X186962568Y-63537476D02*
X186867330Y-63632714D01*
X186867330Y-63632714D02*
X186772092Y-63680333D01*
X187724473Y-63489857D02*
X187772092Y-63442238D01*
X187772092Y-63442238D02*
X187867330Y-63394619D01*
X187867330Y-63394619D02*
X188105425Y-63394619D01*
X188105425Y-63394619D02*
X188200663Y-63442238D01*
X188200663Y-63442238D02*
X188248282Y-63489857D01*
X188248282Y-63489857D02*
X188295901Y-63585095D01*
X188295901Y-63585095D02*
X188295901Y-63680333D01*
X188295901Y-63680333D02*
X188248282Y-63823190D01*
X188248282Y-63823190D02*
X187676854Y-64394619D01*
X187676854Y-64394619D02*
X188295901Y-64394619D01*
X184962568Y-66914619D02*
X184962568Y-65914619D01*
X184962568Y-65914619D02*
X185343520Y-65914619D01*
X185343520Y-65914619D02*
X185438758Y-65962238D01*
X185438758Y-65962238D02*
X185486377Y-66009857D01*
X185486377Y-66009857D02*
X185533996Y-66105095D01*
X185533996Y-66105095D02*
X185533996Y-66247952D01*
X185533996Y-66247952D02*
X185486377Y-66343190D01*
X185486377Y-66343190D02*
X185438758Y-66390809D01*
X185438758Y-66390809D02*
X185343520Y-66438428D01*
X185343520Y-66438428D02*
X184962568Y-66438428D01*
X185914949Y-66628904D02*
X186391139Y-66628904D01*
X185819711Y-66914619D02*
X186153044Y-65914619D01*
X186153044Y-65914619D02*
X186486377Y-66914619D01*
X187343520Y-66914619D02*
X186772092Y-66914619D01*
X187057806Y-66914619D02*
X187057806Y-65914619D01*
X187057806Y-65914619D02*
X186962568Y-66057476D01*
X186962568Y-66057476D02*
X186867330Y-66152714D01*
X186867330Y-66152714D02*
X186772092Y-66200333D01*
X188295901Y-66914619D02*
X187724473Y-66914619D01*
X188010187Y-66914619D02*
X188010187Y-65914619D01*
X188010187Y-65914619D02*
X187914949Y-66057476D01*
X187914949Y-66057476D02*
X187819711Y-66152714D01*
X187819711Y-66152714D02*
X187724473Y-66200333D01*
X184962568Y-54154619D02*
X184962568Y-53154619D01*
X184962568Y-53154619D02*
X185343520Y-53154619D01*
X185343520Y-53154619D02*
X185438758Y-53202238D01*
X185438758Y-53202238D02*
X185486377Y-53249857D01*
X185486377Y-53249857D02*
X185533996Y-53345095D01*
X185533996Y-53345095D02*
X185533996Y-53487952D01*
X185533996Y-53487952D02*
X185486377Y-53583190D01*
X185486377Y-53583190D02*
X185438758Y-53630809D01*
X185438758Y-53630809D02*
X185343520Y-53678428D01*
X185343520Y-53678428D02*
X184962568Y-53678428D01*
X186533996Y-54059380D02*
X186486377Y-54107000D01*
X186486377Y-54107000D02*
X186343520Y-54154619D01*
X186343520Y-54154619D02*
X186248282Y-54154619D01*
X186248282Y-54154619D02*
X186105425Y-54107000D01*
X186105425Y-54107000D02*
X186010187Y-54011761D01*
X186010187Y-54011761D02*
X185962568Y-53916523D01*
X185962568Y-53916523D02*
X185914949Y-53726047D01*
X185914949Y-53726047D02*
X185914949Y-53583190D01*
X185914949Y-53583190D02*
X185962568Y-53392714D01*
X185962568Y-53392714D02*
X186010187Y-53297476D01*
X186010187Y-53297476D02*
X186105425Y-53202238D01*
X186105425Y-53202238D02*
X186248282Y-53154619D01*
X186248282Y-53154619D02*
X186343520Y-53154619D01*
X186343520Y-53154619D02*
X186486377Y-53202238D01*
X186486377Y-53202238D02*
X186533996Y-53249857D01*
X187391139Y-53154619D02*
X187200663Y-53154619D01*
X187200663Y-53154619D02*
X187105425Y-53202238D01*
X187105425Y-53202238D02*
X187057806Y-53249857D01*
X187057806Y-53249857D02*
X186962568Y-53392714D01*
X186962568Y-53392714D02*
X186914949Y-53583190D01*
X186914949Y-53583190D02*
X186914949Y-53964142D01*
X186914949Y-53964142D02*
X186962568Y-54059380D01*
X186962568Y-54059380D02*
X187010187Y-54107000D01*
X187010187Y-54107000D02*
X187105425Y-54154619D01*
X187105425Y-54154619D02*
X187295901Y-54154619D01*
X187295901Y-54154619D02*
X187391139Y-54107000D01*
X187391139Y-54107000D02*
X187438758Y-54059380D01*
X187438758Y-54059380D02*
X187486377Y-53964142D01*
X187486377Y-53964142D02*
X187486377Y-53726047D01*
X187486377Y-53726047D02*
X187438758Y-53630809D01*
X187438758Y-53630809D02*
X187391139Y-53583190D01*
X187391139Y-53583190D02*
X187295901Y-53535571D01*
X187295901Y-53535571D02*
X187105425Y-53535571D01*
X187105425Y-53535571D02*
X187010187Y-53583190D01*
X187010187Y-53583190D02*
X186962568Y-53630809D01*
X186962568Y-53630809D02*
X186914949Y-53726047D01*
X112602568Y-79684619D02*
X112602568Y-78684619D01*
X112602568Y-78684619D02*
X112983520Y-78684619D01*
X112983520Y-78684619D02*
X113078758Y-78732238D01*
X113078758Y-78732238D02*
X113126377Y-78779857D01*
X113126377Y-78779857D02*
X113173996Y-78875095D01*
X113173996Y-78875095D02*
X113173996Y-79017952D01*
X113173996Y-79017952D02*
X113126377Y-79113190D01*
X113126377Y-79113190D02*
X113078758Y-79160809D01*
X113078758Y-79160809D02*
X112983520Y-79208428D01*
X112983520Y-79208428D02*
X112602568Y-79208428D01*
X114173996Y-79589380D02*
X114126377Y-79637000D01*
X114126377Y-79637000D02*
X113983520Y-79684619D01*
X113983520Y-79684619D02*
X113888282Y-79684619D01*
X113888282Y-79684619D02*
X113745425Y-79637000D01*
X113745425Y-79637000D02*
X113650187Y-79541761D01*
X113650187Y-79541761D02*
X113602568Y-79446523D01*
X113602568Y-79446523D02*
X113554949Y-79256047D01*
X113554949Y-79256047D02*
X113554949Y-79113190D01*
X113554949Y-79113190D02*
X113602568Y-78922714D01*
X113602568Y-78922714D02*
X113650187Y-78827476D01*
X113650187Y-78827476D02*
X113745425Y-78732238D01*
X113745425Y-78732238D02*
X113888282Y-78684619D01*
X113888282Y-78684619D02*
X113983520Y-78684619D01*
X113983520Y-78684619D02*
X114126377Y-78732238D01*
X114126377Y-78732238D02*
X114173996Y-78779857D01*
X115126377Y-79684619D02*
X114554949Y-79684619D01*
X114840663Y-79684619D02*
X114840663Y-78684619D01*
X114840663Y-78684619D02*
X114745425Y-78827476D01*
X114745425Y-78827476D02*
X114650187Y-78922714D01*
X114650187Y-78922714D02*
X114554949Y-78970333D01*
X115459711Y-78684619D02*
X116078758Y-78684619D01*
X116078758Y-78684619D02*
X115745425Y-79065571D01*
X115745425Y-79065571D02*
X115888282Y-79065571D01*
X115888282Y-79065571D02*
X115983520Y-79113190D01*
X115983520Y-79113190D02*
X116031139Y-79160809D01*
X116031139Y-79160809D02*
X116078758Y-79256047D01*
X116078758Y-79256047D02*
X116078758Y-79494142D01*
X116078758Y-79494142D02*
X116031139Y-79589380D01*
X116031139Y-79589380D02*
X115983520Y-79637000D01*
X115983520Y-79637000D02*
X115888282Y-79684619D01*
X115888282Y-79684619D02*
X115602568Y-79684619D01*
X115602568Y-79684619D02*
X115507330Y-79637000D01*
X115507330Y-79637000D02*
X115459711Y-79589380D01*
X174422568Y-71894619D02*
X174422568Y-70894619D01*
X174422568Y-70894619D02*
X174803520Y-70894619D01*
X174803520Y-70894619D02*
X174898758Y-70942238D01*
X174898758Y-70942238D02*
X174946377Y-70989857D01*
X174946377Y-70989857D02*
X174993996Y-71085095D01*
X174993996Y-71085095D02*
X174993996Y-71227952D01*
X174993996Y-71227952D02*
X174946377Y-71323190D01*
X174946377Y-71323190D02*
X174898758Y-71370809D01*
X174898758Y-71370809D02*
X174803520Y-71418428D01*
X174803520Y-71418428D02*
X174422568Y-71418428D01*
X175755901Y-71370809D02*
X175898758Y-71418428D01*
X175898758Y-71418428D02*
X175946377Y-71466047D01*
X175946377Y-71466047D02*
X175993996Y-71561285D01*
X175993996Y-71561285D02*
X175993996Y-71704142D01*
X175993996Y-71704142D02*
X175946377Y-71799380D01*
X175946377Y-71799380D02*
X175898758Y-71847000D01*
X175898758Y-71847000D02*
X175803520Y-71894619D01*
X175803520Y-71894619D02*
X175422568Y-71894619D01*
X175422568Y-71894619D02*
X175422568Y-70894619D01*
X175422568Y-70894619D02*
X175755901Y-70894619D01*
X175755901Y-70894619D02*
X175851139Y-70942238D01*
X175851139Y-70942238D02*
X175898758Y-70989857D01*
X175898758Y-70989857D02*
X175946377Y-71085095D01*
X175946377Y-71085095D02*
X175946377Y-71180333D01*
X175946377Y-71180333D02*
X175898758Y-71275571D01*
X175898758Y-71275571D02*
X175851139Y-71323190D01*
X175851139Y-71323190D02*
X175755901Y-71370809D01*
X175755901Y-71370809D02*
X175422568Y-71370809D01*
X176851139Y-70894619D02*
X176660663Y-70894619D01*
X176660663Y-70894619D02*
X176565425Y-70942238D01*
X176565425Y-70942238D02*
X176517806Y-70989857D01*
X176517806Y-70989857D02*
X176422568Y-71132714D01*
X176422568Y-71132714D02*
X176374949Y-71323190D01*
X176374949Y-71323190D02*
X176374949Y-71704142D01*
X176374949Y-71704142D02*
X176422568Y-71799380D01*
X176422568Y-71799380D02*
X176470187Y-71847000D01*
X176470187Y-71847000D02*
X176565425Y-71894619D01*
X176565425Y-71894619D02*
X176755901Y-71894619D01*
X176755901Y-71894619D02*
X176851139Y-71847000D01*
X176851139Y-71847000D02*
X176898758Y-71799380D01*
X176898758Y-71799380D02*
X176946377Y-71704142D01*
X176946377Y-71704142D02*
X176946377Y-71466047D01*
X176946377Y-71466047D02*
X176898758Y-71370809D01*
X176898758Y-71370809D02*
X176851139Y-71323190D01*
X176851139Y-71323190D02*
X176755901Y-71275571D01*
X176755901Y-71275571D02*
X176565425Y-71275571D01*
X176565425Y-71275571D02*
X176470187Y-71323190D01*
X176470187Y-71323190D02*
X176422568Y-71370809D01*
X176422568Y-71370809D02*
X176374949Y-71466047D01*
X174422568Y-87094619D02*
X174422568Y-86094619D01*
X174422568Y-86094619D02*
X174803520Y-86094619D01*
X174803520Y-86094619D02*
X174898758Y-86142238D01*
X174898758Y-86142238D02*
X174946377Y-86189857D01*
X174946377Y-86189857D02*
X174993996Y-86285095D01*
X174993996Y-86285095D02*
X174993996Y-86427952D01*
X174993996Y-86427952D02*
X174946377Y-86523190D01*
X174946377Y-86523190D02*
X174898758Y-86570809D01*
X174898758Y-86570809D02*
X174803520Y-86618428D01*
X174803520Y-86618428D02*
X174422568Y-86618428D01*
X175755901Y-86570809D02*
X175898758Y-86618428D01*
X175898758Y-86618428D02*
X175946377Y-86666047D01*
X175946377Y-86666047D02*
X175993996Y-86761285D01*
X175993996Y-86761285D02*
X175993996Y-86904142D01*
X175993996Y-86904142D02*
X175946377Y-86999380D01*
X175946377Y-86999380D02*
X175898758Y-87047000D01*
X175898758Y-87047000D02*
X175803520Y-87094619D01*
X175803520Y-87094619D02*
X175422568Y-87094619D01*
X175422568Y-87094619D02*
X175422568Y-86094619D01*
X175422568Y-86094619D02*
X175755901Y-86094619D01*
X175755901Y-86094619D02*
X175851139Y-86142238D01*
X175851139Y-86142238D02*
X175898758Y-86189857D01*
X175898758Y-86189857D02*
X175946377Y-86285095D01*
X175946377Y-86285095D02*
X175946377Y-86380333D01*
X175946377Y-86380333D02*
X175898758Y-86475571D01*
X175898758Y-86475571D02*
X175851139Y-86523190D01*
X175851139Y-86523190D02*
X175755901Y-86570809D01*
X175755901Y-86570809D02*
X175422568Y-86570809D01*
X176898758Y-86094619D02*
X176422568Y-86094619D01*
X176422568Y-86094619D02*
X176374949Y-86570809D01*
X176374949Y-86570809D02*
X176422568Y-86523190D01*
X176422568Y-86523190D02*
X176517806Y-86475571D01*
X176517806Y-86475571D02*
X176755901Y-86475571D01*
X176755901Y-86475571D02*
X176851139Y-86523190D01*
X176851139Y-86523190D02*
X176898758Y-86570809D01*
X176898758Y-86570809D02*
X176946377Y-86666047D01*
X176946377Y-86666047D02*
X176946377Y-86904142D01*
X176946377Y-86904142D02*
X176898758Y-86999380D01*
X176898758Y-86999380D02*
X176851139Y-87047000D01*
X176851139Y-87047000D02*
X176755901Y-87094619D01*
X176755901Y-87094619D02*
X176517806Y-87094619D01*
X176517806Y-87094619D02*
X176422568Y-87047000D01*
X176422568Y-87047000D02*
X176374949Y-86999380D01*
X174422568Y-89684619D02*
X174422568Y-88684619D01*
X174422568Y-88684619D02*
X174803520Y-88684619D01*
X174803520Y-88684619D02*
X174898758Y-88732238D01*
X174898758Y-88732238D02*
X174946377Y-88779857D01*
X174946377Y-88779857D02*
X174993996Y-88875095D01*
X174993996Y-88875095D02*
X174993996Y-89017952D01*
X174993996Y-89017952D02*
X174946377Y-89113190D01*
X174946377Y-89113190D02*
X174898758Y-89160809D01*
X174898758Y-89160809D02*
X174803520Y-89208428D01*
X174803520Y-89208428D02*
X174422568Y-89208428D01*
X175755901Y-89160809D02*
X175898758Y-89208428D01*
X175898758Y-89208428D02*
X175946377Y-89256047D01*
X175946377Y-89256047D02*
X175993996Y-89351285D01*
X175993996Y-89351285D02*
X175993996Y-89494142D01*
X175993996Y-89494142D02*
X175946377Y-89589380D01*
X175946377Y-89589380D02*
X175898758Y-89637000D01*
X175898758Y-89637000D02*
X175803520Y-89684619D01*
X175803520Y-89684619D02*
X175422568Y-89684619D01*
X175422568Y-89684619D02*
X175422568Y-88684619D01*
X175422568Y-88684619D02*
X175755901Y-88684619D01*
X175755901Y-88684619D02*
X175851139Y-88732238D01*
X175851139Y-88732238D02*
X175898758Y-88779857D01*
X175898758Y-88779857D02*
X175946377Y-88875095D01*
X175946377Y-88875095D02*
X175946377Y-88970333D01*
X175946377Y-88970333D02*
X175898758Y-89065571D01*
X175898758Y-89065571D02*
X175851139Y-89113190D01*
X175851139Y-89113190D02*
X175755901Y-89160809D01*
X175755901Y-89160809D02*
X175422568Y-89160809D01*
X176327330Y-88684619D02*
X176946377Y-88684619D01*
X176946377Y-88684619D02*
X176613044Y-89065571D01*
X176613044Y-89065571D02*
X176755901Y-89065571D01*
X176755901Y-89065571D02*
X176851139Y-89113190D01*
X176851139Y-89113190D02*
X176898758Y-89160809D01*
X176898758Y-89160809D02*
X176946377Y-89256047D01*
X176946377Y-89256047D02*
X176946377Y-89494142D01*
X176946377Y-89494142D02*
X176898758Y-89589380D01*
X176898758Y-89589380D02*
X176851139Y-89637000D01*
X176851139Y-89637000D02*
X176755901Y-89684619D01*
X176755901Y-89684619D02*
X176470187Y-89684619D01*
X176470187Y-89684619D02*
X176374949Y-89637000D01*
X176374949Y-89637000D02*
X176327330Y-89589380D01*
X174565425Y-76994619D02*
X174565425Y-75994619D01*
X174565425Y-75994619D02*
X174946377Y-75994619D01*
X174946377Y-75994619D02*
X175041615Y-76042238D01*
X175041615Y-76042238D02*
X175089234Y-76089857D01*
X175089234Y-76089857D02*
X175136853Y-76185095D01*
X175136853Y-76185095D02*
X175136853Y-76327952D01*
X175136853Y-76327952D02*
X175089234Y-76423190D01*
X175089234Y-76423190D02*
X175041615Y-76470809D01*
X175041615Y-76470809D02*
X174946377Y-76518428D01*
X174946377Y-76518428D02*
X174565425Y-76518428D01*
X175517806Y-76708904D02*
X175993996Y-76708904D01*
X175422568Y-76994619D02*
X175755901Y-75994619D01*
X175755901Y-75994619D02*
X176089234Y-76994619D01*
X176470187Y-76994619D02*
X176660663Y-76994619D01*
X176660663Y-76994619D02*
X176755901Y-76947000D01*
X176755901Y-76947000D02*
X176803520Y-76899380D01*
X176803520Y-76899380D02*
X176898758Y-76756523D01*
X176898758Y-76756523D02*
X176946377Y-76566047D01*
X176946377Y-76566047D02*
X176946377Y-76185095D01*
X176946377Y-76185095D02*
X176898758Y-76089857D01*
X176898758Y-76089857D02*
X176851139Y-76042238D01*
X176851139Y-76042238D02*
X176755901Y-75994619D01*
X176755901Y-75994619D02*
X176565425Y-75994619D01*
X176565425Y-75994619D02*
X176470187Y-76042238D01*
X176470187Y-76042238D02*
X176422568Y-76089857D01*
X176422568Y-76089857D02*
X176374949Y-76185095D01*
X176374949Y-76185095D02*
X176374949Y-76423190D01*
X176374949Y-76423190D02*
X176422568Y-76518428D01*
X176422568Y-76518428D02*
X176470187Y-76566047D01*
X176470187Y-76566047D02*
X176565425Y-76613666D01*
X176565425Y-76613666D02*
X176755901Y-76613666D01*
X176755901Y-76613666D02*
X176851139Y-76566047D01*
X176851139Y-76566047D02*
X176898758Y-76518428D01*
X176898758Y-76518428D02*
X176946377Y-76423190D01*
X184962568Y-82204619D02*
X184962568Y-81204619D01*
X184962568Y-81204619D02*
X185343520Y-81204619D01*
X185343520Y-81204619D02*
X185438758Y-81252238D01*
X185438758Y-81252238D02*
X185486377Y-81299857D01*
X185486377Y-81299857D02*
X185533996Y-81395095D01*
X185533996Y-81395095D02*
X185533996Y-81537952D01*
X185533996Y-81537952D02*
X185486377Y-81633190D01*
X185486377Y-81633190D02*
X185438758Y-81680809D01*
X185438758Y-81680809D02*
X185343520Y-81728428D01*
X185343520Y-81728428D02*
X184962568Y-81728428D01*
X186295901Y-81680809D02*
X186438758Y-81728428D01*
X186438758Y-81728428D02*
X186486377Y-81776047D01*
X186486377Y-81776047D02*
X186533996Y-81871285D01*
X186533996Y-81871285D02*
X186533996Y-82014142D01*
X186533996Y-82014142D02*
X186486377Y-82109380D01*
X186486377Y-82109380D02*
X186438758Y-82157000D01*
X186438758Y-82157000D02*
X186343520Y-82204619D01*
X186343520Y-82204619D02*
X185962568Y-82204619D01*
X185962568Y-82204619D02*
X185962568Y-81204619D01*
X185962568Y-81204619D02*
X186295901Y-81204619D01*
X186295901Y-81204619D02*
X186391139Y-81252238D01*
X186391139Y-81252238D02*
X186438758Y-81299857D01*
X186438758Y-81299857D02*
X186486377Y-81395095D01*
X186486377Y-81395095D02*
X186486377Y-81490333D01*
X186486377Y-81490333D02*
X186438758Y-81585571D01*
X186438758Y-81585571D02*
X186391139Y-81633190D01*
X186391139Y-81633190D02*
X186295901Y-81680809D01*
X186295901Y-81680809D02*
X185962568Y-81680809D01*
X187486377Y-82204619D02*
X186914949Y-82204619D01*
X187200663Y-82204619D02*
X187200663Y-81204619D01*
X187200663Y-81204619D02*
X187105425Y-81347476D01*
X187105425Y-81347476D02*
X187010187Y-81442714D01*
X187010187Y-81442714D02*
X186914949Y-81490333D01*
X188391139Y-81204619D02*
X187914949Y-81204619D01*
X187914949Y-81204619D02*
X187867330Y-81680809D01*
X187867330Y-81680809D02*
X187914949Y-81633190D01*
X187914949Y-81633190D02*
X188010187Y-81585571D01*
X188010187Y-81585571D02*
X188248282Y-81585571D01*
X188248282Y-81585571D02*
X188343520Y-81633190D01*
X188343520Y-81633190D02*
X188391139Y-81680809D01*
X188391139Y-81680809D02*
X188438758Y-81776047D01*
X188438758Y-81776047D02*
X188438758Y-82014142D01*
X188438758Y-82014142D02*
X188391139Y-82109380D01*
X188391139Y-82109380D02*
X188343520Y-82157000D01*
X188343520Y-82157000D02*
X188248282Y-82204619D01*
X188248282Y-82204619D02*
X188010187Y-82204619D01*
X188010187Y-82204619D02*
X187914949Y-82157000D01*
X187914949Y-82157000D02*
X187867330Y-82109380D01*
X173470187Y-82034619D02*
X173470187Y-81034619D01*
X173470187Y-81034619D02*
X173851139Y-81034619D01*
X173851139Y-81034619D02*
X173946377Y-81082238D01*
X173946377Y-81082238D02*
X173993996Y-81129857D01*
X173993996Y-81129857D02*
X174041615Y-81225095D01*
X174041615Y-81225095D02*
X174041615Y-81367952D01*
X174041615Y-81367952D02*
X173993996Y-81463190D01*
X173993996Y-81463190D02*
X173946377Y-81510809D01*
X173946377Y-81510809D02*
X173851139Y-81558428D01*
X173851139Y-81558428D02*
X173470187Y-81558428D01*
X174803520Y-81510809D02*
X174946377Y-81558428D01*
X174946377Y-81558428D02*
X174993996Y-81606047D01*
X174993996Y-81606047D02*
X175041615Y-81701285D01*
X175041615Y-81701285D02*
X175041615Y-81844142D01*
X175041615Y-81844142D02*
X174993996Y-81939380D01*
X174993996Y-81939380D02*
X174946377Y-81987000D01*
X174946377Y-81987000D02*
X174851139Y-82034619D01*
X174851139Y-82034619D02*
X174470187Y-82034619D01*
X174470187Y-82034619D02*
X174470187Y-81034619D01*
X174470187Y-81034619D02*
X174803520Y-81034619D01*
X174803520Y-81034619D02*
X174898758Y-81082238D01*
X174898758Y-81082238D02*
X174946377Y-81129857D01*
X174946377Y-81129857D02*
X174993996Y-81225095D01*
X174993996Y-81225095D02*
X174993996Y-81320333D01*
X174993996Y-81320333D02*
X174946377Y-81415571D01*
X174946377Y-81415571D02*
X174898758Y-81463190D01*
X174898758Y-81463190D02*
X174803520Y-81510809D01*
X174803520Y-81510809D02*
X174470187Y-81510809D01*
X175993996Y-82034619D02*
X175422568Y-82034619D01*
X175708282Y-82034619D02*
X175708282Y-81034619D01*
X175708282Y-81034619D02*
X175613044Y-81177476D01*
X175613044Y-81177476D02*
X175517806Y-81272714D01*
X175517806Y-81272714D02*
X175422568Y-81320333D01*
X176613044Y-81034619D02*
X176708282Y-81034619D01*
X176708282Y-81034619D02*
X176803520Y-81082238D01*
X176803520Y-81082238D02*
X176851139Y-81129857D01*
X176851139Y-81129857D02*
X176898758Y-81225095D01*
X176898758Y-81225095D02*
X176946377Y-81415571D01*
X176946377Y-81415571D02*
X176946377Y-81653666D01*
X176946377Y-81653666D02*
X176898758Y-81844142D01*
X176898758Y-81844142D02*
X176851139Y-81939380D01*
X176851139Y-81939380D02*
X176803520Y-81987000D01*
X176803520Y-81987000D02*
X176708282Y-82034619D01*
X176708282Y-82034619D02*
X176613044Y-82034619D01*
X176613044Y-82034619D02*
X176517806Y-81987000D01*
X176517806Y-81987000D02*
X176470187Y-81939380D01*
X176470187Y-81939380D02*
X176422568Y-81844142D01*
X176422568Y-81844142D02*
X176374949Y-81653666D01*
X176374949Y-81653666D02*
X176374949Y-81415571D01*
X176374949Y-81415571D02*
X176422568Y-81225095D01*
X176422568Y-81225095D02*
X176470187Y-81129857D01*
X176470187Y-81129857D02*
X176517806Y-81082238D01*
X176517806Y-81082238D02*
X176613044Y-81034619D01*
X113507330Y-87154619D02*
X113507330Y-86154619D01*
X113507330Y-86154619D02*
X113888282Y-86154619D01*
X113888282Y-86154619D02*
X113983520Y-86202238D01*
X113983520Y-86202238D02*
X114031139Y-86249857D01*
X114031139Y-86249857D02*
X114078758Y-86345095D01*
X114078758Y-86345095D02*
X114078758Y-86487952D01*
X114078758Y-86487952D02*
X114031139Y-86583190D01*
X114031139Y-86583190D02*
X113983520Y-86630809D01*
X113983520Y-86630809D02*
X113888282Y-86678428D01*
X113888282Y-86678428D02*
X113507330Y-86678428D01*
X114507330Y-87154619D02*
X114507330Y-86154619D01*
X114507330Y-86630809D02*
X115078758Y-86630809D01*
X115078758Y-87154619D02*
X115078758Y-86154619D01*
X115745425Y-86154619D02*
X115840663Y-86154619D01*
X115840663Y-86154619D02*
X115935901Y-86202238D01*
X115935901Y-86202238D02*
X115983520Y-86249857D01*
X115983520Y-86249857D02*
X116031139Y-86345095D01*
X116031139Y-86345095D02*
X116078758Y-86535571D01*
X116078758Y-86535571D02*
X116078758Y-86773666D01*
X116078758Y-86773666D02*
X116031139Y-86964142D01*
X116031139Y-86964142D02*
X115983520Y-87059380D01*
X115983520Y-87059380D02*
X115935901Y-87107000D01*
X115935901Y-87107000D02*
X115840663Y-87154619D01*
X115840663Y-87154619D02*
X115745425Y-87154619D01*
X115745425Y-87154619D02*
X115650187Y-87107000D01*
X115650187Y-87107000D02*
X115602568Y-87059380D01*
X115602568Y-87059380D02*
X115554949Y-86964142D01*
X115554949Y-86964142D02*
X115507330Y-86773666D01*
X115507330Y-86773666D02*
X115507330Y-86535571D01*
X115507330Y-86535571D02*
X115554949Y-86345095D01*
X115554949Y-86345095D02*
X115602568Y-86249857D01*
X115602568Y-86249857D02*
X115650187Y-86202238D01*
X115650187Y-86202238D02*
X115745425Y-86154619D01*
X124182568Y-64364619D02*
X124182568Y-63364619D01*
X124849234Y-63364619D02*
X125039710Y-63364619D01*
X125039710Y-63364619D02*
X125134948Y-63412238D01*
X125134948Y-63412238D02*
X125230186Y-63507476D01*
X125230186Y-63507476D02*
X125277805Y-63697952D01*
X125277805Y-63697952D02*
X125277805Y-64031285D01*
X125277805Y-64031285D02*
X125230186Y-64221761D01*
X125230186Y-64221761D02*
X125134948Y-64317000D01*
X125134948Y-64317000D02*
X125039710Y-64364619D01*
X125039710Y-64364619D02*
X124849234Y-64364619D01*
X124849234Y-64364619D02*
X124753996Y-64317000D01*
X124753996Y-64317000D02*
X124658758Y-64221761D01*
X124658758Y-64221761D02*
X124611139Y-64031285D01*
X124611139Y-64031285D02*
X124611139Y-63697952D01*
X124611139Y-63697952D02*
X124658758Y-63507476D01*
X124658758Y-63507476D02*
X124753996Y-63412238D01*
X124753996Y-63412238D02*
X124849234Y-63364619D01*
X126277805Y-64364619D02*
X125944472Y-63888428D01*
X125706377Y-64364619D02*
X125706377Y-63364619D01*
X125706377Y-63364619D02*
X126087329Y-63364619D01*
X126087329Y-63364619D02*
X126182567Y-63412238D01*
X126182567Y-63412238D02*
X126230186Y-63459857D01*
X126230186Y-63459857D02*
X126277805Y-63555095D01*
X126277805Y-63555095D02*
X126277805Y-63697952D01*
X126277805Y-63697952D02*
X126230186Y-63793190D01*
X126230186Y-63793190D02*
X126182567Y-63840809D01*
X126182567Y-63840809D02*
X126087329Y-63888428D01*
X126087329Y-63888428D02*
X125706377Y-63888428D01*
X126706377Y-63840809D02*
X127039710Y-63840809D01*
X127182567Y-64364619D02*
X126706377Y-64364619D01*
X126706377Y-64364619D02*
X126706377Y-63364619D01*
X126706377Y-63364619D02*
X127182567Y-63364619D01*
X127944472Y-63840809D02*
X127611139Y-63840809D01*
X127611139Y-64364619D02*
X127611139Y-63364619D01*
X127611139Y-63364619D02*
X128087329Y-63364619D01*
D16*
X179522343Y-46741368D02*
X179522343Y-47648511D01*
X179522343Y-47648511D02*
X179461866Y-47829939D01*
X179461866Y-47829939D02*
X179340914Y-47950892D01*
X179340914Y-47950892D02*
X179159485Y-48011368D01*
X179159485Y-48011368D02*
X179038533Y-48011368D01*
X180066628Y-46862320D02*
X180127104Y-46801844D01*
X180127104Y-46801844D02*
X180248057Y-46741368D01*
X180248057Y-46741368D02*
X180550438Y-46741368D01*
X180550438Y-46741368D02*
X180671390Y-46801844D01*
X180671390Y-46801844D02*
X180731866Y-46862320D01*
X180731866Y-46862320D02*
X180792343Y-46983272D01*
X180792343Y-46983272D02*
X180792343Y-47104225D01*
X180792343Y-47104225D02*
X180731866Y-47285653D01*
X180731866Y-47285653D02*
X180006152Y-48011368D01*
X180006152Y-48011368D02*
X180792343Y-48011368D01*
X181276152Y-47648511D02*
X181880914Y-47648511D01*
X181155200Y-48011368D02*
X181578533Y-46741368D01*
X181578533Y-46741368D02*
X182001867Y-48011368D01*
X183090438Y-48011368D02*
X182364723Y-48011368D01*
X182727580Y-48011368D02*
X182727580Y-46741368D01*
X182727580Y-46741368D02*
X182606628Y-46922796D01*
X182606628Y-46922796D02*
X182485676Y-47043749D01*
X182485676Y-47043749D02*
X182364723Y-47104225D01*
X184058057Y-47346130D02*
X184239485Y-47406606D01*
X184239485Y-47406606D02*
X184299962Y-47467082D01*
X184299962Y-47467082D02*
X184360438Y-47588034D01*
X184360438Y-47588034D02*
X184360438Y-47769463D01*
X184360438Y-47769463D02*
X184299962Y-47890415D01*
X184299962Y-47890415D02*
X184239485Y-47950892D01*
X184239485Y-47950892D02*
X184118533Y-48011368D01*
X184118533Y-48011368D02*
X183634723Y-48011368D01*
X183634723Y-48011368D02*
X183634723Y-46741368D01*
X183634723Y-46741368D02*
X184058057Y-46741368D01*
X184058057Y-46741368D02*
X184179009Y-46801844D01*
X184179009Y-46801844D02*
X184239485Y-46862320D01*
X184239485Y-46862320D02*
X184299962Y-46983272D01*
X184299962Y-46983272D02*
X184299962Y-47104225D01*
X184299962Y-47104225D02*
X184239485Y-47225177D01*
X184239485Y-47225177D02*
X184179009Y-47285653D01*
X184179009Y-47285653D02*
X184058057Y-47346130D01*
X184058057Y-47346130D02*
X183634723Y-47346130D01*
D15*
X112745425Y-66920159D02*
X112745425Y-65920159D01*
X112745425Y-65920159D02*
X113126377Y-65920159D01*
X113126377Y-65920159D02*
X113221615Y-65967778D01*
X113221615Y-65967778D02*
X113269234Y-66015397D01*
X113269234Y-66015397D02*
X113316853Y-66110635D01*
X113316853Y-66110635D02*
X113316853Y-66253492D01*
X113316853Y-66253492D02*
X113269234Y-66348730D01*
X113269234Y-66348730D02*
X113221615Y-66396349D01*
X113221615Y-66396349D02*
X113126377Y-66443968D01*
X113126377Y-66443968D02*
X112745425Y-66443968D01*
X113697806Y-66634444D02*
X114173996Y-66634444D01*
X113602568Y-66920159D02*
X113935901Y-65920159D01*
X113935901Y-65920159D02*
X114269234Y-66920159D01*
X115126377Y-66920159D02*
X114554949Y-66920159D01*
X114840663Y-66920159D02*
X114840663Y-65920159D01*
X114840663Y-65920159D02*
X114745425Y-66063016D01*
X114745425Y-66063016D02*
X114650187Y-66158254D01*
X114650187Y-66158254D02*
X114554949Y-66205873D01*
X115459711Y-65920159D02*
X116078758Y-65920159D01*
X116078758Y-65920159D02*
X115745425Y-66301111D01*
X115745425Y-66301111D02*
X115888282Y-66301111D01*
X115888282Y-66301111D02*
X115983520Y-66348730D01*
X115983520Y-66348730D02*
X116031139Y-66396349D01*
X116031139Y-66396349D02*
X116078758Y-66491587D01*
X116078758Y-66491587D02*
X116078758Y-66729682D01*
X116078758Y-66729682D02*
X116031139Y-66824920D01*
X116031139Y-66824920D02*
X115983520Y-66872540D01*
X115983520Y-66872540D02*
X115888282Y-66920159D01*
X115888282Y-66920159D02*
X115602568Y-66920159D01*
X115602568Y-66920159D02*
X115507330Y-66872540D01*
X115507330Y-66872540D02*
X115459711Y-66824920D01*
X184962568Y-87344619D02*
X184962568Y-86344619D01*
X184962568Y-86344619D02*
X185343520Y-86344619D01*
X185343520Y-86344619D02*
X185438758Y-86392238D01*
X185438758Y-86392238D02*
X185486377Y-86439857D01*
X185486377Y-86439857D02*
X185533996Y-86535095D01*
X185533996Y-86535095D02*
X185533996Y-86677952D01*
X185533996Y-86677952D02*
X185486377Y-86773190D01*
X185486377Y-86773190D02*
X185438758Y-86820809D01*
X185438758Y-86820809D02*
X185343520Y-86868428D01*
X185343520Y-86868428D02*
X184962568Y-86868428D01*
X186295901Y-86820809D02*
X186438758Y-86868428D01*
X186438758Y-86868428D02*
X186486377Y-86916047D01*
X186486377Y-86916047D02*
X186533996Y-87011285D01*
X186533996Y-87011285D02*
X186533996Y-87154142D01*
X186533996Y-87154142D02*
X186486377Y-87249380D01*
X186486377Y-87249380D02*
X186438758Y-87297000D01*
X186438758Y-87297000D02*
X186343520Y-87344619D01*
X186343520Y-87344619D02*
X185962568Y-87344619D01*
X185962568Y-87344619D02*
X185962568Y-86344619D01*
X185962568Y-86344619D02*
X186295901Y-86344619D01*
X186295901Y-86344619D02*
X186391139Y-86392238D01*
X186391139Y-86392238D02*
X186438758Y-86439857D01*
X186438758Y-86439857D02*
X186486377Y-86535095D01*
X186486377Y-86535095D02*
X186486377Y-86630333D01*
X186486377Y-86630333D02*
X186438758Y-86725571D01*
X186438758Y-86725571D02*
X186391139Y-86773190D01*
X186391139Y-86773190D02*
X186295901Y-86820809D01*
X186295901Y-86820809D02*
X185962568Y-86820809D01*
X187486377Y-87344619D02*
X186914949Y-87344619D01*
X187200663Y-87344619D02*
X187200663Y-86344619D01*
X187200663Y-86344619D02*
X187105425Y-86487476D01*
X187105425Y-86487476D02*
X187010187Y-86582714D01*
X187010187Y-86582714D02*
X186914949Y-86630333D01*
X187819711Y-86344619D02*
X188438758Y-86344619D01*
X188438758Y-86344619D02*
X188105425Y-86725571D01*
X188105425Y-86725571D02*
X188248282Y-86725571D01*
X188248282Y-86725571D02*
X188343520Y-86773190D01*
X188343520Y-86773190D02*
X188391139Y-86820809D01*
X188391139Y-86820809D02*
X188438758Y-86916047D01*
X188438758Y-86916047D02*
X188438758Y-87154142D01*
X188438758Y-87154142D02*
X188391139Y-87249380D01*
X188391139Y-87249380D02*
X188343520Y-87297000D01*
X188343520Y-87297000D02*
X188248282Y-87344619D01*
X188248282Y-87344619D02*
X187962568Y-87344619D01*
X187962568Y-87344619D02*
X187867330Y-87297000D01*
X187867330Y-87297000D02*
X187819711Y-87249380D01*
X113554949Y-94684619D02*
X113554949Y-93684619D01*
X113554949Y-93684619D02*
X113935901Y-93684619D01*
X113935901Y-93684619D02*
X114031139Y-93732238D01*
X114031139Y-93732238D02*
X114078758Y-93779857D01*
X114078758Y-93779857D02*
X114126377Y-93875095D01*
X114126377Y-93875095D02*
X114126377Y-94017952D01*
X114126377Y-94017952D02*
X114078758Y-94113190D01*
X114078758Y-94113190D02*
X114031139Y-94160809D01*
X114031139Y-94160809D02*
X113935901Y-94208428D01*
X113935901Y-94208428D02*
X113554949Y-94208428D01*
X115126377Y-94589380D02*
X115078758Y-94637000D01*
X115078758Y-94637000D02*
X114935901Y-94684619D01*
X114935901Y-94684619D02*
X114840663Y-94684619D01*
X114840663Y-94684619D02*
X114697806Y-94637000D01*
X114697806Y-94637000D02*
X114602568Y-94541761D01*
X114602568Y-94541761D02*
X114554949Y-94446523D01*
X114554949Y-94446523D02*
X114507330Y-94256047D01*
X114507330Y-94256047D02*
X114507330Y-94113190D01*
X114507330Y-94113190D02*
X114554949Y-93922714D01*
X114554949Y-93922714D02*
X114602568Y-93827476D01*
X114602568Y-93827476D02*
X114697806Y-93732238D01*
X114697806Y-93732238D02*
X114840663Y-93684619D01*
X114840663Y-93684619D02*
X114935901Y-93684619D01*
X114935901Y-93684619D02*
X115078758Y-93732238D01*
X115078758Y-93732238D02*
X115126377Y-93779857D01*
X115507330Y-93779857D02*
X115554949Y-93732238D01*
X115554949Y-93732238D02*
X115650187Y-93684619D01*
X115650187Y-93684619D02*
X115888282Y-93684619D01*
X115888282Y-93684619D02*
X115983520Y-93732238D01*
X115983520Y-93732238D02*
X116031139Y-93779857D01*
X116031139Y-93779857D02*
X116078758Y-93875095D01*
X116078758Y-93875095D02*
X116078758Y-93970333D01*
X116078758Y-93970333D02*
X116031139Y-94113190D01*
X116031139Y-94113190D02*
X115459711Y-94684619D01*
X115459711Y-94684619D02*
X116078758Y-94684619D01*
X124182568Y-89944619D02*
X124182568Y-88944619D01*
X124182568Y-88944619D02*
X124563520Y-88944619D01*
X124563520Y-88944619D02*
X124658758Y-88992238D01*
X124658758Y-88992238D02*
X124706377Y-89039857D01*
X124706377Y-89039857D02*
X124753996Y-89135095D01*
X124753996Y-89135095D02*
X124753996Y-89277952D01*
X124753996Y-89277952D02*
X124706377Y-89373190D01*
X124706377Y-89373190D02*
X124658758Y-89420809D01*
X124658758Y-89420809D02*
X124563520Y-89468428D01*
X124563520Y-89468428D02*
X124182568Y-89468428D01*
X125134949Y-89658904D02*
X125611139Y-89658904D01*
X125039711Y-89944619D02*
X125373044Y-88944619D01*
X125373044Y-88944619D02*
X125706377Y-89944619D01*
X126468282Y-89277952D02*
X126468282Y-89944619D01*
X126230187Y-88897000D02*
X125992092Y-89611285D01*
X125992092Y-89611285D02*
X126611139Y-89611285D01*
X174851139Y-60842238D02*
X174755901Y-60794619D01*
X174755901Y-60794619D02*
X174613044Y-60794619D01*
X174613044Y-60794619D02*
X174470187Y-60842238D01*
X174470187Y-60842238D02*
X174374949Y-60937476D01*
X174374949Y-60937476D02*
X174327330Y-61032714D01*
X174327330Y-61032714D02*
X174279711Y-61223190D01*
X174279711Y-61223190D02*
X174279711Y-61366047D01*
X174279711Y-61366047D02*
X174327330Y-61556523D01*
X174327330Y-61556523D02*
X174374949Y-61651761D01*
X174374949Y-61651761D02*
X174470187Y-61747000D01*
X174470187Y-61747000D02*
X174613044Y-61794619D01*
X174613044Y-61794619D02*
X174708282Y-61794619D01*
X174708282Y-61794619D02*
X174851139Y-61747000D01*
X174851139Y-61747000D02*
X174898758Y-61699380D01*
X174898758Y-61699380D02*
X174898758Y-61366047D01*
X174898758Y-61366047D02*
X174708282Y-61366047D01*
X175327330Y-61794619D02*
X175327330Y-60794619D01*
X175327330Y-60794619D02*
X175898758Y-61794619D01*
X175898758Y-61794619D02*
X175898758Y-60794619D01*
X176374949Y-61794619D02*
X176374949Y-60794619D01*
X176374949Y-60794619D02*
X176613044Y-60794619D01*
X176613044Y-60794619D02*
X176755901Y-60842238D01*
X176755901Y-60842238D02*
X176851139Y-60937476D01*
X176851139Y-60937476D02*
X176898758Y-61032714D01*
X176898758Y-61032714D02*
X176946377Y-61223190D01*
X176946377Y-61223190D02*
X176946377Y-61366047D01*
X176946377Y-61366047D02*
X176898758Y-61556523D01*
X176898758Y-61556523D02*
X176851139Y-61651761D01*
X176851139Y-61651761D02*
X176755901Y-61747000D01*
X176755901Y-61747000D02*
X176613044Y-61794619D01*
X176613044Y-61794619D02*
X176374949Y-61794619D01*
X124182568Y-51714619D02*
X124182568Y-50714619D01*
X124182568Y-50714619D02*
X124563520Y-50714619D01*
X124563520Y-50714619D02*
X124658758Y-50762238D01*
X124658758Y-50762238D02*
X124706377Y-50809857D01*
X124706377Y-50809857D02*
X124753996Y-50905095D01*
X124753996Y-50905095D02*
X124753996Y-51047952D01*
X124753996Y-51047952D02*
X124706377Y-51143190D01*
X124706377Y-51143190D02*
X124658758Y-51190809D01*
X124658758Y-51190809D02*
X124563520Y-51238428D01*
X124563520Y-51238428D02*
X124182568Y-51238428D01*
X125753996Y-51619380D02*
X125706377Y-51667000D01*
X125706377Y-51667000D02*
X125563520Y-51714619D01*
X125563520Y-51714619D02*
X125468282Y-51714619D01*
X125468282Y-51714619D02*
X125325425Y-51667000D01*
X125325425Y-51667000D02*
X125230187Y-51571761D01*
X125230187Y-51571761D02*
X125182568Y-51476523D01*
X125182568Y-51476523D02*
X125134949Y-51286047D01*
X125134949Y-51286047D02*
X125134949Y-51143190D01*
X125134949Y-51143190D02*
X125182568Y-50952714D01*
X125182568Y-50952714D02*
X125230187Y-50857476D01*
X125230187Y-50857476D02*
X125325425Y-50762238D01*
X125325425Y-50762238D02*
X125468282Y-50714619D01*
X125468282Y-50714619D02*
X125563520Y-50714619D01*
X125563520Y-50714619D02*
X125706377Y-50762238D01*
X125706377Y-50762238D02*
X125753996Y-50809857D01*
X126706377Y-51714619D02*
X126134949Y-51714619D01*
X126420663Y-51714619D02*
X126420663Y-50714619D01*
X126420663Y-50714619D02*
X126325425Y-50857476D01*
X126325425Y-50857476D02*
X126230187Y-50952714D01*
X126230187Y-50952714D02*
X126134949Y-51000333D01*
X127658758Y-51714619D02*
X127087330Y-51714619D01*
X127373044Y-51714619D02*
X127373044Y-50714619D01*
X127373044Y-50714619D02*
X127277806Y-50857476D01*
X127277806Y-50857476D02*
X127182568Y-50952714D01*
X127182568Y-50952714D02*
X127087330Y-51000333D01*
X174422568Y-56674619D02*
X174422568Y-55674619D01*
X174422568Y-55674619D02*
X174803520Y-55674619D01*
X174803520Y-55674619D02*
X174898758Y-55722238D01*
X174898758Y-55722238D02*
X174946377Y-55769857D01*
X174946377Y-55769857D02*
X174993996Y-55865095D01*
X174993996Y-55865095D02*
X174993996Y-56007952D01*
X174993996Y-56007952D02*
X174946377Y-56103190D01*
X174946377Y-56103190D02*
X174898758Y-56150809D01*
X174898758Y-56150809D02*
X174803520Y-56198428D01*
X174803520Y-56198428D02*
X174422568Y-56198428D01*
X175755901Y-56150809D02*
X175898758Y-56198428D01*
X175898758Y-56198428D02*
X175946377Y-56246047D01*
X175946377Y-56246047D02*
X175993996Y-56341285D01*
X175993996Y-56341285D02*
X175993996Y-56484142D01*
X175993996Y-56484142D02*
X175946377Y-56579380D01*
X175946377Y-56579380D02*
X175898758Y-56627000D01*
X175898758Y-56627000D02*
X175803520Y-56674619D01*
X175803520Y-56674619D02*
X175422568Y-56674619D01*
X175422568Y-56674619D02*
X175422568Y-55674619D01*
X175422568Y-55674619D02*
X175755901Y-55674619D01*
X175755901Y-55674619D02*
X175851139Y-55722238D01*
X175851139Y-55722238D02*
X175898758Y-55769857D01*
X175898758Y-55769857D02*
X175946377Y-55865095D01*
X175946377Y-55865095D02*
X175946377Y-55960333D01*
X175946377Y-55960333D02*
X175898758Y-56055571D01*
X175898758Y-56055571D02*
X175851139Y-56103190D01*
X175851139Y-56103190D02*
X175755901Y-56150809D01*
X175755901Y-56150809D02*
X175422568Y-56150809D01*
X176470187Y-56674619D02*
X176660663Y-56674619D01*
X176660663Y-56674619D02*
X176755901Y-56627000D01*
X176755901Y-56627000D02*
X176803520Y-56579380D01*
X176803520Y-56579380D02*
X176898758Y-56436523D01*
X176898758Y-56436523D02*
X176946377Y-56246047D01*
X176946377Y-56246047D02*
X176946377Y-55865095D01*
X176946377Y-55865095D02*
X176898758Y-55769857D01*
X176898758Y-55769857D02*
X176851139Y-55722238D01*
X176851139Y-55722238D02*
X176755901Y-55674619D01*
X176755901Y-55674619D02*
X176565425Y-55674619D01*
X176565425Y-55674619D02*
X176470187Y-55722238D01*
X176470187Y-55722238D02*
X176422568Y-55769857D01*
X176422568Y-55769857D02*
X176374949Y-55865095D01*
X176374949Y-55865095D02*
X176374949Y-56103190D01*
X176374949Y-56103190D02*
X176422568Y-56198428D01*
X176422568Y-56198428D02*
X176470187Y-56246047D01*
X176470187Y-56246047D02*
X176565425Y-56293666D01*
X176565425Y-56293666D02*
X176755901Y-56293666D01*
X176755901Y-56293666D02*
X176851139Y-56246047D01*
X176851139Y-56246047D02*
X176898758Y-56198428D01*
X176898758Y-56198428D02*
X176946377Y-56103190D01*
X173613044Y-91894619D02*
X173613044Y-90894619D01*
X173613044Y-90894619D02*
X173993996Y-90894619D01*
X173993996Y-90894619D02*
X174089234Y-90942238D01*
X174089234Y-90942238D02*
X174136853Y-90989857D01*
X174136853Y-90989857D02*
X174184472Y-91085095D01*
X174184472Y-91085095D02*
X174184472Y-91227952D01*
X174184472Y-91227952D02*
X174136853Y-91323190D01*
X174136853Y-91323190D02*
X174089234Y-91370809D01*
X174089234Y-91370809D02*
X173993996Y-91418428D01*
X173993996Y-91418428D02*
X173613044Y-91418428D01*
X174565425Y-91608904D02*
X175041615Y-91608904D01*
X174470187Y-91894619D02*
X174803520Y-90894619D01*
X174803520Y-90894619D02*
X175136853Y-91894619D01*
X175993996Y-91894619D02*
X175422568Y-91894619D01*
X175708282Y-91894619D02*
X175708282Y-90894619D01*
X175708282Y-90894619D02*
X175613044Y-91037476D01*
X175613044Y-91037476D02*
X175517806Y-91132714D01*
X175517806Y-91132714D02*
X175422568Y-91180333D01*
X176613044Y-90894619D02*
X176708282Y-90894619D01*
X176708282Y-90894619D02*
X176803520Y-90942238D01*
X176803520Y-90942238D02*
X176851139Y-90989857D01*
X176851139Y-90989857D02*
X176898758Y-91085095D01*
X176898758Y-91085095D02*
X176946377Y-91275571D01*
X176946377Y-91275571D02*
X176946377Y-91513666D01*
X176946377Y-91513666D02*
X176898758Y-91704142D01*
X176898758Y-91704142D02*
X176851139Y-91799380D01*
X176851139Y-91799380D02*
X176803520Y-91847000D01*
X176803520Y-91847000D02*
X176708282Y-91894619D01*
X176708282Y-91894619D02*
X176613044Y-91894619D01*
X176613044Y-91894619D02*
X176517806Y-91847000D01*
X176517806Y-91847000D02*
X176470187Y-91799380D01*
X176470187Y-91799380D02*
X176422568Y-91704142D01*
X176422568Y-91704142D02*
X176374949Y-91513666D01*
X176374949Y-91513666D02*
X176374949Y-91275571D01*
X176374949Y-91275571D02*
X176422568Y-91085095D01*
X176422568Y-91085095D02*
X176470187Y-90989857D01*
X176470187Y-90989857D02*
X176517806Y-90942238D01*
X176517806Y-90942238D02*
X176613044Y-90894619D01*
X124182568Y-61654619D02*
X124182568Y-60654619D01*
X124182568Y-60654619D02*
X124753996Y-61654619D01*
X124753996Y-61654619D02*
X124753996Y-60654619D01*
X125801615Y-61559380D02*
X125753996Y-61607000D01*
X125753996Y-61607000D02*
X125611139Y-61654619D01*
X125611139Y-61654619D02*
X125515901Y-61654619D01*
X125515901Y-61654619D02*
X125373044Y-61607000D01*
X125373044Y-61607000D02*
X125277806Y-61511761D01*
X125277806Y-61511761D02*
X125230187Y-61416523D01*
X125230187Y-61416523D02*
X125182568Y-61226047D01*
X125182568Y-61226047D02*
X125182568Y-61083190D01*
X125182568Y-61083190D02*
X125230187Y-60892714D01*
X125230187Y-60892714D02*
X125277806Y-60797476D01*
X125277806Y-60797476D02*
X125373044Y-60702238D01*
X125373044Y-60702238D02*
X125515901Y-60654619D01*
X125515901Y-60654619D02*
X125611139Y-60654619D01*
X125611139Y-60654619D02*
X125753996Y-60702238D01*
X125753996Y-60702238D02*
X125801615Y-60749857D01*
X114452568Y-61854619D02*
X114452568Y-60854619D01*
X114452568Y-60854619D02*
X115023996Y-61854619D01*
X115023996Y-61854619D02*
X115023996Y-60854619D01*
X116071615Y-61759380D02*
X116023996Y-61807000D01*
X116023996Y-61807000D02*
X115881139Y-61854619D01*
X115881139Y-61854619D02*
X115785901Y-61854619D01*
X115785901Y-61854619D02*
X115643044Y-61807000D01*
X115643044Y-61807000D02*
X115547806Y-61711761D01*
X115547806Y-61711761D02*
X115500187Y-61616523D01*
X115500187Y-61616523D02*
X115452568Y-61426047D01*
X115452568Y-61426047D02*
X115452568Y-61283190D01*
X115452568Y-61283190D02*
X115500187Y-61092714D01*
X115500187Y-61092714D02*
X115547806Y-60997476D01*
X115547806Y-60997476D02*
X115643044Y-60902238D01*
X115643044Y-60902238D02*
X115785901Y-60854619D01*
X115785901Y-60854619D02*
X115881139Y-60854619D01*
X115881139Y-60854619D02*
X116023996Y-60902238D01*
X116023996Y-60902238D02*
X116071615Y-60949857D01*
X184962568Y-56854619D02*
X184962568Y-55854619D01*
X184962568Y-55854619D02*
X185343520Y-55854619D01*
X185343520Y-55854619D02*
X185438758Y-55902238D01*
X185438758Y-55902238D02*
X185486377Y-55949857D01*
X185486377Y-55949857D02*
X185533996Y-56045095D01*
X185533996Y-56045095D02*
X185533996Y-56187952D01*
X185533996Y-56187952D02*
X185486377Y-56283190D01*
X185486377Y-56283190D02*
X185438758Y-56330809D01*
X185438758Y-56330809D02*
X185343520Y-56378428D01*
X185343520Y-56378428D02*
X184962568Y-56378428D01*
X186533996Y-56759380D02*
X186486377Y-56807000D01*
X186486377Y-56807000D02*
X186343520Y-56854619D01*
X186343520Y-56854619D02*
X186248282Y-56854619D01*
X186248282Y-56854619D02*
X186105425Y-56807000D01*
X186105425Y-56807000D02*
X186010187Y-56711761D01*
X186010187Y-56711761D02*
X185962568Y-56616523D01*
X185962568Y-56616523D02*
X185914949Y-56426047D01*
X185914949Y-56426047D02*
X185914949Y-56283190D01*
X185914949Y-56283190D02*
X185962568Y-56092714D01*
X185962568Y-56092714D02*
X186010187Y-55997476D01*
X186010187Y-55997476D02*
X186105425Y-55902238D01*
X186105425Y-55902238D02*
X186248282Y-55854619D01*
X186248282Y-55854619D02*
X186343520Y-55854619D01*
X186343520Y-55854619D02*
X186486377Y-55902238D01*
X186486377Y-55902238D02*
X186533996Y-55949857D01*
X187438758Y-55854619D02*
X186962568Y-55854619D01*
X186962568Y-55854619D02*
X186914949Y-56330809D01*
X186914949Y-56330809D02*
X186962568Y-56283190D01*
X186962568Y-56283190D02*
X187057806Y-56235571D01*
X187057806Y-56235571D02*
X187295901Y-56235571D01*
X187295901Y-56235571D02*
X187391139Y-56283190D01*
X187391139Y-56283190D02*
X187438758Y-56330809D01*
X187438758Y-56330809D02*
X187486377Y-56426047D01*
X187486377Y-56426047D02*
X187486377Y-56664142D01*
X187486377Y-56664142D02*
X187438758Y-56759380D01*
X187438758Y-56759380D02*
X187391139Y-56807000D01*
X187391139Y-56807000D02*
X187295901Y-56854619D01*
X187295901Y-56854619D02*
X187057806Y-56854619D01*
X187057806Y-56854619D02*
X186962568Y-56807000D01*
X186962568Y-56807000D02*
X186914949Y-56759380D01*
X132526496Y-66884619D02*
X132193163Y-66408428D01*
X131955068Y-66884619D02*
X131955068Y-65884619D01*
X131955068Y-65884619D02*
X132336020Y-65884619D01*
X132336020Y-65884619D02*
X132431258Y-65932238D01*
X132431258Y-65932238D02*
X132478877Y-65979857D01*
X132478877Y-65979857D02*
X132526496Y-66075095D01*
X132526496Y-66075095D02*
X132526496Y-66217952D01*
X132526496Y-66217952D02*
X132478877Y-66313190D01*
X132478877Y-66313190D02*
X132431258Y-66360809D01*
X132431258Y-66360809D02*
X132336020Y-66408428D01*
X132336020Y-66408428D02*
X131955068Y-66408428D01*
X132955068Y-66360809D02*
X133288401Y-66360809D01*
X133431258Y-66884619D02*
X132955068Y-66884619D01*
X132955068Y-66884619D02*
X132955068Y-65884619D01*
X132955068Y-65884619D02*
X133431258Y-65884619D01*
X133812211Y-66837000D02*
X133955068Y-66884619D01*
X133955068Y-66884619D02*
X134193163Y-66884619D01*
X134193163Y-66884619D02*
X134288401Y-66837000D01*
X134288401Y-66837000D02*
X134336020Y-66789380D01*
X134336020Y-66789380D02*
X134383639Y-66694142D01*
X134383639Y-66694142D02*
X134383639Y-66598904D01*
X134383639Y-66598904D02*
X134336020Y-66503666D01*
X134336020Y-66503666D02*
X134288401Y-66456047D01*
X134288401Y-66456047D02*
X134193163Y-66408428D01*
X134193163Y-66408428D02*
X134002687Y-66360809D01*
X134002687Y-66360809D02*
X133907449Y-66313190D01*
X133907449Y-66313190D02*
X133859830Y-66265571D01*
X133859830Y-66265571D02*
X133812211Y-66170333D01*
X133812211Y-66170333D02*
X133812211Y-66075095D01*
X133812211Y-66075095D02*
X133859830Y-65979857D01*
X133859830Y-65979857D02*
X133907449Y-65932238D01*
X133907449Y-65932238D02*
X134002687Y-65884619D01*
X134002687Y-65884619D02*
X134240782Y-65884619D01*
X134240782Y-65884619D02*
X134383639Y-65932238D01*
X134812211Y-66360809D02*
X135145544Y-66360809D01*
X135288401Y-66884619D02*
X134812211Y-66884619D01*
X134812211Y-66884619D02*
X134812211Y-65884619D01*
X134812211Y-65884619D02*
X135288401Y-65884619D01*
X135574116Y-65884619D02*
X136145544Y-65884619D01*
X135859830Y-66884619D02*
X135859830Y-65884619D01*
X184914949Y-89688904D02*
X185391139Y-89688904D01*
X184819711Y-89974619D02*
X185153044Y-88974619D01*
X185153044Y-88974619D02*
X185486377Y-89974619D01*
X186343520Y-89022238D02*
X186248282Y-88974619D01*
X186248282Y-88974619D02*
X186105425Y-88974619D01*
X186105425Y-88974619D02*
X185962568Y-89022238D01*
X185962568Y-89022238D02*
X185867330Y-89117476D01*
X185867330Y-89117476D02*
X185819711Y-89212714D01*
X185819711Y-89212714D02*
X185772092Y-89403190D01*
X185772092Y-89403190D02*
X185772092Y-89546047D01*
X185772092Y-89546047D02*
X185819711Y-89736523D01*
X185819711Y-89736523D02*
X185867330Y-89831761D01*
X185867330Y-89831761D02*
X185962568Y-89927000D01*
X185962568Y-89927000D02*
X186105425Y-89974619D01*
X186105425Y-89974619D02*
X186200663Y-89974619D01*
X186200663Y-89974619D02*
X186343520Y-89927000D01*
X186343520Y-89927000D02*
X186391139Y-89879380D01*
X186391139Y-89879380D02*
X186391139Y-89546047D01*
X186391139Y-89546047D02*
X186200663Y-89546047D01*
X186819711Y-89974619D02*
X186819711Y-88974619D01*
X186819711Y-88974619D02*
X187391139Y-89974619D01*
X187391139Y-89974619D02*
X187391139Y-88974619D01*
X187867330Y-89974619D02*
X187867330Y-88974619D01*
X187867330Y-88974619D02*
X188105425Y-88974619D01*
X188105425Y-88974619D02*
X188248282Y-89022238D01*
X188248282Y-89022238D02*
X188343520Y-89117476D01*
X188343520Y-89117476D02*
X188391139Y-89212714D01*
X188391139Y-89212714D02*
X188438758Y-89403190D01*
X188438758Y-89403190D02*
X188438758Y-89546047D01*
X188438758Y-89546047D02*
X188391139Y-89736523D01*
X188391139Y-89736523D02*
X188343520Y-89831761D01*
X188343520Y-89831761D02*
X188248282Y-89927000D01*
X188248282Y-89927000D02*
X188105425Y-89974619D01*
X188105425Y-89974619D02*
X187867330Y-89974619D01*
X174565425Y-94624619D02*
X174565425Y-93624619D01*
X174565425Y-93624619D02*
X174946377Y-93624619D01*
X174946377Y-93624619D02*
X175041615Y-93672238D01*
X175041615Y-93672238D02*
X175089234Y-93719857D01*
X175089234Y-93719857D02*
X175136853Y-93815095D01*
X175136853Y-93815095D02*
X175136853Y-93957952D01*
X175136853Y-93957952D02*
X175089234Y-94053190D01*
X175089234Y-94053190D02*
X175041615Y-94100809D01*
X175041615Y-94100809D02*
X174946377Y-94148428D01*
X174946377Y-94148428D02*
X174565425Y-94148428D01*
X175517806Y-94338904D02*
X175993996Y-94338904D01*
X175422568Y-94624619D02*
X175755901Y-93624619D01*
X175755901Y-93624619D02*
X176089234Y-94624619D01*
X176374949Y-93719857D02*
X176422568Y-93672238D01*
X176422568Y-93672238D02*
X176517806Y-93624619D01*
X176517806Y-93624619D02*
X176755901Y-93624619D01*
X176755901Y-93624619D02*
X176851139Y-93672238D01*
X176851139Y-93672238D02*
X176898758Y-93719857D01*
X176898758Y-93719857D02*
X176946377Y-93815095D01*
X176946377Y-93815095D02*
X176946377Y-93910333D01*
X176946377Y-93910333D02*
X176898758Y-94053190D01*
X176898758Y-94053190D02*
X176327330Y-94624619D01*
X176327330Y-94624619D02*
X176946377Y-94624619D01*
X112745425Y-71954619D02*
X112745425Y-70954619D01*
X112745425Y-70954619D02*
X113126377Y-70954619D01*
X113126377Y-70954619D02*
X113221615Y-71002238D01*
X113221615Y-71002238D02*
X113269234Y-71049857D01*
X113269234Y-71049857D02*
X113316853Y-71145095D01*
X113316853Y-71145095D02*
X113316853Y-71287952D01*
X113316853Y-71287952D02*
X113269234Y-71383190D01*
X113269234Y-71383190D02*
X113221615Y-71430809D01*
X113221615Y-71430809D02*
X113126377Y-71478428D01*
X113126377Y-71478428D02*
X112745425Y-71478428D01*
X113697806Y-71668904D02*
X114173996Y-71668904D01*
X113602568Y-71954619D02*
X113935901Y-70954619D01*
X113935901Y-70954619D02*
X114269234Y-71954619D01*
X115126377Y-71954619D02*
X114554949Y-71954619D01*
X114840663Y-71954619D02*
X114840663Y-70954619D01*
X114840663Y-70954619D02*
X114745425Y-71097476D01*
X114745425Y-71097476D02*
X114650187Y-71192714D01*
X114650187Y-71192714D02*
X114554949Y-71240333D01*
X116031139Y-70954619D02*
X115554949Y-70954619D01*
X115554949Y-70954619D02*
X115507330Y-71430809D01*
X115507330Y-71430809D02*
X115554949Y-71383190D01*
X115554949Y-71383190D02*
X115650187Y-71335571D01*
X115650187Y-71335571D02*
X115888282Y-71335571D01*
X115888282Y-71335571D02*
X115983520Y-71383190D01*
X115983520Y-71383190D02*
X116031139Y-71430809D01*
X116031139Y-71430809D02*
X116078758Y-71526047D01*
X116078758Y-71526047D02*
X116078758Y-71764142D01*
X116078758Y-71764142D02*
X116031139Y-71859380D01*
X116031139Y-71859380D02*
X115983520Y-71907000D01*
X115983520Y-71907000D02*
X115888282Y-71954619D01*
X115888282Y-71954619D02*
X115650187Y-71954619D01*
X115650187Y-71954619D02*
X115554949Y-71907000D01*
X115554949Y-71907000D02*
X115507330Y-71859380D01*
X124182568Y-94824619D02*
X124182568Y-93824619D01*
X124182568Y-93824619D02*
X124563520Y-93824619D01*
X124563520Y-93824619D02*
X124658758Y-93872238D01*
X124658758Y-93872238D02*
X124706377Y-93919857D01*
X124706377Y-93919857D02*
X124753996Y-94015095D01*
X124753996Y-94015095D02*
X124753996Y-94157952D01*
X124753996Y-94157952D02*
X124706377Y-94253190D01*
X124706377Y-94253190D02*
X124658758Y-94300809D01*
X124658758Y-94300809D02*
X124563520Y-94348428D01*
X124563520Y-94348428D02*
X124182568Y-94348428D01*
X125753996Y-94729380D02*
X125706377Y-94777000D01*
X125706377Y-94777000D02*
X125563520Y-94824619D01*
X125563520Y-94824619D02*
X125468282Y-94824619D01*
X125468282Y-94824619D02*
X125325425Y-94777000D01*
X125325425Y-94777000D02*
X125230187Y-94681761D01*
X125230187Y-94681761D02*
X125182568Y-94586523D01*
X125182568Y-94586523D02*
X125134949Y-94396047D01*
X125134949Y-94396047D02*
X125134949Y-94253190D01*
X125134949Y-94253190D02*
X125182568Y-94062714D01*
X125182568Y-94062714D02*
X125230187Y-93967476D01*
X125230187Y-93967476D02*
X125325425Y-93872238D01*
X125325425Y-93872238D02*
X125468282Y-93824619D01*
X125468282Y-93824619D02*
X125563520Y-93824619D01*
X125563520Y-93824619D02*
X125706377Y-93872238D01*
X125706377Y-93872238D02*
X125753996Y-93919857D01*
X126706377Y-94824619D02*
X126134949Y-94824619D01*
X126420663Y-94824619D02*
X126420663Y-93824619D01*
X126420663Y-93824619D02*
X126325425Y-93967476D01*
X126325425Y-93967476D02*
X126230187Y-94062714D01*
X126230187Y-94062714D02*
X126134949Y-94110333D01*
X174565425Y-66860159D02*
X174565425Y-65860159D01*
X174565425Y-65860159D02*
X174946377Y-65860159D01*
X174946377Y-65860159D02*
X175041615Y-65907778D01*
X175041615Y-65907778D02*
X175089234Y-65955397D01*
X175089234Y-65955397D02*
X175136853Y-66050635D01*
X175136853Y-66050635D02*
X175136853Y-66193492D01*
X175136853Y-66193492D02*
X175089234Y-66288730D01*
X175089234Y-66288730D02*
X175041615Y-66336349D01*
X175041615Y-66336349D02*
X174946377Y-66383968D01*
X174946377Y-66383968D02*
X174565425Y-66383968D01*
X175517806Y-66574444D02*
X175993996Y-66574444D01*
X175422568Y-66860159D02*
X175755901Y-65860159D01*
X175755901Y-65860159D02*
X176089234Y-66860159D01*
X176851139Y-65860159D02*
X176660663Y-65860159D01*
X176660663Y-65860159D02*
X176565425Y-65907778D01*
X176565425Y-65907778D02*
X176517806Y-65955397D01*
X176517806Y-65955397D02*
X176422568Y-66098254D01*
X176422568Y-66098254D02*
X176374949Y-66288730D01*
X176374949Y-66288730D02*
X176374949Y-66669682D01*
X176374949Y-66669682D02*
X176422568Y-66764920D01*
X176422568Y-66764920D02*
X176470187Y-66812540D01*
X176470187Y-66812540D02*
X176565425Y-66860159D01*
X176565425Y-66860159D02*
X176755901Y-66860159D01*
X176755901Y-66860159D02*
X176851139Y-66812540D01*
X176851139Y-66812540D02*
X176898758Y-66764920D01*
X176898758Y-66764920D02*
X176946377Y-66669682D01*
X176946377Y-66669682D02*
X176946377Y-66431587D01*
X176946377Y-66431587D02*
X176898758Y-66336349D01*
X176898758Y-66336349D02*
X176851139Y-66288730D01*
X176851139Y-66288730D02*
X176755901Y-66241111D01*
X176755901Y-66241111D02*
X176565425Y-66241111D01*
X176565425Y-66241111D02*
X176470187Y-66288730D01*
X176470187Y-66288730D02*
X176422568Y-66336349D01*
X176422568Y-66336349D02*
X176374949Y-66431587D01*
X174422568Y-54104619D02*
X174422568Y-53104619D01*
X174422568Y-53104619D02*
X174803520Y-53104619D01*
X174803520Y-53104619D02*
X174898758Y-53152238D01*
X174898758Y-53152238D02*
X174946377Y-53199857D01*
X174946377Y-53199857D02*
X174993996Y-53295095D01*
X174993996Y-53295095D02*
X174993996Y-53437952D01*
X174993996Y-53437952D02*
X174946377Y-53533190D01*
X174946377Y-53533190D02*
X174898758Y-53580809D01*
X174898758Y-53580809D02*
X174803520Y-53628428D01*
X174803520Y-53628428D02*
X174422568Y-53628428D01*
X175755901Y-53580809D02*
X175898758Y-53628428D01*
X175898758Y-53628428D02*
X175946377Y-53676047D01*
X175946377Y-53676047D02*
X175993996Y-53771285D01*
X175993996Y-53771285D02*
X175993996Y-53914142D01*
X175993996Y-53914142D02*
X175946377Y-54009380D01*
X175946377Y-54009380D02*
X175898758Y-54057000D01*
X175898758Y-54057000D02*
X175803520Y-54104619D01*
X175803520Y-54104619D02*
X175422568Y-54104619D01*
X175422568Y-54104619D02*
X175422568Y-53104619D01*
X175422568Y-53104619D02*
X175755901Y-53104619D01*
X175755901Y-53104619D02*
X175851139Y-53152238D01*
X175851139Y-53152238D02*
X175898758Y-53199857D01*
X175898758Y-53199857D02*
X175946377Y-53295095D01*
X175946377Y-53295095D02*
X175946377Y-53390333D01*
X175946377Y-53390333D02*
X175898758Y-53485571D01*
X175898758Y-53485571D02*
X175851139Y-53533190D01*
X175851139Y-53533190D02*
X175755901Y-53580809D01*
X175755901Y-53580809D02*
X175422568Y-53580809D01*
X176565425Y-53533190D02*
X176470187Y-53485571D01*
X176470187Y-53485571D02*
X176422568Y-53437952D01*
X176422568Y-53437952D02*
X176374949Y-53342714D01*
X176374949Y-53342714D02*
X176374949Y-53295095D01*
X176374949Y-53295095D02*
X176422568Y-53199857D01*
X176422568Y-53199857D02*
X176470187Y-53152238D01*
X176470187Y-53152238D02*
X176565425Y-53104619D01*
X176565425Y-53104619D02*
X176755901Y-53104619D01*
X176755901Y-53104619D02*
X176851139Y-53152238D01*
X176851139Y-53152238D02*
X176898758Y-53199857D01*
X176898758Y-53199857D02*
X176946377Y-53295095D01*
X176946377Y-53295095D02*
X176946377Y-53342714D01*
X176946377Y-53342714D02*
X176898758Y-53437952D01*
X176898758Y-53437952D02*
X176851139Y-53485571D01*
X176851139Y-53485571D02*
X176755901Y-53533190D01*
X176755901Y-53533190D02*
X176565425Y-53533190D01*
X176565425Y-53533190D02*
X176470187Y-53580809D01*
X176470187Y-53580809D02*
X176422568Y-53628428D01*
X176422568Y-53628428D02*
X176374949Y-53723666D01*
X176374949Y-53723666D02*
X176374949Y-53914142D01*
X176374949Y-53914142D02*
X176422568Y-54009380D01*
X176422568Y-54009380D02*
X176470187Y-54057000D01*
X176470187Y-54057000D02*
X176565425Y-54104619D01*
X176565425Y-54104619D02*
X176755901Y-54104619D01*
X176755901Y-54104619D02*
X176851139Y-54057000D01*
X176851139Y-54057000D02*
X176898758Y-54009380D01*
X176898758Y-54009380D02*
X176946377Y-53914142D01*
X176946377Y-53914142D02*
X176946377Y-53723666D01*
X176946377Y-53723666D02*
X176898758Y-53628428D01*
X176898758Y-53628428D02*
X176851139Y-53580809D01*
X176851139Y-53580809D02*
X176755901Y-53533190D01*
X112888282Y-90954619D02*
X113221615Y-91954619D01*
X113221615Y-91954619D02*
X113554948Y-90954619D01*
X114221615Y-91430809D02*
X114364472Y-91478428D01*
X114364472Y-91478428D02*
X114412091Y-91526047D01*
X114412091Y-91526047D02*
X114459710Y-91621285D01*
X114459710Y-91621285D02*
X114459710Y-91764142D01*
X114459710Y-91764142D02*
X114412091Y-91859380D01*
X114412091Y-91859380D02*
X114364472Y-91907000D01*
X114364472Y-91907000D02*
X114269234Y-91954619D01*
X114269234Y-91954619D02*
X113888282Y-91954619D01*
X113888282Y-91954619D02*
X113888282Y-90954619D01*
X113888282Y-90954619D02*
X114221615Y-90954619D01*
X114221615Y-90954619D02*
X114316853Y-91002238D01*
X114316853Y-91002238D02*
X114364472Y-91049857D01*
X114364472Y-91049857D02*
X114412091Y-91145095D01*
X114412091Y-91145095D02*
X114412091Y-91240333D01*
X114412091Y-91240333D02*
X114364472Y-91335571D01*
X114364472Y-91335571D02*
X114316853Y-91383190D01*
X114316853Y-91383190D02*
X114221615Y-91430809D01*
X114221615Y-91430809D02*
X113888282Y-91430809D01*
X114840663Y-91668904D02*
X115316853Y-91668904D01*
X114745425Y-91954619D02*
X115078758Y-90954619D01*
X115078758Y-90954619D02*
X115412091Y-91954619D01*
X115602568Y-90954619D02*
X116173996Y-90954619D01*
X115888282Y-91954619D02*
X115888282Y-90954619D01*
X131902568Y-87474619D02*
X131902568Y-86474619D01*
X131902568Y-86474619D02*
X132283520Y-86474619D01*
X132283520Y-86474619D02*
X132378758Y-86522238D01*
X132378758Y-86522238D02*
X132426377Y-86569857D01*
X132426377Y-86569857D02*
X132473996Y-86665095D01*
X132473996Y-86665095D02*
X132473996Y-86807952D01*
X132473996Y-86807952D02*
X132426377Y-86903190D01*
X132426377Y-86903190D02*
X132378758Y-86950809D01*
X132378758Y-86950809D02*
X132283520Y-86998428D01*
X132283520Y-86998428D02*
X131902568Y-86998428D01*
X132854949Y-87188904D02*
X133331139Y-87188904D01*
X132759711Y-87474619D02*
X133093044Y-86474619D01*
X133093044Y-86474619D02*
X133426377Y-87474619D01*
X134283520Y-87474619D02*
X133712092Y-87474619D01*
X133997806Y-87474619D02*
X133997806Y-86474619D01*
X133997806Y-86474619D02*
X133902568Y-86617476D01*
X133902568Y-86617476D02*
X133807330Y-86712714D01*
X133807330Y-86712714D02*
X133712092Y-86760333D01*
X131902568Y-84964619D02*
X131902568Y-83964619D01*
X131902568Y-83964619D02*
X132283520Y-83964619D01*
X132283520Y-83964619D02*
X132378758Y-84012238D01*
X132378758Y-84012238D02*
X132426377Y-84059857D01*
X132426377Y-84059857D02*
X132473996Y-84155095D01*
X132473996Y-84155095D02*
X132473996Y-84297952D01*
X132473996Y-84297952D02*
X132426377Y-84393190D01*
X132426377Y-84393190D02*
X132378758Y-84440809D01*
X132378758Y-84440809D02*
X132283520Y-84488428D01*
X132283520Y-84488428D02*
X131902568Y-84488428D01*
X132854949Y-84678904D02*
X133331139Y-84678904D01*
X132759711Y-84964619D02*
X133093044Y-83964619D01*
X133093044Y-83964619D02*
X133426377Y-84964619D01*
X133950187Y-83964619D02*
X134045425Y-83964619D01*
X134045425Y-83964619D02*
X134140663Y-84012238D01*
X134140663Y-84012238D02*
X134188282Y-84059857D01*
X134188282Y-84059857D02*
X134235901Y-84155095D01*
X134235901Y-84155095D02*
X134283520Y-84345571D01*
X134283520Y-84345571D02*
X134283520Y-84583666D01*
X134283520Y-84583666D02*
X134235901Y-84774142D01*
X134235901Y-84774142D02*
X134188282Y-84869380D01*
X134188282Y-84869380D02*
X134140663Y-84917000D01*
X134140663Y-84917000D02*
X134045425Y-84964619D01*
X134045425Y-84964619D02*
X133950187Y-84964619D01*
X133950187Y-84964619D02*
X133854949Y-84917000D01*
X133854949Y-84917000D02*
X133807330Y-84869380D01*
X133807330Y-84869380D02*
X133759711Y-84774142D01*
X133759711Y-84774142D02*
X133712092Y-84583666D01*
X133712092Y-84583666D02*
X133712092Y-84345571D01*
X133712092Y-84345571D02*
X133759711Y-84155095D01*
X133759711Y-84155095D02*
X133807330Y-84059857D01*
X133807330Y-84059857D02*
X133854949Y-84012238D01*
X133854949Y-84012238D02*
X133950187Y-83964619D01*
D16*
X137854318Y-64702618D02*
X137854318Y-63976904D01*
X139124318Y-64339761D02*
X137854318Y-64339761D01*
X139124318Y-63553571D02*
X137854318Y-63553571D01*
X137854318Y-63553571D02*
X137854318Y-63069761D01*
X137854318Y-63069761D02*
X137914794Y-62948809D01*
X137914794Y-62948809D02*
X137975270Y-62888332D01*
X137975270Y-62888332D02*
X138096222Y-62827856D01*
X138096222Y-62827856D02*
X138277651Y-62827856D01*
X138277651Y-62827856D02*
X138398603Y-62888332D01*
X138398603Y-62888332D02*
X138459080Y-62948809D01*
X138459080Y-62948809D02*
X138519556Y-63069761D01*
X138519556Y-63069761D02*
X138519556Y-63553571D01*
X137975270Y-62344047D02*
X137914794Y-62283571D01*
X137914794Y-62283571D02*
X137854318Y-62162618D01*
X137854318Y-62162618D02*
X137854318Y-61860237D01*
X137854318Y-61860237D02*
X137914794Y-61739285D01*
X137914794Y-61739285D02*
X137975270Y-61678809D01*
X137975270Y-61678809D02*
X138096222Y-61618332D01*
X138096222Y-61618332D02*
X138217175Y-61618332D01*
X138217175Y-61618332D02*
X138398603Y-61678809D01*
X138398603Y-61678809D02*
X139124318Y-62404523D01*
X139124318Y-62404523D02*
X139124318Y-61618332D01*
D14*
X149407142Y-113047080D02*
X149359523Y-113094700D01*
X149359523Y-113094700D02*
X149216666Y-113142319D01*
X149216666Y-113142319D02*
X149121428Y-113142319D01*
X149121428Y-113142319D02*
X148978571Y-113094700D01*
X148978571Y-113094700D02*
X148883333Y-112999461D01*
X148883333Y-112999461D02*
X148835714Y-112904223D01*
X148835714Y-112904223D02*
X148788095Y-112713747D01*
X148788095Y-112713747D02*
X148788095Y-112570890D01*
X148788095Y-112570890D02*
X148835714Y-112380414D01*
X148835714Y-112380414D02*
X148883333Y-112285176D01*
X148883333Y-112285176D02*
X148978571Y-112189938D01*
X148978571Y-112189938D02*
X149121428Y-112142319D01*
X149121428Y-112142319D02*
X149216666Y-112142319D01*
X149216666Y-112142319D02*
X149359523Y-112189938D01*
X149359523Y-112189938D02*
X149407142Y-112237557D01*
X150359523Y-113142319D02*
X149788095Y-113142319D01*
X150073809Y-113142319D02*
X150073809Y-112142319D01*
X150073809Y-112142319D02*
X149978571Y-112285176D01*
X149978571Y-112285176D02*
X149883333Y-112380414D01*
X149883333Y-112380414D02*
X149788095Y-112428033D01*
X150835714Y-113142319D02*
X151026190Y-113142319D01*
X151026190Y-113142319D02*
X151121428Y-113094700D01*
X151121428Y-113094700D02*
X151169047Y-113047080D01*
X151169047Y-113047080D02*
X151264285Y-112904223D01*
X151264285Y-112904223D02*
X151311904Y-112713747D01*
X151311904Y-112713747D02*
X151311904Y-112332795D01*
X151311904Y-112332795D02*
X151264285Y-112237557D01*
X151264285Y-112237557D02*
X151216666Y-112189938D01*
X151216666Y-112189938D02*
X151121428Y-112142319D01*
X151121428Y-112142319D02*
X150930952Y-112142319D01*
X150930952Y-112142319D02*
X150835714Y-112189938D01*
X150835714Y-112189938D02*
X150788095Y-112237557D01*
X150788095Y-112237557D02*
X150740476Y-112332795D01*
X150740476Y-112332795D02*
X150740476Y-112570890D01*
X150740476Y-112570890D02*
X150788095Y-112666128D01*
X150788095Y-112666128D02*
X150835714Y-112713747D01*
X150835714Y-112713747D02*
X150930952Y-112761366D01*
X150930952Y-112761366D02*
X151121428Y-112761366D01*
X151121428Y-112761366D02*
X151216666Y-112713747D01*
X151216666Y-112713747D02*
X151264285Y-112666128D01*
X151264285Y-112666128D02*
X151311904Y-112570890D01*
X146483333Y-98092319D02*
X146007143Y-98092319D01*
X146007143Y-98092319D02*
X146007143Y-97092319D01*
X146769048Y-97187557D02*
X146816667Y-97139938D01*
X146816667Y-97139938D02*
X146911905Y-97092319D01*
X146911905Y-97092319D02*
X147150000Y-97092319D01*
X147150000Y-97092319D02*
X147245238Y-97139938D01*
X147245238Y-97139938D02*
X147292857Y-97187557D01*
X147292857Y-97187557D02*
X147340476Y-97282795D01*
X147340476Y-97282795D02*
X147340476Y-97378033D01*
X147340476Y-97378033D02*
X147292857Y-97520890D01*
X147292857Y-97520890D02*
X146721429Y-98092319D01*
X146721429Y-98092319D02*
X147340476Y-98092319D01*
X145657142Y-113047080D02*
X145609523Y-113094700D01*
X145609523Y-113094700D02*
X145466666Y-113142319D01*
X145466666Y-113142319D02*
X145371428Y-113142319D01*
X145371428Y-113142319D02*
X145228571Y-113094700D01*
X145228571Y-113094700D02*
X145133333Y-112999461D01*
X145133333Y-112999461D02*
X145085714Y-112904223D01*
X145085714Y-112904223D02*
X145038095Y-112713747D01*
X145038095Y-112713747D02*
X145038095Y-112570890D01*
X145038095Y-112570890D02*
X145085714Y-112380414D01*
X145085714Y-112380414D02*
X145133333Y-112285176D01*
X145133333Y-112285176D02*
X145228571Y-112189938D01*
X145228571Y-112189938D02*
X145371428Y-112142319D01*
X145371428Y-112142319D02*
X145466666Y-112142319D01*
X145466666Y-112142319D02*
X145609523Y-112189938D01*
X145609523Y-112189938D02*
X145657142Y-112237557D01*
X146038095Y-112237557D02*
X146085714Y-112189938D01*
X146085714Y-112189938D02*
X146180952Y-112142319D01*
X146180952Y-112142319D02*
X146419047Y-112142319D01*
X146419047Y-112142319D02*
X146514285Y-112189938D01*
X146514285Y-112189938D02*
X146561904Y-112237557D01*
X146561904Y-112237557D02*
X146609523Y-112332795D01*
X146609523Y-112332795D02*
X146609523Y-112428033D01*
X146609523Y-112428033D02*
X146561904Y-112570890D01*
X146561904Y-112570890D02*
X145990476Y-113142319D01*
X145990476Y-113142319D02*
X146609523Y-113142319D01*
X147228571Y-112142319D02*
X147323809Y-112142319D01*
X147323809Y-112142319D02*
X147419047Y-112189938D01*
X147419047Y-112189938D02*
X147466666Y-112237557D01*
X147466666Y-112237557D02*
X147514285Y-112332795D01*
X147514285Y-112332795D02*
X147561904Y-112523271D01*
X147561904Y-112523271D02*
X147561904Y-112761366D01*
X147561904Y-112761366D02*
X147514285Y-112951842D01*
X147514285Y-112951842D02*
X147466666Y-113047080D01*
X147466666Y-113047080D02*
X147419047Y-113094700D01*
X147419047Y-113094700D02*
X147323809Y-113142319D01*
X147323809Y-113142319D02*
X147228571Y-113142319D01*
X147228571Y-113142319D02*
X147133333Y-113094700D01*
X147133333Y-113094700D02*
X147085714Y-113047080D01*
X147085714Y-113047080D02*
X147038095Y-112951842D01*
X147038095Y-112951842D02*
X146990476Y-112761366D01*
X146990476Y-112761366D02*
X146990476Y-112523271D01*
X146990476Y-112523271D02*
X147038095Y-112332795D01*
X147038095Y-112332795D02*
X147085714Y-112237557D01*
X147085714Y-112237557D02*
X147133333Y-112189938D01*
X147133333Y-112189938D02*
X147228571Y-112142319D01*
X156894642Y-105197080D02*
X156847023Y-105244700D01*
X156847023Y-105244700D02*
X156704166Y-105292319D01*
X156704166Y-105292319D02*
X156608928Y-105292319D01*
X156608928Y-105292319D02*
X156466071Y-105244700D01*
X156466071Y-105244700D02*
X156370833Y-105149461D01*
X156370833Y-105149461D02*
X156323214Y-105054223D01*
X156323214Y-105054223D02*
X156275595Y-104863747D01*
X156275595Y-104863747D02*
X156275595Y-104720890D01*
X156275595Y-104720890D02*
X156323214Y-104530414D01*
X156323214Y-104530414D02*
X156370833Y-104435176D01*
X156370833Y-104435176D02*
X156466071Y-104339938D01*
X156466071Y-104339938D02*
X156608928Y-104292319D01*
X156608928Y-104292319D02*
X156704166Y-104292319D01*
X156704166Y-104292319D02*
X156847023Y-104339938D01*
X156847023Y-104339938D02*
X156894642Y-104387557D01*
X157847023Y-105292319D02*
X157275595Y-105292319D01*
X157561309Y-105292319D02*
X157561309Y-104292319D01*
X157561309Y-104292319D02*
X157466071Y-104435176D01*
X157466071Y-104435176D02*
X157370833Y-104530414D01*
X157370833Y-104530414D02*
X157275595Y-104578033D01*
X158418452Y-104720890D02*
X158323214Y-104673271D01*
X158323214Y-104673271D02*
X158275595Y-104625652D01*
X158275595Y-104625652D02*
X158227976Y-104530414D01*
X158227976Y-104530414D02*
X158227976Y-104482795D01*
X158227976Y-104482795D02*
X158275595Y-104387557D01*
X158275595Y-104387557D02*
X158323214Y-104339938D01*
X158323214Y-104339938D02*
X158418452Y-104292319D01*
X158418452Y-104292319D02*
X158608928Y-104292319D01*
X158608928Y-104292319D02*
X158704166Y-104339938D01*
X158704166Y-104339938D02*
X158751785Y-104387557D01*
X158751785Y-104387557D02*
X158799404Y-104482795D01*
X158799404Y-104482795D02*
X158799404Y-104530414D01*
X158799404Y-104530414D02*
X158751785Y-104625652D01*
X158751785Y-104625652D02*
X158704166Y-104673271D01*
X158704166Y-104673271D02*
X158608928Y-104720890D01*
X158608928Y-104720890D02*
X158418452Y-104720890D01*
X158418452Y-104720890D02*
X158323214Y-104768509D01*
X158323214Y-104768509D02*
X158275595Y-104816128D01*
X158275595Y-104816128D02*
X158227976Y-104911366D01*
X158227976Y-104911366D02*
X158227976Y-105101842D01*
X158227976Y-105101842D02*
X158275595Y-105197080D01*
X158275595Y-105197080D02*
X158323214Y-105244700D01*
X158323214Y-105244700D02*
X158418452Y-105292319D01*
X158418452Y-105292319D02*
X158608928Y-105292319D01*
X158608928Y-105292319D02*
X158704166Y-105244700D01*
X158704166Y-105244700D02*
X158751785Y-105197080D01*
X158751785Y-105197080D02*
X158799404Y-105101842D01*
X158799404Y-105101842D02*
X158799404Y-104911366D01*
X158799404Y-104911366D02*
X158751785Y-104816128D01*
X158751785Y-104816128D02*
X158704166Y-104768509D01*
X158704166Y-104768509D02*
X158608928Y-104720890D01*
X157281009Y-118570833D02*
X157281009Y-118904166D01*
X157804819Y-118904166D02*
X156804819Y-118904166D01*
X156804819Y-118904166D02*
X156804819Y-118427976D01*
X157804819Y-117523214D02*
X157804819Y-118094642D01*
X157804819Y-117808928D02*
X156804819Y-117808928D01*
X156804819Y-117808928D02*
X156947676Y-117904166D01*
X156947676Y-117904166D02*
X157042914Y-117999404D01*
X157042914Y-117999404D02*
X157090533Y-118094642D01*
X190238095Y-43004819D02*
X190238095Y-42004819D01*
X190238095Y-42481009D02*
X190809523Y-42481009D01*
X190809523Y-43004819D02*
X190809523Y-42004819D01*
X191238095Y-42100057D02*
X191285714Y-42052438D01*
X191285714Y-42052438D02*
X191380952Y-42004819D01*
X191380952Y-42004819D02*
X191619047Y-42004819D01*
X191619047Y-42004819D02*
X191714285Y-42052438D01*
X191714285Y-42052438D02*
X191761904Y-42100057D01*
X191761904Y-42100057D02*
X191809523Y-42195295D01*
X191809523Y-42195295D02*
X191809523Y-42290533D01*
X191809523Y-42290533D02*
X191761904Y-42433390D01*
X191761904Y-42433390D02*
X191190476Y-43004819D01*
X191190476Y-43004819D02*
X191809523Y-43004819D01*
X182733333Y-117659580D02*
X182685714Y-117707200D01*
X182685714Y-117707200D02*
X182542857Y-117754819D01*
X182542857Y-117754819D02*
X182447619Y-117754819D01*
X182447619Y-117754819D02*
X182304762Y-117707200D01*
X182304762Y-117707200D02*
X182209524Y-117611961D01*
X182209524Y-117611961D02*
X182161905Y-117516723D01*
X182161905Y-117516723D02*
X182114286Y-117326247D01*
X182114286Y-117326247D02*
X182114286Y-117183390D01*
X182114286Y-117183390D02*
X182161905Y-116992914D01*
X182161905Y-116992914D02*
X182209524Y-116897676D01*
X182209524Y-116897676D02*
X182304762Y-116802438D01*
X182304762Y-116802438D02*
X182447619Y-116754819D01*
X182447619Y-116754819D02*
X182542857Y-116754819D01*
X182542857Y-116754819D02*
X182685714Y-116802438D01*
X182685714Y-116802438D02*
X182733333Y-116850057D01*
X183304762Y-117183390D02*
X183209524Y-117135771D01*
X183209524Y-117135771D02*
X183161905Y-117088152D01*
X183161905Y-117088152D02*
X183114286Y-116992914D01*
X183114286Y-116992914D02*
X183114286Y-116945295D01*
X183114286Y-116945295D02*
X183161905Y-116850057D01*
X183161905Y-116850057D02*
X183209524Y-116802438D01*
X183209524Y-116802438D02*
X183304762Y-116754819D01*
X183304762Y-116754819D02*
X183495238Y-116754819D01*
X183495238Y-116754819D02*
X183590476Y-116802438D01*
X183590476Y-116802438D02*
X183638095Y-116850057D01*
X183638095Y-116850057D02*
X183685714Y-116945295D01*
X183685714Y-116945295D02*
X183685714Y-116992914D01*
X183685714Y-116992914D02*
X183638095Y-117088152D01*
X183638095Y-117088152D02*
X183590476Y-117135771D01*
X183590476Y-117135771D02*
X183495238Y-117183390D01*
X183495238Y-117183390D02*
X183304762Y-117183390D01*
X183304762Y-117183390D02*
X183209524Y-117231009D01*
X183209524Y-117231009D02*
X183161905Y-117278628D01*
X183161905Y-117278628D02*
X183114286Y-117373866D01*
X183114286Y-117373866D02*
X183114286Y-117564342D01*
X183114286Y-117564342D02*
X183161905Y-117659580D01*
X183161905Y-117659580D02*
X183209524Y-117707200D01*
X183209524Y-117707200D02*
X183304762Y-117754819D01*
X183304762Y-117754819D02*
X183495238Y-117754819D01*
X183495238Y-117754819D02*
X183590476Y-117707200D01*
X183590476Y-117707200D02*
X183638095Y-117659580D01*
X183638095Y-117659580D02*
X183685714Y-117564342D01*
X183685714Y-117564342D02*
X183685714Y-117373866D01*
X183685714Y-117373866D02*
X183638095Y-117278628D01*
X183638095Y-117278628D02*
X183590476Y-117231009D01*
X183590476Y-117231009D02*
X183495238Y-117183390D01*
X130059580Y-56692857D02*
X130107200Y-56740476D01*
X130107200Y-56740476D02*
X130154819Y-56883333D01*
X130154819Y-56883333D02*
X130154819Y-56978571D01*
X130154819Y-56978571D02*
X130107200Y-57121428D01*
X130107200Y-57121428D02*
X130011961Y-57216666D01*
X130011961Y-57216666D02*
X129916723Y-57264285D01*
X129916723Y-57264285D02*
X129726247Y-57311904D01*
X129726247Y-57311904D02*
X129583390Y-57311904D01*
X129583390Y-57311904D02*
X129392914Y-57264285D01*
X129392914Y-57264285D02*
X129297676Y-57216666D01*
X129297676Y-57216666D02*
X129202438Y-57121428D01*
X129202438Y-57121428D02*
X129154819Y-56978571D01*
X129154819Y-56978571D02*
X129154819Y-56883333D01*
X129154819Y-56883333D02*
X129202438Y-56740476D01*
X129202438Y-56740476D02*
X129250057Y-56692857D01*
X130154819Y-55740476D02*
X130154819Y-56311904D01*
X130154819Y-56026190D02*
X129154819Y-56026190D01*
X129154819Y-56026190D02*
X129297676Y-56121428D01*
X129297676Y-56121428D02*
X129392914Y-56216666D01*
X129392914Y-56216666D02*
X129440533Y-56311904D01*
X130154819Y-54788095D02*
X130154819Y-55359523D01*
X130154819Y-55073809D02*
X129154819Y-55073809D01*
X129154819Y-55073809D02*
X129297676Y-55169047D01*
X129297676Y-55169047D02*
X129392914Y-55264285D01*
X129392914Y-55264285D02*
X129440533Y-55359523D01*
D17*
X174333333Y-121762180D02*
X174285714Y-121809800D01*
X174285714Y-121809800D02*
X174142857Y-121857419D01*
X174142857Y-121857419D02*
X174047619Y-121857419D01*
X174047619Y-121857419D02*
X173904762Y-121809800D01*
X173904762Y-121809800D02*
X173809524Y-121714561D01*
X173809524Y-121714561D02*
X173761905Y-121619323D01*
X173761905Y-121619323D02*
X173714286Y-121428847D01*
X173714286Y-121428847D02*
X173714286Y-121285990D01*
X173714286Y-121285990D02*
X173761905Y-121095514D01*
X173761905Y-121095514D02*
X173809524Y-121000276D01*
X173809524Y-121000276D02*
X173904762Y-120905038D01*
X173904762Y-120905038D02*
X174047619Y-120857419D01*
X174047619Y-120857419D02*
X174142857Y-120857419D01*
X174142857Y-120857419D02*
X174285714Y-120905038D01*
X174285714Y-120905038D02*
X174333333Y-120952657D01*
X175190476Y-120857419D02*
X175000000Y-120857419D01*
X175000000Y-120857419D02*
X174904762Y-120905038D01*
X174904762Y-120905038D02*
X174857143Y-120952657D01*
X174857143Y-120952657D02*
X174761905Y-121095514D01*
X174761905Y-121095514D02*
X174714286Y-121285990D01*
X174714286Y-121285990D02*
X174714286Y-121666942D01*
X174714286Y-121666942D02*
X174761905Y-121762180D01*
X174761905Y-121762180D02*
X174809524Y-121809800D01*
X174809524Y-121809800D02*
X174904762Y-121857419D01*
X174904762Y-121857419D02*
X175095238Y-121857419D01*
X175095238Y-121857419D02*
X175190476Y-121809800D01*
X175190476Y-121809800D02*
X175238095Y-121762180D01*
X175238095Y-121762180D02*
X175285714Y-121666942D01*
X175285714Y-121666942D02*
X175285714Y-121428847D01*
X175285714Y-121428847D02*
X175238095Y-121333609D01*
X175238095Y-121333609D02*
X175190476Y-121285990D01*
X175190476Y-121285990D02*
X175095238Y-121238371D01*
X175095238Y-121238371D02*
X174904762Y-121238371D01*
X174904762Y-121238371D02*
X174809524Y-121285990D01*
X174809524Y-121285990D02*
X174761905Y-121333609D01*
X174761905Y-121333609D02*
X174714286Y-121428847D01*
D14*
X174750000Y-104144819D02*
X174750000Y-104382914D01*
X174511905Y-104287676D02*
X174750000Y-104382914D01*
X174750000Y-104382914D02*
X174988095Y-104287676D01*
X174607143Y-104573390D02*
X174750000Y-104382914D01*
X174750000Y-104382914D02*
X174892857Y-104573390D01*
X130059580Y-59542857D02*
X130107200Y-59590476D01*
X130107200Y-59590476D02*
X130154819Y-59733333D01*
X130154819Y-59733333D02*
X130154819Y-59828571D01*
X130154819Y-59828571D02*
X130107200Y-59971428D01*
X130107200Y-59971428D02*
X130011961Y-60066666D01*
X130011961Y-60066666D02*
X129916723Y-60114285D01*
X129916723Y-60114285D02*
X129726247Y-60161904D01*
X129726247Y-60161904D02*
X129583390Y-60161904D01*
X129583390Y-60161904D02*
X129392914Y-60114285D01*
X129392914Y-60114285D02*
X129297676Y-60066666D01*
X129297676Y-60066666D02*
X129202438Y-59971428D01*
X129202438Y-59971428D02*
X129154819Y-59828571D01*
X129154819Y-59828571D02*
X129154819Y-59733333D01*
X129154819Y-59733333D02*
X129202438Y-59590476D01*
X129202438Y-59590476D02*
X129250057Y-59542857D01*
X130154819Y-58590476D02*
X130154819Y-59161904D01*
X130154819Y-58876190D02*
X129154819Y-58876190D01*
X129154819Y-58876190D02*
X129297676Y-58971428D01*
X129297676Y-58971428D02*
X129392914Y-59066666D01*
X129392914Y-59066666D02*
X129440533Y-59161904D01*
X129250057Y-58209523D02*
X129202438Y-58161904D01*
X129202438Y-58161904D02*
X129154819Y-58066666D01*
X129154819Y-58066666D02*
X129154819Y-57828571D01*
X129154819Y-57828571D02*
X129202438Y-57733333D01*
X129202438Y-57733333D02*
X129250057Y-57685714D01*
X129250057Y-57685714D02*
X129345295Y-57638095D01*
X129345295Y-57638095D02*
X129440533Y-57638095D01*
X129440533Y-57638095D02*
X129583390Y-57685714D01*
X129583390Y-57685714D02*
X130154819Y-58257142D01*
X130154819Y-58257142D02*
X130154819Y-57638095D01*
X130184580Y-69642857D02*
X130232200Y-69690476D01*
X130232200Y-69690476D02*
X130279819Y-69833333D01*
X130279819Y-69833333D02*
X130279819Y-69928571D01*
X130279819Y-69928571D02*
X130232200Y-70071428D01*
X130232200Y-70071428D02*
X130136961Y-70166666D01*
X130136961Y-70166666D02*
X130041723Y-70214285D01*
X130041723Y-70214285D02*
X129851247Y-70261904D01*
X129851247Y-70261904D02*
X129708390Y-70261904D01*
X129708390Y-70261904D02*
X129517914Y-70214285D01*
X129517914Y-70214285D02*
X129422676Y-70166666D01*
X129422676Y-70166666D02*
X129327438Y-70071428D01*
X129327438Y-70071428D02*
X129279819Y-69928571D01*
X129279819Y-69928571D02*
X129279819Y-69833333D01*
X129279819Y-69833333D02*
X129327438Y-69690476D01*
X129327438Y-69690476D02*
X129375057Y-69642857D01*
X130279819Y-68690476D02*
X130279819Y-69261904D01*
X130279819Y-68976190D02*
X129279819Y-68976190D01*
X129279819Y-68976190D02*
X129422676Y-69071428D01*
X129422676Y-69071428D02*
X129517914Y-69166666D01*
X129517914Y-69166666D02*
X129565533Y-69261904D01*
X129279819Y-68071428D02*
X129279819Y-67976190D01*
X129279819Y-67976190D02*
X129327438Y-67880952D01*
X129327438Y-67880952D02*
X129375057Y-67833333D01*
X129375057Y-67833333D02*
X129470295Y-67785714D01*
X129470295Y-67785714D02*
X129660771Y-67738095D01*
X129660771Y-67738095D02*
X129898866Y-67738095D01*
X129898866Y-67738095D02*
X130089342Y-67785714D01*
X130089342Y-67785714D02*
X130184580Y-67833333D01*
X130184580Y-67833333D02*
X130232200Y-67880952D01*
X130232200Y-67880952D02*
X130279819Y-67976190D01*
X130279819Y-67976190D02*
X130279819Y-68071428D01*
X130279819Y-68071428D02*
X130232200Y-68166666D01*
X130232200Y-68166666D02*
X130184580Y-68214285D01*
X130184580Y-68214285D02*
X130089342Y-68261904D01*
X130089342Y-68261904D02*
X129898866Y-68309523D01*
X129898866Y-68309523D02*
X129660771Y-68309523D01*
X129660771Y-68309523D02*
X129470295Y-68261904D01*
X129470295Y-68261904D02*
X129375057Y-68214285D01*
X129375057Y-68214285D02*
X129327438Y-68166666D01*
X129327438Y-68166666D02*
X129279819Y-68071428D01*
X166533333Y-109959580D02*
X166485714Y-110007200D01*
X166485714Y-110007200D02*
X166342857Y-110054819D01*
X166342857Y-110054819D02*
X166247619Y-110054819D01*
X166247619Y-110054819D02*
X166104762Y-110007200D01*
X166104762Y-110007200D02*
X166009524Y-109911961D01*
X166009524Y-109911961D02*
X165961905Y-109816723D01*
X165961905Y-109816723D02*
X165914286Y-109626247D01*
X165914286Y-109626247D02*
X165914286Y-109483390D01*
X165914286Y-109483390D02*
X165961905Y-109292914D01*
X165961905Y-109292914D02*
X166009524Y-109197676D01*
X166009524Y-109197676D02*
X166104762Y-109102438D01*
X166104762Y-109102438D02*
X166247619Y-109054819D01*
X166247619Y-109054819D02*
X166342857Y-109054819D01*
X166342857Y-109054819D02*
X166485714Y-109102438D01*
X166485714Y-109102438D02*
X166533333Y-109150057D01*
X166866667Y-109054819D02*
X167533333Y-109054819D01*
X167533333Y-109054819D02*
X167104762Y-110054819D01*
X134507142Y-113758216D02*
X134459523Y-113805836D01*
X134459523Y-113805836D02*
X134316666Y-113853455D01*
X134316666Y-113853455D02*
X134221428Y-113853455D01*
X134221428Y-113853455D02*
X134078571Y-113805836D01*
X134078571Y-113805836D02*
X133983333Y-113710597D01*
X133983333Y-113710597D02*
X133935714Y-113615359D01*
X133935714Y-113615359D02*
X133888095Y-113424883D01*
X133888095Y-113424883D02*
X133888095Y-113282026D01*
X133888095Y-113282026D02*
X133935714Y-113091550D01*
X133935714Y-113091550D02*
X133983333Y-112996312D01*
X133983333Y-112996312D02*
X134078571Y-112901074D01*
X134078571Y-112901074D02*
X134221428Y-112853455D01*
X134221428Y-112853455D02*
X134316666Y-112853455D01*
X134316666Y-112853455D02*
X134459523Y-112901074D01*
X134459523Y-112901074D02*
X134507142Y-112948693D01*
X135459523Y-113853455D02*
X134888095Y-113853455D01*
X135173809Y-113853455D02*
X135173809Y-112853455D01*
X135173809Y-112853455D02*
X135078571Y-112996312D01*
X135078571Y-112996312D02*
X134983333Y-113091550D01*
X134983333Y-113091550D02*
X134888095Y-113139169D01*
X136316666Y-113186788D02*
X136316666Y-113853455D01*
X136078571Y-112805836D02*
X135840476Y-113520121D01*
X135840476Y-113520121D02*
X136459523Y-113520121D01*
X119107142Y-104958216D02*
X119059523Y-105005836D01*
X119059523Y-105005836D02*
X118916666Y-105053455D01*
X118916666Y-105053455D02*
X118821428Y-105053455D01*
X118821428Y-105053455D02*
X118678571Y-105005836D01*
X118678571Y-105005836D02*
X118583333Y-104910597D01*
X118583333Y-104910597D02*
X118535714Y-104815359D01*
X118535714Y-104815359D02*
X118488095Y-104624883D01*
X118488095Y-104624883D02*
X118488095Y-104482026D01*
X118488095Y-104482026D02*
X118535714Y-104291550D01*
X118535714Y-104291550D02*
X118583333Y-104196312D01*
X118583333Y-104196312D02*
X118678571Y-104101074D01*
X118678571Y-104101074D02*
X118821428Y-104053455D01*
X118821428Y-104053455D02*
X118916666Y-104053455D01*
X118916666Y-104053455D02*
X119059523Y-104101074D01*
X119059523Y-104101074D02*
X119107142Y-104148693D01*
X120059523Y-105053455D02*
X119488095Y-105053455D01*
X119773809Y-105053455D02*
X119773809Y-104053455D01*
X119773809Y-104053455D02*
X119678571Y-104196312D01*
X119678571Y-104196312D02*
X119583333Y-104291550D01*
X119583333Y-104291550D02*
X119488095Y-104339169D01*
X120964285Y-104053455D02*
X120488095Y-104053455D01*
X120488095Y-104053455D02*
X120440476Y-104529645D01*
X120440476Y-104529645D02*
X120488095Y-104482026D01*
X120488095Y-104482026D02*
X120583333Y-104434407D01*
X120583333Y-104434407D02*
X120821428Y-104434407D01*
X120821428Y-104434407D02*
X120916666Y-104482026D01*
X120916666Y-104482026D02*
X120964285Y-104529645D01*
X120964285Y-104529645D02*
X121011904Y-104624883D01*
X121011904Y-104624883D02*
X121011904Y-104862978D01*
X121011904Y-104862978D02*
X120964285Y-104958216D01*
X120964285Y-104958216D02*
X120916666Y-105005836D01*
X120916666Y-105005836D02*
X120821428Y-105053455D01*
X120821428Y-105053455D02*
X120583333Y-105053455D01*
X120583333Y-105053455D02*
X120488095Y-105005836D01*
X120488095Y-105005836D02*
X120440476Y-104958216D01*
X110238095Y-43004819D02*
X110238095Y-42004819D01*
X110238095Y-42481009D02*
X110809523Y-42481009D01*
X110809523Y-43004819D02*
X110809523Y-42004819D01*
X111809523Y-43004819D02*
X111238095Y-43004819D01*
X111523809Y-43004819D02*
X111523809Y-42004819D01*
X111523809Y-42004819D02*
X111428571Y-42147676D01*
X111428571Y-42147676D02*
X111333333Y-42242914D01*
X111333333Y-42242914D02*
X111238095Y-42290533D01*
X177633333Y-101459819D02*
X177300000Y-100983628D01*
X177061905Y-101459819D02*
X177061905Y-100459819D01*
X177061905Y-100459819D02*
X177442857Y-100459819D01*
X177442857Y-100459819D02*
X177538095Y-100507438D01*
X177538095Y-100507438D02*
X177585714Y-100555057D01*
X177585714Y-100555057D02*
X177633333Y-100650295D01*
X177633333Y-100650295D02*
X177633333Y-100793152D01*
X177633333Y-100793152D02*
X177585714Y-100888390D01*
X177585714Y-100888390D02*
X177538095Y-100936009D01*
X177538095Y-100936009D02*
X177442857Y-100983628D01*
X177442857Y-100983628D02*
X177061905Y-100983628D01*
X177966667Y-100459819D02*
X178585714Y-100459819D01*
X178585714Y-100459819D02*
X178252381Y-100840771D01*
X178252381Y-100840771D02*
X178395238Y-100840771D01*
X178395238Y-100840771D02*
X178490476Y-100888390D01*
X178490476Y-100888390D02*
X178538095Y-100936009D01*
X178538095Y-100936009D02*
X178585714Y-101031247D01*
X178585714Y-101031247D02*
X178585714Y-101269342D01*
X178585714Y-101269342D02*
X178538095Y-101364580D01*
X178538095Y-101364580D02*
X178490476Y-101412200D01*
X178490476Y-101412200D02*
X178395238Y-101459819D01*
X178395238Y-101459819D02*
X178109524Y-101459819D01*
X178109524Y-101459819D02*
X178014286Y-101412200D01*
X178014286Y-101412200D02*
X177966667Y-101364580D01*
X170733333Y-101949819D02*
X170400000Y-101473628D01*
X170161905Y-101949819D02*
X170161905Y-100949819D01*
X170161905Y-100949819D02*
X170542857Y-100949819D01*
X170542857Y-100949819D02*
X170638095Y-100997438D01*
X170638095Y-100997438D02*
X170685714Y-101045057D01*
X170685714Y-101045057D02*
X170733333Y-101140295D01*
X170733333Y-101140295D02*
X170733333Y-101283152D01*
X170733333Y-101283152D02*
X170685714Y-101378390D01*
X170685714Y-101378390D02*
X170638095Y-101426009D01*
X170638095Y-101426009D02*
X170542857Y-101473628D01*
X170542857Y-101473628D02*
X170161905Y-101473628D01*
X171066667Y-100949819D02*
X171733333Y-100949819D01*
X171733333Y-100949819D02*
X171304762Y-101949819D01*
X134507142Y-116558216D02*
X134459523Y-116605836D01*
X134459523Y-116605836D02*
X134316666Y-116653455D01*
X134316666Y-116653455D02*
X134221428Y-116653455D01*
X134221428Y-116653455D02*
X134078571Y-116605836D01*
X134078571Y-116605836D02*
X133983333Y-116510597D01*
X133983333Y-116510597D02*
X133935714Y-116415359D01*
X133935714Y-116415359D02*
X133888095Y-116224883D01*
X133888095Y-116224883D02*
X133888095Y-116082026D01*
X133888095Y-116082026D02*
X133935714Y-115891550D01*
X133935714Y-115891550D02*
X133983333Y-115796312D01*
X133983333Y-115796312D02*
X134078571Y-115701074D01*
X134078571Y-115701074D02*
X134221428Y-115653455D01*
X134221428Y-115653455D02*
X134316666Y-115653455D01*
X134316666Y-115653455D02*
X134459523Y-115701074D01*
X134459523Y-115701074D02*
X134507142Y-115748693D01*
X135459523Y-116653455D02*
X134888095Y-116653455D01*
X135173809Y-116653455D02*
X135173809Y-115653455D01*
X135173809Y-115653455D02*
X135078571Y-115796312D01*
X135078571Y-115796312D02*
X134983333Y-115891550D01*
X134983333Y-115891550D02*
X134888095Y-115939169D01*
X135792857Y-115653455D02*
X136411904Y-115653455D01*
X136411904Y-115653455D02*
X136078571Y-116034407D01*
X136078571Y-116034407D02*
X136221428Y-116034407D01*
X136221428Y-116034407D02*
X136316666Y-116082026D01*
X136316666Y-116082026D02*
X136364285Y-116129645D01*
X136364285Y-116129645D02*
X136411904Y-116224883D01*
X136411904Y-116224883D02*
X136411904Y-116462978D01*
X136411904Y-116462978D02*
X136364285Y-116558216D01*
X136364285Y-116558216D02*
X136316666Y-116605836D01*
X136316666Y-116605836D02*
X136221428Y-116653455D01*
X136221428Y-116653455D02*
X135935714Y-116653455D01*
X135935714Y-116653455D02*
X135840476Y-116605836D01*
X135840476Y-116605836D02*
X135792857Y-116558216D01*
X129654819Y-87266666D02*
X129178628Y-87599999D01*
X129654819Y-87838094D02*
X128654819Y-87838094D01*
X128654819Y-87838094D02*
X128654819Y-87457142D01*
X128654819Y-87457142D02*
X128702438Y-87361904D01*
X128702438Y-87361904D02*
X128750057Y-87314285D01*
X128750057Y-87314285D02*
X128845295Y-87266666D01*
X128845295Y-87266666D02*
X128988152Y-87266666D01*
X128988152Y-87266666D02*
X129083390Y-87314285D01*
X129083390Y-87314285D02*
X129131009Y-87361904D01*
X129131009Y-87361904D02*
X129178628Y-87457142D01*
X129178628Y-87457142D02*
X129178628Y-87838094D01*
X128654819Y-86361904D02*
X128654819Y-86838094D01*
X128654819Y-86838094D02*
X129131009Y-86885713D01*
X129131009Y-86885713D02*
X129083390Y-86838094D01*
X129083390Y-86838094D02*
X129035771Y-86742856D01*
X129035771Y-86742856D02*
X129035771Y-86504761D01*
X129035771Y-86504761D02*
X129083390Y-86409523D01*
X129083390Y-86409523D02*
X129131009Y-86361904D01*
X129131009Y-86361904D02*
X129226247Y-86314285D01*
X129226247Y-86314285D02*
X129464342Y-86314285D01*
X129464342Y-86314285D02*
X129559580Y-86361904D01*
X129559580Y-86361904D02*
X129607200Y-86409523D01*
X129607200Y-86409523D02*
X129654819Y-86504761D01*
X129654819Y-86504761D02*
X129654819Y-86742856D01*
X129654819Y-86742856D02*
X129607200Y-86838094D01*
X129607200Y-86838094D02*
X129559580Y-86885713D01*
X129954819Y-84466666D02*
X129478628Y-84799999D01*
X129954819Y-85038094D02*
X128954819Y-85038094D01*
X128954819Y-85038094D02*
X128954819Y-84657142D01*
X128954819Y-84657142D02*
X129002438Y-84561904D01*
X129002438Y-84561904D02*
X129050057Y-84514285D01*
X129050057Y-84514285D02*
X129145295Y-84466666D01*
X129145295Y-84466666D02*
X129288152Y-84466666D01*
X129288152Y-84466666D02*
X129383390Y-84514285D01*
X129383390Y-84514285D02*
X129431009Y-84561904D01*
X129431009Y-84561904D02*
X129478628Y-84657142D01*
X129478628Y-84657142D02*
X129478628Y-85038094D01*
X129288152Y-83609523D02*
X129954819Y-83609523D01*
X128907200Y-83847618D02*
X129621485Y-84085713D01*
X129621485Y-84085713D02*
X129621485Y-83466666D01*
X130184580Y-66566666D02*
X130232200Y-66614285D01*
X130232200Y-66614285D02*
X130279819Y-66757142D01*
X130279819Y-66757142D02*
X130279819Y-66852380D01*
X130279819Y-66852380D02*
X130232200Y-66995237D01*
X130232200Y-66995237D02*
X130136961Y-67090475D01*
X130136961Y-67090475D02*
X130041723Y-67138094D01*
X130041723Y-67138094D02*
X129851247Y-67185713D01*
X129851247Y-67185713D02*
X129708390Y-67185713D01*
X129708390Y-67185713D02*
X129517914Y-67138094D01*
X129517914Y-67138094D02*
X129422676Y-67090475D01*
X129422676Y-67090475D02*
X129327438Y-66995237D01*
X129327438Y-66995237D02*
X129279819Y-66852380D01*
X129279819Y-66852380D02*
X129279819Y-66757142D01*
X129279819Y-66757142D02*
X129327438Y-66614285D01*
X129327438Y-66614285D02*
X129375057Y-66566666D01*
X130279819Y-66090475D02*
X130279819Y-65899999D01*
X130279819Y-65899999D02*
X130232200Y-65804761D01*
X130232200Y-65804761D02*
X130184580Y-65757142D01*
X130184580Y-65757142D02*
X130041723Y-65661904D01*
X130041723Y-65661904D02*
X129851247Y-65614285D01*
X129851247Y-65614285D02*
X129470295Y-65614285D01*
X129470295Y-65614285D02*
X129375057Y-65661904D01*
X129375057Y-65661904D02*
X129327438Y-65709523D01*
X129327438Y-65709523D02*
X129279819Y-65804761D01*
X129279819Y-65804761D02*
X129279819Y-65995237D01*
X129279819Y-65995237D02*
X129327438Y-66090475D01*
X129327438Y-66090475D02*
X129375057Y-66138094D01*
X129375057Y-66138094D02*
X129470295Y-66185713D01*
X129470295Y-66185713D02*
X129708390Y-66185713D01*
X129708390Y-66185713D02*
X129803628Y-66138094D01*
X129803628Y-66138094D02*
X129851247Y-66090475D01*
X129851247Y-66090475D02*
X129898866Y-65995237D01*
X129898866Y-65995237D02*
X129898866Y-65804761D01*
X129898866Y-65804761D02*
X129851247Y-65709523D01*
X129851247Y-65709523D02*
X129803628Y-65661904D01*
X129803628Y-65661904D02*
X129708390Y-65614285D01*
X127128150Y-116953455D02*
X127128150Y-117191550D01*
X126890055Y-117096312D02*
X127128150Y-117191550D01*
X127128150Y-117191550D02*
X127366245Y-117096312D01*
X126985293Y-117382026D02*
X127128150Y-117191550D01*
X127128150Y-117191550D02*
X127271007Y-117382026D01*
D17*
X127107142Y-100960816D02*
X127059523Y-101008436D01*
X127059523Y-101008436D02*
X126916666Y-101056055D01*
X126916666Y-101056055D02*
X126821428Y-101056055D01*
X126821428Y-101056055D02*
X126678571Y-101008436D01*
X126678571Y-101008436D02*
X126583333Y-100913197D01*
X126583333Y-100913197D02*
X126535714Y-100817959D01*
X126535714Y-100817959D02*
X126488095Y-100627483D01*
X126488095Y-100627483D02*
X126488095Y-100484626D01*
X126488095Y-100484626D02*
X126535714Y-100294150D01*
X126535714Y-100294150D02*
X126583333Y-100198912D01*
X126583333Y-100198912D02*
X126678571Y-100103674D01*
X126678571Y-100103674D02*
X126821428Y-100056055D01*
X126821428Y-100056055D02*
X126916666Y-100056055D01*
X126916666Y-100056055D02*
X127059523Y-100103674D01*
X127059523Y-100103674D02*
X127107142Y-100151293D01*
X128059523Y-101056055D02*
X127488095Y-101056055D01*
X127773809Y-101056055D02*
X127773809Y-100056055D01*
X127773809Y-100056055D02*
X127678571Y-100198912D01*
X127678571Y-100198912D02*
X127583333Y-100294150D01*
X127583333Y-100294150D02*
X127488095Y-100341769D01*
X128916666Y-100056055D02*
X128726190Y-100056055D01*
X128726190Y-100056055D02*
X128630952Y-100103674D01*
X128630952Y-100103674D02*
X128583333Y-100151293D01*
X128583333Y-100151293D02*
X128488095Y-100294150D01*
X128488095Y-100294150D02*
X128440476Y-100484626D01*
X128440476Y-100484626D02*
X128440476Y-100865578D01*
X128440476Y-100865578D02*
X128488095Y-100960816D01*
X128488095Y-100960816D02*
X128535714Y-101008436D01*
X128535714Y-101008436D02*
X128630952Y-101056055D01*
X128630952Y-101056055D02*
X128821428Y-101056055D01*
X128821428Y-101056055D02*
X128916666Y-101008436D01*
X128916666Y-101008436D02*
X128964285Y-100960816D01*
X128964285Y-100960816D02*
X129011904Y-100865578D01*
X129011904Y-100865578D02*
X129011904Y-100627483D01*
X129011904Y-100627483D02*
X128964285Y-100532245D01*
X128964285Y-100532245D02*
X128916666Y-100484626D01*
X128916666Y-100484626D02*
X128821428Y-100437007D01*
X128821428Y-100437007D02*
X128630952Y-100437007D01*
X128630952Y-100437007D02*
X128535714Y-100484626D01*
X128535714Y-100484626D02*
X128488095Y-100532245D01*
X128488095Y-100532245D02*
X128440476Y-100627483D01*
D14*
X123783333Y-121554819D02*
X123450000Y-121078628D01*
X123211905Y-121554819D02*
X123211905Y-120554819D01*
X123211905Y-120554819D02*
X123592857Y-120554819D01*
X123592857Y-120554819D02*
X123688095Y-120602438D01*
X123688095Y-120602438D02*
X123735714Y-120650057D01*
X123735714Y-120650057D02*
X123783333Y-120745295D01*
X123783333Y-120745295D02*
X123783333Y-120888152D01*
X123783333Y-120888152D02*
X123735714Y-120983390D01*
X123735714Y-120983390D02*
X123688095Y-121031009D01*
X123688095Y-121031009D02*
X123592857Y-121078628D01*
X123592857Y-121078628D02*
X123211905Y-121078628D01*
X124735714Y-121554819D02*
X124164286Y-121554819D01*
X124450000Y-121554819D02*
X124450000Y-120554819D01*
X124450000Y-120554819D02*
X124354762Y-120697676D01*
X124354762Y-120697676D02*
X124259524Y-120792914D01*
X124259524Y-120792914D02*
X124164286Y-120840533D01*
X166533333Y-106759580D02*
X166485714Y-106807200D01*
X166485714Y-106807200D02*
X166342857Y-106854819D01*
X166342857Y-106854819D02*
X166247619Y-106854819D01*
X166247619Y-106854819D02*
X166104762Y-106807200D01*
X166104762Y-106807200D02*
X166009524Y-106711961D01*
X166009524Y-106711961D02*
X165961905Y-106616723D01*
X165961905Y-106616723D02*
X165914286Y-106426247D01*
X165914286Y-106426247D02*
X165914286Y-106283390D01*
X165914286Y-106283390D02*
X165961905Y-106092914D01*
X165961905Y-106092914D02*
X166009524Y-105997676D01*
X166009524Y-105997676D02*
X166104762Y-105902438D01*
X166104762Y-105902438D02*
X166247619Y-105854819D01*
X166247619Y-105854819D02*
X166342857Y-105854819D01*
X166342857Y-105854819D02*
X166485714Y-105902438D01*
X166485714Y-105902438D02*
X166533333Y-105950057D01*
X167438095Y-105854819D02*
X166961905Y-105854819D01*
X166961905Y-105854819D02*
X166914286Y-106331009D01*
X166914286Y-106331009D02*
X166961905Y-106283390D01*
X166961905Y-106283390D02*
X167057143Y-106235771D01*
X167057143Y-106235771D02*
X167295238Y-106235771D01*
X167295238Y-106235771D02*
X167390476Y-106283390D01*
X167390476Y-106283390D02*
X167438095Y-106331009D01*
X167438095Y-106331009D02*
X167485714Y-106426247D01*
X167485714Y-106426247D02*
X167485714Y-106664342D01*
X167485714Y-106664342D02*
X167438095Y-106759580D01*
X167438095Y-106759580D02*
X167390476Y-106807200D01*
X167390476Y-106807200D02*
X167295238Y-106854819D01*
X167295238Y-106854819D02*
X167057143Y-106854819D01*
X167057143Y-106854819D02*
X166961905Y-106807200D01*
X166961905Y-106807200D02*
X166914286Y-106759580D01*
X130783333Y-121753455D02*
X130450000Y-121277264D01*
X130211905Y-121753455D02*
X130211905Y-120753455D01*
X130211905Y-120753455D02*
X130592857Y-120753455D01*
X130592857Y-120753455D02*
X130688095Y-120801074D01*
X130688095Y-120801074D02*
X130735714Y-120848693D01*
X130735714Y-120848693D02*
X130783333Y-120943931D01*
X130783333Y-120943931D02*
X130783333Y-121086788D01*
X130783333Y-121086788D02*
X130735714Y-121182026D01*
X130735714Y-121182026D02*
X130688095Y-121229645D01*
X130688095Y-121229645D02*
X130592857Y-121277264D01*
X130592857Y-121277264D02*
X130211905Y-121277264D01*
X131164286Y-120848693D02*
X131211905Y-120801074D01*
X131211905Y-120801074D02*
X131307143Y-120753455D01*
X131307143Y-120753455D02*
X131545238Y-120753455D01*
X131545238Y-120753455D02*
X131640476Y-120801074D01*
X131640476Y-120801074D02*
X131688095Y-120848693D01*
X131688095Y-120848693D02*
X131735714Y-120943931D01*
X131735714Y-120943931D02*
X131735714Y-121039169D01*
X131735714Y-121039169D02*
X131688095Y-121182026D01*
X131688095Y-121182026D02*
X131116667Y-121753455D01*
X131116667Y-121753455D02*
X131735714Y-121753455D01*
D18*
G04 #@! TO.C,C17*
X157910000Y-109888752D02*
X157910000Y-108466248D01*
X156090000Y-109888752D02*
X156090000Y-108466248D01*
G04 #@! TO.C,J5*
X153620000Y-46330000D02*
X153620000Y-43670000D01*
X151020000Y-46330000D02*
X153620000Y-46330000D01*
X151020000Y-46330000D02*
X151020000Y-43670000D01*
X151020000Y-43670000D02*
X153620000Y-43670000D01*
X148420000Y-45000000D02*
X148420000Y-43670000D01*
X148420000Y-43670000D02*
X149750000Y-43670000D01*
D17*
G04 #@! TO.C,J2A1*
X179610000Y-49190000D02*
G75*
G02*
X179610000Y-49090000I0J50000D01*
G01*
X179610000Y-49090000D02*
G75*
G02*
X179610000Y-49190000I0J-50000D01*
G01*
X118650000Y-49190000D02*
G75*
G02*
X118650000Y-49090000I0J50000D01*
G01*
X118650000Y-49090000D02*
G75*
G02*
X118650000Y-49190000I0J-50000D01*
G01*
D12*
X183355000Y-98435000D02*
X183355000Y-49665000D01*
X183355000Y-49665000D02*
X178405000Y-49665000D01*
D17*
X179610000Y-49190000D02*
X179610000Y-49190000D01*
X179610000Y-49090000D02*
X179610000Y-49090000D01*
D12*
X178405000Y-98435000D02*
X183355000Y-98435000D01*
X178405000Y-49665000D02*
X178405000Y-98435000D01*
X122395000Y-98435000D02*
X122395000Y-49665000D01*
X122395000Y-49665000D02*
X117445000Y-49665000D01*
D17*
X118650000Y-49190000D02*
X118650000Y-49190000D01*
X118650000Y-49090000D02*
X118650000Y-49090000D01*
D12*
X117445000Y-98435000D02*
X122395000Y-98435000D01*
X117445000Y-49665000D02*
X117445000Y-98435000D01*
G04 #@! TO.C,J1*
X166300000Y-127987500D02*
X166300000Y-120387500D01*
X166300000Y-120387500D02*
X156200000Y-120387500D01*
X158700000Y-127987500D02*
X166300000Y-127987500D01*
X156200000Y-120387500D02*
X156200000Y-124487500D01*
D17*
G04 #@! TO.C,TP2*
X132150000Y-63100000D02*
G75*
G02*
X132050000Y-63100000I-50000J0D01*
G01*
X132050000Y-63100000D02*
G75*
G02*
X132150000Y-63100000I50000J0D01*
G01*
X132150000Y-63100000D02*
X132150000Y-63100000D01*
X132050000Y-63100000D02*
X132050000Y-63100000D01*
D18*
G04 #@! TO.C,C19*
X151360000Y-108488748D02*
X151360000Y-109911252D01*
X148640000Y-108488748D02*
X148640000Y-109911252D01*
G04 #@! TO.C,L2*
X143315000Y-98802500D02*
X149985000Y-98802500D01*
X143315000Y-105672500D02*
X143315000Y-98802500D01*
X149985000Y-98802500D02*
X149985000Y-105672500D01*
X149985000Y-105672500D02*
X143315000Y-105672500D01*
G04 #@! TO.C,C20*
X147660000Y-108488748D02*
X147660000Y-109911252D01*
X144940000Y-108488748D02*
X144940000Y-109911252D01*
G04 #@! TO.C,C18*
X153898752Y-103677500D02*
X152476248Y-103677500D01*
X153898752Y-105497500D02*
X152476248Y-105497500D01*
G04 #@! TO.C,IC4*
X152190000Y-108997500D02*
X152190000Y-108197500D01*
X152190000Y-108997500D02*
X152190000Y-109797500D01*
X155260000Y-109957500D02*
X155260000Y-108197500D01*
X152240000Y-110297500D02*
X151910000Y-110537500D01*
X151910000Y-110057500D01*
X152240000Y-110297500D01*
G36*
X152240000Y-110297500D02*
G01*
X151910000Y-110537500D01*
X151910000Y-110057500D01*
X152240000Y-110297500D01*
G37*
G04 #@! TO.C,F1*
X160647936Y-117377500D02*
X161852064Y-117377500D01*
X160647936Y-119197500D02*
X161852064Y-119197500D01*
G04 #@! TO.C,C8*
X182140000Y-113185112D02*
X182140000Y-114607616D01*
X183960000Y-113185112D02*
X183960000Y-114607616D01*
G04 #@! TO.C,C11*
X125488748Y-55340000D02*
X126911252Y-55340000D01*
X125488748Y-57160000D02*
X126911252Y-57160000D01*
D17*
G04 #@! TO.C,C6*
X170500000Y-114385000D02*
X170500000Y-111645000D01*
X170500000Y-119945000D02*
X170500000Y-117205000D01*
X178800000Y-111645000D02*
X170500000Y-111645000D01*
X178800000Y-114385000D02*
X178800000Y-111645000D01*
X178800000Y-119945000D02*
X170500000Y-119945000D01*
X178800000Y-119945000D02*
X178800000Y-117205000D01*
D19*
X178399340Y-119455000D02*
G75*
G02*
X178160660Y-119455000I-119340J0D01*
G01*
X178160660Y-119455000D02*
G75*
G02*
X178399340Y-119455000I119340J0D01*
G01*
D20*
G04 #@! TO.C,IC3*
X175653250Y-110223900D02*
X179895050Y-110223900D01*
X179895050Y-104966100D02*
X175653250Y-104966100D01*
D18*
G04 #@! TO.C,C12*
X126911252Y-58040000D02*
X125488748Y-58040000D01*
X126911252Y-59860000D02*
X125488748Y-59860000D01*
G04 #@! TO.C,C10*
X125651248Y-68290000D02*
X127073752Y-68290000D01*
X125651248Y-70110000D02*
X127073752Y-70110000D01*
G04 #@! TO.C,C7*
X171661252Y-108386364D02*
X170238748Y-108386364D01*
X171661252Y-110206364D02*
X170238748Y-110206364D01*
G04 #@! TO.C,C14*
X130238748Y-112488636D02*
X131661252Y-112488636D01*
X130238748Y-114308636D02*
X131661252Y-114308636D01*
G04 #@! TO.C,C15*
X118840000Y-109109888D02*
X118840000Y-107687384D01*
X120660000Y-109109888D02*
X120660000Y-107687384D01*
G04 #@! TO.C,R3*
X178527064Y-102090000D02*
X177072936Y-102090000D01*
X178527064Y-103910000D02*
X177072936Y-103910000D01*
G04 #@! TO.C,R7*
X171627064Y-102585000D02*
X170172936Y-102585000D01*
X171627064Y-104405000D02*
X170172936Y-104405000D01*
G04 #@! TO.C,C13*
X130238748Y-115388636D02*
X131661252Y-115388636D01*
X130238748Y-117208636D02*
X131661252Y-117208636D01*
G04 #@! TO.C,J4*
X137450000Y-118970000D02*
X137450000Y-121630000D01*
X150210000Y-118970000D02*
X137450000Y-118970000D01*
X150210000Y-118970000D02*
X150210000Y-121630000D01*
X150210000Y-121630000D02*
X137450000Y-121630000D01*
X152810000Y-120300000D02*
X152810000Y-121630000D01*
X152810000Y-121630000D02*
X151480000Y-121630000D01*
D12*
G04 #@! TO.C,J2*
X185500000Y-107200000D02*
X185500000Y-114800000D01*
X185500000Y-114800000D02*
X193100000Y-114800000D01*
X193100000Y-104700000D02*
X189000000Y-104700000D01*
X193100000Y-114800000D02*
X193100000Y-104700000D01*
D18*
G04 #@! TO.C,R5*
X125172936Y-86090000D02*
X126627064Y-86090000D01*
X125172936Y-87910000D02*
X126627064Y-87910000D01*
G04 #@! TO.C,R4*
X125172936Y-83390000D02*
X126627064Y-83390000D01*
X125172936Y-85210000D02*
X126627064Y-85210000D01*
G04 #@! TO.C,C9*
X125713748Y-65490000D02*
X127136252Y-65490000D01*
X125713748Y-67310000D02*
X127136252Y-67310000D01*
D20*
G04 #@! TO.C,IC1*
X122029100Y-117227536D02*
X126270900Y-117227536D01*
X126270900Y-111969736D02*
X122029100Y-111969736D01*
D17*
G04 #@! TO.C,C16*
X123700000Y-102050000D02*
X123700000Y-104790000D01*
X123700000Y-102050000D02*
X132000000Y-102050000D01*
X123700000Y-107610000D02*
X123700000Y-110350000D01*
X123700000Y-110350000D02*
X132000000Y-110350000D01*
X132000000Y-102050000D02*
X132000000Y-104790000D01*
X132000000Y-107610000D02*
X132000000Y-110350000D01*
D19*
X124339340Y-102540000D02*
G75*
G02*
X124100660Y-102540000I-119340J0D01*
G01*
X124100660Y-102540000D02*
G75*
G02*
X124339340Y-102540000I119340J0D01*
G01*
D18*
G04 #@! TO.C,R1*
X123222936Y-118188636D02*
X124677064Y-118188636D01*
X123222936Y-120008636D02*
X124677064Y-120008636D01*
D12*
G04 #@! TO.C,J3*
X109100000Y-104750000D02*
X109100000Y-114850000D01*
X109100000Y-114850000D02*
X113200000Y-114850000D01*
X116700000Y-104750000D02*
X109100000Y-104750000D01*
X116700000Y-112350000D02*
X116700000Y-104750000D01*
D18*
G04 #@! TO.C,C5*
X171623752Y-105485000D02*
X170201248Y-105485000D01*
X171623752Y-107305000D02*
X170201248Y-107305000D01*
G04 #@! TO.C,R2*
X130222936Y-118188636D02*
X131677064Y-118188636D01*
X130222936Y-120008636D02*
X131677064Y-120008636D01*
G04 #@! TD*
%LPC*%
D21*
G04 #@! TO.C,C17*
X157000000Y-107615000D03*
X157000000Y-110740000D03*
G04 #@! TD*
D22*
G04 #@! TO.C,J5*
X152290000Y-45000000D03*
D23*
X149750000Y-45000000D03*
G04 #@! TD*
D24*
G04 #@! TO.C,J2A1*
X182150000Y-96910000D03*
X179610000Y-96910000D03*
X182150000Y-94370000D03*
X179610000Y-94370000D03*
X182150000Y-91830000D03*
X179610000Y-91830000D03*
X182150000Y-89290000D03*
X179610000Y-89290000D03*
X182150000Y-86750000D03*
X179610000Y-86750000D03*
X182150000Y-84210000D03*
X179610000Y-84210000D03*
X182150000Y-81670000D03*
X179610000Y-81670000D03*
X182150000Y-79130000D03*
X179610000Y-79130000D03*
X182150000Y-76590000D03*
X179610000Y-76590000D03*
X182150000Y-74050000D03*
X179610000Y-74050000D03*
X182150000Y-71510000D03*
X179610000Y-71510000D03*
X182150000Y-68970000D03*
X179610000Y-68970000D03*
X182150000Y-66430000D03*
X179610000Y-66430000D03*
X182150000Y-63890000D03*
X179610000Y-63890000D03*
X182150000Y-61350000D03*
X179610000Y-61350000D03*
X182150000Y-58810000D03*
X179610000Y-58810000D03*
X182150000Y-56270000D03*
X179610000Y-56270000D03*
X182150000Y-53730000D03*
X179610000Y-53730000D03*
X182150000Y-51190000D03*
D25*
X179610000Y-51190000D03*
D24*
X121190000Y-96910000D03*
X118650000Y-96910000D03*
X121190000Y-94370000D03*
X118650000Y-94370000D03*
X121190000Y-91830000D03*
X118650000Y-91830000D03*
X121190000Y-89290000D03*
X118650000Y-89290000D03*
X121190000Y-86750000D03*
X118650000Y-86750000D03*
X121190000Y-84210000D03*
X118650000Y-84210000D03*
X121190000Y-81670000D03*
X118650000Y-81670000D03*
X121190000Y-79130000D03*
X118650000Y-79130000D03*
X121190000Y-76590000D03*
X118650000Y-76590000D03*
X121190000Y-74050000D03*
X118650000Y-74050000D03*
X121190000Y-71510000D03*
X118650000Y-71510000D03*
X121190000Y-68970000D03*
X118650000Y-68970000D03*
X121190000Y-66430000D03*
X118650000Y-66430000D03*
X121190000Y-63890000D03*
X118650000Y-63890000D03*
X121190000Y-61350000D03*
X118650000Y-61350000D03*
X121190000Y-58810000D03*
X118650000Y-58810000D03*
X121190000Y-56270000D03*
X118650000Y-56270000D03*
X121190000Y-53730000D03*
X118650000Y-53730000D03*
X121190000Y-51190000D03*
D25*
X118650000Y-51190000D03*
G04 #@! TD*
D26*
G04 #@! TO.C,J1*
X163700000Y-124487500D03*
D27*
X158700000Y-124487500D03*
G04 #@! TD*
D28*
G04 #@! TO.C,TP2*
X134550000Y-63100000D03*
G04 #@! TD*
D29*
G04 #@! TO.C,C19*
X150000000Y-107637500D03*
X150000000Y-110762500D03*
G04 #@! TD*
D30*
G04 #@! TO.C,L2*
X146650000Y-104237500D03*
X146650000Y-100237500D03*
G04 #@! TD*
D29*
G04 #@! TO.C,C20*
X146300000Y-107637500D03*
X146300000Y-110762500D03*
G04 #@! TD*
D31*
G04 #@! TO.C,C18*
X154750000Y-104587500D03*
X151625000Y-104587500D03*
G04 #@! TD*
D32*
G04 #@! TO.C,IC4*
X152750000Y-110787500D03*
X153700000Y-110787500D03*
X154650000Y-110787500D03*
X154650000Y-107367500D03*
X153700000Y-107367500D03*
X152750000Y-107367500D03*
G04 #@! TD*
D33*
G04 #@! TO.C,F1*
X159762500Y-118287500D03*
X162737500Y-118287500D03*
G04 #@! TD*
D34*
G04 #@! TO.C,H2*
X191000000Y-46700000D03*
G04 #@! TD*
D35*
G04 #@! TO.C,C8*
X183050000Y-112333864D03*
X183050000Y-115458864D03*
G04 #@! TD*
D36*
G04 #@! TO.C,C11*
X124637500Y-56250000D03*
X127762500Y-56250000D03*
G04 #@! TD*
D37*
G04 #@! TO.C,C6*
X178300000Y-115795000D03*
X171000000Y-115795000D03*
G04 #@! TD*
D38*
G04 #@! TO.C,IC3*
X175050000Y-105690000D03*
X175050000Y-106960000D03*
X175050000Y-108230000D03*
X175050000Y-109500000D03*
X180498300Y-109500000D03*
X180498300Y-108230000D03*
X180498300Y-106960000D03*
X180498300Y-105690000D03*
D39*
X177774150Y-107595000D03*
G04 #@! TD*
D31*
G04 #@! TO.C,C12*
X127762500Y-58950000D03*
X124637500Y-58950000D03*
G04 #@! TD*
D34*
G04 #@! TO.C,H3*
X111000000Y-124500000D03*
G04 #@! TD*
D36*
G04 #@! TO.C,C10*
X124800000Y-69200000D03*
X127925000Y-69200000D03*
G04 #@! TD*
D31*
G04 #@! TO.C,C7*
X172512500Y-109296364D03*
X169387500Y-109296364D03*
G04 #@! TD*
D36*
G04 #@! TO.C,C14*
X129387500Y-113398636D03*
X132512500Y-113398636D03*
G04 #@! TD*
D21*
G04 #@! TO.C,C15*
X119750000Y-109961136D03*
X119750000Y-106836136D03*
G04 #@! TD*
D34*
G04 #@! TO.C,H1*
X111000000Y-46700000D03*
G04 #@! TD*
D40*
G04 #@! TO.C,R3*
X179350000Y-103000000D03*
X176250000Y-103000000D03*
G04 #@! TD*
G04 #@! TO.C,R7*
X172450000Y-103495000D03*
X169350000Y-103495000D03*
G04 #@! TD*
D36*
G04 #@! TO.C,C13*
X129387500Y-116298636D03*
X132512500Y-116298636D03*
G04 #@! TD*
D23*
G04 #@! TO.C,J4*
X151480000Y-120300000D03*
D22*
X148940000Y-120300000D03*
X146400000Y-120300000D03*
X143860000Y-120300000D03*
X141320000Y-120300000D03*
X138780000Y-120300000D03*
G04 #@! TD*
D27*
G04 #@! TO.C,J2*
X189000000Y-107200000D03*
D26*
X189000000Y-112200000D03*
G04 #@! TD*
D34*
G04 #@! TO.C,H4*
X191000000Y-124500000D03*
G04 #@! TD*
D41*
G04 #@! TO.C,R5*
X124350000Y-87000000D03*
X127450000Y-87000000D03*
G04 #@! TD*
G04 #@! TO.C,R4*
X124350000Y-84300000D03*
X127450000Y-84300000D03*
G04 #@! TD*
D36*
G04 #@! TO.C,C9*
X124862500Y-66400000D03*
X127987500Y-66400000D03*
G04 #@! TD*
D38*
G04 #@! TO.C,IC1*
X126874150Y-116503636D03*
X126874150Y-115233636D03*
X126874150Y-113963636D03*
X126874150Y-112693636D03*
X121425850Y-112693636D03*
X121425850Y-113963636D03*
X121425850Y-115233636D03*
X121425850Y-116503636D03*
D39*
X124150000Y-114598636D03*
G04 #@! TD*
D42*
G04 #@! TO.C,C16*
X124200000Y-106200000D03*
X131500000Y-106200000D03*
G04 #@! TD*
D41*
G04 #@! TO.C,R1*
X122400000Y-119098636D03*
X125500000Y-119098636D03*
G04 #@! TD*
D27*
G04 #@! TO.C,J3*
X113200000Y-112350000D03*
D26*
X113200000Y-107350000D03*
G04 #@! TD*
D31*
G04 #@! TO.C,C5*
X172475000Y-106395000D03*
X169350000Y-106395000D03*
G04 #@! TD*
D41*
G04 #@! TO.C,R2*
X129400000Y-119098636D03*
X132500000Y-119098636D03*
G04 #@! TD*
%LPD*%
M02*
