G04 #@! TF.GenerationSoftware,KiCad,Pcbnew,9.0.7*
G04 #@! TF.CreationDate,2026-03-12T00:43:15-06:00*
G04 #@! TF.ProjectId,Power_Motor_Board_v2,506f7765-725f-44d6-9f74-6f725f426f61,rev?*
G04 #@! TF.SameCoordinates,Original*
G04 #@! TF.FileFunction,Soldermask,Bot*
G04 #@! TF.FilePolarity,Negative*
%FSLAX46Y46*%
G04 Gerber Fmt 4.6, Leading zero omitted, Abs format (unit mm)*
G04 Created by KiCad (PCBNEW 9.0.7) date 2026-03-12 00:43:15*
%MOMM*%
%LPD*%
G01*
G04 APERTURE LIST*
%ADD10C,1.700000*%
%ADD11R,1.700000X1.700000*%
%ADD12C,1.560000*%
%ADD13R,1.560000X1.560000*%
%ADD14C,1.800000*%
%ADD15R,1.800000X1.800000*%
%ADD16C,3.200000*%
G04 APERTURE END LIST*
D10*
G04 #@! TO.C,J5*
X152290000Y-45000000D03*
D11*
X149750000Y-45000000D03*
G04 #@! TD*
D12*
G04 #@! TO.C,J2A1*
X182150000Y-96910000D03*
X179610000Y-96910000D03*
X182150000Y-94370000D03*
X179610000Y-94370000D03*
X182150000Y-91830000D03*
X179610000Y-91830000D03*
X182150000Y-89290000D03*
X179610000Y-89290000D03*
X182150000Y-86750000D03*
X179610000Y-86750000D03*
X182150000Y-84210000D03*
X179610000Y-84210000D03*
X182150000Y-81670000D03*
X179610000Y-81670000D03*
X182150000Y-79130000D03*
X179610000Y-79130000D03*
X182150000Y-76590000D03*
X179610000Y-76590000D03*
X182150000Y-74050000D03*
X179610000Y-74050000D03*
X182150000Y-71510000D03*
X179610000Y-71510000D03*
X182150000Y-68970000D03*
X179610000Y-68970000D03*
X182150000Y-66430000D03*
X179610000Y-66430000D03*
X182150000Y-63890000D03*
X179610000Y-63890000D03*
X182150000Y-61350000D03*
X179610000Y-61350000D03*
X182150000Y-58810000D03*
X179610000Y-58810000D03*
X182150000Y-56270000D03*
X179610000Y-56270000D03*
X182150000Y-53730000D03*
X179610000Y-53730000D03*
X182150000Y-51190000D03*
D13*
X179610000Y-51190000D03*
D12*
X121190000Y-96910000D03*
X118650000Y-96910000D03*
X121190000Y-94370000D03*
X118650000Y-94370000D03*
X121190000Y-91830000D03*
X118650000Y-91830000D03*
X121190000Y-89290000D03*
X118650000Y-89290000D03*
X121190000Y-86750000D03*
X118650000Y-86750000D03*
X121190000Y-84210000D03*
X118650000Y-84210000D03*
X121190000Y-81670000D03*
X118650000Y-81670000D03*
X121190000Y-79130000D03*
X118650000Y-79130000D03*
X121190000Y-76590000D03*
X118650000Y-76590000D03*
X121190000Y-74050000D03*
X118650000Y-74050000D03*
X121190000Y-71510000D03*
X118650000Y-71510000D03*
X121190000Y-68970000D03*
X118650000Y-68970000D03*
X121190000Y-66430000D03*
X118650000Y-66430000D03*
X121190000Y-63890000D03*
X118650000Y-63890000D03*
X121190000Y-61350000D03*
X118650000Y-61350000D03*
X121190000Y-58810000D03*
X118650000Y-58810000D03*
X121190000Y-56270000D03*
X118650000Y-56270000D03*
X121190000Y-53730000D03*
X118650000Y-53730000D03*
X121190000Y-51190000D03*
D13*
X118650000Y-51190000D03*
G04 #@! TD*
D14*
G04 #@! TO.C,J1*
X163700000Y-124487500D03*
D15*
X158700000Y-124487500D03*
G04 #@! TD*
D16*
G04 #@! TO.C,H2*
X191000000Y-46700000D03*
G04 #@! TD*
G04 #@! TO.C,H3*
X111000000Y-124500000D03*
G04 #@! TD*
G04 #@! TO.C,H1*
X111000000Y-46700000D03*
G04 #@! TD*
D11*
G04 #@! TO.C,J4*
X151480000Y-120300000D03*
D10*
X148940000Y-120300000D03*
X146400000Y-120300000D03*
X143860000Y-120300000D03*
X141320000Y-120300000D03*
X138780000Y-120300000D03*
G04 #@! TD*
D15*
G04 #@! TO.C,J2*
X189000000Y-107200000D03*
D14*
X189000000Y-112200000D03*
G04 #@! TD*
D16*
G04 #@! TO.C,H4*
X191000000Y-124500000D03*
G04 #@! TD*
D15*
G04 #@! TO.C,J3*
X113200000Y-112350000D03*
D14*
X113200000Y-107350000D03*
G04 #@! TD*
M02*
