%TF.GenerationSoftware,KiCad,Pcbnew,9.0.7*%
%TF.CreationDate,2026-03-12T00:43:15-06:00*%
%TF.ProjectId,Power_Motor_Board_v2,506f7765-725f-44d6-9f74-6f725f426f61,rev?*%
%TF.SameCoordinates,Original*%
%TF.FileFunction,Drillmap*%
%TF.FilePolarity,Positive*%
%FSLAX45Y45*%
G04 Gerber Fmt 4.5, Leading zero omitted, Abs format (unit mm)*
G04 Created by KiCad (PCBNEW 9.0.7) date 2026-03-12 00:43:15*
%MOMM*%
%LPD*%
G01*
G04 APERTURE LIST*
%ADD10C,0.050000*%
%ADD11C,0.200000*%
%ADD12C,0.320000*%
G04 APERTURE END LIST*
D10*
X10450000Y-4020000D02*
X19750000Y-4020000D01*
X19750000Y-13100000D01*
X10450000Y-13100000D01*
X10450000Y-4020000D01*
D11*
D12*
X10940000Y-4510000D02*
X11260000Y-4830000D01*
X11260000Y-4510000D02*
X10940000Y-4830000D01*
X10940000Y-12290000D02*
X11260000Y-12610000D01*
X11260000Y-12290000D02*
X10940000Y-12610000D01*
X18940000Y-4510000D02*
X19260000Y-4830000D01*
X19260000Y-4510000D02*
X18940000Y-4830000D01*
X18940000Y-12290000D02*
X19260000Y-12610000D01*
X19260000Y-12290000D02*
X18940000Y-12610000D01*
D11*
X10708277Y-13413984D02*
X10708277Y-13213984D01*
X10708277Y-13213984D02*
X10755896Y-13213984D01*
X10755896Y-13213984D02*
X10784467Y-13223508D01*
X10784467Y-13223508D02*
X10803515Y-13242555D01*
X10803515Y-13242555D02*
X10813039Y-13261603D01*
X10813039Y-13261603D02*
X10822563Y-13299698D01*
X10822563Y-13299698D02*
X10822563Y-13328269D01*
X10822563Y-13328269D02*
X10813039Y-13366365D01*
X10813039Y-13366365D02*
X10803515Y-13385412D01*
X10803515Y-13385412D02*
X10784467Y-13404460D01*
X10784467Y-13404460D02*
X10755896Y-13413984D01*
X10755896Y-13413984D02*
X10708277Y-13413984D01*
X10908277Y-13413984D02*
X10908277Y-13280650D01*
X10908277Y-13318746D02*
X10917801Y-13299698D01*
X10917801Y-13299698D02*
X10927324Y-13290174D01*
X10927324Y-13290174D02*
X10946372Y-13280650D01*
X10946372Y-13280650D02*
X10965420Y-13280650D01*
X11032086Y-13413984D02*
X11032086Y-13280650D01*
X11032086Y-13213984D02*
X11022563Y-13223508D01*
X11022563Y-13223508D02*
X11032086Y-13233031D01*
X11032086Y-13233031D02*
X11041610Y-13223508D01*
X11041610Y-13223508D02*
X11032086Y-13213984D01*
X11032086Y-13213984D02*
X11032086Y-13233031D01*
X11155896Y-13413984D02*
X11136848Y-13404460D01*
X11136848Y-13404460D02*
X11127324Y-13385412D01*
X11127324Y-13385412D02*
X11127324Y-13213984D01*
X11260658Y-13413984D02*
X11241610Y-13404460D01*
X11241610Y-13404460D02*
X11232086Y-13385412D01*
X11232086Y-13385412D02*
X11232086Y-13213984D01*
X11489229Y-13413984D02*
X11489229Y-13213984D01*
X11489229Y-13213984D02*
X11555896Y-13356841D01*
X11555896Y-13356841D02*
X11622562Y-13213984D01*
X11622562Y-13213984D02*
X11622562Y-13413984D01*
X11803515Y-13413984D02*
X11803515Y-13309222D01*
X11803515Y-13309222D02*
X11793991Y-13290174D01*
X11793991Y-13290174D02*
X11774943Y-13280650D01*
X11774943Y-13280650D02*
X11736848Y-13280650D01*
X11736848Y-13280650D02*
X11717801Y-13290174D01*
X11803515Y-13404460D02*
X11784467Y-13413984D01*
X11784467Y-13413984D02*
X11736848Y-13413984D01*
X11736848Y-13413984D02*
X11717801Y-13404460D01*
X11717801Y-13404460D02*
X11708277Y-13385412D01*
X11708277Y-13385412D02*
X11708277Y-13366365D01*
X11708277Y-13366365D02*
X11717801Y-13347317D01*
X11717801Y-13347317D02*
X11736848Y-13337793D01*
X11736848Y-13337793D02*
X11784467Y-13337793D01*
X11784467Y-13337793D02*
X11803515Y-13328269D01*
X11898753Y-13280650D02*
X11898753Y-13480650D01*
X11898753Y-13290174D02*
X11917801Y-13280650D01*
X11917801Y-13280650D02*
X11955896Y-13280650D01*
X11955896Y-13280650D02*
X11974943Y-13290174D01*
X11974943Y-13290174D02*
X11984467Y-13299698D01*
X11984467Y-13299698D02*
X11993991Y-13318746D01*
X11993991Y-13318746D02*
X11993991Y-13375888D01*
X11993991Y-13375888D02*
X11984467Y-13394936D01*
X11984467Y-13394936D02*
X11974943Y-13404460D01*
X11974943Y-13404460D02*
X11955896Y-13413984D01*
X11955896Y-13413984D02*
X11917801Y-13413984D01*
X11917801Y-13413984D02*
X11898753Y-13404460D01*
X12079705Y-13394936D02*
X12089229Y-13404460D01*
X12089229Y-13404460D02*
X12079705Y-13413984D01*
X12079705Y-13413984D02*
X12070182Y-13404460D01*
X12070182Y-13404460D02*
X12079705Y-13394936D01*
X12079705Y-13394936D02*
X12079705Y-13413984D01*
X12079705Y-13290174D02*
X12089229Y-13299698D01*
X12089229Y-13299698D02*
X12079705Y-13309222D01*
X12079705Y-13309222D02*
X12070182Y-13299698D01*
X12070182Y-13299698D02*
X12079705Y-13290174D01*
X12079705Y-13290174D02*
X12079705Y-13309222D01*
X10247500Y-13642500D02*
X10447500Y-13842500D01*
X10447500Y-13642500D02*
X10247500Y-13842500D01*
X10689229Y-13633984D02*
X10813039Y-13633984D01*
X10813039Y-13633984D02*
X10746372Y-13710174D01*
X10746372Y-13710174D02*
X10774944Y-13710174D01*
X10774944Y-13710174D02*
X10793991Y-13719698D01*
X10793991Y-13719698D02*
X10803515Y-13729222D01*
X10803515Y-13729222D02*
X10813039Y-13748269D01*
X10813039Y-13748269D02*
X10813039Y-13795888D01*
X10813039Y-13795888D02*
X10803515Y-13814936D01*
X10803515Y-13814936D02*
X10793991Y-13824460D01*
X10793991Y-13824460D02*
X10774944Y-13833984D01*
X10774944Y-13833984D02*
X10717801Y-13833984D01*
X10717801Y-13833984D02*
X10698753Y-13824460D01*
X10698753Y-13824460D02*
X10689229Y-13814936D01*
X10898753Y-13814936D02*
X10908277Y-13824460D01*
X10908277Y-13824460D02*
X10898753Y-13833984D01*
X10898753Y-13833984D02*
X10889229Y-13824460D01*
X10889229Y-13824460D02*
X10898753Y-13814936D01*
X10898753Y-13814936D02*
X10898753Y-13833984D01*
X10984467Y-13653031D02*
X10993991Y-13643508D01*
X10993991Y-13643508D02*
X11013039Y-13633984D01*
X11013039Y-13633984D02*
X11060658Y-13633984D01*
X11060658Y-13633984D02*
X11079705Y-13643508D01*
X11079705Y-13643508D02*
X11089229Y-13653031D01*
X11089229Y-13653031D02*
X11098753Y-13672079D01*
X11098753Y-13672079D02*
X11098753Y-13691127D01*
X11098753Y-13691127D02*
X11089229Y-13719698D01*
X11089229Y-13719698D02*
X10974944Y-13833984D01*
X10974944Y-13833984D02*
X11098753Y-13833984D01*
X11222562Y-13633984D02*
X11241610Y-13633984D01*
X11241610Y-13633984D02*
X11260658Y-13643508D01*
X11260658Y-13643508D02*
X11270182Y-13653031D01*
X11270182Y-13653031D02*
X11279705Y-13672079D01*
X11279705Y-13672079D02*
X11289229Y-13710174D01*
X11289229Y-13710174D02*
X11289229Y-13757793D01*
X11289229Y-13757793D02*
X11279705Y-13795888D01*
X11279705Y-13795888D02*
X11270182Y-13814936D01*
X11270182Y-13814936D02*
X11260658Y-13824460D01*
X11260658Y-13824460D02*
X11241610Y-13833984D01*
X11241610Y-13833984D02*
X11222562Y-13833984D01*
X11222562Y-13833984D02*
X11203515Y-13824460D01*
X11203515Y-13824460D02*
X11193991Y-13814936D01*
X11193991Y-13814936D02*
X11184467Y-13795888D01*
X11184467Y-13795888D02*
X11174944Y-13757793D01*
X11174944Y-13757793D02*
X11174944Y-13710174D01*
X11174944Y-13710174D02*
X11184467Y-13672079D01*
X11184467Y-13672079D02*
X11193991Y-13653031D01*
X11193991Y-13653031D02*
X11203515Y-13643508D01*
X11203515Y-13643508D02*
X11222562Y-13633984D01*
X11413039Y-13633984D02*
X11432086Y-13633984D01*
X11432086Y-13633984D02*
X11451134Y-13643508D01*
X11451134Y-13643508D02*
X11460658Y-13653031D01*
X11460658Y-13653031D02*
X11470182Y-13672079D01*
X11470182Y-13672079D02*
X11479705Y-13710174D01*
X11479705Y-13710174D02*
X11479705Y-13757793D01*
X11479705Y-13757793D02*
X11470182Y-13795888D01*
X11470182Y-13795888D02*
X11460658Y-13814936D01*
X11460658Y-13814936D02*
X11451134Y-13824460D01*
X11451134Y-13824460D02*
X11432086Y-13833984D01*
X11432086Y-13833984D02*
X11413039Y-13833984D01*
X11413039Y-13833984D02*
X11393991Y-13824460D01*
X11393991Y-13824460D02*
X11384467Y-13814936D01*
X11384467Y-13814936D02*
X11374943Y-13795888D01*
X11374943Y-13795888D02*
X11365420Y-13757793D01*
X11365420Y-13757793D02*
X11365420Y-13710174D01*
X11365420Y-13710174D02*
X11374943Y-13672079D01*
X11374943Y-13672079D02*
X11384467Y-13653031D01*
X11384467Y-13653031D02*
X11393991Y-13643508D01*
X11393991Y-13643508D02*
X11413039Y-13633984D01*
X11565420Y-13833984D02*
X11565420Y-13700650D01*
X11565420Y-13719698D02*
X11574943Y-13710174D01*
X11574943Y-13710174D02*
X11593991Y-13700650D01*
X11593991Y-13700650D02*
X11622563Y-13700650D01*
X11622563Y-13700650D02*
X11641610Y-13710174D01*
X11641610Y-13710174D02*
X11651134Y-13729222D01*
X11651134Y-13729222D02*
X11651134Y-13833984D01*
X11651134Y-13729222D02*
X11660658Y-13710174D01*
X11660658Y-13710174D02*
X11679705Y-13700650D01*
X11679705Y-13700650D02*
X11708277Y-13700650D01*
X11708277Y-13700650D02*
X11727324Y-13710174D01*
X11727324Y-13710174D02*
X11736848Y-13729222D01*
X11736848Y-13729222D02*
X11736848Y-13833984D01*
X11832086Y-13833984D02*
X11832086Y-13700650D01*
X11832086Y-13719698D02*
X11841610Y-13710174D01*
X11841610Y-13710174D02*
X11860658Y-13700650D01*
X11860658Y-13700650D02*
X11889229Y-13700650D01*
X11889229Y-13700650D02*
X11908277Y-13710174D01*
X11908277Y-13710174D02*
X11917801Y-13729222D01*
X11917801Y-13729222D02*
X11917801Y-13833984D01*
X11917801Y-13729222D02*
X11927324Y-13710174D01*
X11927324Y-13710174D02*
X11946372Y-13700650D01*
X11946372Y-13700650D02*
X11974943Y-13700650D01*
X11974943Y-13700650D02*
X11993991Y-13710174D01*
X11993991Y-13710174D02*
X12003515Y-13729222D01*
X12003515Y-13729222D02*
X12003515Y-13833984D01*
X12393991Y-13624460D02*
X12222563Y-13881603D01*
X12651134Y-13633984D02*
X12670182Y-13633984D01*
X12670182Y-13633984D02*
X12689229Y-13643508D01*
X12689229Y-13643508D02*
X12698753Y-13653031D01*
X12698753Y-13653031D02*
X12708277Y-13672079D01*
X12708277Y-13672079D02*
X12717801Y-13710174D01*
X12717801Y-13710174D02*
X12717801Y-13757793D01*
X12717801Y-13757793D02*
X12708277Y-13795888D01*
X12708277Y-13795888D02*
X12698753Y-13814936D01*
X12698753Y-13814936D02*
X12689229Y-13824460D01*
X12689229Y-13824460D02*
X12670182Y-13833984D01*
X12670182Y-13833984D02*
X12651134Y-13833984D01*
X12651134Y-13833984D02*
X12632086Y-13824460D01*
X12632086Y-13824460D02*
X12622563Y-13814936D01*
X12622563Y-13814936D02*
X12613039Y-13795888D01*
X12613039Y-13795888D02*
X12603515Y-13757793D01*
X12603515Y-13757793D02*
X12603515Y-13710174D01*
X12603515Y-13710174D02*
X12613039Y-13672079D01*
X12613039Y-13672079D02*
X12622563Y-13653031D01*
X12622563Y-13653031D02*
X12632086Y-13643508D01*
X12632086Y-13643508D02*
X12651134Y-13633984D01*
X12803515Y-13814936D02*
X12813039Y-13824460D01*
X12813039Y-13824460D02*
X12803515Y-13833984D01*
X12803515Y-13833984D02*
X12793991Y-13824460D01*
X12793991Y-13824460D02*
X12803515Y-13814936D01*
X12803515Y-13814936D02*
X12803515Y-13833984D01*
X13003515Y-13833984D02*
X12889229Y-13833984D01*
X12946372Y-13833984D02*
X12946372Y-13633984D01*
X12946372Y-13633984D02*
X12927325Y-13662555D01*
X12927325Y-13662555D02*
X12908277Y-13681603D01*
X12908277Y-13681603D02*
X12889229Y-13691127D01*
X13079706Y-13653031D02*
X13089229Y-13643508D01*
X13089229Y-13643508D02*
X13108277Y-13633984D01*
X13108277Y-13633984D02*
X13155896Y-13633984D01*
X13155896Y-13633984D02*
X13174944Y-13643508D01*
X13174944Y-13643508D02*
X13184467Y-13653031D01*
X13184467Y-13653031D02*
X13193991Y-13672079D01*
X13193991Y-13672079D02*
X13193991Y-13691127D01*
X13193991Y-13691127D02*
X13184467Y-13719698D01*
X13184467Y-13719698D02*
X13070182Y-13833984D01*
X13070182Y-13833984D02*
X13193991Y-13833984D01*
X13365420Y-13633984D02*
X13327325Y-13633984D01*
X13327325Y-13633984D02*
X13308277Y-13643508D01*
X13308277Y-13643508D02*
X13298753Y-13653031D01*
X13298753Y-13653031D02*
X13279706Y-13681603D01*
X13279706Y-13681603D02*
X13270182Y-13719698D01*
X13270182Y-13719698D02*
X13270182Y-13795888D01*
X13270182Y-13795888D02*
X13279706Y-13814936D01*
X13279706Y-13814936D02*
X13289229Y-13824460D01*
X13289229Y-13824460D02*
X13308277Y-13833984D01*
X13308277Y-13833984D02*
X13346372Y-13833984D01*
X13346372Y-13833984D02*
X13365420Y-13824460D01*
X13365420Y-13824460D02*
X13374944Y-13814936D01*
X13374944Y-13814936D02*
X13384467Y-13795888D01*
X13384467Y-13795888D02*
X13384467Y-13748269D01*
X13384467Y-13748269D02*
X13374944Y-13729222D01*
X13374944Y-13729222D02*
X13365420Y-13719698D01*
X13365420Y-13719698D02*
X13346372Y-13710174D01*
X13346372Y-13710174D02*
X13308277Y-13710174D01*
X13308277Y-13710174D02*
X13289229Y-13719698D01*
X13289229Y-13719698D02*
X13279706Y-13729222D01*
X13279706Y-13729222D02*
X13270182Y-13748269D01*
X13508277Y-13633984D02*
X13527325Y-13633984D01*
X13527325Y-13633984D02*
X13546372Y-13643508D01*
X13546372Y-13643508D02*
X13555896Y-13653031D01*
X13555896Y-13653031D02*
X13565420Y-13672079D01*
X13565420Y-13672079D02*
X13574944Y-13710174D01*
X13574944Y-13710174D02*
X13574944Y-13757793D01*
X13574944Y-13757793D02*
X13565420Y-13795888D01*
X13565420Y-13795888D02*
X13555896Y-13814936D01*
X13555896Y-13814936D02*
X13546372Y-13824460D01*
X13546372Y-13824460D02*
X13527325Y-13833984D01*
X13527325Y-13833984D02*
X13508277Y-13833984D01*
X13508277Y-13833984D02*
X13489229Y-13824460D01*
X13489229Y-13824460D02*
X13479706Y-13814936D01*
X13479706Y-13814936D02*
X13470182Y-13795888D01*
X13470182Y-13795888D02*
X13460658Y-13757793D01*
X13460658Y-13757793D02*
X13460658Y-13710174D01*
X13460658Y-13710174D02*
X13470182Y-13672079D01*
X13470182Y-13672079D02*
X13479706Y-13653031D01*
X13479706Y-13653031D02*
X13489229Y-13643508D01*
X13489229Y-13643508D02*
X13508277Y-13633984D01*
X13651134Y-13633984D02*
X13651134Y-13672079D01*
X13727325Y-13633984D02*
X13727325Y-13672079D01*
X14022563Y-13910174D02*
X14013039Y-13900650D01*
X14013039Y-13900650D02*
X13993991Y-13872079D01*
X13993991Y-13872079D02*
X13984468Y-13853031D01*
X13984468Y-13853031D02*
X13974944Y-13824460D01*
X13974944Y-13824460D02*
X13965420Y-13776841D01*
X13965420Y-13776841D02*
X13965420Y-13738746D01*
X13965420Y-13738746D02*
X13974944Y-13691127D01*
X13974944Y-13691127D02*
X13984468Y-13662555D01*
X13984468Y-13662555D02*
X13993991Y-13643508D01*
X13993991Y-13643508D02*
X14013039Y-13614936D01*
X14013039Y-13614936D02*
X14022563Y-13605412D01*
X14184468Y-13700650D02*
X14184468Y-13833984D01*
X14136848Y-13624460D02*
X14089229Y-13767317D01*
X14089229Y-13767317D02*
X14213039Y-13767317D01*
X14441610Y-13833984D02*
X14441610Y-13633984D01*
X14527325Y-13833984D02*
X14527325Y-13729222D01*
X14527325Y-13729222D02*
X14517801Y-13710174D01*
X14517801Y-13710174D02*
X14498753Y-13700650D01*
X14498753Y-13700650D02*
X14470182Y-13700650D01*
X14470182Y-13700650D02*
X14451134Y-13710174D01*
X14451134Y-13710174D02*
X14441610Y-13719698D01*
X14651134Y-13833984D02*
X14632087Y-13824460D01*
X14632087Y-13824460D02*
X14622563Y-13814936D01*
X14622563Y-13814936D02*
X14613039Y-13795888D01*
X14613039Y-13795888D02*
X14613039Y-13738746D01*
X14613039Y-13738746D02*
X14622563Y-13719698D01*
X14622563Y-13719698D02*
X14632087Y-13710174D01*
X14632087Y-13710174D02*
X14651134Y-13700650D01*
X14651134Y-13700650D02*
X14679706Y-13700650D01*
X14679706Y-13700650D02*
X14698753Y-13710174D01*
X14698753Y-13710174D02*
X14708277Y-13719698D01*
X14708277Y-13719698D02*
X14717801Y-13738746D01*
X14717801Y-13738746D02*
X14717801Y-13795888D01*
X14717801Y-13795888D02*
X14708277Y-13814936D01*
X14708277Y-13814936D02*
X14698753Y-13824460D01*
X14698753Y-13824460D02*
X14679706Y-13833984D01*
X14679706Y-13833984D02*
X14651134Y-13833984D01*
X14832087Y-13833984D02*
X14813039Y-13824460D01*
X14813039Y-13824460D02*
X14803515Y-13805412D01*
X14803515Y-13805412D02*
X14803515Y-13633984D01*
X14984468Y-13824460D02*
X14965420Y-13833984D01*
X14965420Y-13833984D02*
X14927325Y-13833984D01*
X14927325Y-13833984D02*
X14908277Y-13824460D01*
X14908277Y-13824460D02*
X14898753Y-13805412D01*
X14898753Y-13805412D02*
X14898753Y-13729222D01*
X14898753Y-13729222D02*
X14908277Y-13710174D01*
X14908277Y-13710174D02*
X14927325Y-13700650D01*
X14927325Y-13700650D02*
X14965420Y-13700650D01*
X14965420Y-13700650D02*
X14984468Y-13710174D01*
X14984468Y-13710174D02*
X14993991Y-13729222D01*
X14993991Y-13729222D02*
X14993991Y-13748269D01*
X14993991Y-13748269D02*
X14898753Y-13767317D01*
X15070182Y-13824460D02*
X15089230Y-13833984D01*
X15089230Y-13833984D02*
X15127325Y-13833984D01*
X15127325Y-13833984D02*
X15146372Y-13824460D01*
X15146372Y-13824460D02*
X15155896Y-13805412D01*
X15155896Y-13805412D02*
X15155896Y-13795888D01*
X15155896Y-13795888D02*
X15146372Y-13776841D01*
X15146372Y-13776841D02*
X15127325Y-13767317D01*
X15127325Y-13767317D02*
X15098753Y-13767317D01*
X15098753Y-13767317D02*
X15079706Y-13757793D01*
X15079706Y-13757793D02*
X15070182Y-13738746D01*
X15070182Y-13738746D02*
X15070182Y-13729222D01*
X15070182Y-13729222D02*
X15079706Y-13710174D01*
X15079706Y-13710174D02*
X15098753Y-13700650D01*
X15098753Y-13700650D02*
X15127325Y-13700650D01*
X15127325Y-13700650D02*
X15146372Y-13710174D01*
X15222563Y-13910174D02*
X15232087Y-13900650D01*
X15232087Y-13900650D02*
X15251134Y-13872079D01*
X15251134Y-13872079D02*
X15260658Y-13853031D01*
X15260658Y-13853031D02*
X15270182Y-13824460D01*
X15270182Y-13824460D02*
X15279706Y-13776841D01*
X15279706Y-13776841D02*
X15279706Y-13738746D01*
X15279706Y-13738746D02*
X15270182Y-13691127D01*
X15270182Y-13691127D02*
X15260658Y-13662555D01*
X15260658Y-13662555D02*
X15251134Y-13643508D01*
X15251134Y-13643508D02*
X15232087Y-13614936D01*
X15232087Y-13614936D02*
X15222563Y-13605412D01*
X15584468Y-13910174D02*
X15574944Y-13900650D01*
X15574944Y-13900650D02*
X15555896Y-13872079D01*
X15555896Y-13872079D02*
X15546372Y-13853031D01*
X15546372Y-13853031D02*
X15536849Y-13824460D01*
X15536849Y-13824460D02*
X15527325Y-13776841D01*
X15527325Y-13776841D02*
X15527325Y-13738746D01*
X15527325Y-13738746D02*
X15536849Y-13691127D01*
X15536849Y-13691127D02*
X15546372Y-13662555D01*
X15546372Y-13662555D02*
X15555896Y-13643508D01*
X15555896Y-13643508D02*
X15574944Y-13614936D01*
X15574944Y-13614936D02*
X15584468Y-13605412D01*
X15660658Y-13700650D02*
X15660658Y-13833984D01*
X15660658Y-13719698D02*
X15670182Y-13710174D01*
X15670182Y-13710174D02*
X15689230Y-13700650D01*
X15689230Y-13700650D02*
X15717801Y-13700650D01*
X15717801Y-13700650D02*
X15736849Y-13710174D01*
X15736849Y-13710174D02*
X15746372Y-13729222D01*
X15746372Y-13729222D02*
X15746372Y-13833984D01*
X15870182Y-13833984D02*
X15851134Y-13824460D01*
X15851134Y-13824460D02*
X15841611Y-13814936D01*
X15841611Y-13814936D02*
X15832087Y-13795888D01*
X15832087Y-13795888D02*
X15832087Y-13738746D01*
X15832087Y-13738746D02*
X15841611Y-13719698D01*
X15841611Y-13719698D02*
X15851134Y-13710174D01*
X15851134Y-13710174D02*
X15870182Y-13700650D01*
X15870182Y-13700650D02*
X15898753Y-13700650D01*
X15898753Y-13700650D02*
X15917801Y-13710174D01*
X15917801Y-13710174D02*
X15927325Y-13719698D01*
X15927325Y-13719698D02*
X15936849Y-13738746D01*
X15936849Y-13738746D02*
X15936849Y-13795888D01*
X15936849Y-13795888D02*
X15927325Y-13814936D01*
X15927325Y-13814936D02*
X15917801Y-13824460D01*
X15917801Y-13824460D02*
X15898753Y-13833984D01*
X15898753Y-13833984D02*
X15870182Y-13833984D01*
X15993992Y-13700650D02*
X16070182Y-13700650D01*
X16022563Y-13633984D02*
X16022563Y-13805412D01*
X16022563Y-13805412D02*
X16032087Y-13824460D01*
X16032087Y-13824460D02*
X16051134Y-13833984D01*
X16051134Y-13833984D02*
X16070182Y-13833984D01*
X16289230Y-13700650D02*
X16289230Y-13900650D01*
X16289230Y-13710174D02*
X16308277Y-13700650D01*
X16308277Y-13700650D02*
X16346373Y-13700650D01*
X16346373Y-13700650D02*
X16365420Y-13710174D01*
X16365420Y-13710174D02*
X16374944Y-13719698D01*
X16374944Y-13719698D02*
X16384468Y-13738746D01*
X16384468Y-13738746D02*
X16384468Y-13795888D01*
X16384468Y-13795888D02*
X16374944Y-13814936D01*
X16374944Y-13814936D02*
X16365420Y-13824460D01*
X16365420Y-13824460D02*
X16346373Y-13833984D01*
X16346373Y-13833984D02*
X16308277Y-13833984D01*
X16308277Y-13833984D02*
X16289230Y-13824460D01*
X16498753Y-13833984D02*
X16479706Y-13824460D01*
X16479706Y-13824460D02*
X16470182Y-13805412D01*
X16470182Y-13805412D02*
X16470182Y-13633984D01*
X16660658Y-13833984D02*
X16660658Y-13729222D01*
X16660658Y-13729222D02*
X16651134Y-13710174D01*
X16651134Y-13710174D02*
X16632087Y-13700650D01*
X16632087Y-13700650D02*
X16593992Y-13700650D01*
X16593992Y-13700650D02*
X16574944Y-13710174D01*
X16660658Y-13824460D02*
X16641611Y-13833984D01*
X16641611Y-13833984D02*
X16593992Y-13833984D01*
X16593992Y-13833984D02*
X16574944Y-13824460D01*
X16574944Y-13824460D02*
X16565420Y-13805412D01*
X16565420Y-13805412D02*
X16565420Y-13786365D01*
X16565420Y-13786365D02*
X16574944Y-13767317D01*
X16574944Y-13767317D02*
X16593992Y-13757793D01*
X16593992Y-13757793D02*
X16641611Y-13757793D01*
X16641611Y-13757793D02*
X16660658Y-13748269D01*
X16727325Y-13700650D02*
X16803515Y-13700650D01*
X16755896Y-13633984D02*
X16755896Y-13805412D01*
X16755896Y-13805412D02*
X16765420Y-13824460D01*
X16765420Y-13824460D02*
X16784468Y-13833984D01*
X16784468Y-13833984D02*
X16803515Y-13833984D01*
X16946373Y-13824460D02*
X16927325Y-13833984D01*
X16927325Y-13833984D02*
X16889230Y-13833984D01*
X16889230Y-13833984D02*
X16870182Y-13824460D01*
X16870182Y-13824460D02*
X16860658Y-13805412D01*
X16860658Y-13805412D02*
X16860658Y-13729222D01*
X16860658Y-13729222D02*
X16870182Y-13710174D01*
X16870182Y-13710174D02*
X16889230Y-13700650D01*
X16889230Y-13700650D02*
X16927325Y-13700650D01*
X16927325Y-13700650D02*
X16946373Y-13710174D01*
X16946373Y-13710174D02*
X16955896Y-13729222D01*
X16955896Y-13729222D02*
X16955896Y-13748269D01*
X16955896Y-13748269D02*
X16860658Y-13767317D01*
X17127325Y-13833984D02*
X17127325Y-13633984D01*
X17127325Y-13824460D02*
X17108277Y-13833984D01*
X17108277Y-13833984D02*
X17070182Y-13833984D01*
X17070182Y-13833984D02*
X17051135Y-13824460D01*
X17051135Y-13824460D02*
X17041611Y-13814936D01*
X17041611Y-13814936D02*
X17032087Y-13795888D01*
X17032087Y-13795888D02*
X17032087Y-13738746D01*
X17032087Y-13738746D02*
X17041611Y-13719698D01*
X17041611Y-13719698D02*
X17051135Y-13710174D01*
X17051135Y-13710174D02*
X17070182Y-13700650D01*
X17070182Y-13700650D02*
X17108277Y-13700650D01*
X17108277Y-13700650D02*
X17127325Y-13710174D01*
X17203516Y-13910174D02*
X17213039Y-13900650D01*
X17213039Y-13900650D02*
X17232087Y-13872079D01*
X17232087Y-13872079D02*
X17241611Y-13853031D01*
X17241611Y-13853031D02*
X17251135Y-13824460D01*
X17251135Y-13824460D02*
X17260658Y-13776841D01*
X17260658Y-13776841D02*
X17260658Y-13738746D01*
X17260658Y-13738746D02*
X17251135Y-13691127D01*
X17251135Y-13691127D02*
X17241611Y-13662555D01*
X17241611Y-13662555D02*
X17232087Y-13643508D01*
X17232087Y-13643508D02*
X17213039Y-13614936D01*
X17213039Y-13614936D02*
X17203516Y-13605412D01*
M02*
