G04 #@! TF.GenerationSoftware,KiCad,Pcbnew,9.0.7*
G04 #@! TF.CreationDate,2026-03-12T00:43:15-06:00*
G04 #@! TF.ProjectId,Power_Motor_Board_v2,506f7765-725f-44d6-9f74-6f725f426f61,rev?*
G04 #@! TF.SameCoordinates,Original*
G04 #@! TF.FileFunction,Legend,Bot*
G04 #@! TF.FilePolarity,Positive*
%FSLAX46Y46*%
G04 Gerber Fmt 4.6, Leading zero omitted, Abs format (unit mm)*
G04 Created by KiCad (PCBNEW 9.0.7) date 2026-03-12 00:43:15*
%MOMM*%
%LPD*%
G01*
G04 APERTURE LIST*
%ADD10C,0.125000*%
%ADD11C,0.000000*%
%ADD12C,1.700000*%
%ADD13R,1.700000X1.700000*%
%ADD14C,1.560000*%
%ADD15R,1.560000X1.560000*%
%ADD16C,1.800000*%
%ADD17R,1.800000X1.800000*%
%ADD18C,3.200000*%
G04 APERTURE END LIST*
D10*
X155329668Y-75104452D02*
X155329668Y-75961595D01*
X155329668Y-75961595D02*
X155377287Y-76056833D01*
X155377287Y-76056833D02*
X155472525Y-76104452D01*
X155472525Y-76104452D02*
X155520144Y-76104452D01*
X155329668Y-74771119D02*
X155377287Y-74818738D01*
X155377287Y-74818738D02*
X155329668Y-74866357D01*
X155329668Y-74866357D02*
X155282049Y-74818738D01*
X155282049Y-74818738D02*
X155329668Y-74771119D01*
X155329668Y-74771119D02*
X155329668Y-74866357D01*
X154424907Y-75104452D02*
X154424907Y-75771119D01*
X154853478Y-75104452D02*
X154853478Y-75628261D01*
X154853478Y-75628261D02*
X154805859Y-75723500D01*
X154805859Y-75723500D02*
X154710621Y-75771119D01*
X154710621Y-75771119D02*
X154567764Y-75771119D01*
X154567764Y-75771119D02*
X154472526Y-75723500D01*
X154472526Y-75723500D02*
X154424907Y-75675880D01*
X153948716Y-75104452D02*
X153948716Y-75961595D01*
X153948716Y-75961595D02*
X153996335Y-76056833D01*
X153996335Y-76056833D02*
X154091573Y-76104452D01*
X154091573Y-76104452D02*
X154139192Y-76104452D01*
X153948716Y-74771119D02*
X153996335Y-74818738D01*
X153996335Y-74818738D02*
X153948716Y-74866357D01*
X153948716Y-74866357D02*
X153901097Y-74818738D01*
X153901097Y-74818738D02*
X153948716Y-74771119D01*
X153948716Y-74771119D02*
X153948716Y-74866357D01*
X153043955Y-75104452D02*
X153043955Y-75771119D01*
X153472526Y-75104452D02*
X153472526Y-75628261D01*
X153472526Y-75628261D02*
X153424907Y-75723500D01*
X153424907Y-75723500D02*
X153329669Y-75771119D01*
X153329669Y-75771119D02*
X153186812Y-75771119D01*
X153186812Y-75771119D02*
X153091574Y-75723500D01*
X153091574Y-75723500D02*
X153043955Y-75675880D01*
X152710621Y-75104452D02*
X152329669Y-75104452D01*
X152567764Y-74771119D02*
X152567764Y-75628261D01*
X152567764Y-75628261D02*
X152520145Y-75723500D01*
X152520145Y-75723500D02*
X152424907Y-75771119D01*
X152424907Y-75771119D02*
X152329669Y-75771119D01*
X151996335Y-75771119D02*
X151996335Y-74771119D01*
X151567764Y-75771119D02*
X151567764Y-75247309D01*
X151567764Y-75247309D02*
X151615383Y-75152071D01*
X151615383Y-75152071D02*
X151710621Y-75104452D01*
X151710621Y-75104452D02*
X151853478Y-75104452D01*
X151853478Y-75104452D02*
X151948716Y-75152071D01*
X151948716Y-75152071D02*
X151996335Y-75199690D01*
X150710621Y-75723500D02*
X150805859Y-75771119D01*
X150805859Y-75771119D02*
X150996335Y-75771119D01*
X150996335Y-75771119D02*
X151091573Y-75723500D01*
X151091573Y-75723500D02*
X151139192Y-75628261D01*
X151139192Y-75628261D02*
X151139192Y-75247309D01*
X151139192Y-75247309D02*
X151091573Y-75152071D01*
X151091573Y-75152071D02*
X150996335Y-75104452D01*
X150996335Y-75104452D02*
X150805859Y-75104452D01*
X150805859Y-75104452D02*
X150710621Y-75152071D01*
X150710621Y-75152071D02*
X150663002Y-75247309D01*
X150663002Y-75247309D02*
X150663002Y-75342547D01*
X150663002Y-75342547D02*
X151139192Y-75437785D01*
X150234430Y-75104452D02*
X150234430Y-76104452D01*
X150234430Y-75152071D02*
X150139192Y-75104452D01*
X150139192Y-75104452D02*
X149948716Y-75104452D01*
X149948716Y-75104452D02*
X149853478Y-75152071D01*
X149853478Y-75152071D02*
X149805859Y-75199690D01*
X149805859Y-75199690D02*
X149758240Y-75294928D01*
X149758240Y-75294928D02*
X149758240Y-75580642D01*
X149758240Y-75580642D02*
X149805859Y-75675880D01*
X149805859Y-75675880D02*
X149853478Y-75723500D01*
X149853478Y-75723500D02*
X149948716Y-75771119D01*
X149948716Y-75771119D02*
X150139192Y-75771119D01*
X150139192Y-75771119D02*
X150234430Y-75723500D01*
X149186811Y-75771119D02*
X149282049Y-75723500D01*
X149282049Y-75723500D02*
X149329668Y-75675880D01*
X149329668Y-75675880D02*
X149377287Y-75580642D01*
X149377287Y-75580642D02*
X149377287Y-75294928D01*
X149377287Y-75294928D02*
X149329668Y-75199690D01*
X149329668Y-75199690D02*
X149282049Y-75152071D01*
X149282049Y-75152071D02*
X149186811Y-75104452D01*
X149186811Y-75104452D02*
X149043954Y-75104452D01*
X149043954Y-75104452D02*
X148948716Y-75152071D01*
X148948716Y-75152071D02*
X148901097Y-75199690D01*
X148901097Y-75199690D02*
X148853478Y-75294928D01*
X148853478Y-75294928D02*
X148853478Y-75580642D01*
X148853478Y-75580642D02*
X148901097Y-75675880D01*
X148901097Y-75675880D02*
X148948716Y-75723500D01*
X148948716Y-75723500D02*
X149043954Y-75771119D01*
X149043954Y-75771119D02*
X149186811Y-75771119D01*
X148282049Y-75771119D02*
X148377287Y-75723500D01*
X148377287Y-75723500D02*
X148424906Y-75675880D01*
X148424906Y-75675880D02*
X148472525Y-75580642D01*
X148472525Y-75580642D02*
X148472525Y-75294928D01*
X148472525Y-75294928D02*
X148424906Y-75199690D01*
X148424906Y-75199690D02*
X148377287Y-75152071D01*
X148377287Y-75152071D02*
X148282049Y-75104452D01*
X148282049Y-75104452D02*
X148139192Y-75104452D01*
X148139192Y-75104452D02*
X148043954Y-75152071D01*
X148043954Y-75152071D02*
X147996335Y-75199690D01*
X147996335Y-75199690D02*
X147948716Y-75294928D01*
X147948716Y-75294928D02*
X147948716Y-75580642D01*
X147948716Y-75580642D02*
X147996335Y-75675880D01*
X147996335Y-75675880D02*
X148043954Y-75723500D01*
X148043954Y-75723500D02*
X148139192Y-75771119D01*
X148139192Y-75771119D02*
X148282049Y-75771119D01*
X147520144Y-75104452D02*
X147520144Y-76104452D01*
X147520144Y-75152071D02*
X147424906Y-75104452D01*
X147424906Y-75104452D02*
X147234430Y-75104452D01*
X147234430Y-75104452D02*
X147139192Y-75152071D01*
X147139192Y-75152071D02*
X147091573Y-75199690D01*
X147091573Y-75199690D02*
X147043954Y-75294928D01*
X147043954Y-75294928D02*
X147043954Y-75580642D01*
X147043954Y-75580642D02*
X147091573Y-75675880D01*
X147091573Y-75675880D02*
X147139192Y-75723500D01*
X147139192Y-75723500D02*
X147234430Y-75771119D01*
X147234430Y-75771119D02*
X147424906Y-75771119D01*
X147424906Y-75771119D02*
X147520144Y-75723500D01*
X146472525Y-75771119D02*
X146567763Y-75723500D01*
X146567763Y-75723500D02*
X146615382Y-75675880D01*
X146615382Y-75675880D02*
X146663001Y-75580642D01*
X146663001Y-75580642D02*
X146663001Y-75294928D01*
X146663001Y-75294928D02*
X146615382Y-75199690D01*
X146615382Y-75199690D02*
X146567763Y-75152071D01*
X146567763Y-75152071D02*
X146472525Y-75104452D01*
X146472525Y-75104452D02*
X146329668Y-75104452D01*
X146329668Y-75104452D02*
X146234430Y-75152071D01*
X146234430Y-75152071D02*
X146186811Y-75199690D01*
X146186811Y-75199690D02*
X146139192Y-75294928D01*
X146139192Y-75294928D02*
X146139192Y-75580642D01*
X146139192Y-75580642D02*
X146186811Y-75675880D01*
X146186811Y-75675880D02*
X146234430Y-75723500D01*
X146234430Y-75723500D02*
X146329668Y-75771119D01*
X146329668Y-75771119D02*
X146472525Y-75771119D01*
X145567763Y-75771119D02*
X145663001Y-75723500D01*
X145663001Y-75723500D02*
X145710620Y-75675880D01*
X145710620Y-75675880D02*
X145758239Y-75580642D01*
X145758239Y-75580642D02*
X145758239Y-75294928D01*
X145758239Y-75294928D02*
X145710620Y-75199690D01*
X145710620Y-75199690D02*
X145663001Y-75152071D01*
X145663001Y-75152071D02*
X145567763Y-75104452D01*
X145567763Y-75104452D02*
X145424906Y-75104452D01*
X145424906Y-75104452D02*
X145329668Y-75152071D01*
X145329668Y-75152071D02*
X145282049Y-75199690D01*
X145282049Y-75199690D02*
X145234430Y-75294928D01*
X145234430Y-75294928D02*
X145234430Y-75580642D01*
X145234430Y-75580642D02*
X145282049Y-75675880D01*
X145282049Y-75675880D02*
X145329668Y-75723500D01*
X145329668Y-75723500D02*
X145424906Y-75771119D01*
X145424906Y-75771119D02*
X145567763Y-75771119D01*
X155772525Y-68004452D02*
X155391573Y-68004452D01*
X155629668Y-68671119D02*
X155629668Y-67813976D01*
X155629668Y-67813976D02*
X155582049Y-67718738D01*
X155582049Y-67718738D02*
X155486811Y-67671119D01*
X155486811Y-67671119D02*
X155391573Y-67671119D01*
X155058239Y-68671119D02*
X155058239Y-68004452D01*
X155058239Y-68194928D02*
X155010620Y-68099690D01*
X155010620Y-68099690D02*
X154963001Y-68052071D01*
X154963001Y-68052071D02*
X154867763Y-68004452D01*
X154867763Y-68004452D02*
X154772525Y-68004452D01*
X154058239Y-68623500D02*
X154153477Y-68671119D01*
X154153477Y-68671119D02*
X154343953Y-68671119D01*
X154343953Y-68671119D02*
X154439191Y-68623500D01*
X154439191Y-68623500D02*
X154486810Y-68528261D01*
X154486810Y-68528261D02*
X154486810Y-68147309D01*
X154486810Y-68147309D02*
X154439191Y-68052071D01*
X154439191Y-68052071D02*
X154343953Y-68004452D01*
X154343953Y-68004452D02*
X154153477Y-68004452D01*
X154153477Y-68004452D02*
X154058239Y-68052071D01*
X154058239Y-68052071D02*
X154010620Y-68147309D01*
X154010620Y-68147309D02*
X154010620Y-68242547D01*
X154010620Y-68242547D02*
X154486810Y-68337785D01*
X153153477Y-68671119D02*
X153153477Y-67671119D01*
X153153477Y-68623500D02*
X153248715Y-68671119D01*
X153248715Y-68671119D02*
X153439191Y-68671119D01*
X153439191Y-68671119D02*
X153534429Y-68623500D01*
X153534429Y-68623500D02*
X153582048Y-68575880D01*
X153582048Y-68575880D02*
X153629667Y-68480642D01*
X153629667Y-68480642D02*
X153629667Y-68194928D01*
X153629667Y-68194928D02*
X153582048Y-68099690D01*
X153582048Y-68099690D02*
X153534429Y-68052071D01*
X153534429Y-68052071D02*
X153439191Y-68004452D01*
X153439191Y-68004452D02*
X153248715Y-68004452D01*
X153248715Y-68004452D02*
X153153477Y-68052071D01*
X152248715Y-68671119D02*
X152248715Y-67671119D01*
X152248715Y-68623500D02*
X152343953Y-68671119D01*
X152343953Y-68671119D02*
X152534429Y-68671119D01*
X152534429Y-68671119D02*
X152629667Y-68623500D01*
X152629667Y-68623500D02*
X152677286Y-68575880D01*
X152677286Y-68575880D02*
X152724905Y-68480642D01*
X152724905Y-68480642D02*
X152724905Y-68194928D01*
X152724905Y-68194928D02*
X152677286Y-68099690D01*
X152677286Y-68099690D02*
X152629667Y-68052071D01*
X152629667Y-68052071D02*
X152534429Y-68004452D01*
X152534429Y-68004452D02*
X152343953Y-68004452D01*
X152343953Y-68004452D02*
X152248715Y-68052071D01*
X151867762Y-68004452D02*
X151629667Y-68671119D01*
X151391572Y-68004452D02*
X151629667Y-68671119D01*
X151629667Y-68671119D02*
X151724905Y-68909214D01*
X151724905Y-68909214D02*
X151772524Y-68956833D01*
X151772524Y-68956833D02*
X151867762Y-69004452D01*
X150391571Y-68004452D02*
X150010619Y-68004452D01*
X150248714Y-68671119D02*
X150248714Y-67813976D01*
X150248714Y-67813976D02*
X150201095Y-67718738D01*
X150201095Y-67718738D02*
X150105857Y-67671119D01*
X150105857Y-67671119D02*
X150010619Y-67671119D01*
X149248714Y-68671119D02*
X149248714Y-68147309D01*
X149248714Y-68147309D02*
X149296333Y-68052071D01*
X149296333Y-68052071D02*
X149391571Y-68004452D01*
X149391571Y-68004452D02*
X149582047Y-68004452D01*
X149582047Y-68004452D02*
X149677285Y-68052071D01*
X149248714Y-68623500D02*
X149343952Y-68671119D01*
X149343952Y-68671119D02*
X149582047Y-68671119D01*
X149582047Y-68671119D02*
X149677285Y-68623500D01*
X149677285Y-68623500D02*
X149724904Y-68528261D01*
X149724904Y-68528261D02*
X149724904Y-68433023D01*
X149724904Y-68433023D02*
X149677285Y-68337785D01*
X149677285Y-68337785D02*
X149582047Y-68290166D01*
X149582047Y-68290166D02*
X149343952Y-68290166D01*
X149343952Y-68290166D02*
X149248714Y-68242547D01*
X148867761Y-68004452D02*
X148343952Y-68004452D01*
X148343952Y-68004452D02*
X148867761Y-68671119D01*
X148867761Y-68671119D02*
X148343952Y-68671119D01*
X147962999Y-68671119D02*
X147962999Y-67671119D01*
X147962999Y-68052071D02*
X147867761Y-68004452D01*
X147867761Y-68004452D02*
X147677285Y-68004452D01*
X147677285Y-68004452D02*
X147582047Y-68052071D01*
X147582047Y-68052071D02*
X147534428Y-68099690D01*
X147534428Y-68099690D02*
X147486809Y-68194928D01*
X147486809Y-68194928D02*
X147486809Y-68480642D01*
X147486809Y-68480642D02*
X147534428Y-68575880D01*
X147534428Y-68575880D02*
X147582047Y-68623500D01*
X147582047Y-68623500D02*
X147677285Y-68671119D01*
X147677285Y-68671119D02*
X147867761Y-68671119D01*
X147867761Y-68671119D02*
X147962999Y-68623500D01*
X146677285Y-68623500D02*
X146772523Y-68671119D01*
X146772523Y-68671119D02*
X146962999Y-68671119D01*
X146962999Y-68671119D02*
X147058237Y-68623500D01*
X147058237Y-68623500D02*
X147105856Y-68528261D01*
X147105856Y-68528261D02*
X147105856Y-68147309D01*
X147105856Y-68147309D02*
X147058237Y-68052071D01*
X147058237Y-68052071D02*
X146962999Y-68004452D01*
X146962999Y-68004452D02*
X146772523Y-68004452D01*
X146772523Y-68004452D02*
X146677285Y-68052071D01*
X146677285Y-68052071D02*
X146629666Y-68147309D01*
X146629666Y-68147309D02*
X146629666Y-68242547D01*
X146629666Y-68242547D02*
X147105856Y-68337785D01*
X145772523Y-68671119D02*
X145772523Y-68147309D01*
X145772523Y-68147309D02*
X145820142Y-68052071D01*
X145820142Y-68052071D02*
X145915380Y-68004452D01*
X145915380Y-68004452D02*
X146105856Y-68004452D01*
X146105856Y-68004452D02*
X146201094Y-68052071D01*
X145772523Y-68623500D02*
X145867761Y-68671119D01*
X145867761Y-68671119D02*
X146105856Y-68671119D01*
X146105856Y-68671119D02*
X146201094Y-68623500D01*
X146201094Y-68623500D02*
X146248713Y-68528261D01*
X146248713Y-68528261D02*
X146248713Y-68433023D01*
X146248713Y-68433023D02*
X146201094Y-68337785D01*
X146201094Y-68337785D02*
X146105856Y-68290166D01*
X146105856Y-68290166D02*
X145867761Y-68290166D01*
X145867761Y-68290166D02*
X145772523Y-68242547D01*
X145296332Y-68671119D02*
X145296332Y-68004452D01*
X145296332Y-68194928D02*
X145248713Y-68099690D01*
X145248713Y-68099690D02*
X145201094Y-68052071D01*
X145201094Y-68052071D02*
X145105856Y-68004452D01*
X145105856Y-68004452D02*
X145010618Y-68004452D01*
X156624906Y-71654452D02*
X156434430Y-72321119D01*
X156434430Y-72321119D02*
X156243954Y-71844928D01*
X156243954Y-71844928D02*
X156053478Y-72321119D01*
X156053478Y-72321119D02*
X155863002Y-71654452D01*
X155482049Y-72321119D02*
X155482049Y-71321119D01*
X155053478Y-72321119D02*
X155053478Y-71797309D01*
X155053478Y-71797309D02*
X155101097Y-71702071D01*
X155101097Y-71702071D02*
X155196335Y-71654452D01*
X155196335Y-71654452D02*
X155339192Y-71654452D01*
X155339192Y-71654452D02*
X155434430Y-71702071D01*
X155434430Y-71702071D02*
X155482049Y-71749690D01*
X154148716Y-72321119D02*
X154148716Y-71797309D01*
X154148716Y-71797309D02*
X154196335Y-71702071D01*
X154196335Y-71702071D02*
X154291573Y-71654452D01*
X154291573Y-71654452D02*
X154482049Y-71654452D01*
X154482049Y-71654452D02*
X154577287Y-71702071D01*
X154148716Y-72273500D02*
X154243954Y-72321119D01*
X154243954Y-72321119D02*
X154482049Y-72321119D01*
X154482049Y-72321119D02*
X154577287Y-72273500D01*
X154577287Y-72273500D02*
X154624906Y-72178261D01*
X154624906Y-72178261D02*
X154624906Y-72083023D01*
X154624906Y-72083023D02*
X154577287Y-71987785D01*
X154577287Y-71987785D02*
X154482049Y-71940166D01*
X154482049Y-71940166D02*
X154243954Y-71940166D01*
X154243954Y-71940166D02*
X154148716Y-71892547D01*
X153815382Y-71654452D02*
X153434430Y-71654452D01*
X153672525Y-71321119D02*
X153672525Y-72178261D01*
X153672525Y-72178261D02*
X153624906Y-72273500D01*
X153624906Y-72273500D02*
X153529668Y-72321119D01*
X153529668Y-72321119D02*
X153434430Y-72321119D01*
X152672525Y-72321119D02*
X152672525Y-71321119D01*
X152672525Y-72273500D02*
X152767763Y-72321119D01*
X152767763Y-72321119D02*
X152958239Y-72321119D01*
X152958239Y-72321119D02*
X153053477Y-72273500D01*
X153053477Y-72273500D02*
X153101096Y-72225880D01*
X153101096Y-72225880D02*
X153148715Y-72130642D01*
X153148715Y-72130642D02*
X153148715Y-71844928D01*
X153148715Y-71844928D02*
X153101096Y-71749690D01*
X153101096Y-71749690D02*
X153053477Y-71702071D01*
X153053477Y-71702071D02*
X152958239Y-71654452D01*
X152958239Y-71654452D02*
X152767763Y-71654452D01*
X152767763Y-71654452D02*
X152672525Y-71702071D01*
X151767763Y-72321119D02*
X151767763Y-71797309D01*
X151767763Y-71797309D02*
X151815382Y-71702071D01*
X151815382Y-71702071D02*
X151910620Y-71654452D01*
X151910620Y-71654452D02*
X152101096Y-71654452D01*
X152101096Y-71654452D02*
X152196334Y-71702071D01*
X151767763Y-72273500D02*
X151863001Y-72321119D01*
X151863001Y-72321119D02*
X152101096Y-72321119D01*
X152101096Y-72321119D02*
X152196334Y-72273500D01*
X152196334Y-72273500D02*
X152243953Y-72178261D01*
X152243953Y-72178261D02*
X152243953Y-72083023D01*
X152243953Y-72083023D02*
X152196334Y-71987785D01*
X152196334Y-71987785D02*
X152101096Y-71940166D01*
X152101096Y-71940166D02*
X151863001Y-71940166D01*
X151863001Y-71940166D02*
X151767763Y-71892547D01*
X151291572Y-72321119D02*
X151291572Y-71321119D01*
X150863001Y-72321119D02*
X150863001Y-71797309D01*
X150863001Y-71797309D02*
X150910620Y-71702071D01*
X150910620Y-71702071D02*
X151005858Y-71654452D01*
X151005858Y-71654452D02*
X151148715Y-71654452D01*
X151148715Y-71654452D02*
X151243953Y-71702071D01*
X151243953Y-71702071D02*
X151291572Y-71749690D01*
X149958239Y-72321119D02*
X149958239Y-71797309D01*
X149958239Y-71797309D02*
X150005858Y-71702071D01*
X150005858Y-71702071D02*
X150101096Y-71654452D01*
X150101096Y-71654452D02*
X150291572Y-71654452D01*
X150291572Y-71654452D02*
X150386810Y-71702071D01*
X149958239Y-72273500D02*
X150053477Y-72321119D01*
X150053477Y-72321119D02*
X150291572Y-72321119D01*
X150291572Y-72321119D02*
X150386810Y-72273500D01*
X150386810Y-72273500D02*
X150434429Y-72178261D01*
X150434429Y-72178261D02*
X150434429Y-72083023D01*
X150434429Y-72083023D02*
X150386810Y-71987785D01*
X150386810Y-71987785D02*
X150291572Y-71940166D01*
X150291572Y-71940166D02*
X150053477Y-71940166D01*
X150053477Y-71940166D02*
X149958239Y-71892547D01*
X149339191Y-72321119D02*
X149434429Y-72273500D01*
X149434429Y-72273500D02*
X149482048Y-72178261D01*
X149482048Y-72178261D02*
X149482048Y-71321119D01*
X148577286Y-72273500D02*
X148672524Y-72321119D01*
X148672524Y-72321119D02*
X148863000Y-72321119D01*
X148863000Y-72321119D02*
X148958238Y-72273500D01*
X148958238Y-72273500D02*
X149005857Y-72178261D01*
X149005857Y-72178261D02*
X149005857Y-71797309D01*
X149005857Y-71797309D02*
X148958238Y-71702071D01*
X148958238Y-71702071D02*
X148863000Y-71654452D01*
X148863000Y-71654452D02*
X148672524Y-71654452D01*
X148672524Y-71654452D02*
X148577286Y-71702071D01*
X148577286Y-71702071D02*
X148529667Y-71797309D01*
X148529667Y-71797309D02*
X148529667Y-71892547D01*
X148529667Y-71892547D02*
X149005857Y-71987785D01*
X147720143Y-72273500D02*
X147815381Y-72321119D01*
X147815381Y-72321119D02*
X148005857Y-72321119D01*
X148005857Y-72321119D02*
X148101095Y-72273500D01*
X148101095Y-72273500D02*
X148148714Y-72178261D01*
X148148714Y-72178261D02*
X148148714Y-71797309D01*
X148148714Y-71797309D02*
X148101095Y-71702071D01*
X148101095Y-71702071D02*
X148005857Y-71654452D01*
X148005857Y-71654452D02*
X147815381Y-71654452D01*
X147815381Y-71654452D02*
X147720143Y-71702071D01*
X147720143Y-71702071D02*
X147672524Y-71797309D01*
X147672524Y-71797309D02*
X147672524Y-71892547D01*
X147672524Y-71892547D02*
X148148714Y-71987785D01*
X147243952Y-72321119D02*
X147243952Y-71321119D01*
X147243952Y-71702071D02*
X147148714Y-71654452D01*
X147148714Y-71654452D02*
X146958238Y-71654452D01*
X146958238Y-71654452D02*
X146863000Y-71702071D01*
X146863000Y-71702071D02*
X146815381Y-71749690D01*
X146815381Y-71749690D02*
X146767762Y-71844928D01*
X146767762Y-71844928D02*
X146767762Y-72130642D01*
X146767762Y-72130642D02*
X146815381Y-72225880D01*
X146815381Y-72225880D02*
X146863000Y-72273500D01*
X146863000Y-72273500D02*
X146958238Y-72321119D01*
X146958238Y-72321119D02*
X147148714Y-72321119D01*
X147148714Y-72321119D02*
X147243952Y-72273500D01*
X145958238Y-72273500D02*
X146053476Y-72321119D01*
X146053476Y-72321119D02*
X146243952Y-72321119D01*
X146243952Y-72321119D02*
X146339190Y-72273500D01*
X146339190Y-72273500D02*
X146386809Y-72178261D01*
X146386809Y-72178261D02*
X146386809Y-71797309D01*
X146386809Y-71797309D02*
X146339190Y-71702071D01*
X146339190Y-71702071D02*
X146243952Y-71654452D01*
X146243952Y-71654452D02*
X146053476Y-71654452D01*
X146053476Y-71654452D02*
X145958238Y-71702071D01*
X145958238Y-71702071D02*
X145910619Y-71797309D01*
X145910619Y-71797309D02*
X145910619Y-71892547D01*
X145910619Y-71892547D02*
X146386809Y-71987785D01*
X145482047Y-72321119D02*
X145482047Y-71654452D01*
X145482047Y-71844928D02*
X145434428Y-71749690D01*
X145434428Y-71749690D02*
X145386809Y-71702071D01*
X145386809Y-71702071D02*
X145291571Y-71654452D01*
X145291571Y-71654452D02*
X145196333Y-71654452D01*
X144862999Y-72321119D02*
X144862999Y-71654452D01*
X144862999Y-71844928D02*
X144815380Y-71749690D01*
X144815380Y-71749690D02*
X144767761Y-71702071D01*
X144767761Y-71702071D02*
X144672523Y-71654452D01*
X144672523Y-71654452D02*
X144577285Y-71654452D01*
X144339189Y-71654452D02*
X144101094Y-72321119D01*
X143862999Y-71654452D02*
X144101094Y-72321119D01*
X144101094Y-72321119D02*
X144196332Y-72559214D01*
X144196332Y-72559214D02*
X144243951Y-72606833D01*
X144243951Y-72606833D02*
X144339189Y-72654452D01*
X155286811Y-73971119D02*
X155382049Y-73923500D01*
X155382049Y-73923500D02*
X155429668Y-73828261D01*
X155429668Y-73828261D02*
X155429668Y-72971119D01*
X154524906Y-73923500D02*
X154620144Y-73971119D01*
X154620144Y-73971119D02*
X154810620Y-73971119D01*
X154810620Y-73971119D02*
X154905858Y-73923500D01*
X154905858Y-73923500D02*
X154953477Y-73828261D01*
X154953477Y-73828261D02*
X154953477Y-73447309D01*
X154953477Y-73447309D02*
X154905858Y-73352071D01*
X154905858Y-73352071D02*
X154810620Y-73304452D01*
X154810620Y-73304452D02*
X154620144Y-73304452D01*
X154620144Y-73304452D02*
X154524906Y-73352071D01*
X154524906Y-73352071D02*
X154477287Y-73447309D01*
X154477287Y-73447309D02*
X154477287Y-73542547D01*
X154477287Y-73542547D02*
X154953477Y-73637785D01*
X153620144Y-73971119D02*
X153620144Y-73447309D01*
X153620144Y-73447309D02*
X153667763Y-73352071D01*
X153667763Y-73352071D02*
X153763001Y-73304452D01*
X153763001Y-73304452D02*
X153953477Y-73304452D01*
X153953477Y-73304452D02*
X154048715Y-73352071D01*
X153620144Y-73923500D02*
X153715382Y-73971119D01*
X153715382Y-73971119D02*
X153953477Y-73971119D01*
X153953477Y-73971119D02*
X154048715Y-73923500D01*
X154048715Y-73923500D02*
X154096334Y-73828261D01*
X154096334Y-73828261D02*
X154096334Y-73733023D01*
X154096334Y-73733023D02*
X154048715Y-73637785D01*
X154048715Y-73637785D02*
X153953477Y-73590166D01*
X153953477Y-73590166D02*
X153715382Y-73590166D01*
X153715382Y-73590166D02*
X153620144Y-73542547D01*
X153143953Y-73304452D02*
X153143953Y-73971119D01*
X153143953Y-73399690D02*
X153096334Y-73352071D01*
X153096334Y-73352071D02*
X153001096Y-73304452D01*
X153001096Y-73304452D02*
X152858239Y-73304452D01*
X152858239Y-73304452D02*
X152763001Y-73352071D01*
X152763001Y-73352071D02*
X152715382Y-73447309D01*
X152715382Y-73447309D02*
X152715382Y-73971119D01*
X151477286Y-73971119D02*
X151477286Y-73304452D01*
X151477286Y-73399690D02*
X151429667Y-73352071D01*
X151429667Y-73352071D02*
X151334429Y-73304452D01*
X151334429Y-73304452D02*
X151191572Y-73304452D01*
X151191572Y-73304452D02*
X151096334Y-73352071D01*
X151096334Y-73352071D02*
X151048715Y-73447309D01*
X151048715Y-73447309D02*
X151048715Y-73971119D01*
X151048715Y-73447309D02*
X151001096Y-73352071D01*
X151001096Y-73352071D02*
X150905858Y-73304452D01*
X150905858Y-73304452D02*
X150763001Y-73304452D01*
X150763001Y-73304452D02*
X150667762Y-73352071D01*
X150667762Y-73352071D02*
X150620143Y-73447309D01*
X150620143Y-73447309D02*
X150620143Y-73971119D01*
X149715382Y-73971119D02*
X149715382Y-73447309D01*
X149715382Y-73447309D02*
X149763001Y-73352071D01*
X149763001Y-73352071D02*
X149858239Y-73304452D01*
X149858239Y-73304452D02*
X150048715Y-73304452D01*
X150048715Y-73304452D02*
X150143953Y-73352071D01*
X149715382Y-73923500D02*
X149810620Y-73971119D01*
X149810620Y-73971119D02*
X150048715Y-73971119D01*
X150048715Y-73971119D02*
X150143953Y-73923500D01*
X150143953Y-73923500D02*
X150191572Y-73828261D01*
X150191572Y-73828261D02*
X150191572Y-73733023D01*
X150191572Y-73733023D02*
X150143953Y-73637785D01*
X150143953Y-73637785D02*
X150048715Y-73590166D01*
X150048715Y-73590166D02*
X149810620Y-73590166D01*
X149810620Y-73590166D02*
X149715382Y-73542547D01*
X149286810Y-73923500D02*
X149191572Y-73971119D01*
X149191572Y-73971119D02*
X149001096Y-73971119D01*
X149001096Y-73971119D02*
X148905858Y-73923500D01*
X148905858Y-73923500D02*
X148858239Y-73828261D01*
X148858239Y-73828261D02*
X148858239Y-73780642D01*
X148858239Y-73780642D02*
X148905858Y-73685404D01*
X148905858Y-73685404D02*
X149001096Y-73637785D01*
X149001096Y-73637785D02*
X149143953Y-73637785D01*
X149143953Y-73637785D02*
X149239191Y-73590166D01*
X149239191Y-73590166D02*
X149286810Y-73494928D01*
X149286810Y-73494928D02*
X149286810Y-73447309D01*
X149286810Y-73447309D02*
X149239191Y-73352071D01*
X149239191Y-73352071D02*
X149143953Y-73304452D01*
X149143953Y-73304452D02*
X149001096Y-73304452D01*
X149001096Y-73304452D02*
X148905858Y-73352071D01*
X148429667Y-73971119D02*
X148429667Y-72971119D01*
X148001096Y-73971119D02*
X148001096Y-73447309D01*
X148001096Y-73447309D02*
X148048715Y-73352071D01*
X148048715Y-73352071D02*
X148143953Y-73304452D01*
X148143953Y-73304452D02*
X148286810Y-73304452D01*
X148286810Y-73304452D02*
X148382048Y-73352071D01*
X148382048Y-73352071D02*
X148429667Y-73399690D01*
X147143953Y-73923500D02*
X147239191Y-73971119D01*
X147239191Y-73971119D02*
X147429667Y-73971119D01*
X147429667Y-73971119D02*
X147524905Y-73923500D01*
X147524905Y-73923500D02*
X147572524Y-73828261D01*
X147572524Y-73828261D02*
X147572524Y-73447309D01*
X147572524Y-73447309D02*
X147524905Y-73352071D01*
X147524905Y-73352071D02*
X147429667Y-73304452D01*
X147429667Y-73304452D02*
X147239191Y-73304452D01*
X147239191Y-73304452D02*
X147143953Y-73352071D01*
X147143953Y-73352071D02*
X147096334Y-73447309D01*
X147096334Y-73447309D02*
X147096334Y-73542547D01*
X147096334Y-73542547D02*
X147572524Y-73637785D01*
X146286810Y-73923500D02*
X146382048Y-73971119D01*
X146382048Y-73971119D02*
X146572524Y-73971119D01*
X146572524Y-73971119D02*
X146667762Y-73923500D01*
X146667762Y-73923500D02*
X146715381Y-73828261D01*
X146715381Y-73828261D02*
X146715381Y-73447309D01*
X146715381Y-73447309D02*
X146667762Y-73352071D01*
X146667762Y-73352071D02*
X146572524Y-73304452D01*
X146572524Y-73304452D02*
X146382048Y-73304452D01*
X146382048Y-73304452D02*
X146286810Y-73352071D01*
X146286810Y-73352071D02*
X146239191Y-73447309D01*
X146239191Y-73447309D02*
X146239191Y-73542547D01*
X146239191Y-73542547D02*
X146715381Y-73637785D01*
X145810619Y-73304452D02*
X145810619Y-73971119D01*
X145810619Y-73399690D02*
X145763000Y-73352071D01*
X145763000Y-73352071D02*
X145667762Y-73304452D01*
X145667762Y-73304452D02*
X145524905Y-73304452D01*
X145524905Y-73304452D02*
X145429667Y-73352071D01*
X145429667Y-73352071D02*
X145382048Y-73447309D01*
X145382048Y-73447309D02*
X145382048Y-73971119D01*
X154601097Y-70421119D02*
X154601097Y-69897309D01*
X154601097Y-69897309D02*
X154648716Y-69802071D01*
X154648716Y-69802071D02*
X154743954Y-69754452D01*
X154743954Y-69754452D02*
X154934430Y-69754452D01*
X154934430Y-69754452D02*
X155029668Y-69802071D01*
X154601097Y-70373500D02*
X154696335Y-70421119D01*
X154696335Y-70421119D02*
X154934430Y-70421119D01*
X154934430Y-70421119D02*
X155029668Y-70373500D01*
X155029668Y-70373500D02*
X155077287Y-70278261D01*
X155077287Y-70278261D02*
X155077287Y-70183023D01*
X155077287Y-70183023D02*
X155029668Y-70087785D01*
X155029668Y-70087785D02*
X154934430Y-70040166D01*
X154934430Y-70040166D02*
X154696335Y-70040166D01*
X154696335Y-70040166D02*
X154601097Y-69992547D01*
X154124906Y-70421119D02*
X154124906Y-69754452D01*
X154124906Y-69849690D02*
X154077287Y-69802071D01*
X154077287Y-69802071D02*
X153982049Y-69754452D01*
X153982049Y-69754452D02*
X153839192Y-69754452D01*
X153839192Y-69754452D02*
X153743954Y-69802071D01*
X153743954Y-69802071D02*
X153696335Y-69897309D01*
X153696335Y-69897309D02*
X153696335Y-70421119D01*
X153696335Y-69897309D02*
X153648716Y-69802071D01*
X153648716Y-69802071D02*
X153553478Y-69754452D01*
X153553478Y-69754452D02*
X153410621Y-69754452D01*
X153410621Y-69754452D02*
X153315382Y-69802071D01*
X153315382Y-69802071D02*
X153267763Y-69897309D01*
X153267763Y-69897309D02*
X153267763Y-70421119D01*
X152363002Y-70421119D02*
X152363002Y-69897309D01*
X152363002Y-69897309D02*
X152410621Y-69802071D01*
X152410621Y-69802071D02*
X152505859Y-69754452D01*
X152505859Y-69754452D02*
X152696335Y-69754452D01*
X152696335Y-69754452D02*
X152791573Y-69802071D01*
X152363002Y-70373500D02*
X152458240Y-70421119D01*
X152458240Y-70421119D02*
X152696335Y-70421119D01*
X152696335Y-70421119D02*
X152791573Y-70373500D01*
X152791573Y-70373500D02*
X152839192Y-70278261D01*
X152839192Y-70278261D02*
X152839192Y-70183023D01*
X152839192Y-70183023D02*
X152791573Y-70087785D01*
X152791573Y-70087785D02*
X152696335Y-70040166D01*
X152696335Y-70040166D02*
X152458240Y-70040166D01*
X152458240Y-70040166D02*
X152363002Y-69992547D01*
X151982049Y-69754452D02*
X151458240Y-69754452D01*
X151458240Y-69754452D02*
X151982049Y-70421119D01*
X151982049Y-70421119D02*
X151458240Y-70421119D01*
X151077287Y-70421119D02*
X151077287Y-69754452D01*
X151077287Y-69421119D02*
X151124906Y-69468738D01*
X151124906Y-69468738D02*
X151077287Y-69516357D01*
X151077287Y-69516357D02*
X151029668Y-69468738D01*
X151029668Y-69468738D02*
X151077287Y-69421119D01*
X151077287Y-69421119D02*
X151077287Y-69516357D01*
X150601097Y-69754452D02*
X150601097Y-70421119D01*
X150601097Y-69849690D02*
X150553478Y-69802071D01*
X150553478Y-69802071D02*
X150458240Y-69754452D01*
X150458240Y-69754452D02*
X150315383Y-69754452D01*
X150315383Y-69754452D02*
X150220145Y-69802071D01*
X150220145Y-69802071D02*
X150172526Y-69897309D01*
X150172526Y-69897309D02*
X150172526Y-70421119D01*
X149267764Y-69754452D02*
X149267764Y-70563976D01*
X149267764Y-70563976D02*
X149315383Y-70659214D01*
X149315383Y-70659214D02*
X149363002Y-70706833D01*
X149363002Y-70706833D02*
X149458240Y-70754452D01*
X149458240Y-70754452D02*
X149601097Y-70754452D01*
X149601097Y-70754452D02*
X149696335Y-70706833D01*
X149267764Y-70373500D02*
X149363002Y-70421119D01*
X149363002Y-70421119D02*
X149553478Y-70421119D01*
X149553478Y-70421119D02*
X149648716Y-70373500D01*
X149648716Y-70373500D02*
X149696335Y-70325880D01*
X149696335Y-70325880D02*
X149743954Y-70230642D01*
X149743954Y-70230642D02*
X149743954Y-69944928D01*
X149743954Y-69944928D02*
X149696335Y-69849690D01*
X149696335Y-69849690D02*
X149648716Y-69802071D01*
X149648716Y-69802071D02*
X149553478Y-69754452D01*
X149553478Y-69754452D02*
X149363002Y-69754452D01*
X149363002Y-69754452D02*
X149267764Y-69802071D01*
X148363002Y-70421119D02*
X148363002Y-69897309D01*
X148363002Y-69897309D02*
X148410621Y-69802071D01*
X148410621Y-69802071D02*
X148505859Y-69754452D01*
X148505859Y-69754452D02*
X148696335Y-69754452D01*
X148696335Y-69754452D02*
X148791573Y-69802071D01*
X148363002Y-70373500D02*
X148458240Y-70421119D01*
X148458240Y-70421119D02*
X148696335Y-70421119D01*
X148696335Y-70421119D02*
X148791573Y-70373500D01*
X148791573Y-70373500D02*
X148839192Y-70278261D01*
X148839192Y-70278261D02*
X148839192Y-70183023D01*
X148839192Y-70183023D02*
X148791573Y-70087785D01*
X148791573Y-70087785D02*
X148696335Y-70040166D01*
X148696335Y-70040166D02*
X148458240Y-70040166D01*
X148458240Y-70040166D02*
X148363002Y-69992547D01*
X147886811Y-70421119D02*
X147886811Y-69754452D01*
X147886811Y-69849690D02*
X147839192Y-69802071D01*
X147839192Y-69802071D02*
X147743954Y-69754452D01*
X147743954Y-69754452D02*
X147601097Y-69754452D01*
X147601097Y-69754452D02*
X147505859Y-69802071D01*
X147505859Y-69802071D02*
X147458240Y-69897309D01*
X147458240Y-69897309D02*
X147458240Y-70421119D01*
X147458240Y-69897309D02*
X147410621Y-69802071D01*
X147410621Y-69802071D02*
X147315383Y-69754452D01*
X147315383Y-69754452D02*
X147172526Y-69754452D01*
X147172526Y-69754452D02*
X147077287Y-69802071D01*
X147077287Y-69802071D02*
X147029668Y-69897309D01*
X147029668Y-69897309D02*
X147029668Y-70421119D01*
X146648716Y-69754452D02*
X146410621Y-70421119D01*
X146172526Y-69754452D02*
X146410621Y-70421119D01*
X146410621Y-70421119D02*
X146505859Y-70659214D01*
X146505859Y-70659214D02*
X146553478Y-70706833D01*
X146553478Y-70706833D02*
X146648716Y-70754452D01*
D11*
G04 #@! TO.C,G\u002A\u002A\u002A*
G36*
X150894320Y-59750961D02*
G01*
X150924182Y-59770478D01*
X150956789Y-59816235D01*
X150988859Y-59881124D01*
X151017112Y-59958037D01*
X151038266Y-60039865D01*
X151044622Y-60076588D01*
X151051205Y-60145288D01*
X151054940Y-60234280D01*
X151056057Y-60337301D01*
X151054787Y-60448090D01*
X151051357Y-60560383D01*
X151045997Y-60667919D01*
X151038938Y-60764435D01*
X151030408Y-60843669D01*
X151020636Y-60899359D01*
X151013726Y-60919969D01*
X150990445Y-60972734D01*
X150969002Y-61033231D01*
X150966267Y-61042385D01*
X150948333Y-61089100D01*
X150925128Y-61111169D01*
X150903165Y-61116678D01*
X150863902Y-61112691D01*
X150842546Y-61099733D01*
X150825301Y-61066333D01*
X150815732Y-61035334D01*
X150804046Y-60993258D01*
X150785831Y-60937984D01*
X150778385Y-60917282D01*
X150756975Y-60835826D01*
X150741530Y-60728459D01*
X150731991Y-60602620D01*
X150728299Y-60465749D01*
X150730394Y-60325283D01*
X150738217Y-60188661D01*
X150751708Y-60063323D01*
X150770809Y-59956706D01*
X150786514Y-59900044D01*
X150813186Y-59826305D01*
X150835548Y-59780215D01*
X150857400Y-59756521D01*
X150882542Y-59749968D01*
X150894320Y-59750961D01*
G37*
G36*
X151049481Y-58160868D02*
G01*
X151195029Y-58176170D01*
X151320408Y-58195624D01*
X151634957Y-58262961D01*
X151924951Y-58353447D01*
X152190967Y-58467494D01*
X152433584Y-58605517D01*
X152653378Y-58767930D01*
X152850926Y-58955145D01*
X153026805Y-59167577D01*
X153181593Y-59405639D01*
X153285268Y-59603513D01*
X153325844Y-59692215D01*
X153363389Y-59780734D01*
X153395725Y-59863200D01*
X153420679Y-59933743D01*
X153436075Y-59986492D01*
X153439737Y-60015576D01*
X153438874Y-60018029D01*
X153448278Y-60031646D01*
X153481604Y-60053234D01*
X153530963Y-60079076D01*
X153588468Y-60105452D01*
X153646231Y-60128645D01*
X153696366Y-60144937D01*
X153718073Y-60149645D01*
X153776211Y-60165312D01*
X153828213Y-60188798D01*
X153873489Y-60210564D01*
X153935040Y-60233961D01*
X153976165Y-60247022D01*
X154029583Y-60264326D01*
X154068509Y-60280454D01*
X154082365Y-60289742D01*
X154102800Y-60301053D01*
X154145822Y-60314636D01*
X154183695Y-60323586D01*
X154251333Y-60345404D01*
X154310620Y-60378361D01*
X154354408Y-60416954D01*
X154375547Y-60455678D01*
X154375803Y-60471490D01*
X154354524Y-60497189D01*
X154302203Y-60522795D01*
X154279483Y-60530649D01*
X154225811Y-60549544D01*
X154184454Y-60567103D01*
X154169544Y-60575731D01*
X154141258Y-60588930D01*
X154095276Y-60601686D01*
X154082383Y-60604288D01*
X154023268Y-60619457D01*
X153957614Y-60642177D01*
X153938353Y-60650135D01*
X153872537Y-60676377D01*
X153802869Y-60700578D01*
X153785852Y-60705795D01*
X153687289Y-60737104D01*
X153597179Y-60770201D01*
X153521921Y-60802394D01*
X153467917Y-60830989D01*
X153444204Y-60849596D01*
X153423210Y-60887785D01*
X153406662Y-60940432D01*
X153404161Y-60953192D01*
X153390249Y-61006684D01*
X153366276Y-61073744D01*
X153343387Y-61126826D01*
X153318179Y-61185269D01*
X153300517Y-61236068D01*
X153294471Y-61266038D01*
X153284220Y-61305306D01*
X153262541Y-61342454D01*
X153239839Y-61376515D01*
X153208099Y-61430667D01*
X153173291Y-61494618D01*
X153164729Y-61511085D01*
X153130928Y-61575119D01*
X153099736Y-61628821D01*
X153066566Y-61678174D01*
X153026830Y-61729162D01*
X152975941Y-61787768D01*
X152909312Y-61859976D01*
X152845515Y-61927430D01*
X152645783Y-62118852D01*
X152436713Y-62281142D01*
X152212155Y-62418353D01*
X151965956Y-62534539D01*
X151862636Y-62575068D01*
X151751600Y-62614887D01*
X151652031Y-62646487D01*
X151556239Y-62671418D01*
X151456536Y-62691233D01*
X151345234Y-62707483D01*
X151214643Y-62721719D01*
X151074711Y-62734055D01*
X151038354Y-62735056D01*
X150975095Y-62734759D01*
X150891892Y-62733278D01*
X150795702Y-62730728D01*
X150718874Y-62728171D01*
X150592438Y-62722534D01*
X150495191Y-62715627D01*
X150422439Y-62706949D01*
X150369490Y-62696002D01*
X150346092Y-62688449D01*
X150293086Y-62670091D01*
X150220959Y-62647412D01*
X150143370Y-62624670D01*
X150125812Y-62619774D01*
X149985139Y-62576715D01*
X149842899Y-62525392D01*
X149704786Y-62468470D01*
X149576496Y-62408619D01*
X149463723Y-62348504D01*
X149372160Y-62290793D01*
X149307503Y-62238152D01*
X149304496Y-62235102D01*
X149266300Y-62199757D01*
X149211014Y-62153459D01*
X149149144Y-62104931D01*
X149134551Y-62093972D01*
X149065190Y-62037161D01*
X148993825Y-61970320D01*
X148935037Y-61907175D01*
X148931215Y-61902573D01*
X148875876Y-61836325D01*
X148815010Y-61765203D01*
X148766266Y-61709653D01*
X148726229Y-61661016D01*
X148697391Y-61618630D01*
X148685798Y-61591423D01*
X148685779Y-61590861D01*
X148675055Y-61560597D01*
X148648536Y-61519967D01*
X148637233Y-61506137D01*
X148603358Y-61458670D01*
X148579810Y-61410649D01*
X148576800Y-61400677D01*
X148557523Y-61349719D01*
X148531890Y-61304866D01*
X148509280Y-61268138D01*
X148499165Y-61241868D01*
X148499127Y-61240951D01*
X148493434Y-61218835D01*
X148477951Y-61172051D01*
X148455074Y-61107557D01*
X148428449Y-61035630D01*
X148357771Y-60848212D01*
X148254767Y-60798028D01*
X148179609Y-60765661D01*
X148095716Y-60735723D01*
X148044718Y-60720871D01*
X147972225Y-60699366D01*
X147899066Y-60672595D01*
X147858328Y-60654611D01*
X147798937Y-60628697D01*
X147740559Y-60608618D01*
X147719674Y-60603386D01*
X147668235Y-60588689D01*
X147625930Y-60569686D01*
X147624947Y-60569075D01*
X147586410Y-60550752D01*
X147532942Y-60532026D01*
X147514807Y-60526862D01*
X147460338Y-60506670D01*
X147413332Y-60479432D01*
X147401966Y-60469231D01*
X148732790Y-60469231D01*
X148769064Y-60697008D01*
X148787371Y-60798889D01*
X148807965Y-60891977D01*
X148828726Y-60967474D01*
X148844551Y-61010440D01*
X148869405Y-61071264D01*
X148888842Y-61130364D01*
X148894863Y-61155253D01*
X148909998Y-61196773D01*
X148940253Y-61254151D01*
X148979793Y-61316612D01*
X148990603Y-61331979D01*
X149029070Y-61387005D01*
X149058397Y-61431995D01*
X149073928Y-61459682D01*
X149075244Y-61464060D01*
X149085834Y-61482563D01*
X149113758Y-61519193D01*
X149153251Y-61567286D01*
X149198547Y-61620173D01*
X149243877Y-61671189D01*
X149283478Y-61713666D01*
X149311581Y-61740938D01*
X149319976Y-61747009D01*
X149339881Y-61761847D01*
X149377590Y-61794591D01*
X149426619Y-61839517D01*
X149454259Y-61865621D01*
X149510421Y-61917130D01*
X149562744Y-61961504D01*
X149602969Y-61991875D01*
X149614766Y-61999063D01*
X149657154Y-62024063D01*
X149685820Y-62044968D01*
X149716617Y-62065211D01*
X149770787Y-62094771D01*
X149840433Y-62129894D01*
X149917659Y-62166828D01*
X149994571Y-62201821D01*
X150063272Y-62231119D01*
X150115866Y-62250969D01*
X150125812Y-62254086D01*
X150185148Y-62273239D01*
X150240029Y-62293818D01*
X150252896Y-62299345D01*
X150290525Y-62311137D01*
X150352345Y-62324971D01*
X150428895Y-62338898D01*
X150490121Y-62348209D01*
X150575082Y-62360413D01*
X150655974Y-62372746D01*
X150721822Y-62383501D01*
X150752763Y-62389110D01*
X150803153Y-62398188D01*
X150847666Y-62403231D01*
X150894509Y-62404101D01*
X150951886Y-62400658D01*
X151028003Y-62392763D01*
X151108600Y-62383061D01*
X151249632Y-62364477D01*
X151366038Y-62346713D01*
X151455476Y-62330199D01*
X151515601Y-62315363D01*
X151542909Y-62303645D01*
X151569215Y-62291097D01*
X151616326Y-62275115D01*
X151653503Y-62264618D01*
X151714916Y-62245282D01*
X151782015Y-62218997D01*
X151845834Y-62189916D01*
X151897408Y-62162194D01*
X151927773Y-62139981D01*
X151930764Y-62136171D01*
X151954377Y-62122335D01*
X151973187Y-62119791D01*
X152005600Y-62109161D01*
X152047513Y-62082584D01*
X152061146Y-62071506D01*
X152106390Y-62038383D01*
X152149905Y-62015868D01*
X152159373Y-62012888D01*
X152190212Y-61997648D01*
X152238387Y-61964866D01*
X152298588Y-61919093D01*
X152365506Y-61864881D01*
X152433833Y-61806781D01*
X152498258Y-61749344D01*
X152553473Y-61697122D01*
X152594169Y-61654665D01*
X152615036Y-61626525D01*
X152616672Y-61620873D01*
X152628396Y-61597200D01*
X152657544Y-61564095D01*
X152667506Y-61554816D01*
X152700079Y-61521069D01*
X152717925Y-61493426D01*
X152719029Y-61488473D01*
X152729757Y-61463660D01*
X152755990Y-61425776D01*
X152769862Y-61408756D01*
X152800081Y-61370099D01*
X152817941Y-61340866D01*
X152820008Y-61333840D01*
X152830055Y-61308814D01*
X152843106Y-61290838D01*
X152862055Y-61259836D01*
X152884788Y-61210409D01*
X152896857Y-61179364D01*
X152916516Y-61128209D01*
X152933364Y-61089783D01*
X152940096Y-61077696D01*
X152949782Y-61054407D01*
X152964772Y-61006885D01*
X152982395Y-60943836D01*
X152989230Y-60917601D01*
X153008295Y-60847466D01*
X153027019Y-60786200D01*
X153042164Y-60744182D01*
X153045742Y-60736466D01*
X153052793Y-60704516D01*
X153056965Y-60646156D01*
X153058482Y-60568724D01*
X153057572Y-60479558D01*
X153054461Y-60385994D01*
X153049374Y-60295371D01*
X153042538Y-60215024D01*
X153034179Y-60152292D01*
X153026752Y-60120324D01*
X153013308Y-60075717D01*
X152995445Y-60010503D01*
X152976526Y-59937056D01*
X152972156Y-59919389D01*
X152936964Y-59796703D01*
X152897752Y-59702459D01*
X152852045Y-59631247D01*
X152828579Y-59605153D01*
X152799647Y-59568145D01*
X152785980Y-59534799D01*
X152785826Y-59532269D01*
X152773974Y-59500256D01*
X152745625Y-59464031D01*
X152743464Y-59461941D01*
X152714707Y-59428428D01*
X152701490Y-59400722D01*
X152701395Y-59399089D01*
X152698212Y-59384635D01*
X152686412Y-59364544D01*
X152662618Y-59334772D01*
X152623454Y-59291271D01*
X152565544Y-59229996D01*
X152525557Y-59188370D01*
X152438539Y-59101368D01*
X152360463Y-59029740D01*
X152294661Y-58976225D01*
X152244465Y-58943560D01*
X152216312Y-58934233D01*
X152176760Y-58922665D01*
X152158790Y-58908329D01*
X152116402Y-58870162D01*
X152049330Y-58824701D01*
X151964919Y-58775735D01*
X151870511Y-58727054D01*
X151773448Y-58682450D01*
X151681074Y-58645712D01*
X151602152Y-58620989D01*
X151387207Y-58570968D01*
X151194939Y-58536570D01*
X151018056Y-58517592D01*
X150849267Y-58513830D01*
X150681282Y-58525081D01*
X150506810Y-58551141D01*
X150343430Y-58585853D01*
X150267692Y-58605462D01*
X150200494Y-58625941D01*
X150151373Y-58644232D01*
X150134916Y-58652641D01*
X150094055Y-58673054D01*
X150062865Y-58680501D01*
X150030020Y-58688599D01*
X149977181Y-58709997D01*
X149910537Y-58741321D01*
X149836273Y-58779197D01*
X149760577Y-58820249D01*
X149689636Y-58861105D01*
X149629636Y-58898388D01*
X149586765Y-58928726D01*
X149567208Y-58948744D01*
X149566639Y-58951145D01*
X149553717Y-58966935D01*
X149520827Y-58993186D01*
X149497890Y-59009082D01*
X149445150Y-59049285D01*
X149380158Y-59106700D01*
X149308979Y-59175060D01*
X149237678Y-59248103D01*
X149172321Y-59319561D01*
X149118974Y-59383170D01*
X149083703Y-59432666D01*
X149078161Y-59442610D01*
X149046594Y-59498827D01*
X149005039Y-59565158D01*
X148973186Y-59611985D01*
X148939094Y-59664399D01*
X148914969Y-59710123D01*
X148906315Y-59737731D01*
X148898912Y-59769201D01*
X148880081Y-59819454D01*
X148855924Y-59873288D01*
X148831644Y-59931065D01*
X148811079Y-59998837D01*
X148792401Y-60083990D01*
X148773781Y-60193915D01*
X148769421Y-60222763D01*
X148732790Y-60469231D01*
X147401966Y-60469231D01*
X147381453Y-60450821D01*
X147372365Y-60426510D01*
X147373990Y-60422608D01*
X147398315Y-60404482D01*
X147451270Y-60379283D01*
X147528773Y-60348796D01*
X147601062Y-60323362D01*
X147663517Y-60301755D01*
X147741982Y-60273891D01*
X147820720Y-60245363D01*
X147829814Y-60242024D01*
X147900947Y-60215947D01*
X147967448Y-60191731D01*
X148017106Y-60173818D01*
X148024677Y-60171121D01*
X148136518Y-60130390D01*
X148229343Y-60094394D01*
X148298773Y-60064904D01*
X148340427Y-60043693D01*
X148341516Y-60043002D01*
X148377762Y-60003991D01*
X148415050Y-59934531D01*
X148451859Y-59837965D01*
X148482729Y-59732901D01*
X148501073Y-59669270D01*
X148519195Y-59616978D01*
X148533536Y-59586156D01*
X148534994Y-59584186D01*
X148563922Y-59541828D01*
X148602585Y-59473963D01*
X148647712Y-59386377D01*
X148653434Y-59374761D01*
X148677307Y-59328326D01*
X148702922Y-59284600D01*
X148734900Y-59236767D01*
X148777864Y-59178010D01*
X148836435Y-59101515D01*
X148854280Y-59078534D01*
X149027878Y-58880854D01*
X149222536Y-58707447D01*
X149439049Y-58557906D01*
X149678209Y-58431826D01*
X149940811Y-58328799D01*
X150227648Y-58248421D01*
X150539513Y-58190285D01*
X150608030Y-58180894D01*
X150769390Y-58163508D01*
X150912071Y-58156740D01*
X151049481Y-58160868D01*
G37*
G36*
X155961579Y-49800242D02*
G01*
X156233285Y-49826420D01*
X156477126Y-49866683D01*
X156692671Y-49920867D01*
X156879492Y-49988810D01*
X157037161Y-50070349D01*
X157165249Y-50165319D01*
X157263326Y-50273560D01*
X157330963Y-50394906D01*
X157367732Y-50529197D01*
X157372017Y-50564406D01*
X157368457Y-50707545D01*
X157331712Y-50856416D01*
X157261956Y-51010796D01*
X157159366Y-51170464D01*
X157024118Y-51335196D01*
X156856387Y-51504770D01*
X156656350Y-51678962D01*
X156424182Y-51857550D01*
X156259768Y-51973399D01*
X156188018Y-52021707D01*
X156106600Y-52075408D01*
X156020401Y-52131406D01*
X155934308Y-52186604D01*
X155853207Y-52237906D01*
X155781985Y-52282216D01*
X155725528Y-52316437D01*
X155688723Y-52337474D01*
X155676861Y-52342739D01*
X155660059Y-52350301D01*
X155623136Y-52369743D01*
X155591379Y-52387226D01*
X155511784Y-52431712D01*
X155618898Y-52490737D01*
X155675671Y-52523051D01*
X155751322Y-52567542D01*
X155836026Y-52618371D01*
X155919960Y-52669695D01*
X155920875Y-52670261D01*
X156214292Y-52859636D01*
X156475170Y-53044725D01*
X156703368Y-53225394D01*
X156898745Y-53401508D01*
X157061162Y-53572934D01*
X157190477Y-53739538D01*
X157286551Y-53901186D01*
X157337452Y-54021226D01*
X157364217Y-54138204D01*
X157369572Y-54264139D01*
X157353931Y-54386577D01*
X157322090Y-54483824D01*
X157249902Y-54601262D01*
X157146856Y-54706863D01*
X157014017Y-54800161D01*
X156852451Y-54880693D01*
X156663223Y-54947995D01*
X156447400Y-55001601D01*
X156206047Y-55041048D01*
X155994852Y-55062133D01*
X155920207Y-55066080D01*
X155819602Y-55069096D01*
X155700383Y-55071175D01*
X155569898Y-55072308D01*
X155435495Y-55072492D01*
X155304521Y-55071718D01*
X155184324Y-55069982D01*
X155082251Y-55067276D01*
X155005650Y-55063595D01*
X154997168Y-55062985D01*
X154532445Y-55021768D01*
X154070339Y-54968785D01*
X153606525Y-54903238D01*
X153136678Y-54824328D01*
X152656474Y-54731253D01*
X152161588Y-54623215D01*
X151647695Y-54499414D01*
X151110472Y-54359050D01*
X150943390Y-54313394D01*
X150882858Y-54297993D01*
X150838751Y-54292654D01*
X150795134Y-54297375D01*
X150736071Y-54312158D01*
X150731582Y-54313394D01*
X150159396Y-54465854D01*
X149612762Y-54600276D01*
X149088850Y-54717143D01*
X148584833Y-54816940D01*
X148097882Y-54900148D01*
X147625169Y-54967253D01*
X147163864Y-55018736D01*
X146711140Y-55055083D01*
X146265994Y-55076716D01*
X146205587Y-55078346D01*
X146160492Y-55078899D01*
X146139425Y-55078281D01*
X146138909Y-55078112D01*
X146121686Y-55076712D01*
X146076017Y-55074440D01*
X146007330Y-55071530D01*
X145921049Y-55068211D01*
X145830348Y-55064980D01*
X145554625Y-55047411D01*
X145303768Y-55014726D01*
X145078684Y-54967281D01*
X144880282Y-54905434D01*
X144709470Y-54829541D01*
X144567157Y-54739961D01*
X144454250Y-54637050D01*
X144371658Y-54521166D01*
X144352882Y-54483824D01*
X144318627Y-54375254D01*
X144304995Y-54251935D01*
X144306985Y-54218175D01*
X144705821Y-54218175D01*
X144709075Y-54279593D01*
X144719437Y-54314058D01*
X144759678Y-54375632D01*
X144830541Y-54434097D01*
X144928817Y-54488343D01*
X145051299Y-54537262D01*
X145194777Y-54579745D01*
X145356043Y-54614682D01*
X145531889Y-54640965D01*
X145711735Y-54657043D01*
X145787163Y-54661951D01*
X145848818Y-54666543D01*
X145889653Y-54670254D01*
X145902719Y-54672290D01*
X145922177Y-54674467D01*
X145970225Y-54675348D01*
X146041598Y-54675076D01*
X146131026Y-54673794D01*
X146233244Y-54671642D01*
X146342983Y-54668765D01*
X146454976Y-54665305D01*
X146563955Y-54661403D01*
X146664654Y-54657203D01*
X146751804Y-54652847D01*
X146820138Y-54648477D01*
X146838553Y-54646978D01*
X147129572Y-54618580D01*
X147431666Y-54584097D01*
X147729204Y-54545423D01*
X147973844Y-54509582D01*
X148075133Y-54493754D01*
X148164319Y-54479567D01*
X148245993Y-54466167D01*
X148324746Y-54452701D01*
X148405169Y-54438314D01*
X148491852Y-54422154D01*
X148589388Y-54403366D01*
X148702366Y-54381096D01*
X148835379Y-54354490D01*
X148993016Y-54322696D01*
X149153467Y-54290210D01*
X149243187Y-54271348D01*
X149346988Y-54248413D01*
X149459628Y-54222679D01*
X149575868Y-54195418D01*
X149690468Y-54167903D01*
X149798188Y-54141408D01*
X149893788Y-54117205D01*
X149972028Y-54096567D01*
X150027668Y-54080768D01*
X150055458Y-54071085D01*
X151619514Y-54071085D01*
X151647341Y-54080779D01*
X151703003Y-54096583D01*
X151781260Y-54117225D01*
X151876873Y-54141430D01*
X151984601Y-54167927D01*
X152099205Y-54195442D01*
X152215444Y-54222702D01*
X152328079Y-54248434D01*
X152431870Y-54271366D01*
X152521505Y-54290210D01*
X152704255Y-54327204D01*
X152858392Y-54358267D01*
X152988507Y-54384253D01*
X153099193Y-54406017D01*
X153195039Y-54424411D01*
X153280637Y-54440289D01*
X153360579Y-54454506D01*
X153439453Y-54467914D01*
X153521853Y-54481369D01*
X153612369Y-54495723D01*
X153701128Y-54509582D01*
X154171751Y-54576238D01*
X154614247Y-54625447D01*
X155028427Y-54657197D01*
X155414099Y-54671475D01*
X155771075Y-54668269D01*
X156000911Y-54655831D01*
X156188553Y-54635760D01*
X156368761Y-54604812D01*
X156534555Y-54564612D01*
X156678956Y-54516783D01*
X156768106Y-54477346D01*
X156865791Y-54419176D01*
X156930854Y-54358600D01*
X156964542Y-54292054D01*
X156968104Y-54215972D01*
X156942786Y-54126790D01*
X156913041Y-54063179D01*
X156830679Y-53931840D01*
X156716903Y-53792698D01*
X156572993Y-53646884D01*
X156400226Y-53495524D01*
X156199880Y-53339748D01*
X155973235Y-53180683D01*
X155751429Y-53037878D01*
X155684803Y-52997317D01*
X155605168Y-52949991D01*
X155517493Y-52898729D01*
X155426749Y-52846353D01*
X155337905Y-52795691D01*
X155255933Y-52749568D01*
X155185801Y-52710809D01*
X155132480Y-52682239D01*
X155100940Y-52666684D01*
X155094943Y-52664670D01*
X155075786Y-52671785D01*
X155032340Y-52691283D01*
X154970616Y-52720371D01*
X154896627Y-52756258D01*
X154878780Y-52765045D01*
X154494408Y-52949461D01*
X154103112Y-53126291D01*
X153700045Y-53297496D01*
X153280362Y-53465041D01*
X152839216Y-53630887D01*
X152371762Y-53796998D01*
X152110908Y-53886077D01*
X151982362Y-53929984D01*
X151868196Y-53970113D01*
X151771663Y-54005240D01*
X151696013Y-54034141D01*
X151644498Y-54055592D01*
X151620368Y-54068368D01*
X151619514Y-54071085D01*
X150055458Y-54071085D01*
X150045869Y-54062985D01*
X150007309Y-54045613D01*
X149943028Y-54020194D01*
X149856277Y-53987952D01*
X149750308Y-53950111D01*
X149628372Y-53907894D01*
X149564064Y-53886077D01*
X149080652Y-53719027D01*
X148626124Y-53553284D01*
X148195636Y-53386887D01*
X147784340Y-53217872D01*
X147387391Y-53044276D01*
X146999941Y-52864137D01*
X146796192Y-52765045D01*
X146720259Y-52728005D01*
X146655230Y-52697132D01*
X146607116Y-52675217D01*
X146581929Y-52665052D01*
X146580029Y-52664670D01*
X146560971Y-52672818D01*
X146517698Y-52695366D01*
X146455180Y-52729487D01*
X146378386Y-52772356D01*
X146292287Y-52821148D01*
X146201853Y-52873037D01*
X146112054Y-52925198D01*
X146027860Y-52974805D01*
X145954240Y-53019033D01*
X145923543Y-53037878D01*
X145674659Y-53198914D01*
X145450942Y-53357662D01*
X145253671Y-53512993D01*
X145084123Y-53663778D01*
X144943577Y-53808890D01*
X144833312Y-53947201D01*
X144761931Y-54063179D01*
X144722967Y-54148827D01*
X144705821Y-54218175D01*
X144306985Y-54218175D01*
X144312399Y-54126322D01*
X144337520Y-54021226D01*
X144408110Y-53863454D01*
X144512049Y-53700623D01*
X144649197Y-53532868D01*
X144819413Y-53360323D01*
X145022556Y-53183120D01*
X145258486Y-53001395D01*
X145527064Y-52815282D01*
X145754097Y-52670261D01*
X145837966Y-52618964D01*
X145922717Y-52568097D01*
X145998527Y-52523501D01*
X146055570Y-52491015D01*
X146056074Y-52490737D01*
X146162782Y-52431936D01*
X147033417Y-52431936D01*
X147262169Y-52541121D01*
X147585670Y-52690365D01*
X147936672Y-52842787D01*
X148309226Y-52996118D01*
X148697384Y-53148089D01*
X149095198Y-53296434D01*
X149496719Y-53438884D01*
X149896000Y-53573172D01*
X150287091Y-53697028D01*
X150320675Y-53707279D01*
X150436866Y-53742685D01*
X150544171Y-53775482D01*
X150637760Y-53804185D01*
X150712799Y-53827311D01*
X150764458Y-53843373D01*
X150786652Y-53850458D01*
X150799408Y-53855212D01*
X150810163Y-53858743D01*
X150822666Y-53860128D01*
X150840662Y-53858444D01*
X150867897Y-53852770D01*
X150908118Y-53842183D01*
X150965072Y-53825762D01*
X151042505Y-53802583D01*
X151144163Y-53771725D01*
X151273792Y-53732265D01*
X151303463Y-53723242D01*
X151445234Y-53680075D01*
X151562854Y-53644003D01*
X151663295Y-53612741D01*
X151753526Y-53584005D01*
X151840519Y-53555509D01*
X151931244Y-53524969D01*
X152032673Y-53490099D01*
X152151776Y-53448615D01*
X152295523Y-53398231D01*
X152303196Y-53395537D01*
X152734029Y-53240183D01*
X153152591Y-53081064D01*
X153554031Y-52920145D01*
X153933492Y-52759394D01*
X154286123Y-52600774D01*
X154412803Y-52541121D01*
X154641555Y-52431936D01*
X154438220Y-52334549D01*
X154105684Y-52180739D01*
X153744911Y-52023972D01*
X153361187Y-51866266D01*
X152959795Y-51709637D01*
X152546022Y-51556101D01*
X152125153Y-51407674D01*
X151702473Y-51266374D01*
X151327566Y-51147788D01*
X151206960Y-51110941D01*
X151096326Y-51077590D01*
X150999963Y-51048993D01*
X150922166Y-51026412D01*
X150867234Y-51011105D01*
X150839465Y-51004333D01*
X150837486Y-51004114D01*
X150815967Y-51008933D01*
X150766383Y-51022552D01*
X150693032Y-51043710D01*
X150600211Y-51071148D01*
X150492218Y-51103605D01*
X150373350Y-51139822D01*
X150347406Y-51147788D01*
X149927580Y-51281015D01*
X149504841Y-51423170D01*
X149084476Y-51572236D01*
X148671769Y-51726197D01*
X148272007Y-51883037D01*
X147890474Y-52040739D01*
X147532456Y-52197287D01*
X147236752Y-52334549D01*
X147033417Y-52431936D01*
X146162782Y-52431936D01*
X146163188Y-52431712D01*
X146083593Y-52387226D01*
X146038337Y-52362491D01*
X146006865Y-52346339D01*
X145998111Y-52342739D01*
X145979710Y-52333926D01*
X145937905Y-52309551D01*
X145877583Y-52272711D01*
X145803630Y-52226501D01*
X145720934Y-52174018D01*
X145634381Y-52118358D01*
X145548857Y-52062618D01*
X145469249Y-52009893D01*
X145415204Y-51973399D01*
X145162679Y-51792130D01*
X144942172Y-51615114D01*
X144753859Y-51442575D01*
X144597917Y-51274736D01*
X144474522Y-51111819D01*
X144383848Y-50954047D01*
X144326073Y-50801644D01*
X144301372Y-50654831D01*
X144302164Y-50609598D01*
X144707924Y-50609598D01*
X144715642Y-50696849D01*
X144753234Y-50795931D01*
X144819352Y-50905493D01*
X144912647Y-51024190D01*
X145031771Y-51150671D01*
X145175376Y-51283588D01*
X145342113Y-51421594D01*
X145530634Y-51563340D01*
X145739591Y-51707478D01*
X145924007Y-51825744D01*
X145974824Y-51856741D01*
X146042409Y-51897142D01*
X146121704Y-51944009D01*
X146207649Y-51994406D01*
X146295187Y-52045397D01*
X146379261Y-52094047D01*
X146454811Y-52137419D01*
X146516779Y-52172576D01*
X146560108Y-52196584D01*
X146579739Y-52206506D01*
X146580137Y-52206603D01*
X146595959Y-52199651D01*
X146636285Y-52180211D01*
X146695377Y-52151092D01*
X146767497Y-52115102D01*
X146783473Y-52107079D01*
X146959531Y-52019837D01*
X147134314Y-51935979D01*
X147311980Y-51853713D01*
X147496685Y-51771248D01*
X147692587Y-51686792D01*
X147903841Y-51598555D01*
X148134605Y-51504744D01*
X148389035Y-51403568D01*
X148671289Y-51293235D01*
X148677046Y-51291001D01*
X148844336Y-51227502D01*
X149025203Y-51161710D01*
X149224809Y-51091810D01*
X149448314Y-51015983D01*
X149621443Y-50958506D01*
X149738530Y-50919634D01*
X149844401Y-50883919D01*
X149934984Y-50852782D01*
X150006208Y-50827641D01*
X150054001Y-50809916D01*
X150074290Y-50801026D01*
X150074712Y-50800518D01*
X151600260Y-50800518D01*
X151615767Y-50807861D01*
X151659429Y-50824267D01*
X151727174Y-50848316D01*
X151814932Y-50878588D01*
X151918629Y-50913665D01*
X152034193Y-50952128D01*
X152053529Y-50958506D01*
X152204114Y-51008284D01*
X152336294Y-51052447D01*
X152455369Y-51092933D01*
X152566640Y-51131676D01*
X152675408Y-51170612D01*
X152786973Y-51211676D01*
X152906637Y-51256805D01*
X153039700Y-51307933D01*
X153191464Y-51366996D01*
X153367228Y-51435929D01*
X153446959Y-51467297D01*
X153706701Y-51571723D01*
X153965794Y-51680042D01*
X154218405Y-51789653D01*
X154458700Y-51897956D01*
X154680847Y-52002351D01*
X154879011Y-52100238D01*
X154955031Y-52139490D01*
X155013443Y-52169832D01*
X155059230Y-52193076D01*
X155085068Y-52205525D01*
X155088097Y-52206655D01*
X155104174Y-52198978D01*
X155144357Y-52177505D01*
X155203278Y-52145166D01*
X155275569Y-52104891D01*
X155308377Y-52086453D01*
X155613315Y-51908921D01*
X155888979Y-51736476D01*
X156134857Y-51569527D01*
X156350438Y-51408481D01*
X156535208Y-51253746D01*
X156688655Y-51105728D01*
X156810267Y-50964836D01*
X156899533Y-50831475D01*
X156909544Y-50813196D01*
X156952564Y-50716221D01*
X156969999Y-50631965D01*
X156960490Y-50558181D01*
X156922680Y-50492619D01*
X156855212Y-50433030D01*
X156756729Y-50377165D01*
X156625872Y-50322776D01*
X156610060Y-50317009D01*
X156506618Y-50284161D01*
X156393458Y-50257420D01*
X156266421Y-50236303D01*
X156121347Y-50220330D01*
X155954076Y-50209017D01*
X155760448Y-50201884D01*
X155590455Y-50198934D01*
X155456377Y-50198094D01*
X155323919Y-50198354D01*
X155199664Y-50199620D01*
X155090199Y-50201798D01*
X155002108Y-50204794D01*
X154946559Y-50208112D01*
X154856952Y-50215617D01*
X154763872Y-50223357D01*
X154682951Y-50230034D01*
X154658500Y-50232034D01*
X154495767Y-50247591D01*
X154306214Y-50269638D01*
X154096083Y-50297222D01*
X153871616Y-50329392D01*
X153639056Y-50365198D01*
X153404645Y-50403686D01*
X153174625Y-50443907D01*
X152955239Y-50484909D01*
X152811535Y-50513524D01*
X152660546Y-50544985D01*
X152507015Y-50577911D01*
X152354513Y-50611456D01*
X152206615Y-50644774D01*
X152066890Y-50677019D01*
X151938913Y-50707343D01*
X151826255Y-50734902D01*
X151732489Y-50758848D01*
X151661186Y-50778334D01*
X151615920Y-50792516D01*
X151600260Y-50800518D01*
X150074712Y-50800518D01*
X150058871Y-50792450D01*
X150013442Y-50778235D01*
X149941998Y-50758720D01*
X149848111Y-50734751D01*
X149735354Y-50707174D01*
X149607298Y-50676835D01*
X149467516Y-50644582D01*
X149319580Y-50611260D01*
X149167062Y-50577716D01*
X149013535Y-50544796D01*
X148863437Y-50513524D01*
X148655190Y-50472542D01*
X148431946Y-50431675D01*
X148199948Y-50391876D01*
X147965437Y-50354095D01*
X147734656Y-50319283D01*
X147513848Y-50288393D01*
X147309254Y-50262376D01*
X147127117Y-50242183D01*
X147016472Y-50232034D01*
X146944332Y-50226107D01*
X146854056Y-50218620D01*
X146761275Y-50210871D01*
X146728413Y-50208112D01*
X146665179Y-50204459D01*
X146574647Y-50201541D01*
X146463401Y-50199450D01*
X146338026Y-50198281D01*
X146205108Y-50198127D01*
X146084517Y-50198934D01*
X145850404Y-50203971D01*
X145646213Y-50214130D01*
X145468277Y-50230025D01*
X145312932Y-50252270D01*
X145176509Y-50281478D01*
X145055345Y-50318263D01*
X144945771Y-50363238D01*
X144869897Y-50402206D01*
X144792338Y-50452595D01*
X144742783Y-50503996D01*
X144715860Y-50563290D01*
X144707924Y-50609598D01*
X144302164Y-50609598D01*
X144302955Y-50564406D01*
X144332019Y-50426938D01*
X144392058Y-50302373D01*
X144482643Y-50190875D01*
X144603344Y-50092605D01*
X144753733Y-50007728D01*
X144933380Y-49936405D01*
X145141858Y-49878801D01*
X145378736Y-49835078D01*
X145643587Y-49805399D01*
X145935980Y-49789928D01*
X146255488Y-49788826D01*
X146338687Y-49790790D01*
X146456507Y-49794421D01*
X146568573Y-49798337D01*
X146668527Y-49802281D01*
X146750009Y-49805995D01*
X146806662Y-49809221D01*
X146821609Y-49810376D01*
X147011862Y-49827858D01*
X147172140Y-49843301D01*
X147306269Y-49857085D01*
X147418077Y-49869592D01*
X147423143Y-49870190D01*
X147501289Y-49879933D01*
X147599069Y-49892884D01*
X147710361Y-49908156D01*
X147829046Y-49924864D01*
X147949003Y-49942118D01*
X148064111Y-49959034D01*
X148168251Y-49974724D01*
X148255301Y-49988301D01*
X148319142Y-49998879D01*
X148346625Y-50003999D01*
X148399103Y-50014387D01*
X148471729Y-50028146D01*
X148551274Y-50042784D01*
X148575378Y-50047129D01*
X148944498Y-50117593D01*
X149334330Y-50200023D01*
X149734855Y-50292100D01*
X150136053Y-50391503D01*
X150527905Y-50495914D01*
X150596025Y-50514879D01*
X150837486Y-50582565D01*
X151078947Y-50514879D01*
X151468080Y-50409819D01*
X151868346Y-50309353D01*
X152269724Y-50215800D01*
X152662197Y-50131480D01*
X153035744Y-50058713D01*
X153099594Y-50047129D01*
X153178592Y-50032728D01*
X153254791Y-50018427D01*
X153314962Y-50006722D01*
X153328347Y-50003999D01*
X153372427Y-49996032D01*
X153443975Y-49984448D01*
X153536871Y-49970134D01*
X153644995Y-49953978D01*
X153762226Y-49936865D01*
X153882443Y-49919683D01*
X153999527Y-49903318D01*
X154107357Y-49888658D01*
X154199812Y-49876589D01*
X154251829Y-49870190D01*
X154362622Y-49857737D01*
X154495546Y-49844025D01*
X154654427Y-49828674D01*
X154843093Y-49811303D01*
X154853363Y-49810376D01*
X154897598Y-49807434D01*
X154969353Y-49803895D01*
X155062268Y-49800017D01*
X155169987Y-49796057D01*
X155286148Y-49792275D01*
X155336285Y-49790790D01*
X155662436Y-49788311D01*
X155961579Y-49800242D01*
G37*
G36*
X150959667Y-54565461D02*
G01*
X151055550Y-54567931D01*
X151124630Y-54571087D01*
X151173990Y-54576152D01*
X151210712Y-54584349D01*
X151241879Y-54596903D01*
X151274572Y-54615035D01*
X151285814Y-54621792D01*
X151408021Y-54714645D01*
X151510668Y-54831179D01*
X151567937Y-54924571D01*
X151598796Y-54992340D01*
X151617021Y-55056126D01*
X151626700Y-55132014D01*
X151628804Y-55164020D01*
X151631626Y-55230299D01*
X151629511Y-55279128D01*
X151619817Y-55322521D01*
X151599903Y-55372491D01*
X151568525Y-55438200D01*
X151527706Y-55515599D01*
X151489092Y-55572209D01*
X151444007Y-55619338D01*
X151403791Y-55652866D01*
X151343931Y-55694427D01*
X151282410Y-55728548D01*
X151235536Y-55746880D01*
X151185951Y-55763969D01*
X151149059Y-55784753D01*
X151142462Y-55791004D01*
X151128255Y-55827752D01*
X151122373Y-55885687D01*
X151124402Y-55953256D01*
X151133925Y-56018902D01*
X151150526Y-56071072D01*
X151152706Y-56075379D01*
X151176950Y-56121035D01*
X151208637Y-56180960D01*
X151230834Y-56223060D01*
X151320410Y-56379606D01*
X151408046Y-56505646D01*
X151468839Y-56576054D01*
X151586495Y-56683684D01*
X151728698Y-56790500D01*
X151886533Y-56890326D01*
X152040555Y-56971970D01*
X152123267Y-57011608D01*
X152227734Y-57061561D01*
X152345101Y-57117602D01*
X152466512Y-57175502D01*
X152583112Y-57231033D01*
X152591255Y-57234908D01*
X152764185Y-57317537D01*
X152910513Y-57388275D01*
X153034491Y-57449253D01*
X153140369Y-57502603D01*
X153232397Y-57550457D01*
X153314827Y-57594948D01*
X153365884Y-57623418D01*
X153427235Y-57656622D01*
X153479133Y-57682082D01*
X153513366Y-57695873D01*
X153520337Y-57697242D01*
X153549535Y-57707094D01*
X153586742Y-57730820D01*
X153587171Y-57731156D01*
X153618325Y-57751647D01*
X153672472Y-57783271D01*
X153742336Y-57821917D01*
X153820642Y-57863479D01*
X153830917Y-57868807D01*
X153908700Y-57909913D01*
X153977916Y-57948127D01*
X154031673Y-57979533D01*
X154063081Y-58000212D01*
X154065438Y-58002147D01*
X154086585Y-58019251D01*
X154112927Y-58036823D01*
X154151528Y-58059039D01*
X154209454Y-58090071D01*
X154251829Y-58112262D01*
X154288430Y-58134277D01*
X154342566Y-58170319D01*
X154404734Y-58213985D01*
X154429747Y-58232170D01*
X154498565Y-58280055D01*
X154569570Y-58325087D01*
X154630214Y-58359420D01*
X154644514Y-58366462D01*
X154695217Y-58393096D01*
X154733080Y-58418445D01*
X154746181Y-58431753D01*
X154770063Y-58455500D01*
X154819010Y-58490935D01*
X154887778Y-58534586D01*
X154971123Y-58582980D01*
X154992007Y-58594528D01*
X155033419Y-58619620D01*
X155060715Y-58640572D01*
X155064464Y-58644998D01*
X155085338Y-58664915D01*
X155126606Y-58695731D01*
X155179322Y-58731386D01*
X155234539Y-58765823D01*
X155282091Y-58792364D01*
X155324696Y-58818355D01*
X155379117Y-58857209D01*
X155421008Y-58890269D01*
X155473738Y-58930478D01*
X155544308Y-58979510D01*
X155621105Y-59029435D01*
X155658233Y-59052268D01*
X155730880Y-59097305D01*
X155800479Y-59142819D01*
X155856752Y-59181983D01*
X155878513Y-59198520D01*
X155940494Y-59246484D01*
X156013225Y-59299823D01*
X156087894Y-59352368D01*
X156155691Y-59397950D01*
X156207802Y-59430401D01*
X156217406Y-59435771D01*
X156257777Y-59462756D01*
X156308574Y-59503659D01*
X156344491Y-59536155D01*
X156442874Y-59615345D01*
X156544480Y-59665063D01*
X156649881Y-59688515D01*
X156743463Y-59699652D01*
X156828999Y-59609209D01*
X156880696Y-59550907D01*
X156930312Y-59488959D01*
X156963244Y-59442528D01*
X156996701Y-59391779D01*
X157027260Y-59348067D01*
X157039102Y-59332399D01*
X157066617Y-59284702D01*
X157093379Y-59216387D01*
X157115086Y-59140540D01*
X157127440Y-59070245D01*
X157128200Y-59061285D01*
X157133404Y-59017659D01*
X157147582Y-58997322D01*
X157180914Y-58989697D01*
X157198625Y-58988104D01*
X157251830Y-58991855D01*
X157321681Y-59007130D01*
X157395138Y-59029956D01*
X157459165Y-59056363D01*
X157496725Y-59078895D01*
X157528448Y-59100092D01*
X157573507Y-59125430D01*
X157581449Y-59129507D01*
X157625955Y-59158425D01*
X157685391Y-59205663D01*
X157752158Y-59264220D01*
X157818657Y-59327099D01*
X157877289Y-59387302D01*
X157920457Y-59437828D01*
X157928903Y-59449531D01*
X157960592Y-59502069D01*
X157993246Y-59564870D01*
X158003743Y-59587528D01*
X158029205Y-59672656D01*
X158039311Y-59770590D01*
X158034982Y-59871984D01*
X158017139Y-59967495D01*
X157986702Y-60047778D01*
X157953760Y-60094907D01*
X157925510Y-60126449D01*
X157886210Y-60173308D01*
X157853781Y-60213520D01*
X157811808Y-60265669D01*
X157772612Y-60312875D01*
X157750793Y-60338037D01*
X157718437Y-60396951D01*
X157714254Y-60463722D01*
X157737742Y-60528145D01*
X157761609Y-60558218D01*
X157856139Y-60660289D01*
X157925498Y-60754455D01*
X157974533Y-60848537D01*
X158008095Y-60950353D01*
X158010297Y-60959232D01*
X158034157Y-61091954D01*
X158035450Y-61202419D01*
X158014190Y-61293638D01*
X158011937Y-61299191D01*
X157979944Y-61357155D01*
X157929758Y-61427095D01*
X157867958Y-61501741D01*
X157801123Y-61573822D01*
X157735831Y-61636069D01*
X157678661Y-61681211D01*
X157652564Y-61696347D01*
X157596440Y-61726236D01*
X157546565Y-61759083D01*
X157530615Y-61772107D01*
X157443507Y-61832467D01*
X157345523Y-61861845D01*
X157288385Y-61865621D01*
X157217836Y-61859311D01*
X157172367Y-61836558D01*
X157144905Y-61791627D01*
X157131619Y-61738537D01*
X157114940Y-61670061D01*
X157088302Y-61613730D01*
X157043811Y-61553100D01*
X157040972Y-61549655D01*
X157003157Y-61499500D01*
X156964521Y-61441772D01*
X156956340Y-61428410D01*
X156905279Y-61355843D01*
X156843824Y-61288379D01*
X156777793Y-61230490D01*
X156713007Y-61186644D01*
X156655286Y-61161312D01*
X156610448Y-61158964D01*
X156607035Y-61160112D01*
X156586971Y-61173067D01*
X156545083Y-61203757D01*
X156485962Y-61248691D01*
X156414202Y-61304379D01*
X156335175Y-61366712D01*
X156139111Y-61518139D01*
X155915565Y-61682833D01*
X155667364Y-61858897D01*
X155397332Y-62044433D01*
X155108295Y-62237543D01*
X154803079Y-62436331D01*
X154484509Y-62638899D01*
X154155411Y-62843349D01*
X153946826Y-62970522D01*
X153828589Y-63041717D01*
X153718075Y-63107554D01*
X153618996Y-63165874D01*
X153535064Y-63214521D01*
X153469992Y-63251338D01*
X153427492Y-63274166D01*
X153413070Y-63280695D01*
X153378218Y-63294152D01*
X153323631Y-63318462D01*
X153259698Y-63348955D01*
X153243623Y-63356921D01*
X152922446Y-63502958D01*
X152580223Y-63631886D01*
X152226762Y-63740617D01*
X151871869Y-63826061D01*
X151599994Y-63874611D01*
X151538626Y-63881492D01*
X151451767Y-63888083D01*
X151345453Y-63894210D01*
X151225717Y-63899696D01*
X151098594Y-63904363D01*
X150970120Y-63908036D01*
X150846329Y-63910537D01*
X150733256Y-63911690D01*
X150636935Y-63911318D01*
X150563401Y-63909244D01*
X150524010Y-63906107D01*
X150484124Y-63901011D01*
X150421780Y-63893356D01*
X150348179Y-63884510D01*
X150320675Y-63881250D01*
X150030713Y-63835495D01*
X149726682Y-63766119D01*
X149416091Y-63675635D01*
X149106448Y-63566556D01*
X148805260Y-63441394D01*
X148520036Y-63302663D01*
X148405932Y-63240459D01*
X148342367Y-63205299D01*
X148263035Y-63162451D01*
X148182334Y-63119667D01*
X148160234Y-63108122D01*
X148092233Y-63072516D01*
X148031248Y-63040182D01*
X147986611Y-63016082D01*
X147973844Y-63008961D01*
X147938546Y-62990249D01*
X147883235Y-62962528D01*
X147818601Y-62931133D01*
X147804397Y-62924360D01*
X147734009Y-62888668D01*
X147666113Y-62850466D01*
X147614151Y-62817366D01*
X147609534Y-62814031D01*
X147549999Y-62774722D01*
X147484824Y-62738078D01*
X147467706Y-62729721D01*
X147420922Y-62703966D01*
X147358127Y-62663990D01*
X147289848Y-62616644D01*
X147259213Y-62594062D01*
X147196640Y-62549150D01*
X147139201Y-62511880D01*
X147095265Y-62487502D01*
X147079723Y-62481450D01*
X147043492Y-62465027D01*
X146993273Y-62433289D01*
X146944428Y-62396635D01*
X146897069Y-62359732D01*
X146859293Y-62333345D01*
X146839198Y-62323128D01*
X146839103Y-62323126D01*
X146820385Y-62313568D01*
X146780428Y-62287519D01*
X146725033Y-62248917D01*
X146660000Y-62201700D01*
X146657608Y-62199930D01*
X146568591Y-62135115D01*
X146485732Y-62076798D01*
X146413561Y-62027997D01*
X146356605Y-61991727D01*
X146319396Y-61971005D01*
X146308303Y-61967289D01*
X146286988Y-61957861D01*
X146248898Y-61934067D01*
X146203778Y-61902641D01*
X146161369Y-61870316D01*
X146135351Y-61847764D01*
X146044755Y-61770738D01*
X145958053Y-61717237D01*
X145940032Y-61709089D01*
X145894290Y-61684038D01*
X145838448Y-61645377D01*
X145799352Y-61613956D01*
X145755482Y-61577466D01*
X145721666Y-61552057D01*
X145706461Y-61543673D01*
X145688690Y-61533092D01*
X145654395Y-61505616D01*
X145619176Y-61474568D01*
X145572318Y-61434022D01*
X145530334Y-61401547D01*
X145509043Y-61387929D01*
X145465327Y-61362832D01*
X145407949Y-61326088D01*
X145345700Y-61283796D01*
X145287367Y-61242054D01*
X145241739Y-61206961D01*
X145219760Y-61187194D01*
X145176397Y-61160733D01*
X145135186Y-61153947D01*
X145108802Y-61157200D01*
X145081330Y-61169629D01*
X145047548Y-61195238D01*
X145002233Y-61238033D01*
X144940164Y-61302016D01*
X144934994Y-61307458D01*
X144836168Y-61418413D01*
X144762495Y-61518500D01*
X144710248Y-61614583D01*
X144675700Y-61713528D01*
X144655125Y-61822199D01*
X144654990Y-61823260D01*
X144644224Y-61907983D01*
X144517139Y-61901768D01*
X144436942Y-61894673D01*
X144372386Y-61879328D01*
X144305388Y-61850841D01*
X144278913Y-61837332D01*
X144152665Y-61755175D01*
X144031590Y-61645584D01*
X143922487Y-61514977D01*
X143894173Y-61474261D01*
X143842397Y-61395998D01*
X143806483Y-61338101D01*
X143783638Y-61292644D01*
X143771070Y-61251699D01*
X143765987Y-61207340D01*
X143765595Y-61151640D01*
X143766404Y-61111585D01*
X143774990Y-60984692D01*
X143797365Y-60879506D01*
X143837611Y-60786335D01*
X143899810Y-60695485D01*
X143979147Y-60606434D01*
X144039413Y-60537976D01*
X144072151Y-60481722D01*
X144076291Y-60443947D01*
X145261366Y-60443947D01*
X145277733Y-60496777D01*
X145307834Y-60532514D01*
X145347806Y-60567469D01*
X145395480Y-60612241D01*
X145413738Y-60630206D01*
X145453893Y-60666879D01*
X145512150Y-60715712D01*
X145579158Y-60768998D01*
X145618540Y-60799051D01*
X145690749Y-60854741D01*
X145763920Y-60913752D01*
X145826675Y-60966808D01*
X145850514Y-60988135D01*
X145897928Y-61028597D01*
X145938716Y-61057659D01*
X145964275Y-61069211D01*
X145964747Y-61069224D01*
X145993347Y-61082410D01*
X146012359Y-61104124D01*
X146036787Y-61129441D01*
X146088320Y-61170935D01*
X146165075Y-61227230D01*
X146265168Y-61296950D01*
X146386716Y-61378719D01*
X146403717Y-61389979D01*
X146435060Y-61413972D01*
X146480516Y-61452554D01*
X146525078Y-61492647D01*
X146628854Y-61578720D01*
X146764295Y-61674186D01*
X146864943Y-61738537D01*
X146917144Y-61771592D01*
X146967112Y-61804298D01*
X146968071Y-61804942D01*
X147066748Y-61870334D01*
X147183279Y-61946102D01*
X147310816Y-62027921D01*
X147442515Y-62111464D01*
X147571529Y-62192407D01*
X147691011Y-62266422D01*
X147794116Y-62329185D01*
X147855238Y-62365488D01*
X147916062Y-62403077D01*
X147975602Y-62443088D01*
X148002720Y-62462919D01*
X148043553Y-62491239D01*
X148075240Y-62507769D01*
X148082816Y-62509517D01*
X148104525Y-62517048D01*
X148150443Y-62537717D01*
X148214918Y-62568633D01*
X148292300Y-62606910D01*
X148376937Y-62649659D01*
X148463177Y-62693991D01*
X148545368Y-62737018D01*
X148617860Y-62775852D01*
X148675000Y-62807604D01*
X148711138Y-62829386D01*
X148717456Y-62833867D01*
X148755015Y-62856715D01*
X148784121Y-62865354D01*
X148814893Y-62872314D01*
X148860905Y-62889788D01*
X148879268Y-62898107D01*
X148969298Y-62937609D01*
X149083498Y-62982707D01*
X149213265Y-63030371D01*
X149349996Y-63077570D01*
X149485088Y-63121273D01*
X149609937Y-63158449D01*
X149647831Y-63168877D01*
X150033411Y-63255938D01*
X150419515Y-63309982D01*
X150808596Y-63331164D01*
X151203105Y-63319639D01*
X151523743Y-63287042D01*
X151619874Y-63273389D01*
X151710454Y-63258916D01*
X151787129Y-63245070D01*
X151841544Y-63233297D01*
X151854164Y-63229817D01*
X151907738Y-63215302D01*
X151980649Y-63198103D01*
X152058874Y-63181491D01*
X152074444Y-63178426D01*
X152132776Y-63165185D01*
X152209381Y-63144992D01*
X152298544Y-63119655D01*
X152394554Y-63090982D01*
X152491697Y-63060781D01*
X152584261Y-63030857D01*
X152666533Y-63003020D01*
X152732800Y-62979076D01*
X152777350Y-62960832D01*
X152794201Y-62950708D01*
X152815308Y-62938828D01*
X152856672Y-62927325D01*
X152870432Y-62924730D01*
X152926861Y-62908136D01*
X152976658Y-62882436D01*
X152981754Y-62878664D01*
X153017616Y-62855096D01*
X153073748Y-62823270D01*
X153139623Y-62789074D01*
X153158208Y-62779960D01*
X153219325Y-62749088D01*
X153268209Y-62721934D01*
X153297073Y-62702922D01*
X153301160Y-62698771D01*
X153324114Y-62682960D01*
X153360603Y-62670850D01*
X153403838Y-62655337D01*
X153458223Y-62628121D01*
X153484714Y-62612376D01*
X153526635Y-62587548D01*
X153591202Y-62551439D01*
X153670873Y-62508172D01*
X153758110Y-62461872D01*
X153795515Y-62442346D01*
X153887913Y-62392884D01*
X153979729Y-62341126D01*
X154062026Y-62292283D01*
X154125865Y-62251563D01*
X154141423Y-62240749D01*
X154199724Y-62200056D01*
X154252700Y-62165147D01*
X154290221Y-62142663D01*
X154294190Y-62140624D01*
X154331839Y-62118438D01*
X154381960Y-62084361D01*
X154412803Y-62061624D01*
X154456920Y-62029567D01*
X154490696Y-62007951D01*
X154503387Y-62002303D01*
X154525023Y-61992453D01*
X154567537Y-61967269D01*
X154624281Y-61931182D01*
X154688605Y-61888626D01*
X154753860Y-61844033D01*
X154813399Y-61801835D01*
X154860571Y-61766465D01*
X154876327Y-61753675D01*
X154929493Y-61713499D01*
X154985273Y-61678449D01*
X155003062Y-61669203D01*
X155047720Y-61643918D01*
X155106108Y-61605470D01*
X155165693Y-61562119D01*
X155166489Y-61561507D01*
X155231386Y-61513500D01*
X155300175Y-61465658D01*
X155353230Y-61431311D01*
X155405463Y-61396938D01*
X155475258Y-61347576D01*
X155554353Y-61289435D01*
X155634486Y-61228731D01*
X155707397Y-61171675D01*
X155764823Y-61124480D01*
X155785318Y-61106366D01*
X155821761Y-61074296D01*
X155872166Y-61031834D01*
X155912403Y-60998893D01*
X155967018Y-60954098D01*
X156019257Y-60910076D01*
X156047960Y-60885081D01*
X156094498Y-60846626D01*
X156140553Y-60813147D01*
X156144912Y-60810323D01*
X156182669Y-60783438D01*
X156233375Y-60743725D01*
X156275076Y-60709074D01*
X156335259Y-60658765D01*
X156399776Y-60606635D01*
X156436241Y-60578139D01*
X156482517Y-60536565D01*
X156518022Y-60493567D01*
X156530220Y-60470777D01*
X156537069Y-60452363D01*
X156540206Y-60437818D01*
X156536261Y-60422944D01*
X156521862Y-60403541D01*
X156493641Y-60375410D01*
X156448225Y-60334351D01*
X156382245Y-60276165D01*
X156354127Y-60251380D01*
X156296428Y-60199934D01*
X156240152Y-60148888D01*
X156197098Y-60108948D01*
X156195695Y-60107616D01*
X156158983Y-60075054D01*
X156131959Y-60055292D01*
X156125142Y-60052546D01*
X156105896Y-60041132D01*
X156080239Y-60016054D01*
X156051309Y-59988865D01*
X156000292Y-59946368D01*
X155932774Y-59892823D01*
X155854340Y-59832488D01*
X155770573Y-59769623D01*
X155687060Y-59708485D01*
X155609385Y-59653334D01*
X155562500Y-59621256D01*
X155523300Y-59592297D01*
X155498317Y-59568796D01*
X155494722Y-59563127D01*
X155479231Y-59548419D01*
X155440375Y-59518763D01*
X155383143Y-59477770D01*
X155312525Y-59429051D01*
X155268507Y-59399416D01*
X155185372Y-59343165D01*
X155105884Y-59288009D01*
X155037301Y-59239079D01*
X154986882Y-59201510D01*
X154973326Y-59190729D01*
X154922566Y-59151153D01*
X154874456Y-59117212D01*
X154852470Y-59103647D01*
X154798556Y-59071667D01*
X154737102Y-59031925D01*
X154675110Y-58989387D01*
X154619582Y-58949017D01*
X154577517Y-58915781D01*
X154555918Y-58894643D01*
X154554738Y-58892492D01*
X154533548Y-58873924D01*
X154494159Y-58859826D01*
X154492672Y-58859520D01*
X154445089Y-58840524D01*
X154396159Y-58807352D01*
X154387852Y-58799884D01*
X154344973Y-58765575D01*
X154285796Y-58726234D01*
X154234884Y-58696839D01*
X154167373Y-58659555D01*
X154098654Y-58619492D01*
X154056966Y-58593776D01*
X153996924Y-58556986D01*
X153934759Y-58521498D01*
X153912936Y-58509861D01*
X153867621Y-58485635D01*
X153803846Y-58450468D01*
X153732488Y-58410383D01*
X153701128Y-58392533D01*
X153639585Y-58358577D01*
X153555281Y-58313806D01*
X153455931Y-58262226D01*
X153349252Y-58207845D01*
X153243623Y-58154996D01*
X153147713Y-58107355D01*
X153061152Y-58064049D01*
X152988918Y-58027592D01*
X152935991Y-58000502D01*
X152907348Y-57985293D01*
X152904731Y-57983748D01*
X152872578Y-57966381D01*
X152826995Y-57944827D01*
X152820008Y-57941738D01*
X152764369Y-57916896D01*
X152711543Y-57892565D01*
X152709868Y-57891774D01*
X152641491Y-57860924D01*
X152564336Y-57828378D01*
X152487952Y-57797928D01*
X152421888Y-57773363D01*
X152375692Y-57758471D01*
X152371070Y-57757307D01*
X152326483Y-57742281D01*
X152296548Y-57725533D01*
X152269814Y-57711930D01*
X152219722Y-57693249D01*
X152155716Y-57672916D01*
X152135479Y-57667082D01*
X152058147Y-57644971D01*
X151981083Y-57622362D01*
X151919503Y-57603726D01*
X151913470Y-57601842D01*
X151738290Y-57549576D01*
X151564190Y-57502785D01*
X151396550Y-57462616D01*
X151240751Y-57430216D01*
X151102175Y-57406732D01*
X150986200Y-57393312D01*
X150922209Y-57390519D01*
X150834398Y-57393376D01*
X150733347Y-57401205D01*
X150627354Y-57412883D01*
X150524718Y-57427287D01*
X150433737Y-57443295D01*
X150362708Y-57459783D01*
X150330190Y-57470633D01*
X150283268Y-57487319D01*
X150217187Y-57507134D01*
X150145886Y-57525911D01*
X150142756Y-57526670D01*
X150003456Y-57562566D01*
X149866739Y-57601933D01*
X149741909Y-57641902D01*
X149638270Y-57679606D01*
X149612148Y-57690280D01*
X149541299Y-57718258D01*
X149467690Y-57744252D01*
X149422609Y-57758194D01*
X149361696Y-57777236D01*
X149305687Y-57798109D01*
X149287052Y-57806354D01*
X149246002Y-57825321D01*
X149186313Y-57851860D01*
X149120577Y-57880377D01*
X149117606Y-57881647D01*
X149053235Y-57909286D01*
X148969377Y-57945459D01*
X148877616Y-57985163D01*
X148801633Y-58018135D01*
X148725682Y-58050622D01*
X148660637Y-58077465D01*
X148612956Y-58096067D01*
X148589101Y-58103832D01*
X148588215Y-58103913D01*
X148565729Y-58115284D01*
X148542868Y-58136279D01*
X148503381Y-58165555D01*
X148468227Y-58179960D01*
X148424286Y-58196456D01*
X148397459Y-58212974D01*
X148363919Y-58233391D01*
X148317880Y-58252835D01*
X148316123Y-58253430D01*
X148261359Y-58278052D01*
X148214455Y-58307567D01*
X148118860Y-58374757D01*
X148031168Y-58423406D01*
X147986670Y-58441369D01*
X147937019Y-58464509D01*
X147897328Y-58494005D01*
X147895445Y-58496013D01*
X147856873Y-58529306D01*
X147812910Y-58557045D01*
X147775745Y-58578109D01*
X147754198Y-58594090D01*
X147753563Y-58594884D01*
X147736015Y-58608423D01*
X147696529Y-58634349D01*
X147642415Y-58667926D01*
X147619916Y-58681479D01*
X147553333Y-58721285D01*
X147489788Y-58759301D01*
X147441031Y-58788498D01*
X147433525Y-58792998D01*
X147381682Y-58823010D01*
X147318761Y-58857996D01*
X147287586Y-58874824D01*
X147235435Y-58904294D01*
X147192799Y-58931368D01*
X147176112Y-58944011D01*
X147146478Y-58963761D01*
X147131461Y-58968090D01*
X147110135Y-58978113D01*
X147071319Y-59004409D01*
X147023357Y-59041319D01*
X147022655Y-59041889D01*
X146974696Y-59078703D01*
X146906526Y-59128232D01*
X146826312Y-59184670D01*
X146742222Y-59242208D01*
X146719941Y-59257159D01*
X146637973Y-59312623D01*
X146559322Y-59367122D01*
X146491550Y-59415330D01*
X146442218Y-59451920D01*
X146431882Y-59460047D01*
X146376615Y-59501276D01*
X146307550Y-59548326D01*
X146245491Y-59587424D01*
X146177567Y-59631738D01*
X146100046Y-59687762D01*
X146028318Y-59744310D01*
X146020010Y-59751296D01*
X145967275Y-59794869D01*
X145923932Y-59828469D01*
X145896588Y-59847071D01*
X145891288Y-59849210D01*
X145872210Y-59859788D01*
X145837742Y-59886913D01*
X145811766Y-59909793D01*
X145744819Y-59970811D01*
X145693947Y-60016238D01*
X145650474Y-60053629D01*
X145605723Y-60090540D01*
X145584651Y-60107564D01*
X145529259Y-60153898D01*
X145465925Y-60209410D01*
X145423677Y-60247909D01*
X145374181Y-60292625D01*
X145329050Y-60330972D01*
X145300828Y-60352644D01*
X145268922Y-60392237D01*
X145261366Y-60443947D01*
X144076291Y-60443947D01*
X144077747Y-60430657D01*
X144056586Y-60377767D01*
X144009055Y-60316038D01*
X143995915Y-60301465D01*
X143906974Y-60200130D01*
X143841704Y-60116066D01*
X143801204Y-60050758D01*
X143789433Y-60021842D01*
X143780045Y-59976044D01*
X143772023Y-59913398D01*
X143765821Y-59842249D01*
X143761892Y-59770940D01*
X143760689Y-59707815D01*
X143762664Y-59661217D01*
X143768271Y-59639491D01*
X143768661Y-59639203D01*
X143782183Y-59617020D01*
X143794382Y-59575237D01*
X143796545Y-59563799D01*
X143807822Y-59526327D01*
X143831813Y-59484656D01*
X143872695Y-59432800D01*
X143934646Y-59364775D01*
X143937813Y-59361432D01*
X144036363Y-59265104D01*
X144138108Y-59182630D01*
X144250398Y-59109266D01*
X144380583Y-59040266D01*
X144536013Y-58970887D01*
X144555204Y-58962931D01*
X144594250Y-58954310D01*
X144623313Y-58968003D01*
X144645513Y-59007645D01*
X144663971Y-59076865D01*
X144667257Y-59093373D01*
X144685960Y-59167579D01*
X144712144Y-59244854D01*
X144726846Y-59279764D01*
X144751745Y-59335406D01*
X144771676Y-59384063D01*
X144778955Y-59404586D01*
X144796744Y-59434336D01*
X144832898Y-59477482D01*
X144880058Y-59525357D01*
X144886825Y-59531671D01*
X144942464Y-59583746D01*
X144996264Y-59635279D01*
X145036670Y-59675200D01*
X145036992Y-59675528D01*
X145084864Y-59714733D01*
X145132793Y-59729780D01*
X145150425Y-59730598D01*
X145193106Y-59726090D01*
X145219159Y-59715058D01*
X145220574Y-59713277D01*
X145239840Y-59693730D01*
X145277030Y-59663216D01*
X145323300Y-59628217D01*
X145369805Y-59595218D01*
X145407700Y-59570702D01*
X145428102Y-59561152D01*
X145447251Y-59549898D01*
X145480072Y-59521218D01*
X145500840Y-59500566D01*
X145544734Y-59460161D01*
X145604455Y-59411686D01*
X145667331Y-59365410D01*
X145669374Y-59363997D01*
X145731642Y-59321044D01*
X145791554Y-59279725D01*
X145836734Y-59248575D01*
X145838820Y-59247137D01*
X145882680Y-59215522D01*
X145917679Y-59187961D01*
X145923543Y-59182797D01*
X145958402Y-59154027D01*
X146015391Y-59110789D01*
X146088437Y-59057402D01*
X146171467Y-58998187D01*
X146258406Y-58937461D01*
X146343180Y-58879545D01*
X146419716Y-58828759D01*
X146437999Y-58816946D01*
X146520927Y-58763077D01*
X146608961Y-58704809D01*
X146689227Y-58650708D01*
X146729648Y-58622873D01*
X146901257Y-58506161D01*
X147065551Y-58400197D01*
X147215534Y-58309417D01*
X147296058Y-58263910D01*
X147362596Y-58226343D01*
X147420880Y-58191276D01*
X147462245Y-58164020D01*
X147473977Y-58154889D01*
X147507576Y-58130834D01*
X147558983Y-58100322D01*
X147601062Y-58078092D01*
X147660799Y-58045551D01*
X147715443Y-58011254D01*
X147742155Y-57991500D01*
X147779479Y-57964894D01*
X147808816Y-57951719D01*
X147811885Y-57951412D01*
X147839660Y-57941616D01*
X147876176Y-57918012D01*
X147876748Y-57917563D01*
X147910672Y-57895444D01*
X147967377Y-57863098D01*
X148038925Y-57824609D01*
X148117377Y-57784063D01*
X148194796Y-57745543D01*
X148263244Y-57713135D01*
X148314782Y-57690924D01*
X148323632Y-57687608D01*
X148367604Y-57665693D01*
X148421198Y-57630685D01*
X148450794Y-57608033D01*
X148501960Y-57571303D01*
X148551980Y-57543607D01*
X148575455Y-57534897D01*
X148610160Y-57522343D01*
X148666880Y-57497529D01*
X148737687Y-57464073D01*
X148812902Y-57426494D01*
X148906916Y-57380128D01*
X149011392Y-57331597D01*
X149111300Y-57287756D01*
X149168739Y-57264207D01*
X149252631Y-57229712D01*
X149337473Y-57192266D01*
X149410318Y-57157685D01*
X149439554Y-57142552D01*
X149515819Y-57102277D01*
X149596691Y-57061450D01*
X149675763Y-57023086D01*
X149746631Y-56990201D01*
X149802889Y-56965811D01*
X149838133Y-56952932D01*
X149844959Y-56951679D01*
X149870039Y-56940265D01*
X149902419Y-56912608D01*
X149904185Y-56910751D01*
X149943046Y-56878705D01*
X149980791Y-56860246D01*
X150006181Y-56845794D01*
X150049640Y-56813206D01*
X150104869Y-56767900D01*
X150165571Y-56715295D01*
X150225448Y-56660808D01*
X150278204Y-56609859D01*
X150307799Y-56578897D01*
X150360196Y-56515195D01*
X150416485Y-56436751D01*
X150473045Y-56349821D01*
X150526256Y-56260659D01*
X150572498Y-56175520D01*
X150608151Y-56100658D01*
X150629594Y-56042328D01*
X150634212Y-56014944D01*
X150640531Y-55979134D01*
X150655997Y-55932540D01*
X150657708Y-55928366D01*
X150671444Y-55887200D01*
X150667826Y-55855608D01*
X150647183Y-55818156D01*
X150605000Y-55773062D01*
X150542248Y-55745402D01*
X150538101Y-55744267D01*
X150463139Y-55710774D01*
X150384320Y-55652782D01*
X150309610Y-55577557D01*
X150246973Y-55492360D01*
X150230600Y-55463842D01*
X150206013Y-55415430D01*
X150190304Y-55374835D01*
X150181510Y-55331948D01*
X150177665Y-55276660D01*
X150176806Y-55198862D01*
X150176811Y-55187065D01*
X150178000Y-55101767D01*
X150182481Y-55040041D01*
X150191905Y-54991610D01*
X150207924Y-54946197D01*
X150219834Y-54919449D01*
X150277392Y-54820733D01*
X150354338Y-54735207D01*
X150457199Y-54655312D01*
X150517218Y-54619770D01*
X150580665Y-54594025D01*
X150653870Y-54576944D01*
X150743162Y-54567395D01*
X150854873Y-54564247D01*
X150959667Y-54565461D01*
G37*
G04 #@! TD*
%LPC*%
D12*
G04 #@! TO.C,J5*
X152290000Y-45000000D03*
D13*
X149750000Y-45000000D03*
G04 #@! TD*
D14*
G04 #@! TO.C,J2A1*
X182150000Y-96910000D03*
X179610000Y-96910000D03*
X182150000Y-94370000D03*
X179610000Y-94370000D03*
X182150000Y-91830000D03*
X179610000Y-91830000D03*
X182150000Y-89290000D03*
X179610000Y-89290000D03*
X182150000Y-86750000D03*
X179610000Y-86750000D03*
X182150000Y-84210000D03*
X179610000Y-84210000D03*
X182150000Y-81670000D03*
X179610000Y-81670000D03*
X182150000Y-79130000D03*
X179610000Y-79130000D03*
X182150000Y-76590000D03*
X179610000Y-76590000D03*
X182150000Y-74050000D03*
X179610000Y-74050000D03*
X182150000Y-71510000D03*
X179610000Y-71510000D03*
X182150000Y-68970000D03*
X179610000Y-68970000D03*
X182150000Y-66430000D03*
X179610000Y-66430000D03*
X182150000Y-63890000D03*
X179610000Y-63890000D03*
X182150000Y-61350000D03*
X179610000Y-61350000D03*
X182150000Y-58810000D03*
X179610000Y-58810000D03*
X182150000Y-56270000D03*
X179610000Y-56270000D03*
X182150000Y-53730000D03*
X179610000Y-53730000D03*
X182150000Y-51190000D03*
D15*
X179610000Y-51190000D03*
D14*
X121190000Y-96910000D03*
X118650000Y-96910000D03*
X121190000Y-94370000D03*
X118650000Y-94370000D03*
X121190000Y-91830000D03*
X118650000Y-91830000D03*
X121190000Y-89290000D03*
X118650000Y-89290000D03*
X121190000Y-86750000D03*
X118650000Y-86750000D03*
X121190000Y-84210000D03*
X118650000Y-84210000D03*
X121190000Y-81670000D03*
X118650000Y-81670000D03*
X121190000Y-79130000D03*
X118650000Y-79130000D03*
X121190000Y-76590000D03*
X118650000Y-76590000D03*
X121190000Y-74050000D03*
X118650000Y-74050000D03*
X121190000Y-71510000D03*
X118650000Y-71510000D03*
X121190000Y-68970000D03*
X118650000Y-68970000D03*
X121190000Y-66430000D03*
X118650000Y-66430000D03*
X121190000Y-63890000D03*
X118650000Y-63890000D03*
X121190000Y-61350000D03*
X118650000Y-61350000D03*
X121190000Y-58810000D03*
X118650000Y-58810000D03*
X121190000Y-56270000D03*
X118650000Y-56270000D03*
X121190000Y-53730000D03*
X118650000Y-53730000D03*
X121190000Y-51190000D03*
D15*
X118650000Y-51190000D03*
G04 #@! TD*
D16*
G04 #@! TO.C,J1*
X163700000Y-124487500D03*
D17*
X158700000Y-124487500D03*
G04 #@! TD*
D18*
G04 #@! TO.C,H2*
X191000000Y-46700000D03*
G04 #@! TD*
G04 #@! TO.C,H3*
X111000000Y-124500000D03*
G04 #@! TD*
G04 #@! TO.C,H1*
X111000000Y-46700000D03*
G04 #@! TD*
D13*
G04 #@! TO.C,J4*
X151480000Y-120300000D03*
D12*
X148940000Y-120300000D03*
X146400000Y-120300000D03*
X143860000Y-120300000D03*
X141320000Y-120300000D03*
X138780000Y-120300000D03*
G04 #@! TD*
D17*
G04 #@! TO.C,J2*
X189000000Y-107200000D03*
D16*
X189000000Y-112200000D03*
G04 #@! TD*
D18*
G04 #@! TO.C,H4*
X191000000Y-124500000D03*
G04 #@! TD*
D17*
G04 #@! TO.C,J3*
X113200000Y-112350000D03*
D16*
X113200000Y-107350000D03*
G04 #@! TD*
%LPD*%
M02*
